/* XPM */
static char * ball1_xpm[] = {
"64 64 308 2",
"  	c #6E5967",
". 	c #6D5967",
"+ 	c #715A68",
"@ 	c #765B6A",
"# 	c #7B5D6B",
"$ 	c #805F6C",
"% 	c #82606D",
"& 	c #835F6F",
"* 	c #906473",
"= 	c #9B6875",
"- 	c #A06B76",
"; 	c #9F6A78",
"> 	c #A96E7A",
", 	c #AD707B",
"' 	c #AC707B",
") 	c #AE707B",
"! 	c #8F6473",
"~ 	c #9A6875",
"{ 	c #9F6A76",
"] 	c #9F6B76",
"^ 	c #755B6A",
"/ 	c #7D5E6B",
"( 	c #745B69",
"_ 	c #946672",
": 	c #6C5967",
"< 	c #A06A76",
"[ 	c #AE717B",
"} 	c #AF737C",
"| 	c #B0767E",
"1 	c #B27980",
"2 	c #B37B81",
"3 	c #B37980",
"4 	c #A26E78",
"5 	c #83616D",
"6 	c #B3787F",
"7 	c #B78084",
"8 	c #BB8888",
"9 	c #BE8C8B",
"0 	c #283C3C",
"a 	c #BD8989",
"b 	c #C1908E",
"c 	c #C39490",
"d 	c #273C3C",
"e 	c #B1767E",
"f 	c #C1918E",
"g 	c #203434",
"h 	c #223636",
"i 	c #263A3A",
"j 	c #C3938F",
"k 	c #213636",
"l 	c #233939",
"m 	c #253B3B",
"n 	c #273B3B",
"o 	c #303939",
"p 	c #3E3838",
"q 	c #3E3938",
"r 	c #313B3B",
"s 	c #AA6F7A",
"t 	c #C08F8D",
"u 	c #C1908D",
"v 	c #C2928F",
"w 	c #C08E8C",
"x 	c #213535",
"y 	c #243838",
"z 	c #3C3434",
"A 	c #56302F",
"B 	c #573231",
"C 	c #BA8587",
"D 	c #BA8586",
"E 	c #2C3333",
"F 	c #3A3232",
"G 	c #263B3B",
"H 	c #552E2D",
"I 	c #552D2C",
"J 	c #383130",
"K 	c #183232",
"L 	c #163232",
"M 	c #1C3434",
"N 	c #233838",
"O 	c #C49792",
"P 	c #C59994",
"Q 	c #C19390",
"R 	c #BD8C8B",
"S 	c #BB8788",
"T 	c #C69A95",
"U 	c #3A3231",
"V 	c #3B3232",
"W 	c #2D3535",
"X 	c #C49692",
"Y 	c #CAA39B",
"Z 	c #CDA99F",
"` 	c #CBA79E",
" .	c #C8A099",
"..	c #C39591",
"+.	c #CBA59C",
"@.	c #563030",
"#.	c #183030",
"$.	c #142E2E",
"%.	c #4D5656",
"&.	c #7C8080",
"*.	c #8F9292",
"=.	c #173030",
"-.	c #1F3636",
";.	c #BC8889",
">.	c #C39390",
",.	c #C69B95",
"'.	c #CEABA0",
").	c #C79B95",
"!.	c #C49490",
"~.	c #1F3434",
"{.	c #253838",
"].	c #132E2E",
"^.	c #1E3434",
"/.	c #7C8181",
"(.	c #C4C6C6",
"_.	c #E1E1E1",
":.	c #7D8181",
"<.	c #C79D96",
"[.	c #6E2826",
"}.	c #213737",
"|.	c #B5B7B7",
"1.	c #E9E9E9",
"2.	c #FFFFFF",
"3.	c #7D8282",
"4.	c #4F5858",
"5.	c #253A3A",
"6.	c #AE8283",
"7.	c #B18686",
"8.	c #B18786",
"9.	c #B18787",
"0.	c #B18887",
"a.	c #B28887",
"b.	c #243939",
"c.	c #203636",
"d.	c #1F3535",
"e.	c #163030",
"f.	c #F9F9F9",
"g.	c #1D3535",
"h.	c #8A6A72",
"i.	c #8B6C73",
"j.	c #0D2B2B",
"k.	c #968486",
"l.	c #948183",
"m.	c #927C7E",
"n.	c #8F7579",
"o.	c #8C7075",
"p.	c #8C7076",
"q.	c #91797B",
"r.	c #8B6C74",
"s.	c #896972",
"t.	c #84636E",
"u.	c #735A68",
"v.	c #102D2D",
"w.	c #C6B5AC",
"x.	c #C4B0A7",
"y.	c #BFA59D",
"z.	c #BA9993",
"A.	c #B48E8B",
"B.	c #BDA098",
"C.	c #AD8082",
"D.	c #A4727A",
"E.	c #7C5D6A",
"F.	c #6D5866",
"G.	c #6C5866",
"H.	c #3B3433",
"I.	c #2F3838",
"J.	c #253939",
"K.	c #D6BEB3",
"L.	c #D4B9AF",
"M.	c #D0AFA5",
"N.	c #CBA49C",
"O.	c #C69A94",
"P.	c #CEAAA0",
"Q.	c #B78285",
"R.	c #A5737B",
"S.	c #562F2E",
"T.	c #1C3232",
"U.	c #4D5757",
"V.	c #7E8383",
"W.	c #B5B8B8",
"X.	c #CBA59F",
"Y.	c #CAA39D",
"Z.	c #C89F99",
"`.	c #C59792",
" +	c #C89D96",
".+	c #C49590",
"++	c #AE8183",
"@+	c #6D5867",
"#+	c #C5C6C6",
"$+	c #E1E2E2",
"%+	c #193030",
"&+	c #4E5858",
"*+	c #909494",
"=+	c #B08484",
"-+	c #1D3232",
";+	c #122E2E",
">+	c #AB7B7F",
",+	c #876670",
"'+	c #C1928F",
")+	c #BF8E8C",
"!+	c #BD8B8A",
"~+	c #BD8B8B",
"{+	c #C1928E",
"]+	c #BE908D",
"^+	c #B68A89",
"/+	c #AF8384",
"(+	c #AA7B7F",
"_+	c #9B6F77",
":+	c #80616D",
"<+	c #B88285",
"[+	c #B37A81",
"}+	c #B68B89",
"|+	c #9C797C",
"1+	c #8A6C73",
"2+	c #80626D",
"3+	c #755C69",
"4+	c #203535",
"5+	c #223737",
"6+	c #C0908E",
"7+	c #BB8A8A",
"8+	c #B68286",
"9+	c #B47D83",
"0+	c #B98587",
"a+	c #C29591",
"b+	c #BB9490",
"c+	c #A18483",
"d+	c #8F7679",
"e+	c #8C6F75",
"f+	c #8B6D74",
"g+	c #846871",
"h+	c #765F6B",
"i+	c #C49893",
"j+	c #C79F98",
"k+	c #C59D97",
"l+	c #C0928F",
"m+	c #C29491",
"n+	c #C9A39B",
"o+	c #C9A89E",
"p+	c #C2A39A",
"q+	c #BA9A93",
"r+	c #A37D7F",
"s+	c #846870",
"t+	c #2B3A3A",
"u+	c #303737",
"v+	c #303434",
"w+	c #283434",
"x+	c #233737",
"y+	c #313737",
"z+	c #333434",
"A+	c #3C2B2B",
"B+	c #402525",
"C+	c #3D2B2B",
"D+	c #422323",
"E+	c #A5747B",
"F+	c #85636E",
"G+	c #A16D78",
"H+	c #422424",
"I+	c #491414",
"J+	c #6C5766",
"K+	c #8E7379",
"L+	c #937E81",
"M+	c #745A69",
"N+	c #825E6E",
"O+	c #8F6372",
"P+	c #A16D77",
"Q+	c #A5737A",
"R+	c #B89592",
"S+	c #C2ABA4",
"T+	c #C7B5AD",
"U+	c #C8A09A",
"V+	c #D1B4AB",
"W+	c #C69994",
"X+	c #C9A19B",
"Y+	c #C49591",
"Z+	c #AB6F7B",
"`+	c #A86E7A",
" @	c #A66C79",
".@	c #A66D79",
"+@	c #AF7980",
"@@	c #BC8B8B",
"#@	c #BF918E",
"$@	c #C39590",
"%@	c #83606D",
"&@	c #A06A78",
"*@	c #996776",
"=@	c #996777",
"-@	c #A6767E",
";@	c #B98A8A",
">@	c #9D797C",
",@	c #765F6A",
"'@	c #A36B77",
")@	c #7A5D6B",
"!@	c #8F6470",
"~@	c #A36C77",
"{@	c #AB7C7F",
"]@	c #876770",
"^@	c #7E5E6B",
"/@	c #AC6F7B",
"(@	c #C2938F",
"_@	c #AD8183",
":@	c #C08E8D",
"<@	c #785C6B",
"[@	c #8A6172",
"}@	c #9A6777",
"|@	c #A76D7A",
"1@	c #B0747D",
"2@	c #B47B81",
"3@	c #825F6C",
"                                                                                                                                ",
"                                                                                                                                ",
"                                                                                                                                ",
"                                                                                                                                ",
"                                                                                                                                ",
"                          . . . . . . . . . . . . . . . . . . . . . . . . . . . . . . . . . . . . . . . . . . . . . .           ",
"                                                                                                                                ",
"                      + @ # $ % % % % % % % % % % % % % % % % % % % % % % % % % % % % % % % % % % % % % % % % % % $ # @ +       ",
"                      @ & * = - - - - - - - - - - - - - - - - - - - - - - - - - - - - - - - - - - - - - - - - - - = * & @       ",
"                  .   # * ; > , , , , , , , , , , , , , , , , , , , , , , , , , , , , , , , , , , , , , , , , , , > ; * #   .   ",
"                  .   $ = > ' ) ) ) ) ) ) ) ) ) ) ) ) ) ) ) ) ) ) ) ) ) ) ) ) ) ) ) ) ) ) ) ) ) ) ) ) ) ) ) ) ) ) ' > = $   .   ",
"                  .   % - , ) , , , , , , , , , , , , , , , , , , , , , , , , , , , , , , , , , , , , , , , , , , ) , - %   .   ",
"                  .   % - , ) , , , , , , , , , , , , , , , , , , , , , , , , , , , , , , , , , , , , , , , , , , ) , - %   .   ",
"                  .   $ = > ' ) ) ) ) ) ) ) ) ) ) ) ) ) ) ) ) ) ) ) ) ) ) ) ) ) ) ) ) ) ) ) ) ) ) ) ) ) ) ) ) ) ) ' > = $   .   ",
"                  .   # * ; > , , , , , , , , , , , , , , , , , , , , , , , , , , , , , , , , , , , , , , , , , , > ; * #   .   ",
"                      @ & ! ~ { { { { { { { { { { { { { { { ] - - - ] { { { { { { { { { { { { { { { { { { { { { { ~ ! & ^ . . . ",
"                      + @ # $ % % % % % % % % % % % % % % % % % % % % % % % % % % % % % % % % % % % % % % % % % % $ # @ +       ",
"                      + @ # $ % % % % % % % % % % % % % % / (     + @ # $ % % % % % % % % % % % % % % % % % % % % % % % % % % % ",
"                      @ & ! ~ { { { { { { { { { { { { ] { _ / . : ^ & ! ~ { { { { { { { { { { { { { { { { { { { { { { ] - - - - ",
"                  .   # * ; > , , , , , , , , , , , , , , < % . . # * ; > , , , , , , , , , , , , , , , , , , , , , , , , , , , ",
"                  .   $ = > ' ) ) ) ) ) ) ) ) ) ) ) ) ) ) - % . . $ = > ' ) ) ) ) ) ) ) ) ) ) ) ) ) ) ) ) ) ) ) ) ) ) ) ) ) ) ) ",
"                  .   % - , ) , , , , , , [ } | 1 2 2 3 | 4 5 . . % - , ) , , [ } | 1 2 2 2 2 2 2 2 2 2 2 2 2 2 2 2 2 2 2 2 2 2 ",
"                  .   % - , ) , , , , , , } 6 7 8 9 0 0 0 0 0 0 0 0 - , ) , , } 6 7 8 9 9 9 9 9 9 9 9 9 9 9 9 9 9 9 9 9 9 9 9 9 ",
"                  .   % - , ) , , , , , , | 7 a b c 0 0 0 0 d d 0 0 = > ' , , e 7 a f c c c c c c c c c c c c c c c c c c c c c ",
"                  .   % - , ) , , , , , g h i 0 0 0 0 0 0 0 0 0 0 0 0 0 0 0 , 1 8 b j c c c c c c c c c c c c c c c c c c c c c ",
"                  .   % - , ) , , , , , g k l m d 0 0 d n o p q r 0 0 0 0 0 s 1 8 t t u v v u w t u v c c c c c c c c c c c c c ",
"                  .   % - , ) , , , , , g x h y n 0 0 m y z A B q 0 d 0 0 0 0 0 7 C C a b b a D D a b c c c c c c c c c c c c c ",
"                  .   % - , ) , , , , , g E F z o 0 G l h F H I J K L M N n 0 0 7 D C 9 O P Q R S 9 O T O c c c c c c c c c c c ",
"                  .   % - , ) , , , , , g U H A p n N k g E U V W h h h h y n 0 8 w t X Y Z `  ...O Y +.T c c c c c c c c c c c ",
"                  .   $ = > ' ) ) ) ) , g U H @.p n N h x #.$.%.&.*.*.&.%.=.-.0 ;.b >.,.+.'.'.+.,.).+.+.).!.!.!.!.!.!.!.!.!.!.!.",
"                  .   # * ; > , , , g ~.g E F z o 0 G {.h ].^./.(._._.(.:.h M 0 0 0 f X ,.<.<.T X O [.[.X c c c c c c c c c c c ",
"                  . . ^ & ! ~ { { { g x h h x h {.i i }.h %.:.|.1.2.2.1.|.3.4.n 5.0 6.7.8.8.8.8.8.8.[.[.8.8.8.8.8.8.9.0.a.a.a.a.",
"                      + @ # $ % % % g h {.b.c.d.k h h e.x &.(.1.f.2.2.f.1.(./.y g.0 h.i.i.i.i.i.i.i.[.[.i.i.i.i.i.i.i.i.i.i.i.i.",
"              + @ # $ % % % % % % % g h {.b.c.d.k h x j.g *._.2.2.2.2.2.2._.*.h e.i k.l.m.n.o.p.n.q.[.[.p.i.i.r.i.s.t./ u.      ",
"              @ & * = - - { { { { { g x h h x h {.{.h j.g *._.2.2.2.2.2.2._.*.x v.h w.x.y.z.A.A.z.B.[.[.A.8.8.9.8.C.D._ E.F.G.F.",
"          .   # * ; > , , , , , , , g ~.g E F H.I.J.k $.g /.(.1.f.2.2.f.1.(./.g $.g K.L.M.N.O.O.N.P.[.[.O.c c c c w Q.R.t.  .   ",
"          .   $ = > ' ) ) ) ) ) ) ) g ^.g U H S.H.h d.T.g U.V.W.1.2.2.1.W.V.U.g T.g X.Y.Z.).`.`.[.[. +).`.!.!..+!.j w ++s.  @+  ",
"          .   % - , ) , , , , , , , g ^.g F H H F g ^.g g e.J.V.#+$+$+#+V.J.e.g g g c c c c c c [.[.c c c c c c c .+c a.r.  F.  ",
"          .   % - , ) , , , , , , , , , g E F F E g ~.g g %+e.&+3.*+*+3.&+e.%+g j j j >.c c c c c c c c c c c c c .+c a.r.  F.  ",
"          .   % - , ) , , , , , , , , , g g g g g x h h x g g h J.i i J.h g g g c c c c c c c c c c c c c !.!..+!.c f =+h.  @+  ",
"          .   % - , ) , , , , , , , , , g ~.~.^.~.h J.J.h g g -+e.;+;+e.-+g g g c c c c c c c c c c c c c c c c c f a >+,+  @+  ",
"          .   % - , ) , , , , , , , , , g g g g g h J.J.h g g g g g g g g g g g c '+)+)+'+v )+!+~+)+{+]+^+8.8.9.8./+(+_+:+  .   ",
"          .   % - , ) , , , , , , , , , , 2 g g g x h h x g g g g g g g g g c c c )+Q.<+)+)+<+[+[+<+)+}+|+i.1+r.i.h.,+2+3+      ",
"          .   % - , ) , , , , , , , , , , 2 h h h k 4+g g g g g g x h h h 5+c c c )+Q.<+)+6+7+8+9+0+a+b+c+d+e+i.i.f+f+g+h+      ",
"          .   % - , ) , , , , , , , , , , 2 i i i J.h g g g g g g h J.i i i c c c '+)+)+'+i+j+k+l+m+n+o+p+q+A.8.8.a.9.r+s+  @+  ",
"          .   $ = > ' ) ) ) ) ) ) ) ) , ) 3 0 t+u+v+w+g g g g g g x+i t+y+z+!.!.!.!.!.!.!.).+.+.).,.+.'.'.+.,..+!.j w ++s.  @+  ",
"          .   # * ; > , , , , , , , , , , | 0 y+A+B+c c c c c c c c n y+C+D+c c c c c c c X ,.,.O O T <.<.).`..+!.t <+E+F+  .   ",
"              @ & * = - - { { { { { { { { G+0 z+H+I+9.8.9.0.a.a.a.a.0 z+H+I+0.0.9.9.8.8.8.8.8.8.8.8.8.8.8.8.8.8.8.C.D._ E.G.J+J+",
"              + @ # $ % % % % % % % % % % 5 F+,+h.i.r.i.i.i.i.i.i.i.i.i.i.i.i.i.i.i.i.i.i.i.i.i.i.i.i.i.i.i.i.r.i.s.t./ u.      ",
"                      + @ # $ % % % % % % 5 F+,+h.r.r.s.t./ u.    + @ # $ % % 5 F+,+h.i.r.i.i.p.d+q.q.n.p.p.n.d+p.i.i.i.i.K+L+k.",
"                  . . ^ & ! ~ { { { { { { G+R.(+/+9.9.C.D._ E.G.G.M+N+O+~ { { P+Q+(+/+8.9.8.8.A.q+B.B.z.A.A.z.q+A.8.8.8.a.R+S+T+",
"                  .   # * ; > , , , , , , | 7 a b c c w Q.R.t.. . # * ; > , , | 7 a b c c c c O.+.P.P.N.O.T N.+.T c c >.c U+V+K.",
"                  .   $ = > ' ) ) ) ) , ) 3 ;.f >..+.+j w ++s.. @+$ = > ' , ) 3 ;.f >.!..+!.!.`.). + +).`.`.).).`.!.!.!.!.W+X+X.",
"                  .   % - , ) , , , , , , 2 9 c .+!.!.Y+!.a.f+. F.% - , ) , , 2 9 c c c c c c c c c c c c c c c c c c c c c c c ",
"                  .   % - , ) , , , , , , 2 9 c c c c .+c a.r.. F.% - , ) , , 2 9 c c c c c c c c c c c c c c c c c c c c c >.j ",
"                  .   % - Z+> `+Z+Z+`+ @.@+@@@#@}+8.8.a.9.r+s+. @+$ = > ' , , 2 9 c $@c c c c c c c c c c c c c c c c c c c c c ",
"                  .   %@- `+&@; `+`+; *@=@-@;@}+>@i.1+f+i.s+,@.   # * ; > , , 2 9 c c c c c c c c c c c c c c c c c c c c c c c ",
"                  .   %@- `+&@; `+`+; *@=@-@;@}+>@r.1+h.,+2+3+    @ & ! ~ '@s 1 8 t t u v v u u v c c c c c c c c c c c c c c c ",
"                  .   % - Z+> `+Z+Z+`+ @.@+@@@#@}+9.8./+(+_+:+  . + @ )@$ !@~@e 7 D C a b b a a b c c c c c c c c c c c c c c c ",
"                  .   % - , ) , , , , , , 2 9 c c c c f a {@]@  @+( ^@% %@!@~@e 7 D C 9 O O 9 9 O <.<.T X c c c c c c c c c c c ",
"                  .   % - , ) , , , , , , 2 9 c .+.+!.c f =+h.. @+/ _ { - '@s 1 8 w t O Y Y O X Y P.P.+.O.c c c c c c c c c c c ",
"                  .   $ ~ `+/@, , , , , , 1 8 b (@c c v )+_@s.. @+$ ~ `+/@, , 1 8 u (@T +.N.T O.N.P.P.+.O.c c c c c c c c c c c ",
"                  .   # * ; > , , , , , , | 7 a b c c :@Q.R.t.. . # * &@> , , e 7 a f O ,.O.O X O.<.<.T X c c c c c c c c c c c ",
"                      <@[@}@|@, , , , , , 1@2@C t c c 9 2 - 3@  . <@[@}@|@, , 1@2@C t c c c c c c c c c c c c c c c c c c c c c "};
