/* XPM */
static char * ball0_xpm[] = {
"64 64 296 2",
"  	c #6E5967",
". 	c #6D5967",
"+ 	c #715A68",
"@ 	c #765B6A",
"# 	c #7B5D6B",
"$ 	c #805F6C",
"% 	c #82606D",
"& 	c #835F6F",
"* 	c #906473",
"= 	c #9B6875",
"- 	c #A06B76",
"; 	c #9F6A78",
"> 	c #A96E7A",
", 	c #AD707B",
"' 	c #AC707B",
") 	c #AE707B",
"! 	c #8F6473",
"~ 	c #9A6875",
"{ 	c #9F6A76",
"] 	c #9F6B76",
"^ 	c #755B6A",
"/ 	c #7D5E6B",
"( 	c #745B69",
"_ 	c #283C3C",
": 	c #273C3C",
"< 	c #AE717B",
"[ 	c #AF737C",
"} 	c #B0767E",
"| 	c #243A3A",
"1 	c #253B3B",
"2 	c #273B3B",
"3 	c #303939",
"4 	c #3E3838",
"5 	c #3E3938",
"6 	c #313B3B",
"7 	c #B27980",
"8 	c #B37B81",
"9 	c #203434",
"0 	c #213535",
"a 	c #223636",
"b 	c #243838",
"c 	c #3C3434",
"d 	c #56302F",
"e 	c #573231",
"f 	c #BB8888",
"g 	c #BE8C8B",
"h 	c #6E2826",
"i 	c #2C3333",
"j 	c #3A3232",
"k 	c #263B3B",
"l 	c #233939",
"m 	c #552E2D",
"n 	c #552D2C",
"o 	c #383130",
"p 	c #183232",
"q 	c #163232",
"r 	c #1C3434",
"s 	c #233838",
"t 	c #C1918E",
"u 	c #C39490",
"v 	c #3A3231",
"w 	c #213636",
"x 	c #3B3232",
"y 	c #2D3535",
"z 	c #C3938F",
"A 	c #563030",
"B 	c #183030",
"C 	c #142E2E",
"D 	c #4D5656",
"E 	c #7C8080",
"F 	c #8F9292",
"G 	c #173030",
"H 	c #1F3636",
"I 	c #C08F8D",
"J 	c #C1908D",
"K 	c #C2928F",
"L 	c #C08E8C",
"M 	c #1F3434",
"N 	c #253838",
"O 	c #132E2E",
"P 	c #1E3434",
"Q 	c #7C8181",
"R 	c #C4C6C6",
"S 	c #E1E1E1",
"T 	c #7D8181",
"U 	c #C1908E",
"V 	c #BD8989",
"W 	c #BA8586",
"X 	c #263A3A",
"Y 	c #213737",
"Z 	c #B5B7B7",
"` 	c #E9E9E9",
" .	c #FFFFFF",
"..	c #7D8282",
"+.	c #4F5858",
"@.	c #253A3A",
"#.	c #C49792",
"$.	c #C59994",
"%.	c #C19390",
"&.	c #BD8C8B",
"*.	c #BB8788",
"=.	c #C69A95",
"-.	c #243939",
";.	c #203636",
">.	c #1F3535",
",.	c #163030",
"'.	c #F9F9F9",
").	c #1D3535",
"!.	c #CAA39B",
"~.	c #CDA99F",
"{.	c #CBA79E",
"].	c #C8A099",
"^.	c #C39591",
"/.	c #CBA59C",
"(.	c #0D2B2B",
"_.	c #CEABA0",
":.	c #C69B95",
"<.	c #C79B95",
"[.	c #C49490",
"}.	c #102D2D",
"|.	c #C79D96",
"1.	c #C49692",
"2.	c #C69A94",
"3.	c #3B3433",
"4.	c #2F3838",
"5.	c #253939",
"6.	c #B18786",
"7.	c #B18787",
"8.	c #B18887",
"9.	c #B28887",
"0.	c #562F2E",
"a.	c #1C3232",
"b.	c #4D5757",
"c.	c #7E8383",
"d.	c #B5B8B8",
"e.	c #8B6C73",
"f.	c #C5C6C6",
"g.	c #E1E2E2",
"h.	c #927C7E",
"i.	c #8F7579",
"j.	c #8C7075",
"k.	c #8C7076",
"l.	c #91797B",
"m.	c #8F7679",
"n.	c #8B6C74",
"o.	c #896972",
"p.	c #84636E",
"q.	c #735A68",
"r.	c #A16D78",
"s.	c #193030",
"t.	c #4E5858",
"u.	c #909494",
"v.	c #C6B5AC",
"w.	c #C4B0A7",
"x.	c #BFA59D",
"y.	c #BA9993",
"z.	c #B48E8B",
"A.	c #BDA098",
"B.	c #BA9A93",
"C.	c #AD8082",
"D.	c #A4727A",
"E.	c #946672",
"F.	c #7C5D6A",
"G.	c #6D5866",
"H.	c #6C5866",
"I.	c #D6BEB3",
"J.	c #D4B9AF",
"K.	c #D0AFA5",
"L.	c #CBA49C",
"M.	c #CEAAA0",
"N.	c #B78285",
"O.	c #A5737B",
"P.	c #B37980",
"Q.	c #1D3232",
"R.	c #122E2E",
"S.	c #CBA59F",
"T.	c #CAA39D",
"U.	c #C89F99",
"V.	c #C59792",
"W.	c #C89D96",
"X.	c #C49590",
"Y.	c #AE8183",
"Z.	c #6D5867",
"`.	c #C39390",
" +	c #B08484",
".+	c #8A6A72",
"++	c #AB7B7F",
"@+	c #876670",
"#+	c #233737",
"$+	c #C1928F",
"%+	c #BF8E8C",
"&+	c #BD8B8A",
"*+	c #BD8B8B",
"=+	c #C1928E",
"-+	c #BE908D",
";+	c #B68A89",
">+	c #AF8384",
",+	c #AA7B7F",
"'+	c #9B6F77",
")+	c #80616D",
"!+	c #B88285",
"~+	c #B37A81",
"{+	c #B68B89",
"]+	c #9C797C",
"^+	c #8A6C73",
"/+	c #80626D",
"(+	c #755C69",
"_+	c #2B3A3A",
":+	c #303737",
"<+	c #333434",
"[+	c #C0908E",
"}+	c #BB8A8A",
"|+	c #B68286",
"1+	c #B47D83",
"2+	c #B98587",
"3+	c #C29591",
"4+	c #BB9490",
"5+	c #A18483",
"6+	c #8C6F75",
"7+	c #8B6D74",
"8+	c #846871",
"9+	c #765F6B",
"0+	c #313737",
"a+	c #3C2B2B",
"b+	c #422323",
"c+	c #C49893",
"d+	c #C79F98",
"e+	c #C59D97",
"f+	c #C0928F",
"g+	c #C29491",
"h+	c #C9A39B",
"i+	c #C9A89E",
"j+	c #C2A39A",
"k+	c #A37D7F",
"l+	c #846870",
"m+	c #BC8889",
"n+	c #422424",
"o+	c #491414",
"p+	c #B78084",
"q+	c #A5747B",
"r+	c #85636E",
"s+	c #6C5766",
"t+	c #83616D",
"u+	c #8E7379",
"v+	c #937E81",
"w+	c #968486",
"x+	c #745A69",
"y+	c #825E6E",
"z+	c #8F6372",
"A+	c #A16D77",
"B+	c #A5737A",
"C+	c #B89592",
"D+	c #C2ABA4",
"E+	c #C7B5AD",
"F+	c #C8A09A",
"G+	c #D1B4AB",
"H+	c #C69994",
"I+	c #C9A19B",
"J+	c #C49591",
"K+	c #AB6F7B",
"L+	c #A86E7A",
"M+	c #A66C79",
"N+	c #A66D79",
"O+	c #AF7980",
"P+	c #BC8B8B",
"Q+	c #BF918E",
"R+	c #C39590",
"S+	c #83606D",
"T+	c #A06A78",
"U+	c #996776",
"V+	c #996777",
"W+	c #A6767E",
"X+	c #B98A8A",
"Y+	c #9D797C",
"Z+	c #765F6A",
"`+	c #A36B77",
" @	c #AA6F7A",
".@	c #7A5D6B",
"+@	c #8F6470",
"@@	c #A36C77",
"#@	c #B1767E",
"$@	c #BA8587",
"%@	c #AB7C7F",
"&@	c #876770",
"*@	c #7E5E6B",
"=@	c #AC6F7B",
"-@	c #C2938F",
";@	c #AD8183",
">@	c #C08E8D",
",@	c #785C6B",
"'@	c #8A6172",
")@	c #9A6777",
"!@	c #A76D7A",
"~@	c #B0747D",
"{@	c #B47B81",
"]@	c #825F6C",
"                                                                                                                                ",
"                                                                                                                                ",
"                                                                                                                                ",
"                                                                                                                                ",
"                                                                                                                                ",
"                          . . . . . . . . . . . . . . . . . . . . . . . . . . . . . . . . . . . . . . . . . . . . . .           ",
"                                                                                                                                ",
"                      + @ # $ % % % % % % % % % % % % % % % % % % % % % % % % % % % % % % % % % % % % % % % % % % $ # @ +       ",
"                      @ & * = - - - - - - - - - - - - - - - - - - - - - - - - - - - - - - - - - - - - - - - - - - = * & @       ",
"                  .   # * ; > , , , , , , , , , , , , , , , , , , , , , , , , , , , , , , , , , , , , , , , , , , > ; * #   .   ",
"                  .   $ = > ' ) ) ) ) ) ) ) ) ) ) ) ) ) ) ) ) ) ) ) ) ) ) ) ) ) ) ) ) ) ) ) ) ) ) ) ) ) ) ) ) ) ) ' > = $   .   ",
"                  .   % - , ) , , , , , , , , , , , , , , , , , , , , , , , , , , , , , , , , , , , , , , , , , , ) , - %   .   ",
"                  .   % - , ) , , , , , , , , , , , , , , , , , , , , , , , , , , , , , , , , , , , , , , , , , , ) , - %   .   ",
"                  .   $ = > ' ) ) ) ) ) ) ) ) ) ) ) ) ) ) ) ) ) ) ) ) ) ) ) ) ) ) ) ) ) ) ) ) ) ) ) ) ) ) ) ) ) ) ' > = $   .   ",
"                  .   # * ; > , , , , , , , , , , , , , , , , , , , , , , , , , , , , , , , , , , , , , , , , , , > ; * #   .   ",
"                      @ & ! ~ { { { { { { { { { { { { { { { ] - - - ] { { { { { { { { { { { { { { { { { { { { { { ~ ! & ^ . . . ",
"                      + @ # $ % % % % % % % % % % % % % % % % % % % % % % % % % % % % % % % % % % % % % % % % % % $ # @ +       ",
"                      + @ # $ % % % % % % % % % % % % % % / (     + @ # $ % % % % % % % % % % % % % % % % % % % % % % % % % % % ",
"                      @ & ! ~ { { { { { { { { { { { { ] _ _ _ _ _ _ _ _ ~ { { { { { { { { { { { { { { { { { { { { { { ] - - - - ",
"                  .   # * ; > , , , , , , , , , , , , , _ _ _ _ : : _ _ > , , , , , , , , , , , , , , , , , , , , , , , , , , , ",
"                  .   $ = > ' ) ) ) ) ) ) ) ) ) _ _ _ _ _ _ _ _ _ _ _ _ _ _ _ _ ) ) ) ) ) ) ) ) ) ) ) ) ) ) ) ) ) ) ) ) ) ) ) ) ",
"                  .   % - , ) , , , , , , < [ } | 1 : _ _ : 2 3 4 5 6 _ _ _ _ _ [ } 7 8 8 8 8 8 8 8 8 8 8 8 8 8 8 8 8 8 8 8 8 8 ",
"                  .   % - , ) , , , , , , [ 9 0 a b 2 _ _ 1 b c d e 5 _ : _ _ _ _ _ f g g g g g h h g g g g g g g g g g g g g g ",
"                  .   % - , ) , , , , , , } 9 i j c 3 _ k l a j m n o p q r s 2 _ _ t u u u u u h h u u u u u u u u u u u u u u ",
"                  .   % - , ) , , , , , , 7 9 v m d 4 2 s w 9 i v x y a a a a b 2 _ z u u u u u u u h h u u u u u u u u u u u u ",
"                  .   % - , ) , , , , , , 8 9 v m A 4 2 s a 0 B C D E F F E D G H _ I J K K J L I J h h u u u u u u u u u u u u ",
"                  .   % - , ) , , , , , 9 M 9 i j c 3 _ k N a O P Q R S S R T a r _ _ _ U U V W W V U u u u u u u u u u u u u u ",
"                  .   % - , ) , , , , , 9 0 a a 0 a N X X Y a D T Z `  . .` Z ..+.2 @._ #.$.%.&.*.g #.=.#.u u u u u u u u u u u ",
"                  .   % - , ) , , , , , 9 a N -.;.>.w a a ,.0 E R ` '. . .'.` R Q b )._ !.~.{.].^.#.!./.=.u u u u u u u u u u u ",
"                  .   $ = > ' ) ) ) ) , 9 a N -.;.>.w a 0 (.9 F S  . . . . . .S F a ,.X /._._./.:.<././.<.[.[.[.[.[.[.[.[.[.[.[.",
"                  .   # * ; > , , , , , 9 0 a a 0 a N N a (.9 F S  . . . . . .S F 0 }.a :.|.|.=.1.#.2.=.1.u u u u u u u u u u u ",
"                  . . ^ & ! ~ { { { { { 9 M 9 i j 3.4.5.w C 9 Q R ` '. . .'.` R Q 9 C 9 6.6.6.6.6.6.6.6.6.6.6.6.6.6.7.8.9.9.9.9.",
"                      + @ # $ % % % % % 9 P 9 v m 0.3.a >.a.9 b.c.d.`  . .` d.c.b.9 a.9 e.e.e.e.e.e.e.e.e.e.e.e.e.e.e.e.e.e.e.e.",
"              + @ # $ % % % % % % % % % 9 P 9 j m m j 9 P 9 9 ,.5.c.f.g.g.f.c.5.,.9 9 9 h.i.j.k.i.l.l.m.k.e.e.n.e.o.p./ q.      ",
"              @ & * = - - { { { { { { { { r.9 i j j i 9 M 9 9 s.,.t...u.u...t.,.s.9 v.w.x.y.z.z.y.A.A.B.z.6.6.7.6.C.D.E.F.G.H.G.",
"          .   # * ; > , , , , , , , , , , } 9 9 9 9 9 0 a a 0 9 9 a 5.X X 5.a 9 9 9 I.J.K.L.2.2.L.M.M./.2.u u u u L N.O.p.  .   ",
"          .   $ = > ' ) ) ) ) ) ) ) ) , ) P.9 M M P M a 5.5.a 9 9 Q.,.R.R.,.Q.9 9 9 S.T.U.<.V.V.<.W.W.<.V.[.[.X.[.z L Y.o.  Z.  ",
"          .   % - , ) , , , , , , , , , , 8 9 9 9 9 9 a 5.5.a 9 9 9 9 9 9 9 9 9 9 9 u u u u u u u u u u u u u u u X.u 9.n.  G.  ",
"          .   % - , ) , , , , , , , , , , 8 g u 9 9 9 0 a a 0 9 9 9 9 9 9 9 9 9 z z z `.u u u u u u u u u u u u u X.u 9.n.  G.  ",
"          .   % - , ) , , , , , , , , , , 8 g u a a a a 0 9 9 9 9 9 9 0 a a a a u u u u u u u u u u u u u [.[.X.[.u t  +.+  Z.  ",
"          .   % - , ) , , , , , , , , , , 8 g u X X X 5.a 9 9 9 9 9 9 a 5.X X X u u u u u u u u u u u u u u u u u t V ++@+  Z.  ",
"          .   % - , ) , , , , , , , , , , 8 g u _ _ _ k #+9 9 9 9 9 9 #+X _ _ : u $+%+%+$+K %+&+*+%+=+-+;+6.6.7.6.>+,+'+)+  .   ",
"          .   % - , ) , , , , , , , , , , 8 g u _ _ _ 2 u u u u u u u u 2 _ _ _ u %+N.!+%+%+!+~+~+!+%+{+]+e.^+n.e..+@+/+(+      ",
"          .   % - , ) , , , , , , , , , , 8 g u _ _+:+<+u u u u u u u u _ _+:+<+u %+N.!+%+[+}+|+1+2+3+4+5+m.6+e.e.7+7+8+9+      ",
"          .   % - , ) , , , , , , , , , , 8 g u _ 0+a+b+u u u u u u u u _ 0+a+b+u $+%+%+$+c+d+e+f+g+h+i+j+B.z.6.6.9.7.k+l+  Z.  ",
"          .   $ = > ' ) ) ) ) ) ) ) ) , ) P.m+t _ <+n+o+[.[.[.[.[.[.[.[._ <+n+o+[.[.[.[.[.<././.<.:./._._./.:.X.[.z L Y.o.  Z.  ",
"          .   # * ; > , , , , , , , , , , } p+V U u u u u u u u u u u u u u u u u u u u u 1.:.:.#.#.=.|.|.<.V.X.[.I !+q+r+  .   ",
"              @ & * = - - { { { { { { { { r.O.,+>+6.7.6.7.8.9.9.9.9.9.9.8.8.8.8.7.7.6.6.6.6.6.6.6.6.6.6.6.6.6.6.6.C.D.E.F.H.s+s+",
"              + @ # $ % % % % % % % % % % t+r+@+.+e.n.e.e.e.e.e.e.e.e.e.e.e.e.e.e.e.e.e.e.e.e.e.e.e.e.e.e.e.e.n.e.o.p./ q.      ",
"                      + @ # $ % % % % % % t+r+@+.+n.n.o.p./ q.    + @ # $ % % t+r+@+.+e.n.e.e.k.m.l.l.i.k.k.i.m.k.e.e.e.e.u+v+w+",
"                  . . ^ & ! ~ { { { { { { r.O.,+>+7.7.C.D.E.F.H.H.x+y+z+~ { { A+B+,+>+6.7.6.6.z.B.A.A.y.z.z.y.B.z.6.6.6.9.C+D+E+",
"                  .   # * ; > , , , , , , } p+V U u u L N.O.p.. . # * ; > , , } p+V U u u u u 2./.M.M.L.2.=.L./.=.u u `.u F+G+I.",
"                  .   $ = > ' ) ) ) ) , ) P.m+t `.X.X.z L Y.o.. Z.$ = > ' , ) P.m+t `.[.X.[.[.V.<.W.W.<.V.V.<.<.V.[.[.[.[.H+I+S.",
"                  .   % - , ) , , , , , , 8 g u X.[.[.J+[.9.7+. G.% - , ) , , 8 g u u u u u u u u u u u u u u u u u u u u u u u ",
"                  .   % - , ) , , , , , , 8 g u u u u X.u 9.n.. G.% - , ) , , 8 g u u u u u u u u u u u u u u u u u u u u u `.z ",
"                  .   % - K+> L+K+K+L+M+N+O+P+Q+{+6.6.9.7.k+l+. Z.$ = > ' , , 8 g u R+u u u u u u u u u u u u u u u u u u u u u ",
"                  .   S+- L+T+; L+L+; U+V+W+X+{+Y+e.^+7+e.l+Z+.   # * ; > , , 8 g u u u u u u u u u u u u u u u u u u u u u u u ",
"                  .   S+- L+T+; L+L+; U+V+W+X+{+Y+n.^+.+@+/+(+    @ & ! ~ `+ @7 f I I J K K J J K u u u u u u u u u u u u u u u ",
"                  .   % - K+> L+K+K+L+M+N+O+P+Q+{+7.6.>+,+'+)+  . + @ .@$ +@@@#@p+W $@V U U V V U u u u u u u u u u u u u u u u ",
"                  .   % - , ) , , , , , , 8 g u u u u t V %@&@  Z.( *@% S++@@@#@p+W $@g #.#.g g #.|.|.=.1.u u u u u u u u u u u ",
"                  .   % - , ) , , , , , , 8 g u X.X.[.u t  +.+. Z./ E.{ - `+ @7 f L I #.!.!.#.1.!.M.M./.2.u u u u u u u u u u u ",
"                  .   $ ~ L+=@, , , , , , 7 f U -@u u K %+;@o.. Z.$ ~ L+=@, , 7 f J -@=./.L.=.2.L.M.M./.2.u u u u u u u u u u u ",
"                  .   # * ; > , , , , , , } p+V U u u >@N.O.p.. . # * T+> , , #@p+V t #.:.2.#.1.2.|.|.=.1.u u u u u u u u u u u ",
"                      ,@'@)@!@, , , , , , ~@{@$@I u u g 8 - ]@  . ,@'@)@!@, , ~@{@$@I u u u u u u u u u u u u u u u u u u u u u "};
