/* XPM */
static char * 02_xpm[] = {
"64 64 61 1",
" 	c #422835",
".	c #D6CBB6",
"+	c #DED6C5",
"@	c #1C1117",
"#	c #2C1B24",
"$	c #432936",
"%	c #422935",
"&	c #452B37",
"*	c #4A313C",
"=	c #472E3A",
"-	c #452C38",
";	c #4A303C",
">	c #49303B",
",	c #49303C",
"'	c #472D39",
")	c #442B37",
"!	c #462D39",
"~	c #49313C",
"{	c #412834",
"]	c #3E2631",
"^	c #3D2631",
"/	c #3F2632",
"(	c #432935",
"_	c #402733",
":	c #422A35",
"<	c #452C37",
"[	c #472E39",
"}	c #482E3A",
"|	c #3E2632",
"1	c #442C37",
"2	c #3F2733",
"3	c #462D38",
"4	c #402834",
"5	c #442A37",
"6	c #412934",
"7	c #3F2633",
"8	c #432B36",
"9	c #3D2531",
"0	c #462C38",
"a	c #412734",
"b	c #402934",
"c	c #3C2530",
"d	c #412A35",
"e	c #3D2530",
"f	c #48303B",
"g	c #462E39",
"h	c #482F3A",
"i	c #402833",
"j	c #3E2731",
"k	c #452D38",
"l	c #432A36",
"m	c #482F3B",
"n	c #472F3A",
"o	c #3F2732",
"p	c #442A36",
"q	c #412935",
"r	c #3E2732",
"s	c #412835",
"t	c #472F39",
"u	c #442B36",
"v	c #402734",
"                                                                ",
"                                                                ",
"                                                                ",
"                                                                ",
"                                                                ",
"                                                                ",
"                                                 .+++           ",
"                                                ....++          ",
"                                           .+++ @.@@.+          ",
"                                          ....++@.@@..          ",
"                                          @.@@.+.@...#          ",
"                                          @.@@... .###          ",
"                                          .@...#                ",
"                                          . .###                ",
"                                                     .+++       ",
"                                           $%       ....++      ",
"                    %$               $$$% &*=%      @.@@.+      ",
"                   %=*& %$$$        -;>,' )>>!      @.@@..      ",
"                   !>>& ';>;-    $$ -~**! {]^/ $(   .@...#      ",
"                ($ /^]{ !**~- $(!;;!_:></&>>[ ),}   . .###      ",
"                =,) [>>&|1>:2!;>>>>3 4]2 &>**=5>= $$(           ",
"            ($$ [>5[**~672]4 3>>89^20>>' _6>>[a^|)>>[           ",
"            [>>bc9a[>>d_ '>>02e^_% -****' {]]2$ 5f>[|           ",
"            |g>hi4$2]]{ '****:/ 3;>****>!&>>>>>,[j]|%(          ",
"           (%|]jg>>>>>>&!>***88*******k^_-*******>=lh[          ",
"           [hl[>*******0_^k**>~********>>*********m{^|          ",
"           |^{h*>*******>>************************m( %$         ",
"          (% %m*bg**************~>>>**************>[lh=         ",
"          [hl[>>ig***********>>>89^_!************n^o ]|($$      ",
"       $$$|] o^]g***********'_^^_% -*************h5>>hl>>=      ",
"       =>>l=>>5=***>>>>******0  3;>******}0******>;**hl>n|      ",
"       |[>ph**;>***q9^{}******>>****************m&>>[|{^]{      ",
"       {]^{|[>>)h**&  [**************************[r]|s s        ",
"         s s|]j h***>>****************************>g            ",
"             g>>**********************************[|    $$      ",
"       $$    |g>*********************************m%    5>m      ",
"       m>5    |][********************************m$   $h>h      ",
"       h>h$    =**********************************h$$$ r]]      ",
"       ]]r $$$h************************************>f>>>h       ",
"        h>>fh>*************************************ni***h       ",
"        >*>i^n************************************>hl>>[|       ",
"        h>ia h>******************************>>**n2({^^]{       ",
"        ]^{$ (2t****************~>>>********g]d***h$ %          ",
"          h>p(=*************!'>>89^_!********>>***>[lh=         ",
"          h>p[>*******>******!_9_% -***>>>*******n^o ]|         ",
"          |] o^[***>>>6k******0 3;>***}{^d>******h5>>h          ",
"           n>>5h***:]]{=*>>>***>>>>>>**>'4_0*****>;**h          ",
"           h**;>***>>>>**899<***1_$_:>>**>h>***,})>>[|          ",
"           $h>>)=>***>>>>&{{3>~**0  _e8**3^:**=$$ j]|s          ",
"            |]js2^3**:^^^_  2eu>>0   a&>>!)>*g|5>>>g            ",
"             g>>hl|g*>){s     2^^2    _^^/)>>[  )>g|            ",
"             |g>bv [>>&        ss      ss v^^/  a^|             ",
"              |^v  /^^v                    ss    s              ",
"               s    ss                                          ",
"                                                                ",
"                                                                ",
"                                                                ",
"                                                                ",
"                                                                ",
"                                                                ",
"                                                                ",
"                                                                ",
"                                                                ",
"                                                                "};
