/* XPM */
static char * 03_xpm[] = {
"64 64 57 1",
" 	c #422835",
".	c #432936",
"+	c #422935",
"@	c #452B37",
"#	c #4A313C",
"$	c #472E3A",
"%	c #452C38",
"&	c #4A303C",
"*	c #49303B",
"=	c #49303C",
"-	c #472D39",
";	c #442B37",
">	c #462D39",
",	c #49313C",
"'	c #412834",
")	c #3E2631",
"!	c #3D2631",
"~	c #3F2632",
"{	c #432935",
"]	c #402733",
"^	c #422A35",
"/	c #452C37",
"(	c #472E39",
"_	c #482E3A",
":	c #3E2632",
"<	c #442C37",
"[	c #3F2733",
"}	c #462D38",
"|	c #402834",
"1	c #442A37",
"2	c #412934",
"3	c #3F2633",
"4	c #432B36",
"5	c #3D2531",
"6	c #462C38",
"7	c #412734",
"8	c #402934",
"9	c #3C2530",
"0	c #412A35",
"a	c #3D2530",
"b	c #48303B",
"c	c #462E39",
"d	c #482F3A",
"e	c #402833",
"f	c #3E2731",
"g	c #452D38",
"h	c #432A36",
"i	c #482F3B",
"j	c #472F3A",
"k	c #3F2732",
"l	c #442A36",
"m	c #412935",
"n	c #3E2732",
"o	c #412835",
"p	c #472F39",
"q	c #442B36",
"r	c #402734",
"                                                                ",
"                                                                ",
"                                                                ",
"                                                                ",
"                                                                ",
"                                                                ",
"                                                                ",
"                                                                ",
"                                                                ",
"                                                                ",
"                                                                ",
"                                                                ",
"                                                                ",
"                                                                ",
"                                                                ",
"                                           .+                   ",
"                    +.               ...+ @#$+                  ",
"                   +$#@ +...        %&*=- ;**>                  ",
"                   >**@ -&*&%    .. %,##> ')!~ .{               ",
"                {. ~!)' >##,% .{>&&>]^*/~@**( ;=_               ",
"                $=; (**@:<*^[>&****} |)[ @*##$1*$ ..{           ",
"            {.. (*1(##,23[)| }**45![6**- ]2**(7!:;**(           ",
"            (**8957(**0] -**6[a!]+ %####- '))[. 1b*(:           ",
"            :c*de|.[))' -####^~ }&*####*>@*****=(f):+{          ",
"           {+:)fc******@>*###44#######g!]%#######*$hd(          ",
"           (dh(*#######6]!g##*,########**#########i'!:          ",
"           :!'d#*#######**########################i{ +.         ",
"          {+ +i#8c##############,***##############*(hd$         ",
"          (dh(**ec###########***45!]>############j!k ):{..      ",
"       ...:) k!)c###########-]!!]+ %#############d1**dh**$      ",
"       $**h$**1$###****######6  }&*######_6######*&##dh*j:      ",
"       :(*ld##&*###m5!'_######**################i@**(:'!)'      ",
"       ')!':(**;d##@  (##########################(n):o o        ",
"         o o:)f d###**############################*c            ",
"             c**##################################(:    ..      ",
"       ..    :c*#################################i+    1*i      ",
"       i*1    :)(################################i.   .d*d      ",
"       d*d.    $##################################d... n))      ",
"       ))n ...d####################################*b***d       ",
"        d**bd*#####################################je###d       ",
"        *#*e!j####################################*dh**(:       ",
"        d*e7 d*##############################**##j[{'!!)'       ",
"        )!'. {[p################,***########c)0###d. +          ",
"          d*l{$#############>-**45!]>########**###*(hd$         ",
"          d*l(*#######*######>]5]+ %###***#######j!k ):         ",
"          :) k!(###***2g######6 }&*###_'!0*######d1**d          ",
"           j**1d###^))'$#***###******##*-|]6#####*&##d          ",
"           d##&*###****##455/###<].]^**##*d*###=_;**(:          ",
"           .d**;$*###****@''}*,##6  ]a4##}!^##$.. f):o          ",
"            :)fo[!}##^!!!]  [aq**6   7@**>;*#c:1***c            ",
"             c**dh:c#*;'o     [!![    ]!!~;**(  ;*c:            ",
"             :c*8r (**@        oo      oo r!!~  7!:             ",
"              :!r  ~!!r                    oo    o              ",
"               o    oo                                          ",
"                                                                ",
"                                                                ",
"                                                                ",
"                                                                ",
"                                                                ",
"                                                                ",
"                                                                ",
"                                                                ",
"                                                                ",
"                                                                "};
