/* XPM */
static char * CC_xpm[] = {
"64 64 105 2",
"  	c #422835",
". 	c #412C30",
"+ 	c #000000",
"@ 	c #3F2A30",
"# 	c #432936",
"$ 	c #422935",
"% 	c #3F292F",
"& 	c #BDB413",
"* 	c #A19900",
"= 	c #3D272E",
"- 	c #452B37",
"; 	c #4A313C",
"> 	c #472E3A",
", 	c #3D2430",
"' 	c #3B2430",
") 	c #452C38",
"! 	c #4A303C",
"~ 	c #49303B",
"{ 	c #49303C",
"] 	c #472D39",
"^ 	c #442B37",
"/ 	c #462D39",
"( 	c #49313C",
"_ 	c #412834",
": 	c #3E2631",
"< 	c #3D2631",
"[ 	c #3F2632",
"} 	c #432935",
"| 	c #412A34",
"1 	c #452C37",
"2 	c #472E39",
"3 	c #482E3A",
"4 	c #3E2632",
"5 	c #442C37",
"6 	c #452D37",
"7 	c #BCB313",
"8 	c #3B2530",
"9 	c #3F2733",
"0 	c #442A37",
"a 	c #412934",
"b 	c #3F2633",
"c 	c #BEB513",
"d 	c #9E9600",
"e 	c #402733",
"f 	c #412734",
"g 	c #402934",
"h 	c #3C2530",
"i 	c #3D2531",
"j 	c #412A35",
"k 	c #B3AB13",
"l 	c #48303B",
"m 	c #462E39",
"n 	c #482F3A",
"o 	c #402833",
"p 	c #402834",
"q 	c #462C38",
"r 	c #472F39",
"s 	c #3E2731",
"t 	c #0F0D00",
"u 	c #080700",
"v 	c #432A36",
"w 	c #422A34",
"x 	c #482F3B",
"y 	c #040400",
"z 	c #736D08",
"A 	c #010100",
"B 	c #D6A466",
"C 	c #7A7402",
"D 	c #452E38",
"E 	c #472F3A",
"F 	c #3F2732",
"G 	c #D3A264",
"H 	c #B3844B",
"I 	c #463134",
"J 	c #422C32",
"K 	c #442A36",
"L 	c #412935",
"M 	c #42302F",
"N 	c #726C00",
"O 	c #70690B",
"P 	c #555109",
"Q 	c #3F2B2F",
"R 	c #48303A",
"S 	c #3E2732",
"T 	c #412835",
"U 	c #442D37",
"V 	c #432C36",
"W 	c #B9B012",
"X 	c #422B35",
"Y 	c #A79F0B",
"Z 	c #9A7648",
"` 	c #957247",
" .	c #7F5E32",
"..	c #836036",
"+.	c #B88C57",
"@.	c #301C26",
"#.	c #3B232E",
"$.	c #452D38",
"%.	c #402633",
"&.	c #422A35",
"*.	c #432B36",
"=.	c #462D38",
"-.	c #3D2530",
";.	c #442B36",
">.	c #402734",
"                                                                                                                                ",
"                                                                                                                                ",
"                                                                                                                                ",
"                                                                                                                                ",
"                                                                                                                                ",
"                                                                                                                                ",
"                                                                                                                                ",
"                                                                                                                                ",
"                                                                                                                                ",
"                                                                                                                                ",
"                                                                                                                                ",
"                                                                                                                                ",
"                                                                                                                                ",
"                                                                                                                                ",
"                                                                                                                                ",
"                                                            . + + @                   # $                                       ",
"                                        $ #               % + & * + =     # # # $   - ; > $                                     ",
"                                      $ > ; -   $ # # # , + & & * * + ' ) ! ~ { ]   ^ ~ ~ /                                     ",
"                                      / ~ ~ -   ] ! ~ ! + & & & * * * + ) ( ; ; /   _ : < [   # }                               ",
"                                } #   [ < : _   / ; ( + & & & & * * * * + | ~ 1 [ - ~ ~ 2   ^ { 3                               ",
"                                > { ^   2 ~ ~ - 4 5 6 + & 7 & & * * * * + 8 : 9   - ~ ; ; > 0 ~ >   # # }                       ",
"                        } # #   2 ~ 0 2 ; ; ( a b 9 + & & c & & * * * d * + ~ ]   e a ~ ~ 2 f < 4 ^ ~ ~ 2                       ",
"                        2 ~ ~ g h i f 2 ~ ~ j e   + & k & & & + + * * * * * + ( ]   _ : : 9 #   0 l ~ 2 4                       ",
"                        4 m ~ n o p # 9 : : _   q + & 7 & & + + + + * * * * + r / - ~ ~ ~ ~ ~ { 2 s : 4 $ }                     ",
"                      } $ 4 : s m ~ ~ ~ ~ ~ ~ - + & & & & t + + + + u * * * * + e ) ; ; ; ; ; ; ; ~ > v n 2                     ",
"                      2 n v 2 ~ ; ; ; ; ; ; ; w + & & & + + + + + + + + * * * + 6 ; ; ; ; ; ; ; ; ; x _ < 4                     ",
"                      4 < _ n ; ~ ; ; ; ; ; ; + * & & + + + + + + + + y + * * z + ; ; ; ; ; ; ; ; ; x }   $ #                   ",
"                    } $   $ x ; g m ; ; ; ; m + * * + A + + + B B + + + + + C C + D ; ; ; ; ; ; ; ; ~ 2 v n >                   ",
"                    2 n v 2 ~ ~ o m ; ; ; ; + * * * + + + B B B B B B + + + C C C + ; ; ; ; ; ; ; E < F   : 4 } # #             ",
"              # # # 4 :   F < : m ; ; ; ; ; + * * * * + B B G + + B B H + C C C C + ; ; ; ; ; ; ; n 0 ~ ~ n v ~ ~ >             ",
"              > ~ ~ v > ~ ~ 0 > ; ; ; ~ ~ ~ I + + + * * + B B B B H H + C C + + + J q ; ; ; ; ; ; ~ ! ; ; n v ~ E 4             ",
"              4 2 ~ K n ; ; ! ~ ; ; ; L i < _ ] ~ M + N O + + B B + + P N + Q R ~ ; ; ; ; ; ; ; x - ~ ~ 2 4 _ < : _             ",
"              _ : < _ 4 2 ~ ~ ^ n ; ; -     2 ; ; ; ; + + + & + + * + + + ; ; ; ; ; ; ; ; ; ; ; ; 2 S : 4 T   T                 ",
"                  T   T 4 : s   n ; ; ; ~ ~ ; ; ; ; ; U + + & C * * + + V ; ; ; ; ; ; ; ; ; ; ; ; ; ~ m                         ",
"                          m ~ ~ ; ; ; ; ; ; ; ; ; ; ~ + W + & C * * + & + ~ ; ; ; ; ; ; ; ; ; ; ; ; 2 4         # #             ",
"              # #         4 m ~ ; ; ; ; ; ; ; ; ; ; X + W + & & C * + * & + ; ; ; ; ; ; ; ; ; ; ; x $         0 ~ x             ",
"              x ~ 0         4 : 2 ; ; ; ; ; ; ; ; U + W W W & & C * * * * + V ; ; ; ; ; ; ; ; ; ; x #       # n ~ n             ",
"              n ~ n #         > ; ; ; ; ; ; ; ; ; + Y W + & & C * * + * * & + ( ; ; ; ; ; ; ; ; ; ; n # # #   S : :             ",
"              : : S   # # # n ; ; ; ; ; ; ; ; ; + + + W + & & C * * + * + + + ~ ; ; ; ; ; ; ; ; ; ; ; ~ l ~ ~ ~ n               ",
"                n ~ ~ l n ~ ; ; ; ; ; ; ; ; ; ; + Z ` + & & & & C * * +  ...+ ~ ; ; ; ; ; ; ; ; ; ; ; E o ; ; ; n               ",
"                ~ ; ~ o < E ; ; ; ; ; ; ; ; ; ; E + + + & & & C * * * * + + ~ ; ; ; ; ; ; ; ; ; ; ; ~ n v ~ ~ 2 4               ",
"                n ~ o f   n ~ ; ; ; ; ; ; ; ; ; ; ; ; + & & & & C * * * + ; ; ; ; ; ; ; ; ~ ~ ; ; E 9 } _ < < : _               ",
"                : < _ #   } 9 r ; ; ; ; ; ; ; ; ; ; ; n + + & & C * + + E ; ; ; ; ; ; ; m : j ; ; ; n #   $                     ",
"                    n ~ K } > ; ; ; ; ; ; ; ; ; ; ; ; ; + +.+ + + + +.+ / ; ; ; ; ; ; ; ; ~ ~ ; ; ; ~ 2 v n >                   ",
"                    n ~ K 2 ~ ; ; ; ; ; ; ; ~ ; ; ; ; ; + +.+ @.#.+ +.+ ; ; ; ~ ~ ~ ; ; ; ; ; ; ; E < F   : 4                   ",
"                    4 :   F < 2 ; ; ; ~ ~ ~ a $.; ; ; ; + +.+ %.$.+ +.+ U R 3 _ < j ~ ; ; ; ; ; ; n 0 ~ ~ n                     ",
"                      E ~ ~ 0 n ; ; ; &.: : _ > ; ~ ~ + +.+.+ U E + +.+.+ ; ; ~ ] p e q ; ; ; ; ; ~ ! ; ; n                     ",
"                      n ; ; ! ~ ; ; ; ~ ~ ~ ~ ; ; *.i ' + + + ~ *.+ + + a ~ ~ ; ; ~ n ~ ; ; ; { 3 ^ ~ ~ 2 4                     ",
"                      # n ~ ~ ^ > ~ ; ; ; ~ ~ ~ ~ - _ _ =.~ ( ; ; q     e -.*.; ; =.< &.; ; > # #   s : 4 T                     ",
"                        4 : s T 9 < =.; ; &.< < < e     9 -.;.~ ~ q       f - ~ ~ / ^ ~ ; m 4 0 ~ ~ ~ m                         ",
"                          m ~ ~ n v 4 m ; ~ ^ _ T           9 < < 9         e < < [ ^ ~ ~ 2     ^ ~ m 4                         ",
"                          4 m ~ g >.  2 ~ ~ -                 T T             T T   >.< < [     f < 4                           ",
"                            4 < >.    [ < < >.                                        T T         T                             ",
"                              T         T T                                                                                     ",
"                                                                                                                                ",
"                                                                                                                                ",
"                                                                                                                                ",
"                                                                                                                                ",
"                                                                                                                                ",
"                                                                                                                                ",
"                                                                                                                                ",
"                                                                                                                                ",
"                                                                                                                                ",
"                                                                                                                                "};
