/* XPM */
static char * CC_xpm[] = {
"64 64 338 2",
"  	c #242424",
". 	c #404040",
"+ 	c #676767",
"@ 	c #8B8B8B",
"# 	c #505050",
"$ 	c #ADADAD",
"% 	c #686995",
"& 	c #494C88",
"* 	c #5B5D7F",
"= 	c #474084",
"- 	c #474184",
"; 	c #4C558D",
"> 	c #8C8B8B",
", 	c #9E4141",
"' 	c #696868",
") 	c #A33C2F",
"! 	c #A1382E",
"~ 	c #A74230",
"{ 	c #A0382E",
"] 	c #A23B2E",
"^ 	c #A6402F",
"/ 	c #9F362D",
"( 	c #A5402F",
"_ 	c #A43D2F",
": 	c #A0372D",
"< 	c #A1392D",
"[ 	c #A23E2F",
"} 	c #A43E2F",
"| 	c #9E362E",
"1 	c #992F2D",
"2 	c #A43E30",
"3 	c #9C342D",
"4 	c #A23C2F",
"5 	c #962B2C",
"6 	c #A23B2F",
"7 	c #9F372E",
"8 	c #972C2C",
"9 	c #A53E30",
"0 	c #992F2C",
"a 	c #A13A2F",
"b 	c #892728",
"c 	c #972B2C",
"d 	c #922A2A",
"e 	c #8C2829",
"f 	c #9B2C2D",
"g 	c #91292A",
"h 	c #982B2C",
"i 	c #932A2B",
"j 	c #8A2728",
"k 	c #9A2C2D",
"l 	c #8D2829",
"m 	c #90292A",
"n 	c #992C2D",
"o 	c #952B2C",
"p 	c #70514E",
"q 	c #A23E2E",
"r 	c #A33E2F",
"s 	c #A33E2E",
"t 	c #AE5C53",
"u 	c #98352B",
"v 	c #98372D",
"w 	c #7E2525",
"x 	c #7E2727",
"y 	c #625655",
"z 	c #492523",
"A 	c #40211F",
"B 	c #532A28",
"C 	c #5D4D49",
"D 	c #5D3522",
"E 	c #675651",
"F 	c #614643",
"G 	c #847D7C",
"H 	c #523C3B",
"I 	c #422220",
"J 	c #442321",
"K 	c #696767",
"L 	c #562C26",
"M 	c #4A2624",
"N 	c #492524",
"O 	c #412220",
"P 	c #8E5F44",
"Q 	c #9A684A",
"R 	c #99674A",
"S 	c #462422",
"T 	c #6F6A6A",
"U 	c #706A6A",
"V 	c #6B6668",
"W 	c #432321",
"X 	c #4F2826",
"Y 	c #432220",
"Z 	c #4C2C24",
"` 	c #724936",
" .	c #7B6D6A",
"..	c #807675",
"+.	c #7D706D",
"@.	c #72513F",
"#.	c #C78B64",
"$.	c #D6956A",
"%.	c #D89F7C",
"&.	c #DAAB90",
"*.	c #76574B",
"=.	c #613D2F",
"-.	c #4A2524",
";.	c #3F201E",
">.	c #532C21",
",.	c #744B37",
"'.	c #D49267",
").	c #F0EDEA",
"!.	c #F6FEFF",
"~.	c #F0F0ED",
"{.	c #D9A179",
"].	c #D8A17B",
"^.	c #D8A17A",
"/.	c #E4CDBE",
"(.	c #DEB5A0",
"_.	c #AC7654",
":.	c #663924",
"<.	c #44231F",
"[.	c #6E4B3A",
"}.	c #C6936F",
"|.	c #C38861",
"1.	c #C58C67",
"2.	c #CFA992",
"3.	c #EFEDEA",
"4.	c #9E9E9E",
"5.	c #808283",
"6.	c #9D9C9B",
"7.	c #F0EFEB",
"8.	c #DDB499",
"9.	c #D9A27B",
"0.	c #DEAC84",
"a.	c #DBA780",
"b.	c #ECE0D7",
"c.	c #CDCCC9",
"d.	c #D9D6D4",
"e.	c #E1CEC3",
"f.	c #C3855E",
"g.	c #C58E6A",
"h.	c #A3765A",
"i.	c #562D28",
"j.	c #716D6D",
"k.	c #76523E",
"l.	c #D69A71",
"m.	c #D9A078",
"n.	c #DEB495",
"o.	c #EEE0D6",
"p.	c #7A736E",
"q.	c #343537",
"r.	c #7B7C7D",
"s.	c #DEB8A0",
"t.	c #D79E76",
"u.	c #D69B73",
"v.	c #DDA982",
"w.	c #DAA37B",
"x.	c #D59971",
"y.	c #F0EDE8",
"z.	c #C7CCCD",
"A.	c #D1C5BC",
"B.	c #E6CCB9",
"C.	c #DBA77F",
"D.	c #D6986F",
"E.	c #B18163",
"F.	c #40201E",
"G.	c #6F6E6E",
"H.	c #704C3A",
"I.	c #C99572",
"J.	c #C39371",
"K.	c #DCA57E",
"L.	c #DFA882",
"M.	c #DFA883",
"N.	c #866B58",
"O.	c #625349",
"P.	c #8C847E",
"Q.	c #F3F4F1",
"R.	c #DEB59A",
"S.	c #D69A72",
"T.	c #D39268",
"U.	c #D59A72",
"V.	c #D29166",
"W.	c #EEE5DC",
"X.	c #C9C7C4",
"Y.	c #C99776",
"Z.	c #CE9874",
"`.	c #A5775C",
" +	c #5B3127",
".+	c #C79370",
"++	c #D98E6D",
"@+	c #DA7C60",
"#+	c #DFA680",
"$+	c #E0AF87",
"%+	c #DAA47D",
"&+	c #DC8B6B",
"*+	c #DB7C60",
"=+	c #865D4A",
"-+	c #522A28",
";+	c #C8795D",
">+	c #D98063",
",+	c #DB8667",
"'+	c #DA9573",
")+	c #D28E6B",
"!+	c #CD8B6D",
"~+	c #D08866",
"{+	c #D89E78",
"]+	c #DAA37C",
"^+	c #DB8869",
"/+	c #DA7F62",
"(+	c #D98466",
"_+	c #864F40",
":+	c #9A9393",
"<+	c #C87258",
"[+	c #B2785C",
"}+	c #B1897D",
"|+	c #C79F92",
"1+	c #DFC0B6",
"2+	c #DAB9AF",
"3+	c #A76A53",
"4+	c #CE9773",
"5+	c #D8A079",
"6+	c #D97C60",
"7+	c #564140",
"8+	c #C9775D",
"9+	c #DA7D61",
"0+	c #DA7E62",
"a+	c #D98F6E",
"b+	c #7A5E4C",
"c+	c #4D4F4F",
"d+	c #707474",
"e+	c #EBF2F3",
"f+	c #E2E7E9",
"g+	c #463C3B",
"h+	c #C4926F",
"i+	c #D97F62",
"j+	c #DA7D60",
"k+	c #B19484",
"l+	c #D99A75",
"m+	c #D18766",
"n+	c #965E4A",
"o+	c #2E2F31",
"p+	c #463C3A",
"q+	c #CF8061",
"r+	c #D69A75",
"s+	c #D98767",
"t+	c #D8A07A",
"u+	c #D79870",
"v+	c #D89A75",
"w+	c #D79A75",
"x+	c #D79B76",
"y+	c #CC8C6A",
"z+	c #BA7559",
"A+	c #BB785B",
"B+	c #D89C76",
"C+	c #D89A74",
"D+	c #D6956B",
"E+	c #8A7A72",
"F+	c #D79B72",
"G+	c #D69974",
"H+	c #D28E6C",
"I+	c #D2906D",
"J+	c #D79C74",
"K+	c #D4956C",
"L+	c #D5956C",
"M+	c #D29B76",
"N+	c #D9A07A",
"O+	c #D4956D",
"P+	c #6E584C",
"Q+	c #D59267",
"R+	c #9F533F",
"S+	c #CC8960",
"T+	c #D59369",
"U+	c #D79D75",
"V+	c #AC6448",
"W+	c #7B6E6E",
"X+	c #746C6C",
"Y+	c #74325B",
"Z+	c #B06D57",
"`+	c #BB7655",
" @	c #BC7857",
".@	c #BE8163",
"+@	c #BD8062",
"@@	c #87475A",
"#@	c #6E6A6A",
"$@	c #6D6969",
"%@	c #726B6B",
"&@	c #4B4F8A",
"*@	c #474085",
"=@	c #802D49",
"-@	c #5A3C78",
";@	c #464184",
">@	c #4D598F",
",@	c #494586",
"'@	c #484083",
")@	c #464085",
"!@	c #4C548D",
"~@	c #494987",
"{@	c #474285",
"]@	c #453F81",
"^@	c #3D3C73",
"/@	c #3F3D78",
"(@	c #413E7A",
"_@	c #484787",
":@	c #453F80",
"<@	c #403D79",
"[@	c #383A6A",
"}@	c #443F7F",
"|@	c #3B3B71",
"1@	c #3C3B71",
"2@	c #423E7C",
"3@	c #403D78",
"4@	c #383A6B",
"5@	c #892727",
"6@	c #7E2C3A",
"7@	c #623356",
"8@	c #882727",
"9@	c #7B633A",
"0@	c #648A4F",
"a@	c #478C60",
"b@	c #4B8D6B",
"c@	c #4C8D6D",
"d@	c #488C63",
"e@	c #558559",
"f@	c #66794E",
"g@	c #777070",
"h@	c #94A281",
"i@	c #4FAA5A",
"j@	c #7DB982",
"k@	c #87A189",
"l@	c #4DA55C",
"m@	c #4D9E60",
"n@	c #786C6D",
"o@	c #4FAA58",
"p@	c #716669",
"q@	c #56AB5E",
"r@	c #2A584B",
"s@	c #6A6668",
"t@	c #375E52",
"u@	c #CDD0CF",
"v@	c #CED1D0",
"w@	c #75666A",
"                                                                                                                                ",
". + + + + @ @ @ @ @ + + @ + + + + + + + + + + + + + + + + + .   . + + + + @ @ @ @ @ + + @ + + + + + + + + + + + + + + + + + .   ",
"+ + + + + + + + + + + + + + + + + + + + + + + + + + + + + + +   + + + + + + + + + + + + + + + + + + + + + + + + + + + + + + +   ",
"+ + + + + + + + + + + + + + + + + + + + . + . . . . . + +       + + + + + + + + + + + + + + + + + + + + . + . . . . . + +       ",
"+ + + + + + + + + + + + + + + + + + + + + @ + @ @ @ + + + + #   + + + + + + + + + + + + + + + + + + + + + @ + @ @ @ + + + + #   ",
"+ + + + + + + + + + + + + + + + + + + + + + + + + + + + + + +   + + + + + + + + + + + + + + + + + + + + + + + + + + + + + + +   ",
"+ + + + + + + + + + + + + + + + + + + + + + + + + + + + + + +   + + + + + + + + + + + + + + + + + + + + + + + + + + + + + + +   ",
". + + + + + + + + + + + + + + + + + + + + + + + + + + + + + .   . + + + + + + + + + + + + + + + + + + + + + + + + + + + + + .   ",
"                                                                                                                                ",
"@ @ @ + + + + + + + + + + + .   . + + + @ + @ @ @ @ @ + + + + + @ @ @ + + + + + + + + + + + .   . + + + @ + @ @ @ @ @ + + + + + ",
"+ + + + + + + + + + + + + + +   + + + + + + + + + + + + + + + + + + + + + + + + + + + + + + +   + + + + + + + + + + + + + + + + ",
"+ + + + + + + . . + . + +       + + + + + + + + + + + + + + + + + + + + + + + . . + . + +       + + + + + + + + + + + + + + + + ",
"+ + + + + + @ + @ @ + + + + #   + + + + + + + + + + + + + + + + + + + + + + @ + @ @ + + + + #   + + + + + + + + + + + + + + + + ",
"+ + + + + + + + + + + + + + +   + + + + + + + + + + + + + + + + + + + + + + + + + + + + + + +   + + + + + + + + + + + + + + + + ",
"+ + + + + + + + + + + + + + +   + + + + + + + + + + + + + + + + + + + + + + + + + + + + + + +   + + + + + + + + + + + + + + + + ",
"+ + + + + + + + + + + + + + .   . + + + + + + + + + + + + + + + + + + + + + + + + + + + + + .   . + + + + + + + + + + + + + + + ",
"                                                                                                                                ",
". + + + @ + @ @ $ $ $ @ + @ @ + + + + + + + + + + + + + + + .   . + + + @ + @ @ $ $ $ @ + @ @ + + + + + + + + + + + + + + + .   ",
"+ + + + + + + + + + + + + + + + + + + + + + + + + + + + + + +   + + + + + + + + + + + + + + + + + + + + + + + + + + + + + + +   ",
"+ + + + + + + + + + + + + + + + + + + + + + + + + + + + + + +   + + + + + + + + + + + + + + + + + + + + + + + + + + + + + + +   ",
"+ + + + + + + + + + + + + + + + + + + + + + + + + + + + + + #   + + + + + + + + + + + + + + + + + + + + + + + + + + + + + + #   ",
"+ + + + + + + + + + + + + + + + + + + + + + . . + . +           + + + + + + + + + + + + + + + + + + + + + + . . + . +           ",
"+ + + + + + + + + + + + + + + + + + + + + + + + @ + @ @ + + +   % & * + + + + + + + + + + + + + + + + + + + + + @ + @ @ + + +   ",
". + + + + + + + + + + + + + + + + + + + + + + + + + + + + + . = = = - ; + + + + + + + + + + + + + + + + + + + + + + + + + + .   ",
"                                                              = = = = =                                                         ",
"+ + + + + + + + + + + + + + .   . + + + @ + @ @ @ $ $ $ @ > + , , , , , + + + + + + ' + + + .   . + + + @ + @ @ @ $ $ $ @ @ + + ",
"+ + + + + + + + + + + + + + +   + + + + + + + + + ) ! ~ { ] ^ / ( _ : ~ < ] ~ / + ' + + + + +   + + + + + + + + + + + + + + + + ",
"+ + + + . . . + + . + +         + + + + + + # [ } | 1 2 1 3 4 5 6 7 8 9 0 3 2 5 a # + + + + +   + + + + + + + + + + + + + + + + ",
"+ + + + + @ + + + @ @ + @ + #   + + + + + # . b c d e f e g h b 5 i j k l m n b o . # + + + +   + + + + + + + + + + + + + + + + ",
"+ + + + + + + + + + + + + + +   + + + + + . p q } r q } q s } q } s q } s s } q } t . + + + +   + + + + + + + + + + + + + + + + ",
"+ + + + + + + + + + + + + + +   + + + + + . u u u u u u u u u u u u u u u u u u u u v + + + +   + + + + + + + + + + + + + + + + ",
"+ + + + + + + + + + + + + + .   . + + + # . w w w w w w w w w w w w w w w w w w w w x # + + .   . + + + + + + + + + + + + + + + ",
"                                        y z A A A A A A A A A A A A A A A A A A A A A B   C D E                                 ",
". + + + + @ @ @ @ @ + + @ + + + + + F G H I A A A A A A A A A A A A A A A A A A A A A J K + L + + + + + + + + + + + + + + + .   ",
"+ + + + + + + + + + + + + + + + + + M N O A A A A A A A P Q Q Q Q Q Q Q Q Q R A A A A A S N z T U + + + + + + + + + + + + + +   ",
"+ + + + + + + + + + + + + + + + + V W X Y A Z `  ...+.@.#.$.$.$.$.$.$.$.$.%.&...*.=.A A M -.;.+ + + + + . + . . . . . + +       ",
"+ + + + + + + + + + + + + + + + + >.A A A A ,.'.).!.~.{.].^.^.^.^.^.^.^.^./.!.!.(._.A A A A A :.+ + + + + @ + @ @ @ + + + + #   ",
"+ + + + + + + + + + + + + + + + + <.[.}.|.1.2.3.4.5.6.7.8.^.9.0.0.a.^.^.b.c.5.5.d.e.}.f.g.h.A i.+ + + + + + + + + + + + + + +   ",
"+ + + + + + + + + + + + + + + + + j.k.^.l.m.n.o.p.q.r.!.s.t.u.v.v.w.x.^.y.z.q.q.A.B.C.D.t.E.F.+ + + + + + + + + + + + + + + +   ",
". + + + + + + + + + + + + + + + + G.H.I.J.K.L.M.N.O.P.Q.R.S.T.^.^.U.V.^.W.X.O.O.Y.L.L.^.Z.`.F.+ + + + + + + + + + + + + + + .   ",
"                                   +X A .+++@+@+#+$+$+$+%+^.^.^.^.^.^.^.0.$+$+$+&+@+*+^.=+A A -+                                ",
"@ @ @ + + + + + + + + + + + .   . + Y A ;+>+@+@+,+'+%+%+)+!+!+~+~+~+~+~+{+%+]+^+/+@+@+(+_+:+.   . + + + @ + @ @ @ @ @ + + + + + ",
"+ + + + + + + + + + + + + + +   + + + A <+@+@+@+@+++^.^.[+}+|+1+1+1+2+3+4+^.5+6+@+@+@+@++ + +   + + + + + + + + + + + + + + + + ",
"+ + + + + + + . . + . + +       + + + 7+8+9+@+@+0+a+^.^.b+c+d+e+e+e+f+g+h+^.5+i+j+@+@+i++ + +   + + + + + + + + + + + + + + + + ",
"+ + + + + + @ + @ @ + + + + #   + + + + k+++@+*+l+^.^.^.m+n+o+q.q.q.p+q+r+^.^.^.s+@+@+t+        + + + + + + + + + + + + + + + + ",
"+ + + + + + + + + + + + + + +   + + + + + u+v+w+5+^.^.^.x+y+z+z+z+z+A+r+5+^.^.^.B+v+C+D++ + #   + + + + + + + + + + + + + + + + ",
"+ + + + + + + + + + + + + + +   + + + + + E+F+F+5+^.^.^.^.G+H+H+H+H+I+^.^.^.^.^.J+F+F++ + + +   + + + + + + + + + + + + + + + + ",
"+ + + + + + + + + + + + + + .   . + + + + + K+L+M+N+N+N+N+N+N+N+N+N+N+N+N+N+N+t+D.K+O++ + + .   . + + + + + + + + + + + + + + + ",
"                                                P+Q+Q+Q+Q+Q+Q+Q+Q+Q+Q+Q+Q+Q+Q+Q+                                                ",
". + + + @ + @ @ $ $ $ @ + @ @ + + + + + + + + + + + + R+S+Q+T+U+U+U+J+Q+V++ @ @ $ $ $ @ + @ @ + + + + + + + + + + + + + + + .   ",
"+ + + + + + + + + + + + + + + + + + + + + + + + + W+X+Y+Z+`+ @.@.@.@+@`+@@#@$@#@%@+ + + X+X++ + + + + + + + + + + + + + + + +   ",
"+ + + + + + + + + + + + + + + + + + + + + + + + + &@= *@=@b b b b b b b -@= ;@>@+ + + + + + + + + + + + + + + + + + + + + + +   ",
"+ + + + + + + + + + + + + + + + + + + + + + + + ,@= = *@= '@'@'@'@'@'@'@)@= = = !@+ + + + + + + + + + + + + + + + + + + + + #   ",
"+ + + + + + + + + + + + + + + + + + + + + + . ~@{@= ]@^@]@= = = = = = = /@(@= = _@+ + + + + + + + + + + + + . . + . +           ",
"+ + + + + + + + + + + + + + + + + + + + + + + = = :@<@[@}@= = = = = = = |@1@2@= = ' + + + + + + + + + + + + + + @ + @ @ + + +   ",
". + + + + + + + + + + + + + + + + + + + + + + = = 3@[@[@}@= = = = = = = |@[@4@= = + + + + + + + + + + + + + + + + + + + + + .   ",
"                                              5@b 5@6@4@}@= = = = = = = |@7@8@b b                                               ",
"+ + + + + + + + + + + + + + .   . + + + @ + @ b b 9@0@a@b@c@c@c@c@c@c@c@d@e@f@b b + + + + + .   . + + + @ + @ @ @ $ $ $ @ @ + + ",
"+ + + + + + + + + + + + + + +   + + + + + + + + g@h@i@i@i@j@+ + + + k@i@i@l@m@g@g@+ + + + + +   + + + + + + + + + + + + + + + + ",
"+ + + + . . . + + . + +         + + + + + + + + + n@o@o@o@+ + + + + + p@o@o@q@+ + . + +         + + + + + + + + + + + + + + + + ",
"+ + + + + @ + + + @ @ + @ + #   + + + + + + + + + n@r@r@r@+ + + + + + s@r@r@t@+ + @ @ + @ + #   + + + + + + + + + + + + + + + + ",
"+ + + + + + + + + + + + + + +   + + + + + + + + + + u@u@u@+ + + + + + + u@u@v@+ + ' + + + + +   + + + + + + + + + + + + + + + + ",
"+ + + + + + + + + + + + + + +   + + + + + + + + + + + + + + + + + + + + + + w@+ + + + + + + +   + + + + + + + + + + + + + + + + ",
"+ + + + + + + + + + + + + + .   . + + + + + + + + + + + + + + + + + + + + + + + + + + + + + .   . + + + + + + + + + + + + + + + "};
