/* XPM */
static char * E_xpm[] = {
"64 64 130 2",
"  	c #422835",
". 	c #1F1B18",
"+ 	c #E5616A",
"@ 	c #D53944",
"# 	c #432835",
"$ 	c #4D2A35",
"% 	c #452835",
"& 	c #6B2E34",
"* 	c #FFFFFF",
"= 	c #763834",
"- 	c #A9673B",
"; 	c #572C34",
"> 	c #7A3734",
", 	c #C07B3F",
"' 	c #844E38",
") 	c #A6673B",
"! 	c #C68F40",
"~ 	c #BA853E",
"{ 	c #6C3334",
"] 	c #5E272E",
"^ 	c #BA7B3E",
"/ 	c #DAC144",
"( 	c #B5783D",
"_ 	c #321E2E",
": 	c #5D3D3E",
"< 	c #BA7A40",
"[ 	c #D4B243",
"} 	c #B7783C",
"| 	c #311D2D",
"1 	c #5D504D",
"2 	c #8A6C5A",
"3 	c #C18140",
"4 	c #866755",
"5 	c #361F2C",
"6 	c #655650",
"7 	c #7C6D63",
"8 	c #7D6D62",
"9 	c #76675E",
"0 	c #3B2330",
"a 	c #5C4A46",
"b 	c #6C5B50",
"c 	c #FFCFAF",
"d 	c #D35A09",
"e 	c #F78233",
"f 	c #432936",
"g 	c #422935",
"h 	c #462D39",
"i 	c #D6CBB6",
"j 	c #DED6C5",
"k 	c #49303C",
"l 	c #1C1117",
"m 	c #48303B",
"n 	c #432935",
"o 	c #472E39",
"p 	c #3E2632",
"q 	c #6C2E34",
"r 	c #FFC0C5",
"s 	c #482F3A",
"t 	c #844F38",
"u 	c #6C3435",
"v 	c #3E2631",
"w 	c #6E3637",
"x 	c #472E3A",
"y 	c #3E2633",
"z 	c #362331",
"A 	c #49303B",
"B 	c #432A36",
"C 	c #2F1D2C",
"D 	c #34212F",
"E 	c #442A36",
"F 	c #4A313C",
"G 	c #4A303C",
"H 	c #F7F7F7",
"I 	c #301D2D",
"J 	c #3E2532",
"K 	c #331E2A",
"L 	c #3D2631",
"M 	c #412834",
"N 	c #402633",
"O 	c #412835",
"P 	c #3E2731",
"Q 	c #D6D6D6",
"R 	c #432B36",
"S 	c #68574E",
"T 	c #412934",
"U 	c #462E39",
"V 	c #3E2732",
"W 	c #412A35",
"X 	c #3F2632",
"Y 	c #36202C",
"Z 	c #3A232F",
"` 	c #39222E",
" .	c #39232E",
"..	c #F1AF00",
"+.	c #482F3B",
"@.	c #3C2631",
"#.	c #3C2731",
"$.	c #442A37",
"%.	c #FFD668",
"&.	c #3C2630",
"*.	c #FFF5D1",
"=.	c #C6A97F",
"-.	c #402733",
";.	c #37212C",
">.	c #452D37",
",.	c #331F2A",
"'.	c #35202B",
").	c #601111",
"!.	c #432C37",
"~.	c #38222E",
"{.	c #402833",
"].	c #472F3A",
"^.	c #3B2430",
"/.	c #402734",
"(.	c #412734",
"_.	c #3F2733",
":.	c #472F39",
"<.	c #3F2732",
"[.	c #575433",
"}.	c #BAD3BA",
"|.	c #422A35",
"1.	c #482E3A",
"2.	c #442B37",
"3.	c #F7F7EF",
"4.	c #FFEBC7",
"5.	c #A79277",
"6.	c #2C1B24",
"7.	c #FADCA5",
"8.	c #601117",
"9.	c #968D70",
"                            . + + + + + .                                                                                       ",
"                      . . . . @ @ @ @ @ . . . .                                                                                 ",
"                    . + + + + @ @ @ @ @ + + + + .                                                                               ",
"                    . + @ @ @ @ @ @ @ @ @ @ @ + .                                                                               ",
"                  . + + @ @ @ @ @ @ @ @ @ @ @ + + .       # $                                                                   ",
"                . . @ @ @ @ @ @ @ @ @ @ @ @ @ @ @ . .     % &                                                                   ",
"              . + @ @ * * @ @ @ @ @ @ @ @ @ @ @ @ + + .   = - ;                                                                 ",
"              . + @ @ * * @ @ @ @ @ @ @ @ @ @ @ @ @ + .   > , '                                                                 ",
"              . @ @ @ * * @ @ @ @ @ @ @ @ @ @ @ @ @ @ .   ) ! ~ {                                                               ",
"              . @ @ @ * * @ @ @ @ @ @ @ @ @ @ @ @ @ @ . ] ^ / / ( _                                                             ",
"              . @ * * @ @ @ @ @ @ @ @ @ @ @ @ @ @ @ @ . : < [ [ } |                                                             ",
"              . @ * * @ @ @ @ @ @ @ @ @ @ @ @ @ @ @ @ . 1 2 3 3 4 5                                                             ",
"              . @ * * @ @ @ @ @ @ @ @ @ @ @ @ @ @ @ @ . 6 7 8 8 9 0                                                             ",
"              . @ * * @ @ @ @ @ @ @ @ @ @ @ @ @ @ @ @ . a b . . . . . .                                                         ",
"              . @ @ @ @ @ @ @ @ @ @ @ @ @ @ @ @ @ @ @ . . . . c c c c . . . . . . .                                             ",
"              . @ @ @ @ @ @ @ @ @ @ @ @ @ @ @ @ @ @ @ . d c c e e e e c c c c c c .   f g                                       ",
"              . @ @ @ @ @ @ @ @ @ @ @ @ @ @ @ @ @ @ @ . d e e e e e e e e e e e e . . . . g                                     ",
"              . @ @ @ @ @ @ @ @ @ @ @ @ @ @ @ @ @ @ @ . d e e e e e e e e e e e e c c c . h       i j j j                       ",
"              . . . @ @ @ @ @ @ @ @ @ @ @ @ @ @ @ . . d e e e e e e e e e e e e e e e e . . . f i i i i j j                     ",
"                  . @ @ @ @ @ @ @ @ @ @ @ @ @ @ @ . d d e e e e e e e e e e e e e e e e e e . k l i l l i j                     ",
"                  . @ @ @ @ @ @ @ @ @ @ @ @ @ @ @ . d d d d e e e e e e d d d d d e e e e e . . . i l . . i                     ",
"                  i . + @ @ @ @ @ @ @ @ @ @ @ * * * * * * * d d e e d d * * * * * d e e e e e e . l . c c .                     ",
"                  i . + @ @ @ @ @ @ @ @ @ @ @ * * * * * * * d d d d d d * * * * * d e e e e e e . m . e e .                     ",
"                    . . . @ @ @ @ @ @ @ @ @ * * * * * * * * * * d d * * * * * * * * d d e e e e . . . e e .                     ",
"                      n . @ @ @ @ @ @ @ @ @ * * * * * * * * * * * * * * * * * * * * d d e e e e c c c e e .                     ",
"        # $           o . . @ @ @ @ @ @ @ . * * * * * * * * * * * * * * * * * * * * * * d e e e e e e e e . $                   ",
"        % &           p . d . + + @ @ . . . * * * * * * * * * * * * * * * * * * * * * * d e e e e e e e e . q                   ",
"        = - ;       n g . d e . . @ @ . d d * * * * * r r r r * * * * r r r r * * * * * d e e e e e e e e . - ;                 ",
"        > , '       o s . e e e e . . . d d * * * * r * * * * * * * * * * * * r * * * * d e e e e e e e e . , t f f             ",
"        ) ! ~ u f f p v . e e e e . d e e e * * * * * * * * * * * * * * * * * * * * * * d e e e e e e e e . ! ~ w x             ",
"    y ] ^ / / ( z A B x A . . e e . d e e e d * * * * * * * * * * * * * * * * * * * * d e e e e e e e . . . / / ( C             ",
"    p : < [ [ } D A E s F F G . . d e e e e d * * * * @ @ * * * H H * * * @ @ * * * * d e e e e e e e . : < [ [ } I             ",
"    J 1 2 3 3 4 K L M p o A A . d e e e e e d * * * * @ @ * * * H H * * * @ @ * * * * d e e e e e . . . 1 2 3 3 4 5             ",
"    N 6 7 8 8 9 0 O   O p v P . d e e e e e d * * * Q @ @ Q * * H H * * Q @ @ Q * * * d e e e e e . A R 6 7 8 8 9 0             ",
"      a b b b S T         U A . . . d e e e d * * * Q @ @ Q * * H H * * Q @ @ Q * * * d e e e e . . o V a b b b S W             ",
"    X Y Z Z Z `  .        p U . F . d e e e * * * * * ......H H * * H H ......* * * * * e e e e . +.g X Y Z Z Z ` @.            ",
"    X Y Z Z Z ` #.$.        p . o . d e e e * * * %.%.......+ + + + + + ......%.%.* * * e e e e . +.f X Y Z Z Z ` &.            ",
"    X Y Z Z Z ` #.s f         . F . d *.*.=.* * * %.%.......@ @ @ @ @ @ ......%.%.* * * =.*.*.. . F s -.Y Z Z Z ` ;.            ",
"    X Y Z Z Z ` ;.V   f f f . . F F . *.*.=.* * * * * @ @ %.* * * * * * %.@ @ * * * * * =.*.*.. F F F >.Y Z Z Z ` `             ",
"    X ,.Y Y Y '.&.A A m s A . F F ).. *.*.*.=.* * * * @ @ * * * * * * * * @ @ * * * * =.*.*.*.. F F F !.,.Y Y Y '.~.            ",
"    M X X X X X o F A {.L ].. F F ).. *.*.*.=.* * @ @ * * * * * * * * * * * * @ @ * * =.*.*.*.. F F A o {.>.>.R ^./.            ",
"                s A {.(.  s . F ).).. *.*.*.=.* * @ @ * * * * * * * * * * * * @ @ * * =.*.*.*.. F ]._.n M L L v M               ",
"                v L M f   n . :.).F . *.*.*.*.=.=.H H @ @ H H H H H H H H @ @ H H =.=.*.*.*.*.. F F s f   g                     ",
"                    s A E n . ).).).. . *.*.*.=.=.H H @ @ H H H H H H H H @ @ H H =.=.*.*.. . . F F A o B s x                   ",
"                    s A E o . ).F F F F . . *.*.*.=.=.=.=.=.=.=.=.=.=.=.=.=.=.=.=.*.*.*.*.. ).F F ].L <.  v p                   ",
"                    p v   ).. . . F F A . . . =.=.*.*.[.[.}.}.}.@ @ }.}.}.[.[.*.*.=.=.. . . F F F s $.A A s                     ",
"                      ].A A $.. . F F |.v v . =.=.*.*.[.[.}.}.}.@ @ }.}.}.[.[.*.*.=.=.. F F F F F A G F F s                     ",
"                      s F F G . . . . . A . . }.}.=.=.. . *.*.*.*.*.*.*.*.. . =.=.}.}.. . F F k 1.2.i j j j                     ",
"                      i j j j . . . . . . . * * * =.=.. . *.*.*.*.*.*.*.*.. . =.=.}.}.=.. F x f f i i i i j j                   ",
"                    i i i i j . . * * 3.. . * * * . . . . =.=.=.@ @ =.=.=.. . . . =.=.=.. U p $.A l i l l i j                   ",
"                    l i l l i . . * * 3.4.4.* * * .   . . =.=.=.@ @ =.=.=.. . L . =.=.=.. o     2.l i l l i i                   ",
"                    l i l l i i . 3.3.3.5.5.. . .   . . . *.*.*.*.*.*.*.*.. . O . . 3.3.. .     (.i l i i i 6.                  ",
"                    i l i i i 6.. . 4.5.5.5..       . 4.4.4.4.4.4.4.4.4.4.4.4.. . * * * * * .     i   i 6.6.6.                  ",
"                    i   i 6.6.6.. . 4.5.5.5..       . 7.7.7.7.7.7.7.7.7.7.7.7.. . * * * * * .                                   ",
"                              .     . . . . .       . . 5.5.5.. 8 8 . 5.5.. . . . * * * * * .                                   ",
"                              .       . . .           . 4.4.4.. b b . 4.4..     . 3.3.3.3.3..                                   ",
"                            .             . . . . . . . 4.4.4.. Z Z . 4.4.. . . . . . . . .                                     ",
"                            .                 . @ @ 8.4.4.4.4.. Z Z . 4.4.4.4.8.@ @ . .                                         ",
"                                              . @ @ 8.7.7.7.7.. Z Z . 7.7.7.7.8.@ @ . .                                         ",
"                                  . . . . . . . 4.4.4.4.4.4.4.. Z Z . 4.4.4.4.4.4.4.. . . . . . .                               ",
"                                  . . . . . . . 9.9.9.9.9.9.9.. Y Y . 9.9.9.9.9.9.9.. . . . . . .                               ",
"                                        . . . . . . . . . . . . . . . . . . . . . . . . . .                                     ",
"                                        . . . . . . . . . . . . . . . . . . . . . . . . . .                                     ",
"                                                                                                                                "};
