/* XPM */
static char * E1_xpm[] = {
"64 64 141 2",
"  	c #422835",
". 	c #432835",
"+ 	c #4D2A35",
"@ 	c #452835",
"# 	c #6B2E34",
"$ 	c #763834",
"% 	c #A9673B",
"& 	c #572C34",
"* 	c #7A3734",
"= 	c #C07B3F",
"- 	c #844E38",
"; 	c #A6673B",
"> 	c #C68F40",
", 	c #BA853E",
"' 	c #6C3334",
") 	c #3E2633",
"! 	c #5E272E",
"~ 	c #BA7B3E",
"{ 	c #DAC144",
"] 	c #B5783D",
"^ 	c #321E2E",
"/ 	c #3E2632",
"( 	c #5D3D3E",
"_ 	c #BA7A40",
": 	c #D4B243",
"< 	c #B7783C",
"[ 	c #311D2D",
"} 	c #3E2532",
"| 	c #5D504D",
"1 	c #8A6C5A",
"2 	c #C18140",
"3 	c #866755",
"4 	c #361F2C",
"5 	c #402633",
"6 	c #655650",
"7 	c #7C6D63",
"8 	c #7D6D62",
"9 	c #76675E",
"0 	c #3B2330",
"a 	c #5C4A46",
"b 	c #6C5B50",
"c 	c #68574E",
"d 	c #412934",
"e 	c #3F2632",
"f 	c #36202C",
"g 	c #3A232F",
"h 	c #39222E",
"i 	c #432936",
"j 	c #422935",
"k 	c #452B37",
"l 	c #4A313C",
"m 	c #472E3A",
"n 	c #D6CBB6",
"o 	c #DED6C5",
"p 	c #402733",
"q 	c #452C38",
"r 	c #4A303C",
"s 	c #49303B",
"t 	c #49303C",
"u 	c #472D39",
"v 	c #442B37",
"w 	c #462D39",
"x 	c #452D38",
"y 	c #331F2A",
"z 	c #35202B",
"A 	c #39232E",
"B 	c #49313C",
"C 	c #412834",
"D 	c #3E2631",
"E 	c #3D2631",
"F 	c #1C1117",
"G 	c #432935",
"H 	c #48303B",
"I 	c #412935",
"J 	c #402732",
"K 	c #422A36",
"L 	c #422A35",
"M 	c #452C37",
"N 	c #472E39",
"O 	c #442C37",
"P 	c #3F2733",
"Q 	c #462D38",
"R 	c #402834",
"S 	c #442A37",
"T 	c #2C1B24",
"U 	c #3F2633",
"V 	c #601111",
"W 	c #432B36",
"X 	c #3D2531",
"Y 	c #462C38",
"Z 	c #412734",
"` 	c #402934",
" .	c #3C2530",
"..	c #412A35",
"+.	c #462E39",
"@.	c #482F3A",
"#.	c #402833",
"$.	c #3E2731",
"%.	c #432A36",
"&.	c #482F3B",
"*.	c #452935",
"=.	c #6C2E34",
"-.	c #773935",
";.	c #472F3A",
">.	c #3F2732",
",.	c #844F38",
"'.	c #6C3435",
").	c #A6673C",
"!.	c #6E3637",
"~.	c #362331",
"{.	c #482E3A",
"].	c #452E39",
"^.	c #5E272F",
"/.	c #2F1D2C",
"(.	c #34212F",
"_.	c #442A36",
":.	c #301D2D",
"<.	c #331E2A",
"[.	c #3E2732",
"}.	c #3B232E",
"|.	c #412835",
"1.	c #3C2631",
"2.	c #3C2731",
"3.	c #3C2630",
"4.	c #37212C",
"5.	c #452D37",
"6.	c #432C37",
"7.	c #38222E",
"8.	c #3B2430",
"9.	c #402734",
"0.	c #472F39",
"a.	c #4A303B",
"b.	c #52303A",
"c.	c #4C313C",
"d.	c #6C2F34",
"e.	c #773936",
"f.	c #592F37",
"g.	c #3D2530",
"h.	c #442B36",
"i.	c #7A3835",
"j.	c #854F39",
"                                                                                                                                ",
"                                                                                                                                ",
"                                                                                                                                ",
"                                                                                                                                ",
"                                                          . +                                                                   ",
"                                                          @ #                                                                   ",
"                                                          $ % &                                                                 ",
"                                                          * = -                                                                 ",
"                                                          ; > , '                                                               ",
"                                                      ) ! ~ { { ] ^                                                             ",
"                                                      / ( _ : : < [                                                             ",
"                                                      } | 1 2 2 3 4                                                             ",
"                                                      5 6 7 8 8 9 0                                                             ",
"                                                        a b b b c d                                                             ",
"                                                      e f g g g h h                                                             ",
"                                                      e f g g g h h                   i j                                       ",
"                                        j i           e f g g g h h       i i i j   k l m j                                     ",
"                    n o o o           j m l k   j i i p f g g g h h     q r s t u   v s s w       n o o o                       ",
"                  n n n n o o         w s s k   u r s x y f f f z A i   q B l l w   C D E e   i n n n n o o                     ",
"                  F n F F n o   G i   e E D C   w l l H I e p J K m r w p L s M e k s s N   v t F n F F n o                     ",
"                  F n F F n n   m t v   N s s k / O s L P w r s s s s Q   R D P   k s l l m S s F n F F n n                     ",
"                  n F n n n T   N s S N l l B d U P D R V V V s W X E P Y s s u   p d s s N Z E n F n n n T                     ",
"                  n   n T T T `  .X Z N s s ..p   u s V Y P V E p j   q l l l l u   C D D P i   n H n T T T                     ",
"                        / +.s @.#.R i P D D C   u l V l l L e V Q r s l l l l s w k s s s s s t N $.D / j G                     ",
"                      G j / D $.+.s s s s s s k w V V l l W W V V l l l l l x E p q l l l l l l l s m %.@.N                     ",
"        . +           N @.%.N s l l l l l l l Y p V x l l s B l V l l l l l V V V V V V V V V l l l &.C E e +                   ",
"        @ #           / V V V V V V V V V V V V V V V V V V V V V V V V V V V l l l l l V l l l l l &.G   *.=.                  ",
"        $ % &       G j   j V l ` +.l l l l l l V l l l l l l l B s V s l l l l l l V V l l l l l l s N %.-.% &                 ",
"        * = -       N @.%.N s V V +.l l l l l V l l l l l s s s W X E V w l l l V V l l l l l l l ;.E >.  * = ,.i i             ",
"        ; > , '.i i / D   >.E D V V l l l l V V l l l l u p E E p j   q V l V V l l l l l l l l l @.S s s ).> , !.m             ",
"    ) ! ~ { { ] ~.s %.m s s S m l l V V s s V l l l l l l Y     Q r s l l V V l l {.Y l l l l l l s r ].^.~ { { ] /.            ",
"    / ( _ : : < (.s _.@.l l r s l l l I V V V {.l l l l l l s s l l l V V l V l l l l l l l l l &.k s O ( _ : : < :.            ",
"    } | 1 2 2 3 <.E C / N s s v @.l l k   V V l l l l l l l l l l l V V l l V l l l l l l l l l l N [.}.| 1 2 2 3 4             ",
"    5 6 7 8 8 9 0 |.  |./ D $.  @.l l l s V l V V l l l l l l l l V V l l l l V l l l l l l l l l l s W 6 7 8 8 9 0             ",
"      a b b b c d         +.s s l l l l V l l l l V l l l l l l V V l l l l l l V l l l l l l l l l N [.a b b b c ..            ",
"    e f g g g h A         / +.s l l l V V l l l l l V V l l l V l l l l l l l l V V l l l l l l l &.j e f g g g h 1.            ",
"    e f g g g h 2.S         / D N l l V l l l l l l l l V V V l l l l l l l l l l V l l l l l l l &.i e f g g g h 3.            ",
"    e f g g g h 2.@.i         m l l l V l l l l l l l l V V V l l l l l l l l l l l V l l l l l l l @.p f g g g h 4.            ",
"    e f g g g h 4.[.  i i i @.l l l V l l l l l l l V V l l l V V l l l l l l l l l V l l l l l l l l 5.f g g g h h             ",
"    e y f f f z 3.s s H @.s l l l V l l l l l l V V V l l l l l l V V l l l l l l l l V l l l l l l l 6.y f f f z 7.            ",
"    C e e e e e N l s #.E ;.l l l V l l l l V V l l l l l l l l l l l V V V l l l l l V l l l l l l s N #.5.5.W 8.9.            ",
"                @.s #.Z   @.s l V V l l V V V l l l l l l l l l l l l l l l V V l l l l V s s l l ;.P G C E E D C               ",
"                D E C i   G P 0.V l V V V l l l l l l l l l l l B s s s l l l V V V l l V V ..l l l @.i   j                     ",
"                    @.s _.G m V V V l l l l l l l l l l w u s s W X E p w l l l l V V V V V s l l l s N %.@.m                   ",
"                    @.s _.N V V l l l l l l s l l l l l l w p X p j   q l l l s s s l l l V V l l ;.E >.  D /                   ",
"                    / D   V V N l l l s s s d x l l l l l l Y   Q r s l l l {.C E ..s l l l l l l @.S s s @.                    ",
"                      ;.s s S @.l l l L D D C m l s s s l l l a.b.s s s s l l s u R p Y l l l l l s r l l @.                    ",
"                      @.l l r s l l l s s s s l l W X X M l l c.d.p i p L s s l l s @.s l l l t {.v n o o o                     ",
"                      n o o o v m s l l l s s s s k C C Q s B e.% f.    p g.W l l Q E L l l m i i n n n n o o                   ",
"                    n n n n o o P E Q l l L E E E p     P g.h.i.= j.      Z k s s w v s l +./ S s F n F F n o                   ",
"                    F n F F n o @.%./ +.l s v C |.          P ; > , '       p E E e v s s N     v F n F F n n                   ",
"                    F n F F n n ` 9.  N s s k             ) ! ~ { { ] ^       |.|.  9.E E e     Z n F n n n T                   ",
"                    n F n n n T 9.    e E E 9.            / ( _ : : < [               |.|.        n   n T T T                   ",
"                    n   n T T T         |.|.              } | 1 2 2 3 4                                                         ",
"                                                          5 6 7 8 8 9 0                                                         ",
"                                                            a b b b c d                                                         ",
"                                                          e f g g g h h                                                         ",
"                                                          e f g g g h h                                                         ",
"                                                          e f g g g h h                                                         ",
"                                                          e f g g g h h                                                         ",
"                                                          e y f f f z 7.                                                        ",
"                                                          C e e e e e 9.                                                        ",
"                                                                                                                                ",
"                                                                                                                                "};
