/* XPM */
static char * enemy_xpm[] = {
"64 64 135 2",
"  	c #422835",
". 	c #3E2632",
"+ 	c #0A0005",
"@ 	c #3C2430",
"# 	c #412734",
"$ 	c #412834",
"% 	c #38222D",
"& 	c #3E2532",
"* 	c #402734",
"= 	c #3E2531",
"- 	c #3D2531",
"; 	c #3F2633",
"> 	c #171015",
", 	c #3B232F",
"' 	c #35202A",
") 	c #402733",
"! 	c #3B2430",
"~ 	c #412835",
"{ 	c #37212C",
"] 	c #3F2632",
"^ 	c #39232E",
"/ 	c #301D27",
"( 	c #34202A",
"_ 	c #39222E",
": 	c #3A232F",
"< 	c #56252F",
"[ 	c #421B2E",
"} 	c #311D27",
"| 	c #36212C",
"1 	c #411B2D",
"2 	c #401A2D",
"3 	c #3A232E",
"4 	c #39232F",
"5 	c #7A3333",
"6 	c #431B2F",
"7 	c #321E28",
"8 	c #3B242F",
"9 	c #1E141A",
"0 	c #180811",
"a 	c #431B2E",
"b 	c #411B2E",
"c 	c #20151B",
"d 	c #2B121F",
"e 	c #3F1A2E",
"f 	c #431C2E",
"g 	c #28121D",
"h 	c #421B2F",
"i 	c #160710",
"j 	c #0C0107",
"k 	c #28121E",
"l 	c #29121E",
"m 	c #3F2732",
"n 	c #422834",
"o 	c #3C2530",
"p 	c #422A35",
"q 	c #472E39",
"r 	c #472F3A",
"s 	c #3A242F",
"t 	c #432C37",
"u 	c #3F2733",
"v 	c #432935",
"w 	c #FFFFFF",
"x 	c #3C2631",
"y 	c #3D2632",
"z 	c #452D38",
"A 	c #412934",
"B 	c #442C38",
"C 	c #3E2631",
"D 	c #412A34",
"E 	c #49303B",
"F 	c #442D37",
"G 	c #402732",
"H 	c #422935",
"I 	c #432936",
"J 	c #412935",
"K 	c #422B36",
"L 	c #482F3A",
"M 	c #4A313C",
"N 	c #462D38",
"O 	c #432A36",
"P 	c #472E3A",
"Q 	c #422B35",
"R 	c #48303B",
"S 	c #462E39",
"T 	c #3C2630",
"U 	c #38232D",
"V 	c #3E2832",
"W 	c #442A37",
"X 	c #462E3A",
"Y 	c #4A303C",
"Z 	c #442A36",
"` 	c #472F39",
" .	c #000000",
"..	c #49313C",
"+.	c #482F3B",
"@.	c #452B37",
"#.	c #3D2631",
"$.	c #442B37",
"%.	c #3E2732",
"&.	c #37222D",
"*.	c #3E2731",
"=.	c #452E38",
"-.	c #3C2531",
";.	c #070002",
">.	c #12040C",
",.	c #3F2933",
"'.	c #422936",
").	c #442C36",
"!.	c #3D2832",
"~.	c #3B2730",
"{.	c #442D38",
"].	c #48303A",
"^.	c #452E39",
"/.	c #442C37",
"(.	c #432D37",
"_.	c #412A35",
":.	c #030000",
"<.	c #402A34",
"[.	c #1A0B13",
"}.	c #3C252F",
"|.	c #3D2630",
"1.	c #3A242E",
"2.	c #170810",
"3.	c #2A121F",
"4.	c #351726",
"5.	c #361726",
"6.	c #2C1220",
"7.	c #2D1320",
"8.	c #2C1320",
"9.	c #402633",
"0.	c #2A121E",
"a.	c #26131D",
"b.	c #27131D",
"c.	c #351F2A",
"d.	c #26121C",
"                                                  . + + @                                                                       ",
"                            # . . $               # + + % & # * = - *                                                           ",
"                            ; > > ;               # , ' + + - - + + @                                                           ",
"                            ; > > % & #       ) & ) # % + + ! , + + ' = #     ~ ~ $ $                                           ",
"                            # @ { + + ) #   $ + + ]   % + + ! , + + + + .     ) ) = # $                                         ",
"                                . + + ^ @ ] @ + + / - ( + + { { + + + + _ #   . + + - )         $ * ; $                         ",
"                                ; + + + + + + + + + + + + + + + + + + + + + . ] + + _ *         ; ~ = ;                         ",
"                        $ ) $   ; + + + + + + + + + + + + + + + + + + + + + : ; + + ! #       * , .   ]                         ",
"                        ; ] $ . * - @ ^ + < < [ [ [ [ [ < < < < [ [ [ [ [ + + } ; . -     $ * | + % . )                         ",
"                        .     $ ~ $   # + < < [ [ [ [ [ < < < < [ 1 2 [ [ + + + 3 ) *     ; + + @   $   # ) ) ~                 ",
"                        ) ~   # ; * # 4 + 5 5 [ [ [ [ [ 5 5 5 5 [ 6 [ [ [ + + + 7 8 , * ) _ + + ;       > 9 @ *                 ",
"                          $ # # 0 + + + + 5 5 [ [ [ [ [ 5 5 5 5 [ a b [ [ + + + + + + + + + + + ) $   ) > c : #                 ",
"                              ; + + + + + 5 5 [ [ [ [ [ 5 5 5 5 [ a b [ [ + + + + + + + + + + + #   > > % . - .                 ",
"                    $       ~   + + d d + 5 5 [ [ e [ [ 5 5 5 5 [ [ b [ [ + d d f f f g g g + + @ . > > - # ) $                 ",
"                ; ] ) #   # # ) + + d d + 5 5 [ [ b f [ 5 5 5 5 [ [ h [ [ + d d f f f f g g g g + + : 3 # *                     ",
"                @ + i     # + + d d f f + + + [ [ b 1 [ + + + + [ [ b [ [ + g d f f f f f g g g + + - ) *                       ",
"                8 + j . # & + + d d f f + + + [ [ [ [ [ + + + + [ [ [ [ [ + g g f f f f f f f g + + @ # ; . . )                 ",
"                @ + + + + + + + f f f f + + + + + + + + + + + + + + + + + + d g f f [ b f f f g + + - * > > : ;                 ",
"                & + + + + + + + f f f f + + + + + + + + + + + + + + + + + + d d f f f f f f g g + + | 8 > > @ )                 ",
"                # . . @ + + + + f 6 f f d d d d d g g k k l l k g g g g g d f f f f f f f g g g + + + + 3 # ) #                 ",
"                    $ * + + + + f f 1 f d d d d d d d d d d d d d d d d d f f f f f f f f g g g + + + + m                       ",
"                    # # n o + + f f f f f f f f f f f f f f f f f f f f f f f [ f f f f f g g g + + + + p                       ",
"                        q r + + f + + f f f + + f f + + f f + + f f + + f f + + f f + + g g + + + + + + s                       ",
"                        - t + + f + + f f f + + f f + + f f + + f f + + f f + + f f + + g g + + + + + + u v                     ",
"                      v $ o + + + w w + + + w w + + w w + + w w + + w w + f + + + + + + + + + + + + x y z q                     ",
"                      q q A + + + w w + + + w w + + w w + + w w + + w w + + + + + + + + + + + + + + B ) o .                     ",
"                      . o C + + + w w + + + w w + + w w + + w w + + w w + + + + + + + + + + D E z F t G   H I                   ",
"                    v H # J K + + w w + + + w w + + w w + + w w + + w w + + + + + + + + + + L M L r z N O L P                   ",
"                    q L O q F + + + + + + + w w + + w w + + w w + + w w + + + + + + + + + + Q R E S T m   C . v I I             ",
"              I I I . C   m o U + + + + + + w w + + + + + + w w + + + + + + + + + + + + V E E M M L W E E L O E E P             ",
"              P E E O P E E W X + + + + + + w w + + + + + + w w + + + + + + + + + + + + R M M M M E Y M M L O E r .             ",
"              . q E Z L M M Y E ` + + + + + + + + + + + + +  . .+ + + + + + + + + + + + S ..M M +.@.E E q . $ #.C $             ",
"              $ C o u #.q E E $.F + + + + + + + + + + + + + + + + + + + + + + + + + + + F M M M M q %.C . ~   ~                 ",
"                ] &.{ - . C *.  z + + + + + + + + + + + + + + + + + + + + + + + + + + + =.E M M M M E S                         ",
"                -.+ + - $ S E E ` + + + + + + + + + + + + + + + + + + + + + + + + + + + z E M M M M S y         I I             ",
"              I u + + , - @ z z D + + +  .;.+ + + + + + + + + + + + + + + + + + + + + + =.M L ..M +.A = ; #   W E +.            ",
"              +.L ~ 3 + >.. -.+ + + + + + + + + + + + + + + + + + + + + + + + + + + + + ,.S S E M +.'.+ + - I L E L             ",
"              L E L - + >.^ ) + + + + + w w + + + + + + +  .+ + w w + + +  .+ + + + + + + + =.E M M ).+ + )   %.C C             ",
"              C C %.- . ! + + + + + + + w w + + + + + + + + + + w w + + + + + + + + + + + + !.S R ~.+ ,.{.].E E L               ",
"                L E z ^./.+ + + w w + + w w + + w w + + w w + + w w + + w w + + + + + + + + + + + + t (.m M M M L               ",
"                E M L m % + + + w w + + w w + + w w + + w w + + w w + + w w + +  .+ + + + + + + + + D _.H R E q .               ",
"                L E m & , + + + w w + + w w + + w w + + w w + + w w + + w w + + :.+ + + + + + + + + + + #.#.#.C $               ",
"                C #.m + + + + + w w + + w w + + w w + + w w + + w w + + w w + + + + + + + + + + + + + + - A                     ",
"                * ] <.+ + + + + + + g g + + f f + + f f + + f f + + f f + + g g + + g g + + + + + + + + o q P                   ",
"                - + [.Q }.+ + + + + g g + + f f + + f f + + f f + + f f + + g g + + g g + d d d d d + + & |..                   ",
"                - + + 1.# 2.+ g g f f f [ [ f f [ [ f f [ [ f [ [ [ f [ f [ [ f f f f f f d d 3.d d + + E L                     ",
"                ) - - z S + + g g f f [ [ [ [ [ [ [ [ [ [ [ [ [ [ [ [ [ [ [ a f f d d d d d d d d d + + M L                     ",
"                    # z z + + 4.f [ f [ [ [ [ [ [ [ [ [ [ [ f f f f f [ [ [ [ f f d d d d d d d d d + + q .                     ",
"                    ; + + + + 5.f a f [ f [ [ [ [ [ [ [ [ [ f f f f f f [ [ [ f f f d 6.d 3.d d + + + + . ~                     ",
"                # ; : + + + + f f a f f f f f f [ [ [ f f f f f d d f f f f f f f f d d d d d d + + + + ) $                     ",
"                . + + ] . + + f f f b f f f f f f f f f f f f f d d f f f f f f f f d d d d d d d d + + . *                     ",
"                -.+ + $ # + + f f f f f d d d d f f f f d d d d d d 6.7.7.7.7.7.7.8.d d d d d d d d + + *   ~                   ",
"                ; * * 9.- + + d d f f d d d d d f f f f d d d d d d d d d d 3.3.3.3.d d d d d d d d + + ^ ; 9.                  ",
"                ~       & + + d d d d d d d d 6.7.d 8.d 3.d 0.0.0.0.0.0.0.0.d d d d d d d d d d d d + + { + + #                 ",
"                        ) ; - + + d d d d d d d d d d d d d d d d d d d d d d d d d d d d d d d + + : ) 8 + + *                 ",
"                            ; + + a.l d d d d d 0.+ + + + + + + + + + + + + d 0.d d d d d 0.d d + + # $ ] + + )                 ",
"                              # 3 + + d d d d l b.+ + + + + + + + + + + + + d d d d d 3.g d + + ^ #     $ & ] $                 ",
"                                # + + d l d 3.+ + c.- ] ] ] ] ] ] ] ] ] ] , + + d 0.d 0.d d + + #                               ",
"                                ; + + d d d 0.+ + & ;                     ) + + d d l d d d + +                                 ",
"                                ; + + d d d l + + * #                     ~ ) , + + d.d d d + +                                 ",
"                                # * @ + + + + & & ; )                         . + + d d d d + +                                 ",
"                                    ) + + + + 9.  * )                         . + + d d d d + +                                 ",
"                                    # = & - ] #   # *                         ; # & + + + + + )                                 ",
"                                      $ # * # # # # #                         # # $ $ # # $ # $                                 "};
