/* XPM */
static char * void1_xpm[] = {
"64 64 284 2",
"  	c #422835",
". 	c #442C38",
"+ 	c #442F39",
"@ 	c #341E2A",
"# 	c #000000",
"$ 	c #352829",
"% 	c #4E3C45",
"& 	c #6A6C69",
"* 	c #7B7477",
"= 	c #483A40",
"- 	c #989898",
"; 	c #33222A",
"> 	c #473C41",
", 	c #474242",
"' 	c #6D6669",
") 	c #4C3942",
"! 	c #432A36",
"~ 	c #454545",
"{ 	c #464646",
"] 	c #412934",
"^ 	c #4E4347",
"/ 	c #4D3F46",
"( 	c #414340",
"_ 	c #6A5F64",
": 	c #452E39",
"< 	c #696969",
"[ 	c #6D6D6D",
"} 	c #6F6F6F",
"| 	c #999999",
"1 	c #9A9A9A",
"2 	c #7B7B7B",
"3 	c #39222E",
"4 	c #6B6166",
"5 	c #878787",
"6 	c #8A8A8A",
"7 	c #898989",
"8 	c #979797",
"9 	c #494646",
"0 	c #2C2929",
"a 	c #3D2431",
"b 	c #756F72",
"c 	c #838383",
"d 	c #939393",
"e 	c #969696",
"f 	c #909090",
"g 	c #8D8C8C",
"h 	c #3A232F",
"i 	c #685F63",
"j 	c #4E4147",
"k 	c #949494",
"l 	c #777676",
"m 	c #797777",
"n 	c #868585",
"o 	c #412B36",
"p 	c #3E2933",
"q 	c #5C5659",
"r 	c #8F8F8F",
"s 	c #8B8B8B",
"t 	c #412835",
"u 	c #39252E",
"v 	c #3C3237",
"w 	c #818181",
"x 	c #3A272E",
"y 	c #53484D",
"z 	c #524A4E",
"A 	c #807F7F",
"B 	c #625F60",
"C 	c #767575",
"D 	c #615F5F",
"E 	c #908F8F",
"F 	c #010E01",
"G 	c #666363",
"H 	c #555151",
"I 	c #514D4D",
"J 	c #484343",
"K 	c #646161",
"L 	c #888788",
"M 	c #919191",
"N 	c #010F01",
"O 	c #515050",
"P 	c #6C6A6A",
"Q 	c #676565",
"R 	c #767576",
"S 	c #8D8D8D",
"T 	c #423F3F",
"U 	c #787777",
"V 	c #040404",
"W 	c #9E9E9E",
"X 	c #454040",
"Y 	c #422935",
"Z 	c #432936",
"` 	c #472E3A",
" .	c #4A313C",
"..	c #452B37",
"+.	c #3B242F",
"@.	c #575455",
"#.	c #585656",
"$.	c #462D39",
"%.	c #49303B",
"&.	c #472D39",
"*.	c #4A303C",
"=.	c #48303B",
"-.	c #422B35",
";.	c #676063",
">.	c #665D61",
",.	c #432935",
"'.	c #3F2632",
").	c #3D2631",
"!.	c #3E2631",
"~.	c #412834",
"{.	c #462F3A",
"].	c #49303C",
"^.	c #442B37",
"/.	c #472E39",
"(.	c #3E2632",
"_.	c #442C37",
":.	c #3E2732",
"<.	c #031B02",
"[.	c #442A37",
"}.	c #49313C",
"|.	c #3F2633",
"1.	c #3F2733",
"2.	c #402834",
"3.	c #402934",
"4.	c #3C2530",
"5.	c #3D2531",
"6.	c #412734",
"7.	c #4B333D",
"8.	c #433039",
"9.	c #321E28",
"0.	c #3B2D2E",
"a.	c #462C38",
"b.	c #42343B",
"c.	c #030303",
"d.	c #3B2C33",
"e.	c #462E39",
"f.	c #482F3A",
"g.	c #402833",
"h.	c #483A41",
"i.	c #39282F",
"j.	c #010100",
"k.	c #645D5F",
"l.	c #433339",
"m.	c #3D3639",
"n.	c #402734",
"o.	c #4B3E43",
"p.	c #414440",
"q.	c #665B60",
"r.	c #432F38",
"s.	c #010701",
"t.	c #021602",
"u.	c #011302",
"v.	c #6B6B6B",
"w.	c #747574",
"x.	c #0B0B0B",
"y.	c #42363B",
"z.	c #2E1F24",
"A.	c #311C27",
"B.	c #3A222E",
"C.	c #37222C",
"D.	c #3E2531",
"E.	c #36202B",
"F.	c #3A242F",
"G.	c #6F6468",
"H.	c #7F7F7F",
"I.	c #787878",
"J.	c #565656",
"K.	c #031002",
"L.	c #020F01",
"M.	c #010D01",
"N.	c #797979",
"O.	c #393636",
"P.	c #221F1F",
"Q.	c #676666",
"R.	c #514E4E",
"S.	c #422F39",
"T.	c #331E28",
"U.	c #351F2A",
"V.	c #39222D",
"W.	c #38232D",
"X.	c #787174",
"Y.	c #534F4F",
"Z.	c #584A51",
"`.	c #6B6165",
" +	c #52454A",
".+	c #4D4949",
"++	c #4D4046",
"@+	c #4B343E",
"#+	c #422D37",
"$+	c #432E36",
"%+	c #5C5658",
"&+	c #5F5C5C",
"*+	c #2A2828",
"=+	c #48363F",
"-+	c #402A34",
";+	c #44373D",
">+	c #45363C",
",+	c #4A353E",
"'+	c #49313B",
")+	c #3E2B32",
"!+	c #554A4E",
"~+	c #544C50",
"{+	c #55454C",
"]+	c #472F3A",
"^+	c #442A36",
"/+	c #8A8989",
"(+	c #7A7878",
"_+	c #5D5A5A",
":+	c #4F4549",
"<+	c #6D6C6C",
"[+	c #555555",
"}+	c #3D3539",
"|+	c #50444A",
"1+	c #482F3B",
"2+	c #A6A6A6",
"3+	c #48303A",
"4+	c #3A232E",
"5+	c #585556",
"6+	c #9C9C9C",
"7+	c #41353A",
"8+	c #422936",
"9+	c #3C2430",
"0+	c #696265",
"a+	c #696064",
"b+	c #6F6E6E",
"c+	c #4A4848",
"d+	c #091006",
"e+	c #452D38",
"f+	c #422F37",
"g+	c #2D1B24",
"h+	c #422A35",
"i+	c #39232E",
"j+	c #403137",
"k+	c #3F3A3A",
"l+	c #7D7D7D",
"m+	c #343332",
"n+	c #777877",
"o+	c #5F605F",
"p+	c #463A3F",
"q+	c #432D36",
"r+	c #3E2932",
"s+	c #452E38",
"t+	c #3C2731",
"u+	c #3F2732",
"v+	c #464141",
"w+	c #5B5357",
"x+	c #362F33",
"y+	c #6C6C6C",
"z+	c #686868",
"A+	c #010001",
"B+	c #5E5D5D",
"C+	c #5F5D5D",
"D+	c #737171",
"E+	c #838282",
"F+	c #3C3939",
"G+	c #483D41",
"H+	c #4C353F",
"I+	c #5F585B",
"J+	c #2B2828",
"K+	c #47363E",
"L+	c #422B36",
"M+	c #40353A",
"N+	c #473A40",
"O+	c #45373D",
"P+	c #482E3A",
"Q+	c #564B4F",
"R+	c #544C4F",
"S+	c #3E2731",
"T+	c #43353C",
"U+	c #3B232F",
"V+	c #37212C",
"W+	c #3B2430",
"X+	c #35202A",
"Y+	c #2F1F26",
"Z+	c #2A1B21",
"`+	c #2B1A22",
" @	c #382A30",
".@	c #412935",
"+@	c #291A20",
"@@	c #3E2532",
"#@	c #2E2227",
"$@	c #2E1B24",
"%@	c #331E29",
"&@	c #412A35",
"                                                                                                                                ",
"                                                                                                                                ",
"                                                                        . + @ # # # $   % & # # *                     # #       ",
"                                                                  = # # # # # - - - # ; > # , - # ' )       ! # # # # ~ { # ] ^ ",
"                                                          / # # # # - - - - - - - - - # ( # - - - # _ : # # # < [ [ } | 1 2 # # ",
"                                                        3 # - - - - - - - - - - - - - , # , - - , # 4 # 5 6 7 8 - - - - - - 9 0 ",
"                                                      a # - - - - - - - - - - - - - - - - - - , # b # c - d 7 e - f g - - - 8 8 ",
"                                                      h # - - - # # - - - # , - - - - - - - , , # i j # # # # k - c # l m m m n ",
"                                                      o p # # # - - - - - - # , , , , , , - - , # # q # 6 r | - - - s # # # # # ",
"                                                    t u # - - - - - - - - - - # # # # # # , , # # v # - - - - - - - - 8 8 8 8 w ",
"                                                    x # - - - - - - - - - - - - - - - - - # # y z # s | - - | 8 A | - - - - - | ",
"                                                    # - - - - - - - - - - - - - - - - - - - - # # # B s 8 - C D E - - - - - - - ",
"                                                    F , - - - - - - - , - - - - - - - - - - - - - - # G H I J K L # # M - - - - ",
"                                                    N , , - - - - , , - - - - - - - - - - - - - - - - # O P Q R # - - # S d e - ",
"                                                    N , , , , , , , , - - - - - - - - - - - - - - - - # T U # # - - - - # V # W ",
"                                                    N , , , , , , , - - - - - - - - - - - - - - - - - # X # - - - - - - - - - # ",
"                                        Y Z         N , , , # # , , , , - - - - - - - - - - - - - - , # J # - - - - - - - - - - ",
"                                      Y `  ...  Y Z +.# , # , , , , , , , - - - - - - - - - , , , # # @.#.# - - - - - - - - - - ",
"                                      $.%.%...  &.*.=.-.# , , , , , , , - - - - - - - - - , # # # # ;.>.# , - - - - - - - - - - ",
"                                ,.Z   '.).!.~.  $. . .{.# , , , , , , , - - - - - - - - - - - - - , # # , , , - - - - - - - , - ",
"                                ` ].^.  /.%.%...(._.%.:.# , , , <., , , - - - - - - - - - - - - - - - , , , , , , - - - - - # , ",
"                        ,.Z Z   /.%.[./. . .}.] |.1.!.2.+.# , , # , , , , - - - - - - - - - - - - - - , , , , , - - - - - , # # ",
"                        /.%.%.3.4.5.6./.%.7.8.9.# # # 0.a.b.# # c.# # # , , , - - - - , - - - - - - , # , , , , , , - - - , # d.",
"                        (.e.%.f.g.2.h.# # # # # - - - # i.> # , - j.k.l.# # , , , - , , , # , , , , # m.# # , , # # , , # # # n.",
"                      ,.Y (.o.# # # # - - - - - - - - - # p.# - - - # q.r.s.t.u., , , , # v.# # # # w.x.y.z.# # A.B.# # C.D.E.  ",
"                      /.f.F.# - - - - - - - - - - - - - , # , - - , # G.# H.I.J.# K.L.M.} e N.O.P.Q.S R.# S.T.U.(.  V.9.n.      ",
"                      (.W.# - - - - - - - - - - - - - - - - - - , # X.# c - d 7 e - f g - - - 8 8 M Y.# Z._.Z                   ",
"                    ,.Y h # - - - # # - - - # , - - - - - - - , , # `. +# # # # k - c # l m m m n n .+# ++@+`                   ",
"                    /.f.#+$+# # # - - - - - - # , , , , , , - - , # # %+# 6 r | - - - s # # # # # &+*+# =+-+(.,.Z Z             ",
"              Z Z Z (.!.u # - - - - - - - - - - # # # # # # , , # # v # - - - - - - - - 8 8 8 8 w # ;+>+,+'+! %.%.`             ",
"              ` %.%.! )+# - - - - - - - - - - - - - - - - - # # !+~+# s | - - | 8 A | - - - - - | 1 # # # {+! %.]+(.            ",
"              (./.%.^+# - - - - - - - - - - - - - - - - - - - - # # # B s 8 - C D E - - - - - - - - - | M # ~.).!.~.            ",
"              ~.!.).~.F , - - - - - - - , - - - - - - - - - - - - - - # G H I J K L # # M - - - - - - - 1 #   t                 ",
"                  t   N , , - - - - , , - - - - - - - - - - - - - - - - # O P Q R # - - # S d e - | | 1 /+#                     ",
"                      N , , , , , , , , - - - - - - - - - - - - - - - - # T U # # - - - - # V # W (+_+#.# :+    Z Z             ",
"              Z Z     N , , , , , , , - - - - - - - - - - - - - - - - - # X # - - - - - - - - - # <+[+# }+|+  [.%.1+            ",
"              1+%.[.  N , , , # # , , , , - - - - - - - - - - - - - - , # J # - - - - - - - - - - V 2+1 # # ! 3+%.f.            ",
"              f.%.f.Z 4+# , # , , , , , , , - - - - - - - - - , , , # # 5+#.# - - - - - - - - - - - # 6+| _+# 7+!.!.            ",
"              !.!.:.  8+9+# , , , , , , , - - - - - - - - - , # # # # 0+a+# , - - - - - - - - - - - - # b+c+# d+f.              ",
"                f.%.%.=.e+# , , , , , , , - - - - - - - - - - - - - , # # , , , - - - - - - - , - - - - # # - # f.              ",
"                %. .7.f+g+# , , , <., , , - - - - - - - - - - - - - - - , , , , , , - - - - - # , - - - - - # h+(.              ",
"              = # # # # # 6 # , , # , , , , - - - - - - - - - - - - - - , , , , , - - - - - , # # , , - - # i+!.~.              ",
"      / # # # # - - - - - - 5 # # c.# # # , , , - - - - , - - - - - - , # , , , , , , - - - , # j+# # # # C.                    ",
"    3 # - - - - - - - - - - - - - , j.k+l+# # , , , - , , , # , , , , # m+# # , , # # , , # # # =. .%./.! f.`                   ",
"  a # - - - - - - - - - - - - - - - - - S k+s.t.u., , , , # < # # # # n+f w o+# # p+q+# # r+s+t+}.]+).u+  !.(.                  ",
"  h # - - - # # - - - # , - - - - - - - , v+# w+x+# K.L.M.y+e z+A+B+C+D+m n E+F+# G+H+-+u =. . . .f.[.%.%.f.                    ",
"  o p # # # - - - - - - # , , , , , , - - , # # I+# 6 r | - - - s # # # # # &+J+# K+L+a. . . . . .%.*. . .f.                    ",
"t u # - - - - - - - - - - # # # # # # , , # # M+# - - - - - - - - 8 8 8 8 w # N+O+,+'+%. . . .].P+^.%.%./.(.                    ",
"x # - - - - - - - - - - - - - - - - - # # Q+R+# s | - - | 8 A | - - - - - | 1 # # # j h+ . .` Z Z   S+!.(.t                     ",
"# - - - - - - - - - - - - - - - - - - - - # # # B s 8 - C D E - - - - - - - - - | M # %. .e.(.[.%.%.%.e.                        ",
"F , - - - - - - - , - - - - - - - - - - - - - - # G H I J K L # # M - - - - - - - 1 # %.%./.    ^.%.e.(.                        ",
"N , , - - - - , , - - - - - - - - - - - - - - - - # O P Q R # - - # S d e - | | 1 /+# ).).'.    6.).(.                          ",
"N , , , , , , , , - - - - - - - - - - - - - - - - # T U # # - - - - # V # W (+_+#.# :+t t         t                             ",
"N , , , , , , , - - - - - - - - - - - - - - - - - # X # - - - - - - - - - # <+[+# }+|+                                          ",
"N , , , # # , , , , - - - - - - - - - - - - - - , # J # - - - - - - - - - - V 2+1 # # Y Y                                       ",
"4+# , # , , , , , , , - - - - - - - - - , , , # # @.#.# - - - - - - - - - - - # 6+| _+# T+                                      ",
"t U+# , , , , , , , - - - - - - - - - , # # # # ;.>.# , - - - - - - - - - - - - # b+c+# d+                                      ",
"  |.# , , , , , , , - - - - - - - - - - - - - , # # , , , - - - - - - - , - - - - # # - #                                       ",
"  (.# , , , <., , , - - - - - - - - - - - - - - - , , , , , , - - - - - # , - - - - - # 5.                                      ",
"    +.# , , # , , , , - - - - - - - - - - - - - - , , , , , - - - - - , # # , , - - # D.                                        ",
"      B.# # 1.# # # , , , - - - - , - - - - - - , # , , , , , , - - - , # d.# # # # V+                                          ",
"              W+h X+# # , , , - , , , # , , , , # Y+# # , , # # , , # # # n.                                                    ",
"                  5.h Z+t.u., , , , # `+# # # #  @.@V++@# # A.B.# # C.D.E.                                                      ",
"                    6.@@V.#@# K.L.M.$@6.%@%@%@T.&@!   n.T.U.(.  V.9.n.                                                          "};
