/* XPM */
static char * REALFOG_xpm[] = {
"64 64 239 2",
"  	c #422835",
". 	c #3E2632",
"+ 	c #3C2430",
"@ 	c #3E2532",
"# 	c #3D2531",
"$ 	c #514048",
"% 	c #4A3640",
"& 	c #4D3F45",
"* 	c #3F2632",
"= 	c #412835",
"- 	c #432936",
"; 	c #442D38",
"> 	c #5A4D53",
", 	c #412734",
"' 	c #452F3A",
") 	c #462F3A",
"! 	c #46343C",
"~ 	c #402734",
"{ 	c #53444B",
"] 	c #524249",
"^ 	c #53434B",
"/ 	c #432C37",
"( 	c #62585D",
"_ 	c #5B4F54",
": 	c #412834",
"< 	c #52424A",
"[ 	c #422936",
"} 	c #402633",
"| 	c #4F3E46",
"1 	c #4D3B43",
"2 	c #5F5459",
"3 	c #62585C",
"4 	c #6B6869",
"5 	c #000000",
"6 	c #797476",
"7 	c #7F7A7C",
"8 	c #020202",
"9 	c #010202",
"0 	c #6B6266",
"a 	c #5E5257",
"b 	c #574A50",
"c 	c #4C3942",
"d 	c #6F686B",
"e 	c #868384",
"f 	c #767374",
"g 	c #989898",
"h 	c #594C52",
"i 	c #3F2833",
"j 	c #483C42",
"k 	c #4F3D46",
"l 	c #46393F",
"m 	c #432E38",
"n 	c #45363D",
"o 	c #46383E",
"p 	c #45343C",
"q 	c #403239",
"r 	c #4D4D4D",
"s 	c #726F71",
"t 	c #3A3236",
"u 	c #7A7376",
"v 	c #3E2531",
"w 	c #473B41",
"x 	c #4D4548",
"y 	c #7E777A",
"z 	c #13080D",
"A 	c #6C6266",
"B 	c #7D787A",
"C 	c #54444C",
"D 	c #585054",
"E 	c #4B3741",
"F 	c #868686",
"G 	c #746C70",
"H 	c #422935",
"I 	c #373737",
"J 	c #63575C",
"K 	c #452B37",
"L 	c #4A313C",
"M 	c #472E3A",
"N 	c #060204",
"O 	c #736A6E",
"P 	c #59474F",
"Q 	c #5D4E54",
"R 	c #462D39",
"S 	c #6A6366",
"T 	c #6C6568",
"U 	c #4D3E44",
"V 	c #716A6D",
"W 	c #615A5D",
"X 	c #5A5055",
"Y 	c #442D37",
"Z 	c #665B5F",
"` 	c #918D8F",
" .	c #63565C",
"..	c #0E060A",
"+.	c #422C36",
"@.	c #7A7477",
"#.	c #7D7579",
"$.	c #432935",
"%.	c #51464B",
"&.	c #4E3A43",
"*.	c #8E8A8C",
"=.	c #928C8F",
"-.	c #472E39",
";.	c #49303B",
">.	c #919790",
",.	c #4F4147",
"'.	c #64595E",
").	c #594F53",
"!.	c #989596",
"~.	c #462E39",
"{.	c #482F3A",
"].	c #503C45",
"^.	c #605359",
"/.	c #80787B",
"(.	c #645C60",
"_.	c #645C5F",
":.	c #3E2631",
"<.	c #3E2731",
"[.	c #432A36",
"}.	c #3D2631",
"|.	c #0F080B",
"1.	c #482F3B",
"2.	c #402934",
"3.	c #392930",
"4.	c #423239",
"5.	c #402833",
"6.	c #35222A",
"7.	c #3F2732",
"8.	c #322128",
"9.	c #442A37",
"0.	c #39252E",
"a.	c #020303",
"b.	c #4C3B42",
"c.	c #462C38",
"d.	c #472F3A",
"e.	c #442A36",
"f.	c #4A303C",
"g.	c #432C36",
"h.	c #3D2632",
"i.	c #39222D",
"j.	c #482E3A",
"k.	c #57454D",
"l.	c #462E38",
"m.	c #513C45",
"n.	c #402E36",
"o.	c #4E4047",
"p.	c #452D37",
"q.	c #49313C",
"r.	c #4B323D",
"s.	c #4C3640",
"t.	c #4E3741",
"u.	c #3E2732",
"v.	c #3B242F",
"w.	c #3C2530",
"x.	c #3B252E",
"y.	c #4C353F",
"z.	c #59494F",
"A.	c #57474E",
"B.	c #58484E",
"C.	c #49333C",
"D.	c #665B60",
"E.	c #5F5258",
"F.	c #58474E",
"G.	c #503E46",
"H.	c #62575B",
"I.	c #58484F",
"J.	c #6D696A",
"K.	c #7B7577",
"L.	c #452D38",
"M.	c #817C7E",
"N.	c #6E6569",
"O.	c #63565B",
"P.	c #584A51",
"Q.	c #858384",
"R.	c #777475",
"S.	c #5E5056",
"T.	c #463039",
"U.	c #4D4045",
"V.	c #55434B",
"W.	c #49333D",
"X.	c #4A3A41",
"Y.	c #473940",
"Z.	c #737072",
"`.	c #3D3538",
" +	c #7D7578",
".+	c #50474A",
"++	c #80797C",
"@+	c #11080C",
"#+	c #6F6569",
"$+	c #48303B",
"%+	c #5A4950",
"&+	c #5B5256",
"*+	c #523E46",
"=+	c #776F72",
"-+	c #3F2733",
";+	c #685B60",
">+	c #412A35",
",+	c #070305",
"'+	c #756B6F",
")+	c #54444B",
"!+	c #55484E",
"~+	c #402733",
"{+	c #6B6467",
"]+	c #6E676A",
"^+	c #4E3E45",
"/+	c #6E6368",
"(+	c #726A6D",
"_+	c #6D6669",
":+	c #635C5F",
"<+	c #5E5358",
"[+	c #412A34",
"}+	c #675B61",
"|+	c #928E90",
"1+	c #685A60",
"2+	c #412B35",
"3+	c #7C7678",
"4+	c #81787B",
"5+	c #57494F",
"6+	c #4A373F",
"7+	c #8F8B8D",
"8+	c #948E91",
"9+	c #442B37",
"0+	c #54454C",
"a+	c #695C61",
"b+	c #5F5358",
"c+	c #44393D",
"d+	c #44393E",
"e+	c #49373F",
"f+	c #605358",
"g+	c #675E62",
"h+	c #0F070B",
"i+	c #33242C",
"j+	c #2F1B25",
"k+	c #2C1B24",
"l+	c #3B232F",
"m+	c #331E28",
"n+	c #48373F",
"o+	c #331E29",
"p+	c #3A2831",
"                                                                                                                                ",
"                                                                                                                                ",
"                                                                                                                                ",
"                                                                                                                                ",
"                                                                                                                                ",
"                                                        . + @ #       $ @ . %                                                   ",
"                                                    & * = - ; > ,   ' ,   - , )                                                 ",
"                                            ! * ~ * ~ - ; { ] ^ / . ' + ( _ { : <                                               ",
"                                    [ # } ~ } | 1 2 { 3 4 5 5 5 6 . # 7 8 9 0 . a                                               ",
"                                  = : b ) c 2 d e e f 5 5 g g g 5 h i 5 g g 5 j k                                               ",
"                                  l m n o p q 5 5 5 5 g g g g g r 5 s t g g g 5 u                                               ",
"                                v w x 5 5 5 5 g g g g g g g g g g 5 5 g g g g 5 y                                               ",
"                                o 5 z g g g g g g g g g g g g g g g 5 g g g g 5 A                                               ",
"                                5 r r r r r 5 5 5 g g g g g g g g g g g g g 5 B C                                               ",
"                              5 5 r r r 5 5 5 g g g g 5 r g g g r g g g g r 5 D E                                               ",
"                            5 g F 5 5 5 5 g g g g g g g 5 r r r r r g g g r r 5 G     - H                                       ",
"                            5 5 5 g g g g g g g g g g g r 5 5 5 5 5 5 g g 5 5 5 I J K L M H                                     ",
"                            5 r r g g g g g r g r g g g g g g g g g g g g g g g g N O P Q R   S 5 5 5 T                         ",
"                            5 r r r r r r r r r g g g g g g g g g g g g g g g g g g 5 U 0 V T 5 g g g 5 W W X                   ",
"                            5 r r r r r r r r g g g g g g g g g g g g g g g g g g g 5 Y Z 5 5 g g g g g 5 5 5 `  .              ",
"                            5 r r r r r r r r r r g g g g g g g g g g g g g g g g r ..+.5 g g g g g g g g g g 5 @.#.            ",
"                        $.- 5 r r r r r r r r r r r r g g g g g g g g g g g g g r 5 %.&.5 g g g g g g g g g g g 5 *.=.          ",
"                        -.;.;.5 r r r r r r r r r r r g g g g g g g >.g r r r r 5 ,.'.).5 g g g g g g g g g g g g 5 !.      l l ",
"                        . ~.;.{.5 r r r r r r r r g g g g g g g g g g r 5 5 5 5 ].^./.5 r g g g g g g g g g g g g g 5 (.(._.5 5 ",
"                      $.H . :.<.5 r r r r r r r r g g g g g g g g g g g g g g r 5 5 5 r r r r g g g g g g g r g g g g 5 5 5 g 5 ",
"                      -.{.[.-.;.5 r r r r 5 r r r g g g g g g g g g g g g g g g g g r r r r r r r r g g g g 8 r g g g g g g 5   ",
"                      . }.: {.L ;.5 r r r 5 r r r r g g g g g g g g g g g g g g g g r r r r r r g g g g g r |.5 r g g g g 5     ",
"                    $.H   H 1.L 2.~.5 5 5 3.5 r r r r g g g g g g g r g g g g g g r r r r r r r g g g g g r 5 4.5 5 5 5 5       ",
"                    -.{.[.-.;.;.5.~.L L L L 6.5 5 r r r g g g g r r r g g g g g r r 5 r r r r r r r r r r r 5 $.- -             ",
"              - - - . :.  7.}.:.~.L L L L L L L 8.5 5 r r r r r r r r 5 r r r r r 5 +.5 5 r r 5 5 5 r r 5 5 5 ;.;.M             ",
"              M ;.;.[.M ;.;.9.M L L L ;.;.;.;.L L L 0.5 5 5 r r r r 5 L a.8 8 8 8 b.c.L L 5 5 0.L ;.5 5 L {.[.;.d..             ",
"              . -.;.e.{.L L f.;.L ~.g.h.i.}.: j.k.l.~.m.L n.8 8 5 5 L L L L L L L L L L L L L L 1.K ;.;.-.. : }.:.:             ",
"              : :.}.: . -.;.;.o.p.q.r.d.> , -.s.;.L r.;.t.L L L L L L L L L L L L L L L L L L L L -.u.:.. =   =                 ",
"                  =   p v.w.x.~ ;.y.z.A.B.C.~.s.g.D.E.z.;.F.L L L L L L L L L L L L L L L L L L L L ;.~.                        ",
"              [ # } ~ } | G.H.I.Z J.5 5 5 K.~.L.M.8 9 N.~.O.L L L L L L L L L L L L L L L L L L L L -..         - -             ",
"            = H P.) c 2 d Q.e R.5 5 g g g 5 S.T.5 g g 5 U.V.L L L L L L L L L L L L L L L L L L L 1.H         9.;.1.            ",
"            l W.X.Y.p q 5 5 5 5 g g g g g r 5 Z.`.g g g 5  +L L L L L L L L L L L L L L L L L L L 1.-       - {.;.{.            ",
"          v w .+5 5 5 5 g g g g g g g g g g 5 5 g g g g 5 ++L L L L L L L L L L L L L L L L L L L L {.- - -   u.:.:.            ",
"          o 5 @+g g g g g g g g g g g g g g g 5 g g g g 5 #+L L L L L L L L L L L L L L L L L L L L L ;.$+;.;.;.{.              ",
"          5 r r r r r 5 5 5 g g g g g g g g g g g g g 5 7 %+L L L L L L L L L L L L L L L L L L L L L d.5.L L L {.              ",
"        5 5 r r r 5 5 5 g g g g 5 r g g g r g g g g r 5 &+*+L L L L L L L L L L L L L L L L L L L L ;.{.[.;.;.-..               ",
"      5 g F 5 5 5 5 g g g g g g g 5 r r r r r g g g r r 5 =+L L L L L L L L L L L L L L L ;.;.L L d.-+$.: }.}.:.:               ",
"      5 5 5 g g g g g g g g g g g r 5 5 5 5 5 5 g g 5 5 5 I ;+L q.;.;.;.L L L L L L L L ~.:.>+L L L {.-   H                     ",
"      5 r r g g g g g r g r g g g g g g g g g g g g g g g g ,+'+)+!+}.~+{+5 5 5 ]+L L L L ;.;.L L L ;.-.[.{.M                   ",
"      5 r r r r r r r r r g g g g g g g g g g g g g g g g g g 5 ^+/+(+_+5 g g g 5 :+:+<+L L L L L d.}.7.  :..                   ",
"      5 r r r r r r r r g g g g g g g g g g g g g g g g g g g 5 [+}+5 5 g g g g g 5 5 5 |+1+L L L {.9.;.;.{.                    ",
"      5 r r r r r r r r r r g g g g g g g g g g g g g g g g r ..2+5 g g g g g g g g g g 5 3+4+L L ;.f.L L {.                    ",
"      5 r r r r r r r r r r r r g g g g g g g g g g g g g r 5 5+6+5 g g g g g g g g g g g 5 7+8+j.9+;.;.-..                     ",
"        5 r r r r r r r r r r r g g g g g g g >.g r r r r 5 0+a+b+5 g g g g g g g g g g g g 5 !.-   <.c+d+=                     ",
"          5 r r r r r r r r g g g g g g g g g g r 5 5 5 5 e+f+/.5 r g g g g g g g g g g g g g 5 g+g+g+5 5                       ",
"          5 r r r r r r r r g g g g g g g g g g g g g g r 5 5 5 r r r r g g g g g g g r g g g g 5 5 5 g 5                       ",
"          5 r r r r 5 r r r g g g g g g g g g g g g g g g g g r r r r r r r r g g g g 8 r g g g g g g 5                         ",
"            5 r r r 5 r r r r g g g g g g g g g g g g g g g g r r r r r r g g g g g r h+5 r g g g g 5                           ",
"              5 5 5 i+5 r r r r g g g g g g g r g g g g g g r r r r r r r g g g g g r 5 4.5 5 5 5 5                             ",
"                      j+5 5 r r r g g g g r r r g g g g g r r 5 r r r r r r r r r r r 5                                         ",
"                          k+5 5 r r r r r r r r 5 r r r r r 5 l+5 5 r r 5 5 5 r r 5 5 5                                         ",
"                              m+5 5 5 r r r r 5   a.8 8 8 8 n+      5 5 o+    5 5                                               ",
"                                    p+8 8 5 5                                                                                   ",
"                                                                                                                                ",
"                                                                                                                                ",
"                                                                                                                                ",
"                                                                                                                                ",
"                                                                                                                                ",
"                                                                                                                                "};
