/* XPM */
static char * fog1_xpm[] = {
"64 64 273 2",
"  	c #422835",
". 	c #442C38",
"+ 	c #442F39",
"@ 	c #341E2A",
"# 	c #000000",
"$ 	c #352829",
"% 	c #4E3C45",
"& 	c #6A6C69",
"* 	c #7B7477",
"= 	c #483A40",
"- 	c #989898",
"; 	c #33222A",
"> 	c #473C41",
", 	c #474242",
"' 	c #6D6669",
") 	c #4C3942",
"! 	c #432A36",
"~ 	c #454545",
"{ 	c #464646",
"] 	c #412934",
"^ 	c #4E4347",
"/ 	c #574B51",
"( 	c #4D3F46",
"_ 	c #414340",
": 	c #6A5F64",
"< 	c #452E39",
"[ 	c #696969",
"} 	c #6D6D6D",
"| 	c #6F6F6F",
"1 	c #999999",
"2 	c #9A9A9A",
"3 	c #7B7B7B",
"4 	c #616060",
"5 	c #949494",
"6 	c #39222E",
"7 	c #6B6166",
"8 	c #878787",
"9 	c #8A8A8A",
"0 	c #898989",
"a 	c #979797",
"b 	c #494646",
"c 	c #2C2929",
"d 	c #838282",
"e 	c #514E4E",
"f 	c #3D2431",
"g 	c #756F72",
"h 	c #838383",
"i 	c #939393",
"j 	c #969696",
"k 	c #909090",
"l 	c #8D8C8C",
"m 	c #919191",
"n 	c #534F4F",
"o 	c #3A232F",
"p 	c #685F63",
"q 	c #4E4147",
"r 	c #777676",
"s 	c #797777",
"t 	c #868585",
"u 	c #4D4949",
"v 	c #412B36",
"w 	c #3E2933",
"x 	c #5C5659",
"y 	c #8F8F8F",
"z 	c #8B8B8B",
"A 	c #5F5C5C",
"B 	c #2A2828",
"C 	c #412835",
"D 	c #39252E",
"E 	c #3C3237",
"F 	c #818181",
"G 	c #43373C",
"H 	c #403339",
"I 	c #3A272E",
"J 	c #53484D",
"K 	c #524A4E",
"L 	c #807F7F",
"M 	c #625F60",
"N 	c #767575",
"O 	c #615F5F",
"P 	c #908F8F",
"Q 	c #010E01",
"R 	c #666363",
"S 	c #555151",
"T 	c #514D4D",
"U 	c #484343",
"V 	c #646161",
"W 	c #888788",
"X 	c #422935",
"Y 	c #432936",
"Z 	c #010F01",
"` 	c #515050",
" .	c #6C6A6A",
"..	c #676565",
"+.	c #767576",
"@.	c #8D8D8D",
"#.	c #472E3A",
"$.	c #4A313C",
"%.	c #452B37",
"&.	c #423F3F",
"*.	c #787777",
"=.	c #040404",
"-.	c #9E9E9E",
";.	c #7A7878",
">.	c #5D5A5A",
",.	c #585656",
"'.	c #462D39",
").	c #49303B",
"!.	c #454040",
"~.	c #6D6C6C",
"{.	c #555555",
"].	c #432935",
"^.	c #3F2632",
"/.	c #3D2631",
"(.	c #3E2631",
"_.	c #412834",
":.	c #A6A6A6",
"<.	c #49303C",
"[.	c #442B37",
"}.	c #472E39",
"|.	c #3D2630",
"1.	c #585455",
"2.	c #9C9C9C",
"3.	c #442A37",
"4.	c #49313C",
"5.	c #38222D",
"6.	c #666063",
"7.	c #645D60",
"8.	c #402934",
"9.	c #3C2530",
"0.	c #3D2531",
"a.	c #412734",
"b.	c #412A35",
"c.	c #402733",
"d.	c #3F2633",
"e.	c #3E2632",
"f.	c #462E39",
"g.	c #482F3A",
"h.	c #402833",
"i.	c #402834",
"j.	c #3F2733",
"k.	c #031B02",
"l.	c #3E2731",
"m.	c #4C3E44",
"n.	c #524349",
"o.	c #929292",
"p.	c #3B2C33",
"q.	c #3F2933",
"r.	c #3F3A3A",
"s.	c #010301",
"t.	c #402734",
"u.	c #482F3B",
"v.	c #442D37",
"w.	c #888888",
"x.	c #666766",
"y.	c #021602",
"z.	c #011302",
"A.	c #5E5F5E",
"B.	c #777877",
"C.	c #828282",
"D.	c #646464",
"E.	c #3E3B3B",
"F.	c #37222C",
"G.	c #3E2531",
"H.	c #36202B",
"I.	c #412A34",
"J.	c #433E3E",
"K.	c #3D3939",
"L.	c #171717",
"M.	c #031002",
"N.	c #020F01",
"O.	c #010D01",
"P.	c #000200",
"Q.	c #767676",
"R.	c #797979",
"S.	c #686868",
"T.	c #717171",
"U.	c #767474",
"V.	c #6A6969",
"W.	c #6E6E6E",
"X.	c #494545",
"Y.	c #43363B",
"Z.	c #37232D",
"`.	c #3F2732",
" +	c #3E2A33",
".+	c #422E36",
"++	c #5F585B",
"@+	c #4E3B43",
"#+	c #4B333D",
"$+	c #432A37",
"%+	c #3D2A32",
"&+	c #40353A",
"*+	c #46393F",
"=+	c #41333A",
"-+	c #4A353E",
";+	c #48313B",
">+	c #442A36",
",+	c #412D34",
"'+	c #574B50",
")+	c #544D50",
"!+	c #8A8989",
"~+	c #52474C",
"{+	c #3F373A",
"]+	c #54484D",
"^+	c #3E2732",
"/+	c #585556",
"(+	c #43353C",
"_+	c #48303B",
":+	c #422C35",
"<+	c #696265",
"[+	c #696064",
"}+	c #6F6E6E",
"|+	c #4A4848",
"1+	c #091006",
"2+	c #472F3A",
"3+	c #4C343E",
"4+	c #48333C",
"5+	c #473940",
"6+	c #3E2F36",
"7+	c #37212C",
"8+	c #7D7D7D",
"9+	c #2E2C2A",
"0+	c #666666",
"a+	c #605F5E",
"b+	c #747272",
"c+	c #585857",
"d+	c #010001",
"e+	c #473B40",
"f+	c #3E2932",
"g+	c #432C36",
"h+	c #6F706F",
"i+	c #0E0E0E",
"j+	c #070707",
"k+	c #4B4848",
"l+	c #211F20",
"m+	c #010101",
"n+	c #4F3C44",
"o+	c #4A303C",
"p+	c #3A3135",
"q+	c #473A3F",
"r+	c #45373D",
"s+	c #4B363F",
"t+	c #482E3A",
"u+	c #54494E",
"v+	c #514A4D",
"w+	c #54454C",
"x+	c #4F4549",
"y+	c #3D3539",
"z+	c #50444A",
"A+	c #3A232E",
"B+	c #575455",
"C+	c #3B232F",
"D+	c #676063",
"E+	c #665D61",
"F+	c #3B242F",
"G+	c #3A222E",
"H+	c #3B2430",
"I+	c #35202A",
"J+	c #2F1F26",
"K+	c #2A1B21",
"L+	c #2B1A22",
"M+	c #382A30",
"N+	c #412935",
"O+	c #291A20",
"P+	c #311C27",
"Q+	c #3E2532",
"R+	c #39222D",
"S+	c #2E2227",
"T+	c #2E1B24",
"U+	c #331E29",
"V+	c #331E28",
"W+	c #351F2A",
"X+	c #321E28",
"                                                                                                                                ",
"                                                                                                                                ",
"                                                                                                                                ",
"                                                                                                                                ",
"                                                                                                                                ",
"                                                                  . + @ # # # $   % & # # *                     # #             ",
"                                                            = # # # # # - - - # ; > # , - # ' )       ! # # # # ~ { # ] ^ # # / ",
"                                                    ( # # # # - - - - - - - - - # _ # - - - # : < # # # [ } } | 1 2 3 # # 4 5 # ",
"                                                  6 # - - - - - - - - - - - - - , # , - - , # 7 # 8 9 0 a - - - - - - b c d 5 e ",
"                                                f # - - - - - - - - - - - - - - - - - - , # g # h - i 0 j - k l - - - a a m n # ",
"                                                o # - - - # # - - - # , - - - - - - - , , # p q # # # # 5 - h # r s s s t t u # ",
"                                                v w # # # - - - - - - # , , , , , , - - , # # x # 9 y 1 - - - z # # # # # A B # ",
"                                              C D # - - - - - - - - - - # # # # # # , , # # E # - - - - - - - - a a a a F # G H ",
"                                              I # - - - - - - - - - - - - - - - - - # # J K # z 1 - - 1 a L 1 - - - - - 1 2 # # ",
"                                              # - - - - - - - - - - - - - - - - - - - - # # # M z a - N O P - - - - - - - - - 1 ",
"                                              Q , - - - - - - - , - - - - - - - - - - - - - - # R S T U V W # # m - - - - - - - ",
"                                        X Y   Z , , - - - - , , - - - - - - - - - - - - - - - - # `  ...+.# - - # @.i j - 1 1 2 ",
"                                      X #.$.%.Z , , , , , , , , - - - - - - - - - - - - - - - - # &.*.# # - - - - # =.# -.;.>.,.",
"                                      '.).).%.Z , , , , , , , - - - - - - - - - - - - - - - - - # !.# - - - - - - - - - # ~.{.# ",
"                                ].Y   ^./.(._.Z , , , # # , , , , - - - - - - - - - - - - - - , # U # - - - - - - - - - - =.:.2 ",
"                                #.<.[.  }.).).|.# , # , , , , , , , - - - - - - - - - , , , # # 1.,.# - - - - - - - - - - - # 2.",
"                        ].Y Y   }.).3.}.$.$.4.] 5.# , , , , , , , - - - - - - - - - , # # # # 6.7.# , - - - - - - - - - - - - # ",
"                        }.).).8.9.0.a.}.).).b.c.d.# , , , , , , , - - - - - - - - - - - - - , # # , , , - - - - - - - , - - - - ",
"                        e.f.).g.h.i.Y j.(.(._.  < # , , , k., , , - - - - - - - - - - - - - - - , , , , , , - - - - - # , - - - ",
"                      ].X e.(.l.f.).).).).m.# # # # # , , # , , , , - - - - - - - - - - - - - - , , , , , - - - - - , # # , , - ",
"                      }.g.! }.).$.n.# # # # - - - - 8 # # o.# # # , , , - - - - , - - - - - - , # , , , , , , - - - , # p.# # # ",
"                      e./._.g.$.q.# - - - - - - - - - - - - 9 r.s.# # , , , - , , , # , , , , # | # # , , # # , , # # # t.      ",
"                    ].X   X u.v.# - - - - - - - - - - - - - - - @.w.x.y.z., , , , # A.# # # # B.m C.D.# # E.# # # F.G.H.        ",
"                    }.g.! }.).I.# - - - # # - - - # , - - - - - - j J.K.L.# M.N.O.P.# Q.R.S.# T.s s U.V.W.X.# Y.Z.C             ",
"              Y Y Y e.(.  `./. +.+# # # - - - - - - # , , , , , , - - , # # ++# 9 y 1 - - - z # # # # # A B # @+#+#.            ",
"              #.).).! #.).).$+%+# - - - - - - - - - - # # # # # # , , # # &+# - - - - - - - - a a a a F # *+=+-+;+e.            ",
"              e.}.).>+g.$.$.,+# - - - - - - - - - - - - - - - - - # # '+)+# z 1 - - 1 a L 1 - - - - - 1 2 # # # q _.            ",
"              _.(./._.e.}.).# - - - - - - - - - - - - - - - - - - - - # # # M z a - N O P - - - - - - - - - 1 m #               ",
"                  C   C e.(.Q , - - - - - - - , - - - - - - - - - - - - - - # R S T U V W # # m - - - - - - - 2 #               ",
"                          f.Z , , - - - - , , - - - - - - - - - - - - - - - - # `  ...+.# - - # @.i j - 1 1 2 !+# Y             ",
"              Y Y         e.Z , , , , , , , , - - - - - - - - - - - - - - - - # &.*.# # - - - - # =.# -.;.>.,.# ~+u.            ",
"              u.).3.        Z , , , , , , , - - - - - - - - - - - - - - - - - # !.# - - - - - - - - - # ~.{.# {+]+g.            ",
"              g.).g.Y       Z , , , # # , , , , - - - - - - - - - - - - - - , # U # - - - - - - - - - - =.:.2 # # ^+X           ",
"              (.(.^+  Y Y Y q.# , # , , , , , , , - - - - - - - - - , , , # # /+,.# - - - - - - - - - - - # 2.1 >.# (+          ",
"                g.).)._+g.).4.:+# , , , , , , , - - - - - - - - - , # # # # <+[+# , - - - - - - - - - - - - # }+|+# 1+          ",
"                ).$.).h./.2+3+4+# , , , , , , , - - - - - - - - - - - - - , # # , , , - - - - - - - , - - - - # # - #           ",
"                g.).h.5+# # # # # , , , k., , , - - - - - - - - - - - - - - - , , , , , , - - - - - # , - - - - - # 0.          ",
"              ( # # # # - - - - 9 # , , # , , , , - - - - - - - - - - - - - - , , , , , - - - - - , # # , , - - # G.            ",
"            6 # - - - - - - - - - 8 # # o.# # # , , , - - - - , - - - - - - , # , , , , , , - - - , # 6+# # # # 7+              ",
"          f # - - - - - - - - - - - - - - 9 w.8+# # , , , - , , , # , , , , # | # # , , # # , , # # # /.  (.e.                  ",
"          o # - - - # # - - - # , - - - - - - @.r.9+y.z., , , , # 0+# # # # a+b+..c+# # d+e+# # f+g+7+_+).g.                    ",
"          v w # # # - - - - - - # , , , , , , - j J.# L.# M.N.O.h+j R.R.W.# i+j+# # k+l+m+n+:+D _+).o+$.$.g.                    ",
"        C D # - - - - - - - - - - # # # # # # , , # # p+# - - - - - - - - a a a a F # q+r+s+#+<.t+[.).).}.e.                    ",
"        I # - - - - - - - - - - - - - - - - - # # u+v+# z 1 - - 1 a L 1 - - - - - 1 2 # # # w+Y Y   l.(.e.C                     ",
"        # - - - - - - - - - - - - - - - - - - - - # # # M z a - N O P - - - - - - - - - 1 m # 3.).).).f.                        ",
"        Q , - - - - - - - , - - - - - - - - - - - - - - # R S T U V W # # m - - - - - - - 2 #   [.).f.e.                        ",
"        Z , , - - - - , , - - - - - - - - - - - - - - - - # `  ...+.# - - # @.i j - 1 1 2 !+#   a./.e.                          ",
"        Z , , , , , , , , - - - - - - - - - - - - - - - - # &.*.# # - - - - # =.# -.;.>.,.# x+    C                             ",
"        Z , , , , , , , - - - - - - - - - - - - - - - - - # !.# - - - - - - - - - # ~.{.# y+z+                                  ",
"        Z , , , # # , , , , - - - - - - - - - - - - - - , # U # - - - - - - - - - - =.:.2 # # X X                               ",
"        A+# , # , , , , , , , - - - - - - - - - , , , # # B+,.# - - - - - - - - - - - # 2.1 >.# (+                              ",
"        C C+# , , , , , , , - - - - - - - - - , # # # # D+E+# , - - - - - - - - - - - - # }+|+# 1+                              ",
"          d.# , , , , , , , - - - - - - - - - - - - - , # # , , , - - - - - - - , - - - - # # - #                               ",
"          e.# , , , k., , , - - - - - - - - - - - - - - - , , , , , , - - - - - # , - - - - - # 0.                              ",
"            F+# , , # , , , , - - - - - - - - - - - - - - , , , , , - - - - - , # # , , - - # G.                                ",
"              G+# # j.# # # , , , - - - - , - - - - - - , # , , , , , , - - - , # p.# # # # 7+                                  ",
"                      H+o I+# # , , , - , , , # , , , , # J+# # , , # # , , # # # t.                                            ",
"                          0.o K+y.z., , , , # L+# # # # M+N+7+O+# # P+G+# # F.G.H.                                              ",
"                            a.Q+R+S+# M.N.O.T+a.U+U+U+V+b.!   t.V+W+e.  R+X+t.                                                  "};
