/* XPM */
static char * REALFOG1_xpm[] = {
"64 64 239 2",
"  	c #422835",
". 	c #3E2632",
"+ 	c #3C2430",
"@ 	c #3E2532",
"# 	c #3D2531",
"$ 	c #514048",
"% 	c #4A3640",
"& 	c #4D3F45",
"* 	c #3F2632",
"= 	c #412835",
"- 	c #432936",
"; 	c #442D38",
"> 	c #5A4D53",
", 	c #412734",
"' 	c #452F3A",
") 	c #462F3A",
"! 	c #46343C",
"~ 	c #402734",
"{ 	c #53444B",
"] 	c #524249",
"^ 	c #53434B",
"/ 	c #432C37",
"( 	c #62585D",
"_ 	c #5B4F54",
": 	c #412834",
"< 	c #52424A",
"[ 	c #422936",
"} 	c #402633",
"| 	c #4F3E46",
"1 	c #4D3B43",
"2 	c #5F5459",
"3 	c #62585C",
"4 	c #6B6869",
"5 	c #000000",
"6 	c #797476",
"7 	c #7F7A7C",
"8 	c #020202",
"9 	c #010202",
"0 	c #6B6266",
"a 	c #5E5257",
"b 	c #574A50",
"c 	c #4C3942",
"d 	c #6F686B",
"e 	c #868384",
"f 	c #767374",
"g 	c #989898",
"h 	c #594C52",
"i 	c #3F2833",
"j 	c #483C42",
"k 	c #4F3D46",
"l 	c #46393F",
"m 	c #432E38",
"n 	c #45363D",
"o 	c #46383E",
"p 	c #45343C",
"q 	c #403239",
"r 	c #4D4D4D",
"s 	c #726F71",
"t 	c #3A3236",
"u 	c #7A7376",
"v 	c #3E2531",
"w 	c #473B41",
"x 	c #4D4548",
"y 	c #7E777A",
"z 	c #13080D",
"A 	c #6C6266",
"B 	c #7D787A",
"C 	c #54444C",
"D 	c #585054",
"E 	c #4B3741",
"F 	c #868686",
"G 	c #746C70",
"H 	c #373737",
"I 	c #63575C",
"J 	c #422935",
"K 	c #060204",
"L 	c #736A6E",
"M 	c #5A484F",
"N 	c #5C4C53",
"O 	c #6A6366",
"P 	c #6C6568",
"Q 	c #55434B",
"R 	c #71666A",
"S 	c #736B6F",
"T 	c #615A5D",
"U 	c #5A5055",
"V 	c #3A232D",
"W 	c #61585C",
"X 	c #918D8F",
"Y 	c #63565C",
"Z 	c #0E060A",
"` 	c #412B35",
" .	c #7A7477",
"..	c #7D7579",
"+.	c #56494E",
"@.	c #4F3B43",
"#.	c #8E8A8C",
"$.	c #928C8F",
"%.	c #432935",
"&.	c #919790",
"*.	c #4E4046",
"=.	c #64595E",
"-.	c #5F5257",
";.	c #989596",
">.	c #472E39",
",.	c #49303B",
"'.	c #402934",
").	c #513C45",
"!.	c #5F5258",
"~.	c #7D7679",
"{.	c #645C60",
"].	c #645C5F",
"^.	c #462E39",
"/.	c #482F3A",
"(.	c #3E2631",
"_.	c #3E2731",
":.	c #432A36",
"<.	c #4A313C",
"[.	c #0F070B",
"}.	c #3D2631",
"|.	c #392930",
"1.	c #423239",
"2.	c #482F3B",
"3.	c #35222A",
"4.	c #402833",
"5.	c #322128",
"6.	c #422C36",
"7.	c #3F2732",
"8.	c #39252E",
"9.	c #452C38",
"0.	c #020303",
"a.	c #4E3C44",
"b.	c #472E3A",
"c.	c #442A37",
"d.	c #3D2B33",
"e.	c #482E3A",
"f.	c #462C38",
"g.	c #4A303C",
"h.	c #472F3A",
"i.	c #442A36",
"j.	c #3D2732",
"k.	c #37212C",
"l.	c #39242E",
"m.	c #3C2530",
"n.	c #57454D",
"o.	c #462E38",
"p.	c #452B37",
"q.	c #442B37",
"r.	c #524349",
"s.	c #5D4F55",
"t.	c #4C3640",
"u.	c #4B323D",
"v.	c #4E3741",
"w.	c #3E2732",
"x.	c #43333A",
"y.	c #3B252E",
"z.	c #452D37",
"A.	c #48303A",
"B.	c #4C353F",
"C.	c #58484F",
"D.	c #57464D",
"E.	c #4A343D",
"F.	c #432C36",
"G.	c #665B60",
"H.	c #59494F",
"I.	c #58474E",
"J.	c #55434A",
"K.	c #524047",
"L.	c #665B5F",
"M.	c #6D696A",
"N.	c #7B7577",
"O.	c #452D38",
"P.	c #817C7E",
"Q.	c #6E6569",
"R.	c #63565B",
"S.	c #5D5357",
"T.	c #706A6C",
"U.	c #868485",
"V.	c #878485",
"W.	c #777475",
"X.	c #5E5056",
"Y.	c #463039",
"Z.	c #4D4045",
"`.	c #4A3C42",
" +	c #737072",
".+	c #3D3538",
"++	c #7D7578",
"@+	c #4B3F44",
"#+	c #50474A",
"$+	c #80797C",
"%+	c #44373C",
"&+	c #11080C",
"*+	c #6F6569",
"=+	c #48303B",
"-+	c #5A4950",
";+	c #5B5256",
">+	c #523E46",
",+	c #776F72",
"'+	c #3F2733",
")+	c #675B60",
"!+	c #412A35",
"~+	c #70686C",
"{+	c #504248",
"]+	c #57494F",
"^+	c #462D39",
"/+	c #6D6568",
"(+	c #6E676A",
"_+	c #503F47",
":+	c #6F6469",
"<+	c #756C70",
"[+	c #6F676A",
"}+	c #635C5F",
"|+	c #5E5358",
"1+	c #442D37",
"2+	c #675C61",
"3+	c #928E90",
"4+	c #685A60",
"5+	c #7C7678",
"6+	c #81787B",
"7+	c #51454A",
"8+	c #49353F",
"9+	c #8F8B8D",
"0+	c #938D8F",
"a+	c #55454C",
"b+	c #675A5F",
"c+	c #5B4F55",
"d+	c #523F47",
"e+	c #63555B",
"f+	c #7F777A",
"g+	c #675E62",
"h+	c #665E61",
"i+	c #33242C",
"j+	c #2F1B25",
"k+	c #2C1B24",
"l+	c #3B232F",
"m+	c #331E28",
"n+	c #48373F",
"o+	c #331E29",
"p+	c #3A2831",
"                                                                                                                                ",
"                                                                                                                                ",
"                                                                                                                                ",
"                                                                                                                                ",
"                                                        . + @ #       $ @ . %                                                   ",
"                                                    & * = - ; > ,   ' ,   - , )                                                 ",
"                                            ! * ~ * ~ - ; { ] ^ / . ' + ( _ { : <                                               ",
"                                    [ # } ~ } | 1 2 { 3 4 5 5 5 6 . # 7 8 9 0 . a                                               ",
"                                  = : b ) c 2 d e e f 5 5 g g g 5 h i 5 g g 5 j k                                               ",
"                                  l m n o p q 5 5 5 5 g g g g g r 5 s t g g g 5 u                                               ",
"                                v w x 5 5 5 5 g g g g g g g g g g 5 5 g g g g 5 y                                               ",
"                                o 5 z g g g g g g g g g g g g g g g 5 g g g g 5 A                                               ",
"                                5 r r r r r 5 5 5 g g g g g g g g g g g g g 5 B C                                               ",
"                              5 5 r r r 5 5 5 g g g g 5 r g g g r g g g g r 5 D E                                               ",
"                            5 g F 5 5 5 5 g g g g g g g 5 r r r r r g g g r r 5 G                                               ",
"                            5 5 5 g g g g g g g g g g g r 5 5 5 5 5 5 g g 5 5 5 H I   - J                                       ",
"                            5 r r g g g g g r g r g g g g g g g g g g g g g g g g K L M N J   O 5 5 5 P                         ",
"                            5 r r r r r r r r r g g g g g g g g g g g g g g g g g g 5 Q R S P 5 g g g 5 T T U                   ",
"                            5 r r r r r r r r g g g g g g g g g g g g g g g g g g g 5 V W 5 5 g g g g g 5 5 5 X Y               ",
"                            5 r r r r r r r r r r g g g g g g g g g g g g g g g g r Z ` 5 g g g g g g g g g g 5  ...            ",
"                            5 r r r r r r r r r r r r g g g g g g g g g g g g g r 5 +.@.5 g g g g g g g g g g g 5 #.$.          ",
"                        %.- - 5 r r r r r r r r r r r g g g g g g g &.g r r r r 5 *.=.-.5 g g g g g g g g g g g g 5 ;.      l l ",
"                        >.,.,.'.5 r r r r r r r r g g g g g g g g g g r 5 5 5 5 ).!.~.5 r g g g g g g g g g g g g g 5 {.{.].5 5 ",
"                        . ^.,./.5 r r r r r r r r g g g g g g g g g g g g g g r 5 5 5 r r r r g g g g g g g r g g g g 5 5 5 g 5 ",
"                      %.J . (._.5 r r r r 5 r r r g g g g g g g g g g g g g g g g g r r r r r r r r g g g g 8 r g g g g g g 5   ",
"                      >./.:.>.,.<.5 r r r 5 r r r r g g g g g g g g g g g g g g g g r r r r r r g g g g g r [.5 r g g g g 5     ",
"                      . }.: /.<.,.<.5 5 5 |.5 r r r r g g g g g g g r g g g g g g r r r r r r r g g g g g r 5 1.5 5 5 5 5       ",
"                    %.J   J 2.<.'.^.<.<.<.<.3.5 5 r r r g g g g r r r g g g g g r r 5 r r r r r r r r r r r 5                   ",
"                    >./.:.>.,.,.4.^.<.<.<.<.<.<.5.5 5 r r r r r r r r 5 r r r r r 5 6.5 5 r r 5 5 5 r r 5 5 5 %.- -             ",
"              - - - . (.  7.}.(.^.<.<.<.<.<.<.<.<.<.8.5 5 5 r r r r 5 9.0.8 8 8 8 a.<.<.<.5 5 8.<./.5 5 ,./.:.,.,.b.            ",
"              b.,.,.:.b.,.,.c.b.<.<.<.,.,.,.,.<.<.<.<.<.<.d.8 8 5 5 ,.<.<.<.<.<.<.e.f.<.<.<.<.<.<.,.g.<.<./.:.,.h..             ",
"              . >.,.i./.<.<.g.,.<.<.<.j.k.l.m.e.<.<.n.o.^.).,.,.<.<.<.<.<.<.<.<.<.<.<.<.<.<.<.<.2.p.,.,.>.. : }.(.:             ",
"              : (.}.: . >.,.,.q./.r.^.q.- ; s.,.<.t.,.<.u.,.v.<.<.<.<.<.<.<.<.<.<.<.<.<.<.<.<.<.<.>.w.(.. =   =                 ",
"                  =   = . x.y.~ z.A.u.B.C.D.C.E.^.t.F.G.!.H.,.I.<.<.<.<.<.<.<.<.<.<.<.<.<.<.<.<.<.<.,.^.                        ",
"                  [ # } ~ / J.K.I H.L.M.5 5 5 N.^.O.P.8 9 Q.^.R.<.<.<.<.<.<.<.<.<.<.<.<.<.<.<.<.<.<.>..         - -             ",
"              - [ : b ) c S.T.U.V.W.5 5 g g g 5 X.Y.5 g g 5 Z.Q <.<.<.<.<.<.<.<.<.<.<.<.<.<.<.<.<.2.J         c.,.2.            ",
"              2.`.' n o p q 5 5 5 5 g g g g g r 5  +.+g g g 5 ++<.<.<.<.<.<.<.<.<.<.<.<.<.<.<.<.<.2.-       - /.,./.            ",
"              F.@+#+5 5 5 5 g g g g g g g g g g 5 5 g g g g 5 $+<.<.<.<.<.<.<.<.<.<.<.<.<.<.<.<.<.<./.- - -   w.(.(.            ",
"              %+5 &+g g g g g g g g g g g g g g g 5 g g g g 5 *+<.<.<.<.<.<.<.<.<.<.<.<.<.<.<.<.<.<.<.,.=+,.,.,./.              ",
"              5 r r r r r 5 5 5 g g g g g g g g g g g g g 5 7 -+<.<.<.<.<.<.<.<.<.<.<.<.<.<.<.<.<.<.<.h.4.<.<.<./.              ",
"            5 5 r r r 5 5 5 g g g g 5 r g g g r g g g g r 5 ;+>+<.<.<.<.<.<.<.<.<.<.<.<.<.<.<.<.<.<.,./.:.,.,.>..               ",
"          5 g F 5 5 5 5 g g g g g g g 5 r r r r r g g g r r 5 ,+<.<.<.<.<.<.<.<.<.<.<.<.<.,.,.<.<.h.'+%.: }.}.(.:               ",
"          5 5 5 g g g g g g g g g g g r 5 5 5 5 5 5 g g 5 5 5 H )+,.,.,.<.<.<.<.<.<.<.<.^.(.!+<.<.<./.-   J                     ",
"          5 r r g g g g g r g r g g g g g g g g g g g g g g g g K ~+{+]+^+<./+5 5 5 (+<.<.,.,.<.<.<.,.>.:./.b.                  ",
"          5 r r r r r r r r r g g g g g g g g g g g g g g g g g g 5 _+:+<+[+5 g g g 5 }+}+|+<.<.<.h.}.7.  (..                   ",
"          5 r r r r r r r r g g g g g g g g g g g g g g g g g g g 5 1+2+5 5 g g g g g 5 5 5 3+4+<./.c.,.,./.                    ",
"          5 r r r r r r r r r r g g g g g g g g g g g g g g g g r Z ` 5 g g g g g g g g g g 5 5+6+,.g.<.<./.                    ",
"          5 r r r r r r r r r r r r g g g g g g g g g g g g g r 5 7+8+5 g g g g g g g g g g g 5 9+0+,.,.>..                     ",
"            5 r r r r r r r r r r r g g g g g g g &.g r r r r 5 a+b+c+5 g g g g g g g g g g g g 5 ;._.(.. l l                   ",
"              5 r r r r r r r r g g g g g g g g g g r 5 5 5 5 d+e+f+5 r g g g g g g g g g g g g g 5 g+h+].5 5                   ",
"              5 r r r r r r r r g g g g g g g g g g g g g g r 5 5 5 r r r r g g g g g g g r g g g g 5 5 5 g 5                   ",
"              5 r r r r 5 r r r g g g g g g g g g g g g g g g g g r r r r r r r r g g g g 8 r g g g g g g 5                     ",
"                5 r r r 5 r r r r g g g g g g g g g g g g g g g g r r r r r r g g g g g r [.5 r g g g g 5                       ",
"                  5 5 5 i+5 r r r r g g g g g g g r g g g g g g r r r r r r r g g g g g r 5 1.5 5 5 5 5                         ",
"                          j+5 5 r r r g g g g r r r g g g g g r r 5 r r r r r r r r r r r 5                                     ",
"                              k+5 5 r r r r r r r r 5 r r r r r 5 l+5 5 r r 5 5 5 r r 5 5 5                                     ",
"                                  m+5 5 5 r r r r 5   0.8 8 8 8 n+      5 5 o+    5 5                                           ",
"                                        p+8 8 5 5                                                                               ",
"                                                                                                                                ",
"                                                                                                                                ",
"                                                                                                                                ",
"                                                                                                                                ",
"                                                                                                                                ",
"                                                                                                                                "};
