/* XPM */
static char * for2_xpm[] = {
"64 64 281 2",
"  	c #422835",
". 	c #442C38",
"+ 	c #442F39",
"@ 	c #341E2A",
"# 	c #000000",
"$ 	c #352829",
"% 	c #4E3C45",
"& 	c #6A6C69",
"* 	c #7B7477",
"= 	c #483A40",
"- 	c #989898",
"; 	c #33222A",
"> 	c #473C41",
", 	c #474242",
"' 	c #6D6669",
") 	c #4C3942",
"! 	c #4D3F46",
"~ 	c #414340",
"{ 	c #6A5F64",
"] 	c #452E39",
"^ 	c #39222E",
"/ 	c #6B6166",
"( 	c #878787",
"_ 	c #8A8A8A",
": 	c #3D2431",
"< 	c #756F72",
"[ 	c #838383",
"} 	c #939393",
"| 	c #3A232F",
"1 	c #685F63",
"2 	c #4E4147",
"3 	c #412B36",
"4 	c #3E2933",
"5 	c #5C5659",
"6 	c #8F8F8F",
"7 	c #412835",
"8 	c #39252E",
"9 	c #3C3237",
"0 	c #3A272E",
"a 	c #53484D",
"b 	c #524A4E",
"c 	c #8B8B8B",
"d 	c #999999",
"e 	c #625F60",
"f 	c #979797",
"g 	c #010E01",
"h 	c #666363",
"i 	c #555151",
"j 	c #514D4D",
"k 	c #010F01",
"l 	c #515050",
"m 	c #6C6A6A",
"n 	c #422935",
"o 	c #432936",
"p 	c #423F3F",
"q 	c #787777",
"r 	c #472E3A",
"s 	c #4A313C",
"t 	c #452B37",
"u 	c #454040",
"v 	c #462D39",
"w 	c #49303B",
"x 	c #472D39",
"y 	c #4A303C",
"z 	c #452C38",
"A 	c #484343",
"B 	c #432935",
"C 	c #3F2632",
"D 	c #3D2631",
"E 	c #3E2631",
"F 	c #412834",
"G 	c #49313C",
"H 	c #38222C",
"I 	c #575455",
"J 	c #585656",
"K 	c #432A36",
"L 	c #454545",
"M 	c #464646",
"N 	c #412934",
"O 	c #4E4347",
"P 	c #5B4E54",
"Q 	c #47303B",
"R 	c #472E39",
"S 	c #3E2632",
"T 	c #442C37",
"U 	c #422A35",
"V 	c #3F2733",
"W 	c #462D38",
"X 	c #39232E",
"Y 	c #676063",
"Z 	c #665D61",
"` 	c #696969",
" .	c #6D6D6D",
"..	c #6F6F6F",
"+.	c #9A9A9A",
"@.	c #7B7B7B",
"#.	c #616060",
"$.	c #949494",
"%.	c #4C3D44",
"&.	c #49313B",
"*.	c #3F2633",
"=.	c #402834",
"-.	c #432B36",
";.	c #3D2531",
">.	c #462C38",
",.	c #462E39",
"'.	c #898989",
").	c #494646",
"!.	c #2D2929",
"~.	c #838282",
"{.	c #514E4E",
"].	c #4C3640",
"^.	c #412A35",
"/.	c #402733",
"(.	c #3D2530",
"_.	c #031B02",
":.	c #969696",
"<.	c #909090",
"[.	c #8D8C8C",
"}.	c #919191",
"|.	c #534F4F",
"1.	c #594A51",
"2.	c #432C36",
"3.	c #777676",
"4.	c #797777",
"5.	c #868585",
"6.	c #4D4949",
"7.	c #514349",
"8.	c #4C353F",
"9.	c #4C343E",
"0.	c #4B353F",
"a.	c #3B262F",
"b.	c #472F3A",
"c.	c #5F5C5C",
"d.	c #2B2828",
"e.	c #4F3C44",
"f.	c #452D38",
"g.	c #4D3E44",
"h.	c #39282F",
"i.	c #44393E",
"j.	c #393635",
"k.	c #2E1F25",
"l.	c #818181",
"m.	c #473A3F",
"n.	c #45373D",
"o.	c #4B363F",
"p.	c #4B333D",
"q.	c #524349",
"r.	c #424441",
"s.	c #8D8D8D",
"t.	c #888888",
"u.	c #666766",
"v.	c #021602",
"w.	c #011302",
"x.	c #4A4B4A",
"y.	c #616261",
"z.	c #0B0B0B",
"A.	c #3E3F3E",
"B.	c #807F7F",
"C.	c #56464D",
"D.	c #402A34",
"E.	c #433E3E",
"F.	c #474043",
"G.	c #031002",
"H.	c #020F01",
"I.	c #010D01",
"J.	c #6E6E6E",
"K.	c #797979",
"L.	c #787878",
"M.	c #4A4747",
"N.	c #2C2929",
"O.	c #767575",
"P.	c #615F5F",
"Q.	c #908F8F",
"R.	c #442D37",
"S.	c #787174",
"T.	c #646161",
"U.	c #888788",
"V.	c #422B35",
"W.	c #6C6266",
"X.	c #51444A",
"Y.	c #676565",
"Z.	c #767576",
"`.	c #8A8989",
" +	c #48323C",
".+	c #453039",
"++	c #5F575A",
"@+	c #040404",
"#+	c #9E9E9E",
"$+	c #7A7878",
"%+	c #5D5A5A",
"&+	c #4E4549",
"*+	c #482E3A",
"=+	c #402C34",
"-+	c #3F3439",
";+	c #6D6C6C",
">+	c #555555",
",+	c #40373B",
"'+	c #52464B",
")+	c #412E34",
"!+	c #574B50",
"~+	c #544D50",
"{+	c #A6A6A6",
"]+	c #9C9C9C",
"^+	c #493A40",
"/+	c #6F6E6E",
"(+	c #4A4848",
"_+	c #091006",
":+	c #452E38",
"<+	c #403137",
"[+	c #3E2932",
"}+	c #412B35",
"|+	c #585556",
"1+	c #2F1F26",
"2+	c #48303B",
"3+	c #000100",
"4+	c #696265",
"5+	c #696063",
"6+	c #382A30",
"7+	c #412935",
"8+	c #37212C",
"9+	c #291A20",
"0+	c #311C27",
"a+	c #3F2933",
"b+	c #36212B",
"c+	c #3E2531",
"d+	c #929292",
"e+	c #331E28",
"f+	c #402734",
"g+	c #351F2A",
"h+	c #34202A",
"i+	c #321E27",
"j+	c #4B3F44",
"k+	c #482F3A",
"l+	c #442A36",
"m+	c #3A232E",
"n+	c #3B2C33",
"o+	c #403B3B",
"p+	c #574F52",
"q+	c #373534",
"r+	c #47323B",
"s+	c #443038",
"t+	c #010101",
"u+	c #554D50",
"v+	c #010701",
"w+	c #000201",
"x+	c #4D4B4B",
"y+	c #32272B",
"z+	c #3A222E",
"A+	c #37222C",
"B+	c #36202B",
"C+	c #3D3237",
"D+	c #858585",
"E+	c #5F5F5F",
"F+	c #959595",
"G+	c #656565",
"H+	c #0E0E0E",
"I+	c #483B40",
"J+	c #45363C",
"K+	c #46323B",
"L+	c #311E28",
"M+	c #39222D",
"N+	c #321E28",
"O+	c #3B272E",
"P+	c #534B4E",
"Q+	c #504249",
"R+	c #4F4549",
"S+	c #3D3539",
"T+	c #50444A",
"U+	c #43353C",
"V+	c #3B232F",
"W+	c #3B242F",
"X+	c #3B2430",
"Y+	c #35202A",
"Z+	c #2A1B21",
"`+	c #2B1A22",
" @	c #412734",
".@	c #3E2532",
"+@	c #2E2227",
"@@	c #2E1B24",
"#@	c #331E29",
"                                                                                                                                ",
"                                                                                                                                ",
"                                                                                                                                ",
"                                                                                                                                ",
"                                                                                            . + @ # # # $   % & # # *           ",
"                                                                                      = # # # # # - - - # ; > # , - # ' )       ",
"                                                                              ! # # # # - - - - - - - - - # ~ # - - - # { ] # # ",
"                                                                            ^ # - - - - - - - - - - - - - , # , - - , # / # ( _ ",
"                                                                          : # - - - - - - - - - - - - - - - - - - , # < # [ - } ",
"                                                                          | # - - - # # - - - # , - - - - - - - , , # 1 2 # # # ",
"                                                                          3 4 # # # - - - - - - # , , , , , , - - , # # 5 # _ 6 ",
"                                                                        7 8 # - - - - - - - - - - # # # # # # , , # # 9 # - - - ",
"                                                                        0 # - - - - - - - - - - - - - - - - - # # a b # c d - - ",
"                                                                        # - - - - - - - - - - - - - - - - - - - - # # # e c f - ",
"                                                                        g , - - - - - - - , - - - - - - - - - - - - - - # h i j ",
"                                                                        k , , - - - - , , - - - - - - - - - - - - - - - - # l m ",
"                                        n o                             k , , , , , , , , - - - - - - - - - - - - - - - - # p q ",
"                                      n r s t   n o o o                 k , , , , , , , - - - - - - - - - - - - - - - - - # u # ",
"                                      v w w t   x y w y z         o o   k , , , # # , , , , - - - - - - - - - - - - - - , # A # ",
"                    # #         B o   C D E F   v s s G z   o B v y y v H # , # , , , , , , , - - - - - - - - - , , , # # I J # ",
"' )       K # # # # L M # N O # # P Q   R w w t S T w U V v y w w w w W 7 X # , , , , , , , - - - - - - - - - , # # # # Y Z # , ",
"# { ] # # # `  . ...d +.@.# # #.$.# %.&.s s G N *.V E =.  W w w -.;.D V >.,.# , , , , , , , - - - - - - - - - - - - - , # # , , ",
"# / # ( _ '.f - - - - - - ).!.~.$.{.# ].w w ^./.  x w w >.V (.D /.n   z s ,.# , , , _., , , - - - - - - - - - - - - - - - , , , ",
"< # [ - } '.:.- <.[.- - - f f }.|.# 1.^.E E F   x s s s s U C   W y w s s s 2.# , , # , , , , - - - - - - - - - - - - - - , , , ",
"1 2 # # # # $.- [ # 3.4.4.4.5.5.6.# 7.8.w w w t v w s s s -.-.s s s s 9.0.a.# # # # b.# # # , , , - - - - , - - - - - - , # , , ",
"# 5 # _ 6 d - - - c # # # # # c.d.# e.9.s s s >./.D f.s s w G s g.# # # # # - - - # h.i.# j.# # , , , - , , , # , , , , # k.# # ",
"9 # - - - - - - - - f f f f l.# m.n.o.p.s s s s w w s s q.# # # # - - - - - - - - - # r.# s.t.u.v.w., , , , # x.# # # # y.z.# A.",
"# c d - - d f B.d - - - - - d +.# # # C.s s s s s s s D.# - - - - - - - - - - - - - , # , - :.E.# F.# G.H.I.J.:.K.K.K.L.<.M.N.B.",
"# e c f - O.P.Q.- - - - - - - - - d }.# s s s s s s R.# - - - - - - - - - - - - - - - - - - , # S.# [ - } '.:.- <.[.- - - f f }.",
"- # h i j A T.U.# # }.- - - - - - - +.# s s s s s s V.# - - - # # - - - # , - - - - - - - , , # W.X.# # # # $.- [ # 3.4.4.4.5.5.",
"- - # l m Y.Z.# - - # s.} :.- d d +.`.# w w w s s s  +.+# # # - - - - - - # , , , , , , - - , # # ++# _ 6 d - - - c # # # # # c.",
"- - # p q # # - - - - # @+# #+$+%+J # &+;.D F *+s G =+# - - - - - - - - - - # # # # # # , , # # -+# - - - - - - - - f f f f l.# ",
"- - # u # - - - - - - - - - # ;+>+# ,+'+    R s s )+# - - - - - - - - - - - - - - - - - # # !+~+# c d - - d f B.d - - - - - d +.",
"- , # A # - - - - - - - - - - @+{++.# # &.&.s s s # - - - - - - - - - - - - - - - - - - - - # # # e c f - O.P.Q.- - - - - - - - ",
"# # I J # - - - - - - - - - - - # ]+d %+# ^+s s s g , - - - - - - - , - - - - - - - - - - - - - - # h i j A T.U.# # }.- - - - - ",
"# Y Z # , - - - - - - - - - - - - # /+(+# _+s s s k , , - - - - , , - - - - - - - - - - - - - - - - # l m Y.Z.# - - # s.} :.- d ",
", # # , , , - - - - - - - , - - - - # # - # s s s k , , , , , , , , - - - - - - - - - - - - - - - - # p q # # - - - - # @+# #+$+",
"- - , , , , , , - - - - - # , - - - - - # f.s s s k , , , , , , , - - - - - - - - - - - - - - - - - # u # - - - - - - - - - # ;+",
"- - , , , , , - - - - - , # # , , - - # :+s s s s k , , , # # , , , , - - - - - - - - - - - - - - , # A # - - - - - - - - - - @+",
"- , # , , , , , , - - - , # <+# # # # [+s s s s s }+# , # , , , , , , , - - - - - - - - - , , , # # |+J # - - - - - - - - - - - ",
", # 1+# # , , # # , , # # # 2+s s s s s s 9.0.a.# # 3+# , , , , , , , - - - - - - - - - , # # # # 4+5+# , - - - - - - - - - - - ",
"# 6+7+8+9+# # 0+a+# # b+c+a.2+s s s g.# # # # # - - d+# , , , , , , , - - - - - - - - - - - - - , # # , , , - - - - - - - , - - ",
"e+^.K   f+e+g+S E h+i+7   B j+# # # # - - - - - - - <.# , , , _., , , - - - - - - - - - - - - - - - , , , , , , - - - - - # , - ",
"                    k+w l+m+# - - - - - - - - - - - - _ # , , # , , , , - - - - - - - - - - - - - - , , , , , - - - - - , # # , ",
"                    k+w C # - - - - - - - - - - - - - - ( # # d+# # # , , , - - - - , - - - - - - , # , , , , , , - - - , # n+# ",
"                    S E | # - - - # # - - - # , - - - - - - - , o+# p+# # , , , - , , , # , , , , # q+# # , , # # , , # # # f+  ",
"                      b.r+s+# # # - - - - - - # , , , , , , - - , # t+u+v+v.w., , , , # w+# # # # x+N.# y+# # 0+z+# # A+c+B+    ",
"                      b.=+# - - - - - - - - - - # # # # # # , , # # C+# 6 D+E+# G.H.I...F+L.L.L.G+H+I+J+K+L+g+S   M+N+f+        ",
"                      O+# - - - - - - - - - - - - - - - - - # # !+P+# c d - - d f B.d - - - - - d +.# # # Q+                    ",
"                      # - - - - - - - - - - - - - - - - - - - - # # # e c f - O.P.Q.- - - - - - - - - d }.#                     ",
"                      g , - - - - - - - , - - - - - - - - - - - - - - # h i j A T.U.# # }.- - - - - - - +.#                     ",
"                      k , , - - - - , , - - - - - - - - - - - - - - - - # l m Y.Z.# - - # s.} :.- d d +.`.#                     ",
"                      k , , , , , , , , - - - - - - - - - - - - - - - - # p q # # - - - - # @+# #+$+%+J # R+                    ",
"                      k , , , , , , , - - - - - - - - - - - - - - - - - # u # - - - - - - - - - # ;+>+# S+T+                    ",
"                      k , , , # # , , , , - - - - - - - - - - - - - - , # A # - - - - - - - - - - @+{++.# # n n                 ",
"                      m+# , # , , , , , , , - - - - - - - - - , , , # # I J # - - - - - - - - - - - # ]+d %+# U+                ",
"                      7 V+# , , , , , , , - - - - - - - - - , # # # # Y Z # , - - - - - - - - - - - - # /+(+# _+                ",
"                        *.# , , , , , , , - - - - - - - - - - - - - , # # , , , - - - - - - - , - - - - # # - #                 ",
"                        S # , , , _., , , - - - - - - - - - - - - - - - , , , , , , - - - - - # , - - - - - # ;.                ",
"                          W+# , , # , , , , - - - - - - - - - - - - - - , , , , , - - - - - , # # , , - - # c+                  ",
"                            z+# # V # # # , , , - - - - , - - - - - - , # , , , , , , - - - , # n+# # # # 8+                    ",
"                                    X+| Y+# # , , , - , , , # , , , , # 1+# # , , # # , , # # # f+                              ",
"                                        ;.| Z+v.w., , , , # `+# # # # 6+7+8+9+# # 0+z+# # A+c+B+                                ",
"                                           @.@M++@# G.H.I.@@ @#@#@#@e+^.K   f+e+g+S   M+N+f+                                    "};
