/* XPM */
static char * fog3_xpm[] = {
"64 64 296 2",
"  	c #422835",
". 	c #46303B",
"+ 	c #45343C",
"@ 	c #281621",
"# 	c #4B4347",
"$ 	c #000000",
"% 	c #544B4F",
"& 	c #989898",
"* 	c #311D27",
"= 	c #38212D",
"- 	c #331E29",
"; 	c #474242",
"> 	c #402E37",
", 	c #3B2A31",
"' 	c #402835",
") 	c #312227",
"! 	c #332627",
"~ 	c #010E01",
"{ 	c #010F01",
"] 	c #432936",
"^ 	c #422935",
"/ 	c #331F28",
"( 	c #452B37",
"_ 	c #4A313C",
": 	c #472E3A",
"< 	c #412835",
"[ 	c #351F2A",
"} 	c #452C38",
"| 	c #4A303C",
"1 	c #49303B",
"2 	c #49303C",
"3 	c #472D39",
"4 	c #442B37",
"5 	c #462D39",
"6 	c #3C2431",
"7 	c #49313C",
"8 	c #412834",
"9 	c #3E2631",
"0 	c #3D2631",
"a 	c #3F2632",
"b 	c #432935",
"c 	c #3B242F",
"d 	c #031B02",
"e 	c #402733",
"f 	c #422A35",
"g 	c #452C37",
"h 	c #472E39",
"i 	c #482E3A",
"j 	c #35202A",
"k 	c #3E2632",
"l 	c #442C37",
"m 	c #3F2733",
"n 	c #462D38",
"o 	c #402834",
"p 	c #442A37",
"q 	c #331D28",
"r 	c #412934",
"s 	c #3F2633",
"t 	c #432B36",
"u 	c #3D2531",
"v 	c #462C38",
"w 	c #412734",
"x 	c #35202B",
"y 	c #2A1A21",
"z 	c #442C38",
"A 	c #442F39",
"B 	c #341E2A",
"C 	c #352829",
"D 	c #4E3C45",
"E 	c #6A6C69",
"F 	c #7D7579",
"G 	c #402934",
"H 	c #3C2530",
"I 	c #412A35",
"J 	c #3D2530",
"K 	c #48303B",
"L 	c #4B333D",
"M 	c #48333C",
"N 	c #020202",
"O 	c #353433",
"P 	c #021602",
"Q 	c #33222A",
"R 	c #473C41",
"S 	c #6F676B",
"T 	c #523E47",
"U 	c #482F3A",
"V 	c #402833",
"W 	c #454545",
"X 	c #464646",
"Y 	c #48313B",
"Z 	c #53474B",
"` 	c #564A4F",
" .	c #452D39",
"..	c #4C3E44",
"+.	c #949494",
"@.	c #524D4F",
"#.	c #414340",
"$.	c #685F62",
"%.	c #412D36",
"&.	c #696969",
"*.	c #6D6D6D",
"=.	c #6F6F6F",
"-.	c #999999",
";.	c #9A9A9A",
">.	c #7B7B7B",
",.	c #616060",
"'.	c #4F4147",
").	c #4C343E",
"!.	c #452D38",
"~.	c #524349",
"{.	c #6D6367",
"].	c #878787",
"^.	c #8A8A8A",
"/.	c #898989",
"(.	c #979797",
"_.	c #494646",
":.	c #2D2929",
"<.	c #838282",
"[.	c #514E4E",
"}.	c #4F3942",
"|.	c #402A34",
"1.	c #756F72",
"2.	c #838383",
"3.	c #939393",
"4.	c #969696",
"5.	c #909090",
"6.	c #8D8C8C",
"7.	c #919191",
"8.	c #534F4F",
"9.	c #5D4E55",
"0.	c #442D37",
"a.	c #685F63",
"b.	c #51444A",
"c.	c #777676",
"d.	c #797777",
"e.	c #868585",
"f.	c #4D4949",
"g.	c #514349",
"h.	c #4C3640",
"i.	c #422B35",
"j.	c #5F575A",
"k.	c #8F8F8F",
"l.	c #8B8B8B",
"m.	c #5F5C5C",
"n.	c #2B2828",
"o.	c #4E3B43",
"p.	c #452E39",
"q.	c #48323C",
"r.	c #453039",
"s.	c #3B3236",
"t.	c #818181",
"u.	c #42363B",
"v.	c #3D3237",
"w.	c #402D36",
"x.	c #412935",
"y.	c #402C34",
"z.	c #3C3237",
"A.	c #554A4F",
"B.	c #544C4F",
"C.	c #807F7F",
"D.	c #54444B",
"E.	c #412E34",
"F.	c #53484D",
"G.	c #524A4E",
"H.	c #625F60",
"I.	c #767575",
"J.	c #615F5F",
"K.	c #908F8F",
"L.	c #666363",
"M.	c #555151",
"N.	c #514D4D",
"O.	c #484343",
"P.	c #646161",
"Q.	c #888788",
"R.	c #515050",
"S.	c #6C6A6A",
"T.	c #676565",
"U.	c #767576",
"V.	c #8D8D8D",
"W.	c #8A8989",
"X.	c #423F3F",
"Y.	c #787777",
"Z.	c #040404",
"`.	c #9E9E9E",
" +	c #7A7878",
".+	c #5D5A5A",
"++	c #585656",
"@+	c #52484C",
"#+	c #454040",
"$+	c #6D6C6C",
"%+	c #555555",
"&+	c #40373B",
"*+	c #55484D",
"=+	c #A6A6A6",
"-+	c #4A323C",
";+	c #585455",
">+	c #9C9C9C",
",+	c #493A40",
"'+	c #412B35",
")+	c #696165",
"!+	c #696064",
"~+	c #6F6E6E",
"{+	c #4A4848",
"]+	c #091006",
"^+	c #422C35",
"/+	c #472F3A",
"(+	c #3C2E2F",
"_+	c #544249",
":+	c #6B6C69",
"<+	c #787073",
"[+	c #39282F",
"}+	c #4B3F45",
"|+	c #665E62",
"1+	c #787878",
"2+	c #828282",
"3+	c #424441",
"4+	c #61575B",
"5+	c #030303",
"6+	c #35252B",
"7+	c #959595",
"8+	c #6F6468",
"9+	c #7C7C7C",
"0+	c #7D7D7D",
"a+	c #3A232F",
"b+	c #2A1B21",
"c+	c #011302",
"d+	c #2B1A22",
"e+	c #3D2F34",
"f+	c #3E2932",
"g+	c #2F1F25",
"h+	c #322028",
"i+	c #7F7F7F",
"j+	c #787174",
"k+	c #5E5F5E",
"l+	c #000201",
"m+	c #3E2532",
"n+	c #39222D",
"o+	c #2E2227",
"p+	c #031002",
"q+	c #020F01",
"r+	c #010D01",
"s+	c #2E1B24",
"t+	c #301D26",
"u+	c #301C25",
"v+	c #3C2832",
"w+	c #48303A",
"x+	c #3A252E",
"y+	c #3B262F",
"z+	c #3E2831",
"A+	c #858585",
"B+	c #6B6165",
"C+	c #52454B",
"D+	c #686767",
"E+	c #4D4C4C",
"F+	c #363433",
"G+	c #3C3136",
"H+	c #36232D",
"I+	c #331E28",
"J+	c #3E2A33",
"K+	c #3B2830",
"L+	c #5E5759",
"M+	c #2A2828",
"N+	c #48363F",
"O+	c #3F2B33",
"P+	c #3F3439",
"Q+	c #43373C",
"R+	c #403339",
"S+	c #432A37",
"T+	c #574B50",
"U+	c #534C4E",
"V+	c #514249",
"W+	c #3E2731",
"X+	c #462E39",
"Y+	c #432A36",
"Z+	c #402734",
"`+	c #4F4549",
" @	c #3D3539",
".@	c #50444A",
"+@	c #3A232E",
"@@	c #575455",
"#@	c #43353C",
"$@	c #3B232F",
"%@	c #676063",
"&@	c #665D61",
"*@	c #3E2531",
"=@	c #3A222E",
"-@	c #3B2C33",
";@	c #37212C",
">@	c #3B2430",
",@	c #2F1F26",
"'@	c #382A30",
")@	c #291A20",
"!@	c #311C27",
"~@	c #37222C",
"{@	c #36202B",
"]@	c #321E28",
"                                                                                                                          . + @ ",
"                                                                                                                    # $ $ $ $ $ ",
"                                                                                                            % $ $ $ $ & & & & & ",
"                                                                                                          * $ & & & & & & & & & ",
"                                                                                                        = $ & & & & & & & & & & ",
"                                                                                                        - $ & & & $ $ & & & $ ; ",
"                                                                                                        > , $ $ $ & & & & & & $ ",
"                                                                                                      ' ) $ & & & & & & & & & & ",
"                                                                                                      ! $ & & & & & & & & & & & ",
"                                                                                                      $ & & & & & & & & & & & & ",
"                                                                                                      ~ ; & & & & & & & ; & & & ",
"                                                                                                      { ; ; & & & & ; ; & & & & ",
"                                                                                                      { ; ; ; ; ; ; ; ; & & & & ",
"                                                                                                      { ; ; ; ; ; ; ; & & & & & ",
"                                                                                                      { ; ; ; $ $ ; ; ; ; & & & ",
"                                                                                      ] ^             / $ ; $ ; ; ; ; ; ; ; & & ",
"                                        ^ ]                               ] ] ] ^   ( _ : ^           < [ $ ; ; ; ; ; ; ; & & & ",
"                                      ^ : _ (   ^ ] ] ]                 } | 1 2 3   4 1 1 5             6 $ ; ; ; ; ; ; ; & & & ",
"                                      5 1 1 (   3 | 1 | }         ] ]   } 7 _ _ 5   8 9 0 a   ] b       c $ ; ; ; d ; ; ; & & & ",
"                                b ]   a 0 9 8   5 _ _ 7 }   ] b 5 | | 5 e f 1 g a ( 1 1 h   4 2 i         j $ ; ; $ ; ; ; ; & & ",
"                                : 2 4   h 1 1 ( k l 1 f m 5 | 1 1 1 1 n   o 9 m   ( 1 _ _ : p 1 :   ] ] b   q $ $ 0 $ $ $ ; ; ; ",
"                        b ] ]   h 1 p h _ _ 7 r s m 9 o   n 1 1 t u 0 m v 1 1 3   e r 1 1 h w 0 k 4 1 1 h           x - y $ $ ; ",
"z A B $ $ $ C   D E $ $ F 1 1 G H u w h 1 1 I $ $ 3 1 1 v m J 0 e ^   } _ _ _ _ 3   8 9 9 m ]   p K L M * $ $ $ C   D E N $ O P ",
"$ $ $ & & & $ Q R $ ; & $ S T U V o 4 $ $ $ $ W X $ Y Z $ $ `  .n | 1 _ _ _ _ 1 5 ( 1 1 1 1 1 ..$ $ $ $ $ & & & $ Q R $ ; +.$ @.",
"& & & & & & & $ #.$ & & & $ $.%.$ $ $ &.*.*.=.-.;.>.$ $ ,.+.$ '.)._ _ _ _ _ !.0 e } _ ~.$ $ $ $ & & & & & & & & & $ #.$ & & & $ ",
"& & & & & & & ; $ ; & & ; $ {.$ ].^./.(.& & & & & & _.:.<.+.[.$ }._ _ _ _ _ _ 1 1 _ |.$ & & & & & & & & & & & & & ; $ ; & & ; $ ",
"& & & & & & & & & & & ; $ 1.$ 2.& 3./.4.& 5.6.& & & (.(.7.8.$ 9.)._ _ _ _ _ _ _ _ 0.$ & & & & & & & & & & & & & & & & & & ; $ 1.",
"& $ ; & & & & & & & ; ; $ a.b.$ $ $ $ +.& 2.$ c.d.d.d.e.e.f.$ g.h.1 1 1 _ _ _ _ _ i.$ & & & $ $ & & & $ ; & & & & & & & ; ; $ a.",
"& & $ ; ; ; ; ; ; & & ; $ $ j.$ ^.k.-.& & & l.$ $ $ $ $ m.n.$ o.p.u 0 e 5 _ _ _ _ q.r.$ $ $ & & & & & & $ ; ; ; ; ; ; & & ; $ $ ",
"& & & $ $ $ $ $ $ ; ; $ $ s.$ & & & & & & & & (.(.(.(.t.$ u.v.w.x.^   } _ _ _ _ 7 y.$ & & & & & & & & & & $ $ $ $ $ $ ; ; $ $ z.",
"& & & & & & & & & $ $ A.B.$ l.-.& & -.(.C.-.& & & & & -.;.$ $ $ D.| 1 _ _ _ _ _ E.$ & & & & & & & & & & & & & & & & & $ $ F.G.$ ",
"& & & & & & & & & & & $ $ $ H.l.(.& I.J.K.& & & & & & & & & -.7.$ _ _ _ _ _ _ _ $ & & & & & & & & & & & & & & & & & & & & $ $ $ ",
"& & & & & & & & & & & & & & $ L.M.N.O.P.Q.$ $ 7.& & & & & & & ;.$ _ _ _ _ _ _ _ ~ ; & & & & & & & ; & & & & & & & & & & & & & & ",
"& & & & & & & & & & & & & & & $ R.S.T.U.$ & & $ V.3.4.& -.-.;.W.$ _ _ _ _ _ _ _ { ; ; & & & & ; ; & & & & & & & & & & & & & & & ",
"& & & & & & & & & & & & & & & $ X.Y.$ $ & & & & $ Z.$ `. +.+++$ @+_ _ _ _ _ _ _ { ; ; ; ; ; ; ; ; & & & & & & & & & & & & & & & ",
"& & & & & & & & & & & & & & & $ #+$ & & & & & & & & & $ $+%+$ &+*+_ _ _ _ _ _ _ { ; ; ; ; ; ; ; & & & & & & & & & & & & & & & & ",
"& & & & & & & & & & & & & & ; $ O.$ & & & & & & & & & & Z.=+;.$ $ -+-+_ _ _ _ _ { ; ; ; $ $ ; ; ; ; & & & & & & & & & & & & & & ",
"; & & & & & & & & & ; ; ; $ $ ;+++$ & & & & & & & & & & & $ >+-..+$ ,+_ _ _ _ _ '+$ ; $ ; ; ; ; ; ; ; & & & & & & & & & ; ; ; $ ",
"& & & & & & & & & ; $ $ $ $ )+!+$ ; & & & & & & & & & & & & $ ~+{+$ ]+_ _ _ _ _ 7 ^+$ ; ; ; ; ; ; ; & & & & & & & & & ; $ $ $ $ ",
"& & & & & & & & & & & & & ; $ $ ; ; ; & & & & & & & ; & & & & $ $ & $ _ _ _ _ _ _ /+$ ; ; ; ; ; ; ; & & & & & & & & & & & & & ; ",
"& & & & & & & & & & & & & & & ; ; ; ; ; ; & & & & & $ ; & & & & & $ $ (+_ _+:+$ $ <+$ ; ; ; d ; ; ; & & & & & & & & & & & & & & ",
"; & & & & & & & & & & & & & & ; ; ; ; ; & & & & & ; $ $ ; ; & & $ k.& $ [+}+$ ; & $ |+$ ; ; $ ; ; ; ; & & & & & & & & & & & & & ",
"; ; ; & & & & ; & & & & & & ; $ ; ; ; ; ; ; & & & ; $ 1+$ $ $ $ 2+& & & $ 3+$ & & & $ 4+$ $ 5+$ $ $ ; ; ; & & & & ; & & & & & & ",
"$ $ ; ; ; & ; ; ; $ ; ; ; ; $ 6+$ $ ; ; $ $ ; ; $ $ $ 7+& & & & & & & & ; $ ; & & ; $ 8+$ ].^.9+].0+$ $ ; ; ; & ; ; ; $ ; ; ; ; ",
"a+b+P c+; ; ; ; $ d+$ $ $ $ e+Y f+g+$ $ h+$ $ $ t.k.i+(.& & & & & & & & & & & & ; $ j+$ 2.& 3./.4.V.t.k+P c+; ; ; ; $ l+$ $ $ $ ",
"w m+n+o+$ p+q+r+s+w t+u+- t+v+w+_ K x+y+z+$ A+1+7+$ $ & & & $ ; & & & & & & & ; ; $ B+C+$ $ $ $ +.& t.$ D+E+$ p+q+r+F+$ G+H+- I+",
"                      /+1 1 p U _ _ _ f J+K+$ $ $ & & & & & & $ ; ; ; ; ; ; & & ; $ $ L+$ ^.k.-.& & & l.$ $ $ $ $ m.M+$ N+z     ",
"                      U _ _ | 1 _ _ _ K O+$ & & & & & & & & & & $ $ $ $ $ $ ; ; $ $ P+$ & & & & & & & & (.(.(.(.t.$ Q+R+A S+    ",
"                      ] U 1 1 4 : 1 _ E.$ & & & & & & & & & & & & & & & & & $ $ T+U+$ l.-.& & -.(.C.-.& & & & & -.;.$ $ $ V+    ",
"                        k 9 W+< m 0 n $ & & & & & & & & & & & & & & & & & & & & $ $ $ H.l.(.& I.J.K.& & & & & & & & & -.7.$     ",
"                          X+1 1 U Y+k ~ ; & & & & & & & ; & & & & & & & & & & & & & & $ L.M.N.O.P.Q.$ $ 7.& & & & & & & ;.$     ",
"                          k X+1 G Z+  { ; ; & & & & ; ; & & & & & & & & & & & & & & & & $ R.S.T.U.$ & & $ V.3.4.& -.-.;.W.$     ",
"                            k 0 Z+    { ; ; ; ; ; ; ; ; & & & & & & & & & & & & & & & & $ X.Y.$ $ & & & & $ Z.$ `. +.+++$ `+    ",
"                              <       { ; ; ; ; ; ; ; & & & & & & & & & & & & & & & & & $ #+$ & & & & & & & & & $ $+%+$  @.@    ",
"                                      { ; ; ; $ $ ; ; ; ; & & & & & & & & & & & & & & ; $ O.$ & & & & & & & & & & Z.=+;.$ $ ^ ^ ",
"                                      +@$ ; $ ; ; ; ; ; ; ; & & & & & & & & & ; ; ; $ $ @@++$ & & & & & & & & & & & $ >+-..+$ #@",
"                                      < $@$ ; ; ; ; ; ; ; & & & & & & & & & ; $ $ $ $ %@&@$ ; & & & & & & & & & & & & $ ~+{+$ ]+",
"                                        s $ ; ; ; ; ; ; ; & & & & & & & & & & & & & ; $ $ ; ; ; & & & & & & & ; & & & & $ $ & $ ",
"                                        k $ ; ; ; d ; ; ; & & & & & & & & & & & & & & & ; ; ; ; ; ; & & & & & $ ; & & & & & $ u ",
"                                          c $ ; ; $ ; ; ; ; & & & & & & & & & & & & & & ; ; ; ; ; & & & & & ; $ $ ; ; & & $ *@  ",
"                                            =@$ $ m $ $ $ ; ; ; & & & & ; & & & & & & ; $ ; ; ; ; ; ; & & & ; $ -@$ $ $ $ ;@    ",
"                                                    >@a+j $ $ ; ; ; & ; ; ; $ ; ; ; ; $ ,@$ $ ; ; $ $ ; ; $ $ $ Z+              ",
"                                                        u a+b+P c+; ; ; ; $ d+$ $ $ $ '@x.;@)@$ $ !@=@$ $ ~@*@{@                ",
"                                                          w m+n+o+$ p+q+r+s+w - - - I+I Y+  Z+I+[ k   n+]@Z+                    "};
