/* XPM */
static char * fog4_xpm[] = {
"64 64 302 2",
"  	c #000000",
". 	c #454545",
"+ 	c #464646",
"@ 	c #412934",
"# 	c #4E4347",
"$ 	c #574B51",
"% 	c #452D39",
"& 	c #422835",
"* 	c #6D6D6D",
"= 	c #6F6F6F",
"- 	c #999999",
"; 	c #9A9A9A",
"> 	c #7B7B7B",
", 	c #616060",
"' 	c #949494",
") 	c #4A3C43",
"! 	c #442C38",
"~ 	c #989898",
"{ 	c #494646",
"] 	c #2C2929",
"^ 	c #838282",
"/ 	c #514E4E",
"( 	c #48313C",
"_ 	c #909090",
": 	c #8D8C8C",
"< 	c #979797",
"[ 	c #919191",
"} 	c #534F4F",
"| 	c #584A51",
"1 	c #442B37",
"2 	c #838383",
"3 	c #777676",
"4 	c #797777",
"5 	c #868585",
"6 	c #4D4949",
"7 	c #4D3F45",
"8 	c #462E3A",
"9 	c #8B8B8B",
"0 	c #5F5C5C",
"a 	c #2A2828",
"b 	c #48363F",
"c 	c #818181",
"d 	c #43373C",
"e 	c #403339",
"f 	c #442F39",
"g 	c #432A37",
"h 	c #514249",
"i 	c #8D8D8D",
"j 	c #939393",
"k 	c #969696",
"l 	c #8A8989",
"m 	c #040404",
"n 	c #9E9E9E",
"o 	c #7A7878",
"p 	c #5D5A5A",
"q 	c #585656",
"r 	c #4F4549",
"s 	c #6D6C6C",
"t 	c #555555",
"u 	c #3D3539",
"v 	c #50444A",
"w 	c #A6A6A6",
"x 	c #422935",
"y 	c #9C9C9C",
"z 	c #43353C",
"A 	c #6F6E6E",
"B 	c #4A4848",
"C 	c #091006",
"D 	c #432936",
"E 	c #474242",
"F 	c #452B37",
"G 	c #4A313C",
"H 	c #472E3A",
"I 	c #3D2531",
"J 	c #452C38",
"K 	c #4A303C",
"L 	c #49303B",
"M 	c #49303C",
"N 	c #472D39",
"O 	c #462D39",
"P 	c #3E2531",
"Q 	c #49313C",
"R 	c #412834",
"S 	c #3E2631",
"T 	c #3D2631",
"U 	c #3F2632",
"V 	c #432935",
"W 	c #3B2C33",
"X 	c #37212C",
"Y 	c #402733",
"Z 	c #422A35",
"` 	c #452C37",
" .	c #472E39",
"..	c #482E3A",
"+.	c #402734",
"@.	c #3E2632",
"#.	c #442C37",
"$.	c #3F2733",
"%.	c #462D38",
"&.	c #402834",
"*.	c #442A37",
"=.	c #3A222E",
"-.	c #37222C",
";.	c #36202B",
">.	c #46303B",
",.	c #45343C",
"'.	c #291721",
").	c #2F2B23",
"!.	c #6E726E",
"~.	c #969294",
"{.	c #3F2633",
"].	c #432B36",
"^.	c #462C38",
"/.	c #412734",
"(.	c #39222D",
"_.	c #321E28",
":.	c #4B4347",
"<.	c #251C20",
"[.	c #494447",
"}.	c #807B7E",
"|.	c #55454C",
"1.	c #482F3A",
"2.	c #46313A",
"3.	c #595354",
"4.	c #665D61",
"5.	c #48323D",
"6.	c #48303B",
"7.	c #544B4F",
"8.	c #414642",
"9.	c #827B7E",
"0.	c #4E3A42",
"a.	c #6A6A6A",
"b.	c #51484C",
"c.	c #4D363F",
"d.	c #3E2731",
"e.	c #4D3F46",
"f.	c #311D27",
"g.	c #837C7F",
"h.	c #878787",
"i.	c #8A8A8A",
"j.	c #898989",
"k.	c #2B2928",
"l.	c #534048",
"m.	c #432A36",
"n.	c #39222E",
"o.	c #38212D",
"p.	c #8A8789",
"q.	c #6B6065",
"r.	c #4D3640",
"s.	c #482F3B",
"t.	c #3D2431",
"u.	c #331E29",
"v.	c #7E787A",
"w.	c #575052",
"x.	c #564D51",
"y.	c #503B44",
"z.	c #3A232F",
"A.	c #402E37",
"B.	c #3B2A31",
"C.	c #676465",
"D.	c #8F8F8F",
"E.	c #53444A",
"F.	c #4E3740",
"G.	c #412B36",
"H.	c #3E2933",
"I.	c #402835",
"J.	c #312227",
"K.	c #3B3739",
"L.	c #463F42",
"M.	c #423A3D",
"N.	c #4C3A41",
"O.	c #4C353E",
"P.	c #472F3A",
"Q.	c #3F2732",
"R.	c #422936",
"S.	c #39252E",
"T.	c #332627",
"U.	c #5E575A",
"V.	c #585557",
"W.	c #807F7F",
"X.	c #5F5358",
"Y.	c #3E2B32",
"Z.	c #625F60",
"`.	c #767575",
" +	c #615F5F",
".+	c #908F8F",
"++	c #010E01",
"@+	c #666363",
"#+	c #555151",
"$+	c #514D4D",
"%+	c #484343",
"&+	c #646161",
"*+	c #888788",
"=+	c #010F01",
"-+	c #515050",
";+	c #6C6A6A",
">+	c #676565",
",+	c #767576",
"'+	c #3E2732",
")+	c #412835",
"!+	c #423F3F",
"~+	c #787777",
"{+	c #575253",
"]+	c #462E39",
"^+	c #454040",
"/+	c #3D393A",
"(+	c #5B5356",
"_+	c #4A333C",
":+	c #331F28",
"<+	c #5A5859",
"[+	c #483F42",
"}+	c #3F2933",
"|+	c #351F2A",
"1+	c #757274",
"2+	c #797476",
"3+	c #4A4949",
"4+	c #3B232F",
"5+	c #3C2431",
"6+	c #3B242F",
"7+	c #031B02",
"8+	c #402934",
"9+	c #402833",
"0+	c #35202A",
"a+	c #3C2E2F",
"b+	c #544249",
"c+	c #6B6C69",
"d+	c #7E7679",
"e+	c #331D28",
"f+	c #282828",
"g+	c #38272E",
"h+	c #4A3F44",
"i+	c #6E6669",
"j+	c #4B3941",
"k+	c #030303",
"l+	c #35202B",
"m+	c #301C26",
"n+	c #27191F",
"o+	c #261D1F",
"p+	c #929292",
"q+	c #414440",
"r+	c #6A5F64",
"s+	c #452F39",
"t+	c #696969",
"u+	c #38222D",
"v+	c #39242D",
"w+	c #1D1616",
"x+	c #021602",
"y+	c #011302",
"z+	c #1F1419",
"A+	c #362E30",
"B+	c #342229",
"C+	c #1C1415",
"D+	c #22141A",
"E+	c #6D6E6D",
"F+	c #6B6266",
"G+	c #402A33",
"H+	c #331E27",
"I+	c #252022",
"J+	c #031002",
"K+	c #020F01",
"L+	c #010D01",
"M+	c #24171C",
"N+	c #2D1C23",
"O+	c #2C1C23",
"P+	c #2B1B23",
"Q+	c #46333A",
"R+	c #4C333E",
"S+	c #462F3A",
"T+	c #2D1B23",
"U+	c #2A1921",
"V+	c #020202",
"W+	c #747474",
"X+	c #5E5E5E",
"Y+	c #746F72",
"Z+	c #452D38",
"`+	c #422B35",
" @	c #6B6165",
".@	c #52454A",
"+@	c #48323C",
"@@	c #453039",
"#@	c #5F585B",
"$@	c #402C34",
"%@	c #403539",
"&@	c #3D2A30",
"*@	c #53484D",
"=@	c #504A4D",
"-@	c #3A232E",
";@	c #575455",
">@	c #676063",
",@	c #3B2430",
"'@	c #2F1F26",
")@	c #2A1B21",
"!@	c #2B1A22",
"~@	c #382A30",
"{@	c #412935",
"]@	c #291A20",
"^@	c #311C27",
"/@	c #3E2532",
"(@	c #2E2227",
"_@	c #2E1B24",
":@	c #331E28",
"<@	c #412A35",
"    . +   @ #     $ % & & & & & & & & & & & & & & & & & & & & & & & & & & & & & & & & & & & & & & & & & & & & & & & & & & & & & ",
"* = - ; >     , '   ) ! & & & & & & & & & & & & & & & & & & & & & & & & & & & & & & & & & & & & & & & & & & & & & & & & & & & & ",
"~ ~ ~ ~ ~ { ] ^ ' /   ( & & & & & & & & & & & & & & & & & & & & & & & & & & & & & & & & & & & & & & & & & & & & & & & & & & & & ",
"_ : ~ ~ ~ < < [ }   | 1 & & & & & & & & & & & & & & & & & & & & & & & & & & & & & & & & & & & & & & & & & & & & & & & & & & & & ",
"2   3 4 4 4 5 5 6   7 8 & & & & & & & & & & & & & & & & & & & & & & & & & & & & & & & & & & & & & & & & & & & & & & & & & & & & ",
"~ 9           0 a   b ! & & & & & & & & & & & & & & & & & & & & & & & & & & & & & & & & & & & & & & & & & & & & & & & & & & & & ",
"~ ~ < < < < c   d e f g & & & & & & & & & & & & & & & & & & & & & & & & & & & & & & & & & & & & & & & & & & & & & & & & & & & & ",
"- ~ ~ ~ ~ ~ - ;       h & & & & & & & & & & & & & & & & & & & & & & & & & & & & & & & & & & & & & & & & & & & & & & & & & & & & ",
"~ ~ ~ ~ ~ ~ ~ ~ ~ - [   & & & & & & & & & & & & & & & & & & & & & & & & & & & & & & & & & & & & & & & & & & & & & & & & & & & & ",
"    [ ~ ~ ~ ~ ~ ~ ~ ;   & & & & & & & & & & & & & & & & & & & & & & & & & & & & & & & & & & & & & & & & & & & & & & & & & & & & ",
"~ ~   i j k ~ - - ; l   & & & & & & & & & & & & & & & & & & & & & & & & & & & & & & & & & & & & & & & & & & & & & & & & & & & & ",
"~ ~ ~   m   n o p q   r & & & & & & & & & & & & & & & & & & & & & & & & & & & & & & & & & & & & & & & & & & & & & & & & & & & & ",
"~ ~ ~ ~ ~ ~   s t   u v & & & & & & & & & & & & & & & & & & & & & & & & & & & & & & & & & & & & & & & & & & & & & & & & & & & & ",
"~ ~ ~ ~ ~ ~ ~ m w ;     x x & & & & & & & & & & & & & & & & & & & & & & & & & & & & & & & & & & & & & & & & & & & & & & & & & & ",
"~ ~ ~ ~ ~ ~ ~ ~   y - p   z & & & & & & & & & & & & & & & & & & & & & & & & & & & & & & & & & & & & & & & & & & & & & & & & & & ",
"~ ~ ~ ~ ~ ~ ~ ~ ~   A B   C & & & & & & & & & & & & & & & & & & & & & & & & & & & & & D x & & & & & & & & & & & & & & & & & & & ",
"~ ~ ~ ~ ~ E ~ ~ ~ ~     ~   & & & & & & x D & & & & & & & & & & & & & & & D D D x & F G H x & & & & & & & & & & & & & & & & & & ",
"~ ~ ~ ~ ~   E ~ ~ ~ ~ ~   I & & & & & x H G F & x D D D & & & & & & & & J K L M N & 1 L L O & & & & & & & & & & & & & & & & & & ",
"~ ~ ~ ~ E     E E ~ ~   P & & & & & & O L L F & N K L K J & & & & D D & J Q G G O & R S T U & D V & & & & & & & & & & & & & & & ",
"E ~ ~ ~ E   W         X & & & & V D & U T S R & O G G Q J & D V O K K O Y Z L ` U F L L  .& 1 M ..& & & & & & & & & & & & & & & ",
"  E E       +.& & & & & & & & & H M 1 &  .L L F @.#.L Z $.O K L L L L %.& &.S $.& F L G G H *.L H & D D V & & & & & & & & & & & ",
"=.    -.P ;.& & & & >.,.'.      ).L $ !.    ~.@ {.$.S &.& %.L L ].    $.^.L L N & Y @ L L  ./.T @.1 L L  .& & & & & & & & & & & ",
"& (._.+.& & & :.          ~ ~ ~   <.[.  E ~   }.|.N L L 1.        . +   2.3.    4.5.R S S $.D & *.6.L  .@.& & & & & & & & & & & ",
"& & & 7.        ~ ~ ~ ~ ~ ~ ~ ~ ~   8.  ~ ~ ~   9.0.      a.* * = - ; >     , '   b.c.L L L L M  .d.S @.x V & & & & & & e.      ",
"& & f.  ~ ~ ~ ~ ~ ~ ~ ~ ~ ~ ~ ~ ~ E   E ~ ~ E   g.  h.i.j.< ~ ~ ~ ~ ~ ~ { k.^ ' /   l.G G G G G G L H m.1. .& & & & & n.  ~ ~ ~ ",
"& o.  ~ ~ ~ ~ ~ ~ ~ ~ ~ ~ ~ ~ ~ ~ ~ ~ ~ ~ E   p.  2 ~ j j.k ~ _ : ~ ~ ~ < < [ }   q.r.G G G G G G G s.R T @.& & & & t.  ~ ~ ~ ~ ",
"& u.  ~ ~ ~     ~ ~ ~   E ~ ~ ~ ~ ~ ~ ~ E E   v.w.        ' ~ 2   3 4 4 4 5 5 6   x.y.G G G G G G G s.V & x D & & & z.  ~ ~ ~   ",
"& A.B.      ~ ~ ~ ~ ~ ~   E E E E E E ~ ~ E     C.  i.D.- ~ ~ ~ 9           0 a   E.F.G G G G G G G L  .m.1.H & & & G.H.      ~ ",
"I.J.  ~ ~ ~ ~ ~ ~ ~ ~ ~ ~             E E     K.  ~ ~ ~ ~ ~ ~ ~ ~ < < < < c   L.M.N.O.G G G G G G P.T Q.& S @.V D R.S.  ~ ~ ~ ~ ",
"T.  ~ ~ ~ ~ ~ ~ ~ ~ ~ ~ ~ ~ ~ ~ ~ ~ ~     U.V.  9 - ~ ~ - < W.- ~ ~ ~ ~ ~ - ;       X.G G G G G G 1.*.L L 1.m.L L Y.  ~ ~ ~ ~ ~ ",
"  ~ ~ ~ ~ ~ ~ ~ ~ ~ ~ ~ ~ ~ ~ ~ ~ ~ ~ ~ ~       Z.9 < ~ `. +.+~ ~ ~ ~ ~ ~ ~ ~ ~ - [   G G G G G G L K G G 1.m.L P.  ~ ~ ~ ~ ~ ~ ",
"++E ~ ~ ~ ~ ~ ~ ~ E ~ ~ ~ ~ ~ ~ ~ ~ ~ ~ ~ ~ ~ ~   @+#+$+%+&+*+    [ ~ ~ ~ ~ ~ ~ ~ ;   G G G G G s.F L L  .@.R T S ++E ~ ~ ~ ~ ~ ",
"=+E E ~ ~ ~ ~ E E ~ ~ ~ ~ ~ ~ ~ ~ ~ ~ ~ ~ ~ ~ ~ ~   -+;+>+,+  ~ ~   i j k ~ - - ; l   G G G G G G  .'+S @.)+& )+& =+E E ~ ~ ~ ~ ",
"=+E E E E E E E E ~ ~ ~ ~ ~ ~ ~ ~ ~ ~ ~ ~ ~ ~ ~ ~   !+~+    ~ ~ ~ ~   m   n o p q   {+G G G G G G G L ]+& & & & & =+E E E E E E ",
"=+E E E E E E E ~ ~ ~ ~ ~ ~ ~ ~ ~ ~ ~ ~ ~ ~ ~ ~ ~   ^+  ~ ~ ~ ~ ~ ~ ~ ~ ~   s t   /+(+G G G G G G G  .@.& & & & D =+E E E E E E ",
"=+E E E     E E E E ~ ~ ~ ~ ~ ~ ~ ~ ~ ~ ~ ~ ~ ~ E   %+  ~ ~ ~ ~ ~ ~ ~ ~ ~ ~ m w ;     _+_+G G G G s.x & & & & *.L =+E E E     E ",
":+  E   E E E E E E E ~ ~ ~ ~ ~ ~ ~ ~ ~ E E E     <+q   ~ ~ ~ ~ ~ ~ ~ ~ ~ ~ ~   y - p   [+G G G G s.D & & & D 1.L }+  E   E E E ",
")+|+  E E E E E E E ~ ~ ~ ~ ~ ~ ~ ~ ~ E         1+2+  E ~ ~ ~ ~ ~ ~ ~ ~ ~ ~ ~ ~   A 3+  C G G G G G 1.D D D & '+S S 4+  E E E E ",
"& 5+  E E E E E E E ~ ~ ~ ~ ~ ~ ~ ~ ~ ~ ~ ~ ~ E     E E E ~ ~ ~ ~ ~ ~ ~ E ~ ~ ~ ~     ~   G G G G G G L 6.L L L 1.& {.  E E E E ",
"& 6+  E E E 7+E E E ~ ~ ~ ~ ~ ~ ~ ~ ~ ~ ~ ~ ~ ~ ~ E E E E E E ~ ~ ~ ~ ~   E ~ ~ ~ ~ ~   8+G G G G G G P.9+G G G 1.& @.  E E E 7+",
"& & 0+  E E   E E E E ~ ~ ~ ~ ~ ~ ~ ~ ~ ~ ~ ~ ~ ~ E E E E E ~ ~ ~ ~ ~ E     E E ~ ~     a+G b+c+    d+1.m.L L  .@.& & 6+  E E   ",
"& & & e+    T       E E E ~ ~ ~ ~ E ~ ~ ~ ~ ~ ~ E   E E E E E E ~ ~ ~ E   f+        = ~   g+h+  E ~   i+j+T T S Z             k+",
"& & & & & & & l+m+n+    E E E ~ E E E   E E E E   o+    E E     E E       p+~ ~ ~ ~ ~ ~ ~   q+  ~ ~ ~   r+s+      t+* * = - ; > ",
"& & & & & & & & & u+v+w+x+y+E E E E   z+        A+2.B+C+    D+      E+h.t+k ~ ~ ~ ~ ~ ~ ~ E   E ~ ~ E   F+  h.i.j.< ~ ~ ~ ~ ~ ~ ",
"& & & & & & & & & & %.G+H+I+  J+K+L+M+1.N+N+O+P+Q+R+G S+T+U+V+~ W+X+p+~ ~ ~ ~ ~ ~ ~ ~ ~ ~ ~ ~ ~ ~ E   Y+  2 ~ j j.k ~ _ : ~ ~ ~ ",
"& & & & & & & & & & @.S & Q.T  .G G G L L L @ Z+G G G G G `+  ~ ~ ~     ~ ~ ~   E ~ ~ ~ ~ ~ ~ ~ E E    @.@        ' ~ 2   3 4 4 ",
"& & & & & & & & & & & P.L L *.1.G G G Z S S R H G L L L G +@@@      ~ ~ ~ ~ ~ ~   E E E E E E ~ ~ E     #@  i.D.- ~ ~ ~ 9       ",
"& & & & & & & & & & & 1.G G K L G G G L L L L G G ].I I #.$@  ~ ~ ~ ~ ~ ~ ~ ~ ~ ~             E E     %@  ~ ~ ~ ~ ~ ~ ~ ~ < < < ",
"& & & & & & & & & & & D 1.L L 1 H L G G G L L L L F R R &@  ~ ~ ~ ~ ~ ~ ~ ~ ~ ~ ~ ~ ~ ~ ~ ~ ~     *@=@  9 - ~ ~ - < W.- ~ ~ ~ ~ ",
"& & & & & & & & & & & & @.S d.)+$.T %.G G Z T T T Y & &   ~ ~ ~ ~ ~ ~ ~ ~ ~ ~ ~ ~ ~ ~ ~ ~ ~ ~ ~ ~       Z.9 < ~ `. +.+~ ~ ~ ~ ~ ",
"& & & & & & & & & & & & & ]+L L 1.m.@.]+G L 1 R )+& & & ++E ~ ~ ~ ~ ~ ~ ~ E ~ ~ ~ ~ ~ ~ ~ ~ ~ ~ ~ ~ ~ ~   @+#+$+%+&+*+    [ ~ ~ ",
"& & & & & & & & & & & & & @.]+L 8++.&  .L L F & & & & & =+E E ~ ~ ~ ~ E E ~ ~ ~ ~ ~ ~ ~ ~ ~ ~ ~ ~ ~ ~ ~ ~   -+;+>+,+  ~ ~   i j ",
"& & & & & & & & & & & & & & @.T +.& & U T T +.& & & & & =+E E E E E E E E ~ ~ ~ ~ ~ ~ ~ ~ ~ ~ ~ ~ ~ ~ ~ ~   !+~+    ~ ~ ~ ~   m ",
"& & & & & & & & & & & & & & & )+& & & & )+)+& & & & & & =+E E E E E E E ~ ~ ~ ~ ~ ~ ~ ~ ~ ~ ~ ~ ~ ~ ~ ~ ~   ^+  ~ ~ ~ ~ ~ ~ ~ ~ ",
"& & & & & & & & & & & & & & & & & & & & & & & & & & & & =+E E E     E E E E ~ ~ ~ ~ ~ ~ ~ ~ ~ ~ ~ ~ ~ ~ E   %+  ~ ~ ~ ~ ~ ~ ~ ~ ",
"& & & & & & & & & & & & & & & & & & & & & & & & & & & & -@  E   E E E E E E E ~ ~ ~ ~ ~ ~ ~ ~ ~ E E E     ;@q   ~ ~ ~ ~ ~ ~ ~ ~ ",
"& & & & & & & & & & & & & & & & & & & & & & & & & & & & )+4+  E E E E E E E ~ ~ ~ ~ ~ ~ ~ ~ ~ E         >@4.  E ~ ~ ~ ~ ~ ~ ~ ~ ",
"& & & & & & & & & & & & & & & & & & & & & & & & & & & & & {.  E E E E E E E ~ ~ ~ ~ ~ ~ ~ ~ ~ ~ ~ ~ ~ E     E E E ~ ~ ~ ~ ~ ~ ~ ",
"& & & & & & & & & & & & & & & & & & & & & & & & & & & & & @.  E E E 7+E E E ~ ~ ~ ~ ~ ~ ~ ~ ~ ~ ~ ~ ~ ~ ~ E E E E E E ~ ~ ~ ~ ~ ",
"& & & & & & & & & & & & & & & & & & & & & & & & & & & & & & 6+  E E   E E E E ~ ~ ~ ~ ~ ~ ~ ~ ~ ~ ~ ~ ~ ~ E E E E E ~ ~ ~ ~ ~ E ",
"& & & & & & & & & & & & & & & & & & & & & & & & & & & & & & & =.    $.      E E E ~ ~ ~ ~ E ~ ~ ~ ~ ~ ~ E   E E E E E E ~ ~ ~ E ",
"& & & & & & & & & & & & & & & & & & & & & & & & & & & & & & & & & & & ,@z.0+    E E E ~ E E E   E E E E   '@    E E     E E     ",
"& & & & & & & & & & & & & & & & & & & & & & & & & & & & & & & & & & & & & I z.)@x+y+E E E E   !@        ~@{@X ]@    ^@=.    -.P ",
"& & & & & & & & & & & & & & & & & & & & & & & & & & & & & & & & & & & & & & /./@(.(@  J+K+L+_@/.u.u.u.:@<@m.& +.:@|+@.& (._.+.& "};
