/* XPM */
static char * fog5_xpm[] = {
"64 64 286 2",
"  	c #422835",
". 	c #442C38",
"+ 	c #442F39",
"@ 	c #341E2A",
"# 	c #000000",
"$ 	c #352829",
"% 	c #4E3C45",
"& 	c #6A6C69",
"* 	c #7B7477",
"= 	c #483A40",
"- 	c #989898",
"; 	c #33222A",
"> 	c #473C41",
", 	c #474242",
"' 	c #6D6669",
") 	c #4C3942",
"! 	c #432A36",
"~ 	c #454545",
"{ 	c #464646",
"] 	c #412934",
"^ 	c #4E4347",
"/ 	c #574B51",
"( 	c #452D39",
"_ 	c #4D3F46",
": 	c #414340",
"< 	c #6A5F64",
"[ 	c #452E39",
"} 	c #696969",
"| 	c #6D6D6D",
"1 	c #6F6F6F",
"2 	c #999999",
"3 	c #9A9A9A",
"4 	c #7B7B7B",
"5 	c #616060",
"6 	c #949494",
"7 	c #4A3C43",
"8 	c #39222E",
"9 	c #6B6166",
"0 	c #878787",
"a 	c #8A8A8A",
"b 	c #898989",
"c 	c #979797",
"d 	c #494646",
"e 	c #2C2929",
"f 	c #838282",
"g 	c #514E4E",
"h 	c #48313C",
"i 	c #3D2431",
"j 	c #756F72",
"k 	c #838383",
"l 	c #939393",
"m 	c #969696",
"n 	c #909090",
"o 	c #8D8C8C",
"p 	c #919191",
"q 	c #534F4F",
"r 	c #584A51",
"s 	c #442B37",
"t 	c #3A232F",
"u 	c #685F63",
"v 	c #4E4147",
"w 	c #777676",
"x 	c #797777",
"y 	c #868585",
"z 	c #4D4949",
"A 	c #4D3F45",
"B 	c #462E3A",
"C 	c #412B36",
"D 	c #3E2933",
"E 	c #5C5659",
"F 	c #8F8F8F",
"G 	c #8B8B8B",
"H 	c #5F5C5C",
"I 	c #2A2828",
"J 	c #48363F",
"K 	c #412835",
"L 	c #39252E",
"M 	c #3C3237",
"N 	c #818181",
"O 	c #43373C",
"P 	c #403339",
"Q 	c #432A37",
"R 	c #3A272E",
"S 	c #53484D",
"T 	c #524A4E",
"U 	c #807F7F",
"V 	c #514249",
"W 	c #625F60",
"X 	c #767575",
"Y 	c #615F5F",
"Z 	c #908F8F",
"` 	c #010E01",
" .	c #666363",
"..	c #555151",
"+.	c #514D4D",
"@.	c #484343",
"#.	c #646161",
"$.	c #888788",
"%.	c #010F01",
"&.	c #515050",
"*.	c #6C6A6A",
"=.	c #676565",
"-.	c #767576",
";.	c #8D8D8D",
">.	c #8A8989",
",.	c #423F3F",
"'.	c #787777",
").	c #040404",
"!.	c #9E9E9E",
"~.	c #7A7878",
"{.	c #5D5A5A",
"].	c #585656",
"^.	c #4F4549",
"/.	c #432936",
"(.	c #422935",
"_.	c #454040",
":.	c #6D6C6C",
"<.	c #555555",
"[.	c #3D3539",
"}.	c #52464B",
"|.	c #4A313C",
"1.	c #472E3A",
"2.	c #A6A6A6",
"3.	c #49313B",
"4.	c #462D39",
"5.	c #3A232E",
"6.	c #585556",
"7.	c #9C9C9C",
"8.	c #40343A",
"9.	c #3F2632",
"0.	c #432935",
"a.	c #3B232F",
"b.	c #686164",
"c.	c #696064",
"d.	c #6F6E6E",
"e.	c #4A4848",
"f.	c #091006",
"g.	c #49303C",
"h.	c #482E3A",
"i.	c #3F2633",
"j.	c #442A37",
"k.	c #49303B",
"l.	c #3E2632",
"m.	c #031B02",
"n.	c #442C37",
"o.	c #472E39",
"p.	c #412734",
"q.	c #3D2631",
"r.	c #3B242F",
"s.	c #3E2631",
"t.	c #3F2733",
"u.	c #48303B",
"v.	c #3A222E",
"w.	c #403137",
"x.	c #3D2831",
"y.	c #3E2731",
"z.	c #3B2430",
"A.	c #35202A",
"B.	c #34242A",
"C.	c #452D38",
"D.	c #402733",
"E.	c #452C38",
"F.	c #482F3A",
"G.	c #3D2531",
"H.	c #2E1F24",
"I.	c #021602",
"J.	c #011302",
"K.	c #312027",
"L.	c #191C19",
"M.	c #0B0B0B",
"N.	c #251D1C",
"O.	c #50524F",
"P.	c #3E2932",
"Q.	c #452E38",
"R.	c #3C2731",
"S.	c #49313C",
"T.	c #482F3B",
"U.	c #412834",
"V.	c #34202A",
"W.	c #2D2227",
"X.	c #031002",
"Y.	c #020F01",
"Z.	c #010D01",
"`.	c #362C30",
" +	c #010101",
".+	c #010001",
"++	c #2C1E24",
"@+	c #3D3338",
"#+	c #858585",
"$+	c #6E666A",
"%+	c #533F47",
"&+	c #4B323D",
"*+	c #48313B",
"=+	c #53474B",
"-+	c #584B51",
";+	c #424441",
">+	c #6D6267",
",+	c #4C363F",
"'+	c #4B3D43",
")+	c #4A323C",
"!+	c #6A6165",
"~+	c #2D2929",
"{+	c #443039",
"]+	c #5D4E54",
"^+	c #412A34",
"/+	c #6B6165",
"(+	c #52454B",
"_+	c #514349",
":+	c #4B343E",
"<+	c #472F3A",
"[+	c #442A36",
"}+	c #48323C",
"|+	c #453039",
"1+	c #5F585B",
"2+	c #2B2828",
"3+	c #4C3A42",
"4+	c #402A35",
"5+	c #3D2A31",
"6+	c #40353A",
"7+	c #41363B",
"8+	c #3E3237",
"9+	c #402D37",
"0+	c #422A37",
"a+	c #39272E",
"b+	c #574B50",
"c+	c #544D50",
"d+	c #4F454A",
"e+	c #3E2732",
"f+	c #3F373A",
"g+	c #54484D",
"h+	c #38232C",
"i+	c #4D4247",
"j+	c #402833",
"k+	c #696265",
"l+	c #484747",
"m+	c #402933",
"n+	c #3F2732",
"o+	c #35212B",
"p+	c #1F1F1F",
"q+	c #828282",
"r+	c #432C36",
"s+	c #3A252F",
"t+	c #321F27",
"u+	c #959595",
"v+	c #4A303C",
"w+	c #2F2025",
"x+	c #372A2F",
"y+	c #412B35",
"z+	c #271C1F",
"A+	c #747474",
"B+	c #7F7F7F",
"C+	c #442D37",
"D+	c #3F2933",
"E+	c #31252A",
"F+	c #332129",
"G+	c #3A252E",
"H+	c #36212B",
"I+	c #331E28",
"J+	c #412A35",
"K+	c #352429",
"L+	c #797979",
"M+	c #7E7E7E",
"N+	c #787878",
"O+	c #462D38",
"P+	c #422A35",
"Q+	c #3D2530",
"R+	c #442B36",
"S+	c #462C38",
"T+	c #462E39",
"U+	c #402934",
"V+	c #402734",
"W+	c #452B37",
"X+	c #575455",
"Y+	c #676063",
"Z+	c #665D61",
"`+	c #2F1F26",
" @	c #2A1B21",
".@	c #2B1A22",
"+@	c #382A30",
"@@	c #412935",
"#@	c #37212C",
"$@	c #3E2532",
"%@	c #39222D",
"&@	c #2E2227",
"*@	c #2E1B24",
"=@	c #331E29",
"                                                                                                                                ",
"                                                                                                                                ",
"                                                                                                                                ",
"                    . + @ # # # $   % & # # *                     # #                                                           ",
"              = # # # # # - - - # ; > # , - # ' )       ! # # # # ~ { # ] ^ # # / (                                             ",
"      _ # # # # - - - - - - - - - # : # - - - # < [ # # # } | | 1 2 3 4 # # 5 6 # 7 .                                           ",
"    8 # - - - - - - - - - - - - - , # , - - , # 9 # 0 a b c - - - - - - d e f 6 g # h                                           ",
"  i # - - - - - - - - - - - - - - - - - - , # j # k - l b m - n o - - - c c p q # r s                                           ",
"  t # - - - # # - - - # , - - - - - - - , , # u v # # # # 6 - k # w x x x y y z # A B                                           ",
"  C D # # # - - - - - - # , , , , , , - - , # # E # a F 2 - - - G # # # # # H I # J .                                           ",
"K L # - - - - - - - - - - # # # # # # , , # # M # - - - - - - - - c c c c N # O P + Q                                           ",
"R # - - - - - - - - - - - - - - - - - # # S T # G 2 - - 2 c U 2 - - - - - 2 3 # # # V                                           ",
"# - - - - - - - - - - - - - - - - - - - - # # # W G c - X Y Z - - - - - - - - - 2 p #                                           ",
"` , - - - - - - - , - - - - - - - - - - - - - - #  ...+.@.#.$.# # p - - - - - - - 3 #                                           ",
"%., , - - - - , , - - - - - - - - - - - - - - - - # &.*.=.-.# - - # ;.l m - 2 2 3 >.#                                           ",
"%., , , , , , , , - - - - - - - - - - - - - - - - # ,.'.# # - - - - # ).# !.~.{.].# ^./.(.                                      ",
"%., , , , , , , - - - - - - - - - - - - - - - - - # _.# - - - - - - - - - # :.<.# [.}.|.1.(.                                    ",
"%., , , # # , , , , - - - - - - - - - - - - - - , # @.# - - - - - - - - - - ).2.3 # # 3.3.4.                                    ",
"5.# , # , , , , , , , - - - - - - - - - , , , # # 6.].# - - - - - - - - - - - # 7.2 {.# 8.9.  /.0.                              ",
"K a.# , , , , , , , - - - - - - - - - , # # # # b.c.# , - - - - - - - - - - - - # d.e.# f.  s g.h.                              ",
"  i.# , , , , , , , - - - - - - - - - - - - - , # # , , , - - - - - - - , - - - - # # - # 1.j.k.1.  /./.0.                      ",
"  l.# , , , m., , , - - - - - - - - - - - - - - - , , , , , , - - - - - # , - - - - - # n.o.p.q.l.s k.k.o.                      ",
"    r.# , , # , , , , - - - - - - - - - - - - - - , , , , , - - - - - , # # , , - - # 5.s.t./.  j.u.k.o.l.                      ",
"      v.# # t.# # # , , , - - - - , - - - - - - , # , , , , , , - - - , # w.# # # # x.k.k.k.k.g.o.y.s.l.(.0.                    ",
"              z.t A.# # , , , - , , , # , , , , # B.# # , , # # , , # # # u.C.q.D.E.|.|.|.|.|.|.|.k.1.! F.o.                    ",
"                  G.t H.I.J., , , , # K.# # # # L.M.# N.# # O.# # # P.Q.R.S.|.k.k.|.|.|.# # |.|.|.|.T.U.q.l.                    ",
"                    p.t V.W.# X.Y.Z.`.#  +.+.+# n c - # ++@+ +, #+# $+%+|.|.|.&+# # # # ~ { # *+=+# # -+( (./.                  ",
"                    0.(.  (.V # # # # - - - - - - - - - # ;+# - - - # >+,+# # # } | | 1 2 3 4 # # 5 6 # '+)+1.                  ",
"                    o.F.! y.# - - - - - - - - - - - - - , # , - - , # !+# 0 a b c - - - - - - d ~+f 6 g # {+l.0././.            ",
"              /././.l.s.i # - - - - - - - - - - - - - - - - - - , # j # k - l b m - n o - - - c c p q # ]+)+! k.k.1.            ",
"              1.k.k.! 1.^+# - - - # # - - - # , - - - - - - - , , # /+(+# # # # 6 - k # w x x x y y z # _+:+! k.<+l.            ",
"              l.o.k.[+F.}+|+# # # - - - - - - # , , , , , , - - , # # 1+# a F 2 - - - G # # # # # H 2+# 3+4+U.q.s.U.            ",
"              U.s.q.U.l.5+# - - - - - - - - - - # # # # # # , , # # 6+# - - - - - - - - c c c c N # 7+8+9+0+  K                 ",
"                  K   a+# - - - - - - - - - - - - - - - - - # # b+c+# G 2 - - 2 c U 2 - - - - - 2 3 # # # V                     ",
"                      # - - - - - - - - - - - - - - - - - - - - # # # W G c - X Y Z - - - - - - - - - 2 p #     /./.            ",
"              /./.    ` , - - - - - - - , - - - - - - - - - - - - - - #  ...+.@.#.$.# # p - - - - - - - 3 #   j.k.T.            ",
"              T.k.j.  %., , - - - - , , - - - - - - - - - - - - - - - - # &.*.=.-.# - - # ;.l m - 2 2 3 >.# /.F.k.F.            ",
"              F.k.F./.%., , , , , , , , - - - - - - - - - - - - - - - - # ,.'.# # - - - - # ).# !.~.{.].# d+  e+s.s.            ",
"              s.s.e+  %., , , , , , , - - - - - - - - - - - - - - - - - # _.# - - - - - - - - - # :.<.# f+g+k.k.F.              ",
"                F.k.k.%., , , # # , , , , - - - - - - - - - - - - - - , # @.# - - - - - - - - - - ).2.3 # # )+)+F.              ",
"                k.|.k.h+# , # , , , , , , , - - - - - - - - - , , , # # 6.].# - - - - - - - - - - - # 7.2 {.# i+& # # *         ",
"                F.k.j+p.a.# , , , , , , , - - - - - - - - - , # # # # k+c.# , - - - - - - - - - - - - # d.l+# f.# , - # ' )     ",
"                s.q.U./.i.# , , , , , , , - - - - - - - - - - - - - , # # , , , - - - - - - - , - - - - # # - # # - - - # < [ # ",
"                    F.k.D.# , , , m., , , - - - - - - - - - - - - - - - , , , , , , - - - - - # , - - - - - # # , - - , # 9 # 0 ",
"                    F.k.[+m+# , , # , , , , - - - - - - - - - - - - - - , , , , , - - - - - , # # , , - - # F - - - , # j # k - ",
"                    l.s.  n+o+# # <+# # # , , , - - - - , - - - - - - , # , , , , , , - - - , # p+# # # # q+- - - , , # u v # # ",
"                      <+k.k.j.F.|.|.r+s+t+# # , , , - , , , # , , , , # B.# # , , # # , , # # # u+# , , , , , , - - , # # E # a ",
"                      F.|.|.v+k.|.|.|.k.n.^+w+I.J., , , , # K.# # # # x+y+x.z+# # A+0 # # N F B+c - # # # # # # , , # # M # - - ",
"                      /.F.k.k.s 1.k.|.|.|.F.C+D+E+# X.Y.Z.F+u.G+G+H+I+J+] K+# L+M+n - #+N+u+- - - - - - - - - - # # S T # G 2 - ",
"                        l.s.y.K t.q.O+|.|.P+q.q.q.D.    t.Q+R+k.k.S+      # - - - - - - - - - - - - - - - - - - - - # # # W G c ",
"                          T+k.k.F.! l.T+|.k.s U.K           t.q.q.t.      ` , - - - - - - - , - - - - - - - - - - - - - - #  ...",
"                          l.T+k.U+V+  o.k.k.W+                K K         %., , - - - - , , - - - - - - - - - - - - - - - - # &.",
"                            l.q.V+    9.q.q.V+                            %., , , , , , , , - - - - - - - - - - - - - - - - # ,.",
"                              K         K K                               %., , , , , , , - - - - - - - - - - - - - - - - - # _.",
"                                                                          %., , , # # , , , , - - - - - - - - - - - - - - , # @.",
"                                                                          5.# , # , , , , , , , - - - - - - - - - , , , # # X+].",
"                                                                          K a.# , , , , , , , - - - - - - - - - , # # # # Y+Z+# ",
"                                                                            i.# , , , , , , , - - - - - - - - - - - - - , # # , ",
"                                                                            l.# , , , m., , , - - - - - - - - - - - - - - - , , ",
"                                                                              r.# , , # , , , , - - - - - - - - - - - - - - , , ",
"                                                                                v.# # t.# # # , , , - - - - , - - - - - - , # , ",
"                                                                                        z.t A.# # , , , - , , , # , , , , # `+# ",
"                                                                                            G.t  @I.J., , , , # .@# # # # +@@@#@",
"                                                                                              p.$@%@&@# X.Y.Z.*@p.=@=@=@I+J+!   "};
