/* XPM */
static char * fog6_xpm[] = {
"64 64 275 2",
"  	c #422835",
". 	c #442C38",
"+ 	c #442F39",
"@ 	c #341E2A",
"# 	c #000000",
"$ 	c #352829",
"% 	c #4E3C45",
"& 	c #6A6C69",
"* 	c #7B7477",
"= 	c #483A40",
"- 	c #989898",
"; 	c #33222A",
"> 	c #473C41",
", 	c #474242",
"' 	c #6D6669",
") 	c #4C3942",
"! 	c #432A36",
"~ 	c #454545",
"{ 	c #464646",
"] 	c #412934",
"^ 	c #4E4347",
"/ 	c #574B51",
"( 	c #452D39",
"_ 	c #4D3F46",
": 	c #414340",
"< 	c #6A5F64",
"[ 	c #452E39",
"} 	c #696969",
"| 	c #6D6D6D",
"1 	c #6F6F6F",
"2 	c #999999",
"3 	c #9A9A9A",
"4 	c #7B7B7B",
"5 	c #616060",
"6 	c #949494",
"7 	c #4A3C43",
"8 	c #39222E",
"9 	c #6B6166",
"0 	c #878787",
"a 	c #8A8A8A",
"b 	c #898989",
"c 	c #979797",
"d 	c #494646",
"e 	c #2C2929",
"f 	c #838282",
"g 	c #514E4E",
"h 	c #48313C",
"i 	c #3D2431",
"j 	c #756F72",
"k 	c #838383",
"l 	c #939393",
"m 	c #969696",
"n 	c #909090",
"o 	c #8D8C8C",
"p 	c #919191",
"q 	c #534F4F",
"r 	c #584A51",
"s 	c #442B37",
"t 	c #3A232F",
"u 	c #685F63",
"v 	c #4E4147",
"w 	c #777676",
"x 	c #797777",
"y 	c #868585",
"z 	c #4D4949",
"A 	c #4D3F45",
"B 	c #462E3A",
"C 	c #412B36",
"D 	c #3E2933",
"E 	c #5C5659",
"F 	c #8F8F8F",
"G 	c #8B8B8B",
"H 	c #5F5C5C",
"I 	c #2A2828",
"J 	c #48363F",
"K 	c #412835",
"L 	c #39252E",
"M 	c #3C3237",
"N 	c #818181",
"O 	c #43373C",
"P 	c #403339",
"Q 	c #432A37",
"R 	c #3A272E",
"S 	c #53484D",
"T 	c #524A4E",
"U 	c #807F7F",
"V 	c #514249",
"W 	c #625F60",
"X 	c #767575",
"Y 	c #615F5F",
"Z 	c #908F8F",
"` 	c #010E01",
" .	c #666363",
"..	c #555151",
"+.	c #514D4D",
"@.	c #484343",
"#.	c #646161",
"$.	c #888788",
"%.	c #010F01",
"&.	c #515050",
"*.	c #6C6A6A",
"=.	c #676565",
"-.	c #767576",
";.	c #8D8D8D",
">.	c #8A8989",
",.	c #423F3F",
"'.	c #787777",
").	c #040404",
"!.	c #9E9E9E",
"~.	c #7A7878",
"{.	c #5D5A5A",
"].	c #585656",
"^.	c #4F4549",
"/.	c #454040",
"(.	c #6D6C6C",
"_.	c #555555",
":.	c #3D3539",
"<.	c #50444A",
"[.	c #A6A6A6",
"}.	c #422935",
"|.	c #3A232E",
"1.	c #585556",
"2.	c #9C9C9C",
"3.	c #43353C",
"4.	c #3B232F",
"5.	c #686164",
"6.	c #696064",
"7.	c #6F6E6E",
"8.	c #4A4848",
"9.	c #091006",
"0.	c #3F2633",
"a.	c #3E2632",
"b.	c #031B02",
"c.	c #3D2531",
"d.	c #432935",
"e.	c #432936",
"f.	c #3C2430",
"g.	c #3E2531",
"h.	c #472E39",
"i.	c #49303B",
"j.	c #38232D",
"k.	c #3E3B3B",
"l.	c #37212C",
"m.	c #462E39",
"n.	c #482F3A",
"o.	c #402833",
"p.	c #402834",
"q.	c #39232E",
"r.	c #37212B",
"s.	c #321F27",
"t.	c #959595",
"u.	c #6A6064",
"v.	c #3E2631",
"w.	c #3E2731",
"x.	c #442C37",
"y.	c #412A34",
"z.	c #2C1D22",
"A.	c #021602",
"B.	c #011302",
"C.	c #2A1B22",
"D.	c #777877",
"E.	c #828282",
"F.	c #646564",
"G.	c #747474",
"H.	c #3B3837",
"I.	c #3A3636",
"J.	c #6D6367",
"K.	c #4A313C",
"L.	c #422934",
"M.	c #2B2126",
"N.	c #031002",
"O.	c #020F01",
"P.	c #010D01",
"Q.	c #2F1F26",
"R.	c #797979",
"S.	c #787878",
"T.	c #7E7E7E",
"U.	c #858585",
"V.	c #746E71",
"W.	c #3D2631",
"X.	c #412834",
"Y.	c #422B35",
"Z.	c #4E4247",
"`.	c #482F3B",
" +	c #402934",
".+	c #48323C",
"++	c #453039",
"@+	c #5E575A",
"#+	c #48303B",
"$+	c #3F2B33",
"%+	c #3F2732",
"&+	c #472D39",
"*+	c #38262C",
"=+	c #54494E",
"-+	c #544C4F",
";+	c #472E3A",
">+	c #442A37",
",+	c #442A36",
"'+	c #4A303C",
")+	c #412935",
"!+	c #482E3A",
"~+	c #452B37",
"{+	c #412B35",
"]+	c #575455",
"^+	c #49313C",
"/+	c #422C35",
"(+	c #676064",
"_+	c #665D61",
":+	c #3E2732",
"<+	c #472F3A",
"[+	c #432C36",
"}+	c #412734",
"|+	c #412B34",
"1+	c #3F2733",
"2+	c #472F39",
"3+	c #3C2830",
"4+	c #5B4E53",
"5+	c #4C343E",
"6+	c #462D39",
"7+	c #432B36",
"8+	c #402733",
"9+	c #442D37",
"0+	c #302126",
"a+	c #312027",
"b+	c #3C2E33",
"c+	c #473F43",
"d+	c #010501",
"e+	c #010001",
"f+	c #4F4046",
"g+	c #452C38",
"h+	c #3F2933",
"i+	c #32262B",
"j+	c #34222A",
"k+	c #37242D",
"l+	c #2F1C25",
"m+	c #311D26",
"n+	c #331E28",
"o+	c #3D2832",
"p+	c #301E27",
"q+	c #452D38",
"r+	c #462C38",
"s+	c #462D38",
"t+	c #412A35",
"u+	c #3D2731",
"v+	c #5B4D53",
"w+	c #4B333D",
"x+	c #422A35",
"y+	c #38242D",
"z+	c #504248",
"A+	c #4D3640",
"B+	c #452C37",
"C+	c #49303C",
"D+	c #3E2D34",
"E+	c #3B2A31",
"F+	c #49363F",
"G+	c #4A323D",
"H+	c #3D2530",
"I+	c #312227",
"J+	c #3F2834",
"K+	c #442B36",
"L+	c #332627",
"M+	c #3F2632",
"N+	c #402734",
"O+	c #331F28",
"P+	c #351F2A",
"Q+	c #3C2431",
"R+	c #3B242F",
"S+	c #35202A",
"T+	c #331D28",
"U+	c #3B2C33",
"V+	c #35202B",
"W+	c #331E29",
"X+	c #2A1A21",
"Y+	c #38222D",
"Z+	c #1A1413",
"                                                                                                                                ",
"                                                                                                                                ",
"                                            . + @ # # # $   % & # # *                     # #                                   ",
"                                      = # # # # # - - - # ; > # , - # ' )       ! # # # # ~ { # ] ^ # # / (                     ",
"                              _ # # # # - - - - - - - - - # : # - - - # < [ # # # } | | 1 2 3 4 # # 5 6 # 7 .                   ",
"                            8 # - - - - - - - - - - - - - , # , - - , # 9 # 0 a b c - - - - - - d e f 6 g # h                   ",
"                          i # - - - - - - - - - - - - - - - - - - , # j # k - l b m - n o - - - c c p q # r s                   ",
"                          t # - - - # # - - - # , - - - - - - - , , # u v # # # # 6 - k # w x x x y y z # A B                   ",
"                          C D # # # - - - - - - # , , , , , , - - , # # E # a F 2 - - - G # # # # # H I # J .                   ",
"                        K L # - - - - - - - - - - # # # # # # , , # # M # - - - - - - - - c c c c N # O P + Q                   ",
"                        R # - - - - - - - - - - - - - - - - - # # S T # G 2 - - 2 c U 2 - - - - - 2 3 # # # V                   ",
"                        # - - - - - - - - - - - - - - - - - - - - # # # W G c - X Y Z - - - - - - - - - 2 p #                   ",
"                        ` , - - - - - - - , - - - - - - - - - - - - - - #  ...+.@.#.$.# # p - - - - - - - 3 #                   ",
"                        %., , - - - - , , - - - - - - - - - - - - - - - - # &.*.=.-.# - - # ;.l m - 2 2 3 >.#                   ",
"                        %., , , , , , , , - - - - - - - - - - - - - - - - # ,.'.# # - - - - # ).# !.~.{.].# ^.                  ",
"                        %., , , , , , , - - - - - - - - - - - - - - - - - # /.# - - - - - - - - - # (._.# :.<.                  ",
"                        %., , , # # , , , , - - - - - - - - - - - - - - , # @.# - - - - - - - - - - ).[.3 # # }.}.              ",
"                        |.# , # , , , , , , , - - - - - - - - - , , , # # 1.].# - - - - - - - - - - - # 2.2 {.# 3.              ",
"                        K 4.# , , , , , , , - - - - - - - - - , # # # # 5.6.# , - - - - - - - - - - - - # 7.8.# 9.              ",
"                          0.# , , , , , , , - - - - - - - - - - - - - , # # , , , - - - - - - - , - - - - # # - #               ",
"                          a.# , , , b., , , - - - - - - - - - - - - - - - , , , , , , - - - - - # , - - - - - # c.              ",
"                        d.e.f.# , , # , , , , - - - - - - - - - - - - - - , , , , , - - - - - , # # , , - - # g.            # # ",
"                        h.i.i.j.# # a.# # # , , , - - - - , - - - - - - , # , , , , , , - - - , # k.# # # # l.    ! # # # # ~ { ",
"                        a.m.i.n.o.p.e.q.r.s.# # , , , - , , , # , , , , # 1 # # , , # # , , # # # t.- - # u.[ # # # } | | 1 2 3 ",
"                      d.}.a.v.w.m.i.i.i.i.x.y.z.A.B., , , , # C.# # # # D.p E.F.# # G.0 # # H.# I.c - , # J.# 0 a b c - - - - - ",
"                      h.n.! h.i.K.K.K.K.K.K.i.L.r.M.# N.O.P.Q.# R.R.R.S.n c - t.R.T.n - U.S.t.- - - , # V.# k - l b m - n o - - ",
"                      a.W.X.n.K.i.K.K.K.K.K.K.K.i.i.K.K.K.K.Y.# - - - # # - - - # , - - - - - - - , , # u Z.# # # # 6 - k # w x ",
"                    d.}.  }.`.K. +m.K.K.K.K.K.K.K.K.K.K.K.K..+++# # # - - - - - - # , , , , , , - - , # # @+# a F 2 - - - G # # ",
"                    h.n.! h.i.i.o.m.K.K.K.K.K.K.K.K.K.K.K.#+$+# - - - - - - - - - - # # # # # # , , # # M # - - - - - - - - c c ",
"              e.e.e.a.v.  %+W.v.m.K.K.K.K.K.K.K.K.K.K.K.&+*+# - - - - - - - - - - - - - - - - - # # =+-+# G 2 - - 2 c U 2 - - - ",
"              ;+i.i.! ;+i.i.>+;+K.K.K.i.i.i.i.K.K.K.K.K.K.# - - - - - - - - - - - - - - - - - - - - # # # W G c - X Y Z - - - - ",
"              a.h.i.,+n.K.K.'+i.K.K.K.)+c.W.X.!+K.K.K.K.K.` , - - - - - - - , - - - - - - - - - - - - - - #  ...+.@.#.$.# # p - ",
"              X.v.W.X.a.h.i.i.s n.K.K.~+    h.K.K.K.K.K.K.%., , - - - - , , - - - - - - - - - - - - - - - - # &.*.=.-.# - - # ;.",
"                  K   K a.v.w.  n.K.K.K.i.i.K.K.K.K.K.K.K.%., , , , , , , , - - - - - - - - - - - - - - - - # ,.'.# # - - - - # ",
"                          m.i.i.K.K.K.K.K.K.K.K.K.K.K.K.K.%., , , , , , , - - - - - - - - - - - - - - - - - # /.# - - - - - - - ",
"              e.e.        a.m.i.K.K.K.K.K.K.K.K.K.K.K.K.K.%., , , # # , , , , - - - - - - - - - - - - - - , # @.# - - - - - - - ",
"              `.i.>+        a.v.h.K.K.K.K.K.K.K.K.K.K.K.K.{+# , # , , , , , , , - - - - - - - - - , , , # # ]+].# - - - - - - - ",
"              n.i.n.e.        ;+K.K.K.K.K.K.K.K.K.K.K.K.K.^+/+# , , , , , , , - - - - - - - - - , # # # # (+_+# , - - - - - - - ",
"              v.v.:+  e.e.e.n.K.K.K.K.K.K.K.K.K.K.K.K.K.K.K.<+# , , , , , , , - - - - - - - - - - - - - , # # , , , - - - - - - ",
"                n.i.i.#+n.i.K.K.K.K.K.K.K.K.K.K.K.K.K.K.K.K.m.# , , , b., , , - - - - - - - - - - - - - - - , , , , , , - - - - ",
"                i.K.i.o.W.<+K.K.K.K.K.K.K.K.K.K.K.K.K.K.K.K.K.[+# , , # , , , , - - - - - - - - - - - - - - , , , , , - - - - - ",
"                n.i.o.}+  n.i.K.K.K.K.K.K.K.K.K.K.K.K.K.K.K.K.K.|+# # <+# # # , , , - - - - , - - - - - - , # , , , , , , - - - ",
"      # #       v.W.X.e.  d.1+2+K.K.K.K.K.K.K.K.K.K.K.K.K.K.K.K.^+i.i.i.[+Y.3+# # , , , - , , , # , , , , # Q.# # , , # # , , # ",
"# # # ~ { # ] ^ # # 4+5+,+d.;+K.K.K.K.K.K.K.K.K.K.K.K.K.6+&+i.i.7+c.W.8+6+K.9+Y.0+A.B., , , , # a+# # # # b+[ c+d+# # e+0 # # N ",
"| | 1 2 3 4 # # 5 6 # f+6+h.i.K.K.K.K.K.K.K.i.K.K.K.K.K.K.6+8+c.8+}.  g+K.K.K.n.9+h+i+# N.O.P.j+i.k+l+m+n+o+p+# t.R.T.n - U.S.t.",
"- - - - - - d e f 6 g # h %+W.h.K.K.K.i.i.i.] q+K.K.K.K.K.K.r+  s+'+i.K.K.K.!+X.W.t+i.K.K.K.K.K.K.n.>+i.i.u+# - - - - - - - - - ",
"- n o - - - c c p q # v+w+i.>+n.K.K.K.x+v.v.X.;+K.i.i.i.K.K.K.i.i.i.i.i.i.K.K.i.&+p.8+r+K.K.K.K.K.i.'+K.K.y+# - - - # # - - - # ",
"- k # w x x x y y z # z+A+K.'+i.K.K.K.i.i.i.i.K.K.7+c.c.B+K.K.K.x.8+e.8+x+i.i.K.K.i.n.i.K.K.K.C+!+s i.i.h.D+E+# # # - - - - - - ",
"- - G # # # # # H I # F+G+i.i.s ;+i.K.K.K.i.i.i.i.~+X.X.s+i.^+K.K.r+    8+H+7+K.K.s+W.x+K.K.;+e.e.  w.v.a.I+# - - - - - - - - - ",
"- - - c c c c N # O P + J+v.w.K 1+W.s+K.K.x+W.W.W.8+    1+H+K+i.i.r+      }+~+i.i.6+s i.K.m.a.>+i.i.i.m.L+# - - - - - - - - - - ",
"U 2 - - - - - 2 3 # # # V m.i.i.n.! a.m.K.i.s X.K           1+W.W.1+        8+W.W.M+s i.i.h.    s i.m.a.# - - - - - - - - - - - ",
"Z - - - - - - - - - 2 p # a.m.i. +N+  h.i.i.~+                K K             K K   N+W.W.M+    }+W.a.  ` , - - - - - - - , - - ",
"$.# # p - - - - - - - 3 #   a.W.N+    M+W.W.N+                                        K K         K     %., , - - - - , , - - - ",
"# - - # ;.l m - 2 2 3 >.#     K         K K                                                             %., , , , , , , , - - - ",
"- - - - # ).# !.~.{.].# ^.                                                                              %., , , , , , , - - - - ",
"- - - - - - - # (._.# :.<.                                                                              %., , , # # , , , , - - ",
"- - - - - - - - ).[.3 # # }.}.                                                                          O+# , # , , , , , , , - ",
"- - - - - - - - - # 2.2 {.# 3.                                                                          K P+# , , , , , , , - - ",
"- - - - - - - - - - # 7.8.# 9.                                                                            Q+# , , , , , , , - - ",
"- - - - - - , - - - - # # - #                                                                             R+# , , , b., , , - - ",
", - - - - - # , - - - - - # c.                                                                              S+# , , # , , , , - ",
"- - - - - , # # , , - - # g.                                                                                  T+# # W.# # # , , ",
", , - - - , # U+# # # # l.                                                                                            V+W+X+# # ",
"# # , , # # # N+                                                                                                          Y+W+Z+"};
