/* XPM */
static char * fog7_xpm[] = {
"64 64 309 2",
"  	c #422835",
". 	c #000000",
"+ 	c #454545",
"@ 	c #464646",
"# 	c #412934",
"$ 	c #4E4347",
"% 	c #574B51",
"& 	c #452D39",
"* 	c #6D6D6D",
"= 	c #6F6F6F",
"- 	c #999999",
"; 	c #9A9A9A",
"> 	c #7B7B7B",
", 	c #616060",
"' 	c #949494",
") 	c #4A3C43",
"! 	c #442C38",
"~ 	c #989898",
"{ 	c #494646",
"] 	c #2C2929",
"^ 	c #838282",
"/ 	c #514E4E",
"( 	c #48313C",
"_ 	c #46303B",
": 	c #45343C",
"< 	c #281621",
"[ 	c #2B2820",
"} 	c #574950",
"| 	c #6E726E",
"1 	c #959193",
"2 	c #909090",
"3 	c #8D8C8C",
"4 	c #979797",
"5 	c #919191",
"6 	c #534F4F",
"7 	c #584A51",
"8 	c #442B37",
"9 	c #4B4347",
"0 	c #281E22",
"a 	c #494447",
"b 	c #474242",
"c 	c #807C7E",
"d 	c #55454C",
"e 	c #442C37",
"f 	c #402933",
"g 	c #565051",
"h 	c #645C60",
"i 	c #48323D",
"j 	c #838383",
"k 	c #777676",
"l 	c #797777",
"m 	c #868585",
"n 	c #4D4949",
"o 	c #4D3F45",
"p 	c #462E3A",
"q 	c #544B4F",
"r 	c #414642",
"s 	c #817A7D",
"t 	c #48333D",
"u 	c #6A6A6A",
"v 	c #4F474B",
"w 	c #462F3B",
"x 	c #8B8B8B",
"y 	c #5F5C5C",
"z 	c #2A2828",
"A 	c #48363F",
"B 	c #311D27",
"C 	c #817B7E",
"D 	c #878787",
"E 	c #8A8A8A",
"F 	c #898989",
"G 	c #2B2928",
"H 	c #4D3942",
"I 	c #818181",
"J 	c #43373C",
"K 	c #403339",
"L 	c #442F39",
"M 	c #432A37",
"N 	c #38212D",
"O 	c #8A8789",
"P 	c #939393",
"Q 	c #969696",
"R 	c #675D63",
"S 	c #462E39",
"T 	c #514249",
"U 	c #331E29",
"V 	c #7B7678",
"W 	c #554D51",
"X 	c #534B4E",
"Y 	c #49343E",
"Z 	c #402E37",
"` 	c #3B2A31",
" .	c #666364",
"..	c #8F8F8F",
"+.	c #4D3F46",
"@.	c #402835",
"#.	c #312227",
"$.	c #3A3638",
"%.	c #433D40",
"&.	c #3F383B",
"*.	c #46343C",
"=.	c #442C39",
"-.	c #8D8D8D",
";.	c #8A8989",
">.	c #332627",
",.	c #5C5658",
"'.	c #575456",
").	c #807F7F",
"!.	c #5B5156",
"~.	c #040404",
"{.	c #9E9E9E",
"].	c #7A7878",
"^.	c #5D5A5A",
"/.	c #585656",
"(.	c #4F4549",
"_.	c #625F60",
":.	c #767575",
"<.	c #615F5F",
"[.	c #908F8F",
"}.	c #6D6C6C",
"|.	c #555555",
"1.	c #3D3539",
"2.	c #50444A",
"3.	c #010E01",
"4.	c #666363",
"5.	c #555151",
"6.	c #514D4D",
"7.	c #484343",
"8.	c #646161",
"9.	c #888788",
"0.	c #A6A6A6",
"a.	c #422935",
"b.	c #010F01",
"c.	c #515050",
"d.	c #6C6A6A",
"e.	c #676565",
"f.	c #767576",
"g.	c #9C9C9C",
"h.	c #43353C",
"i.	c #423F3F",
"j.	c #787777",
"k.	c #555052",
"l.	c #6F6E6E",
"m.	c #4A4848",
"n.	c #091006",
"o.	c #454040",
"p.	c #3C393A",
"q.	c #585155",
"r.	c #422A35",
"s.	c #3D2531",
"t.	c #462D39",
"u.	c #38252D",
"v.	c #5A5858",
"w.	c #3E2531",
"x.	c #432935",
"y.	c #432936",
"z.	c #3F2632",
"A.	c #3D2631",
"B.	c #311E26",
"C.	c #757173",
"D.	c #777274",
"E.	c #4A4949",
"F.	c #3B2C33",
"G.	c #37212C",
"H.	c #472E3A",
"I.	c #49303C",
"J.	c #472E39",
"K.	c #432C37",
"L.	c #402734",
"M.	c #49303B",
"N.	c #442A37",
"O.	c #4A313C",
"P.	c #422B36",
"Q.	c #031B02",
"R.	c #494444",
"S.	c #929192",
"T.	c #091602",
"U.	c #767976",
"V.	c #A6A5A6",
"W.	c #3D3D3D",
"X.	c #41393B",
"Y.	c #564A50",
"Z.	c #402934",
"`.	c #3C2530",
" +	c #412734",
".+	c #34212A",
"++	c #4B4848",
"@+	c #0A0C0A",
"#+	c #494748",
"$+	c #6B6468",
"%+	c #6B6B6B",
"&+	c #3E2632",
"*+	c #482F3A",
"=+	c #402833",
"-+	c #402834",
";+	c #3F2733",
">+	c #3E2631",
",+	c #412834",
"'+	c #331D28",
")+	c #442D38",
"!+	c #8C8C8C",
"~+	c #3C413D",
"{+	c #3E2731",
"]+	c #452B37",
"^+	c #3C2730",
"/+	c #3A262F",
"(+	c #2B1C22",
"_+	c #3E3939",
":+	c #432A36",
"<+	c #462C38",
"[+	c #402733",
"}+	c #452D38",
"|+	c #3F2933",
"1+	c #39262F",
"2+	c #1E1717",
"3+	c #021602",
"4+	c #011302",
"5+	c #1E1319",
"6+	c #756F72",
"7+	c #412B34",
"8+	c #37242B",
"9+	c #262123",
"0+	c #031002",
"a+	c #020F01",
"b+	c #010D01",
"c+	c #24171C",
"d+	c #2D1C23",
"e+	c #27181E",
"f+	c #685F63",
"g+	c #482F3B",
"h+	c #49313C",
"i+	c #48323C",
"j+	c #453039",
"k+	c #432B36",
"l+	c #402C34",
"m+	c #3C3237",
"n+	c #52424A",
"o+	c #3F2732",
"p+	c #472D39",
"q+	c #452C38",
"r+	c #412E34",
"s+	c #53484D",
"t+	c #524A4E",
"u+	c #462D38",
"v+	c #4A303C",
"w+	c #442A36",
"x+	c #412935",
"y+	c #482E3A",
"z+	c #412835",
"A+	c #412B35",
"B+	c #422C35",
"C+	c #472F3A",
"D+	c #48303B",
"E+	c #452E38",
"F+	c #432C36",
"G+	c #3D2730",
"H+	c #4A3840",
"I+	c #452F38",
"J+	c #53474B",
"K+	c #5C4E54",
"L+	c #4D353F",
"M+	c #412A35",
"N+	c #422B35",
"O+	c #3C2830",
"P+	c #695E63",
"Q+	c #452E39",
"R+	c #696969",
"S+	c #4F4147",
"T+	c #4C343E",
"U+	c #442D37",
"V+	c #412A34",
"W+	c #2E1F24",
"X+	c #2B1A22",
"Y+	c #959595",
"Z+	c #6B6166",
"`+	c #2D2929",
" @	c #4F3942",
".@	c #3B242F",
"+@	c #39222D",
"@@	c #2C2126",
"#@	c #2E1B24",
"$@	c #331E28",
"%@	c #5D4E54",
"&@	c #4B333D",
"*@	c #4E4147",
"=@	c #4A3E43",
"-@	c #422D36",
";@	c #5C5659",
">@	c #2B2828",
",@	c #4E3B43",
"'@	c #452C37",
")@	c #473A40",
"!@	c #45373D",
"~@	c #4B363F",
"{@	c #4A323C",
"]@	c #3D2530",
"^@	c #514349",
"/@	c #442B36",
"(@	c #4E4549",
"_@	c #575455",
":@	c #676063",
"<@	c #665D61",
"[@	c #2F1F26",
"}@	c #382A30",
"|@	c #291A20",
"1@	c #311C27",
"2@	c #3A222E",
"3@	c #37222C",
"4@	c #36202B",
"    . .                                                                                                                         ",
". . + @ . # $ . . % &                                                                                                           ",
"* = - ; > . . , ' . ) !                                                                                                         ",
"~ ~ ~ ~ ~ { ] ^ ' / . (                                     _ : < . . . [   } | . . 1                     . .                   ",
"2 3 ~ ~ ~ 4 4 5 6 . 7 8                               9 . . . . . ~ ~ ~ . 0 a . b ~ . c d       e . . . . + @ . f g . . h i     ",
"j . k l l l m m n . o p                       q . . . . ~ ~ ~ ~ ~ ~ ~ ~ ~ . r . ~ ~ ~ . s t . . . u * * = - ; > . . , ' . v w   ",
"~ x . . . . . y z . A !                     B . ~ ~ ~ ~ ~ ~ ~ ~ ~ ~ ~ ~ ~ b . b ~ ~ b . C . D E F 4 ~ ~ ~ ~ ~ ~ { G ^ ' / . H   ",
"~ ~ 4 4 4 4 I . J K L M                   N . ~ ~ ~ ~ ~ ~ ~ ~ ~ ~ ~ ~ ~ ~ ~ ~ ~ ~ b . O . j ~ P F Q ~ 2 3 ~ ~ ~ 4 4 5 6 . R S   ",
"- ~ ~ ~ ~ ~ - ; . . . T                   U . ~ ~ ~ . . ~ ~ ~ . b ~ ~ ~ ~ ~ ~ ~ b b . V W . . . . ' ~ j . k l l l m m n . X Y   ",
"~ ~ ~ ~ ~ ~ ~ ~ ~ - 5 .                   Z ` . . . ~ ~ ~ ~ ~ ~ . b b b b b b ~ ~ b . .  .. E ..- ~ ~ ~ x . . . . . y z . +.w   ",
". . 5 ~ ~ ~ ~ ~ ~ ~ ; .                 @.#.. ~ ~ ~ ~ ~ ~ ~ ~ ~ ~ . . . . . . b b . . $.. ~ ~ ~ ~ ~ ~ ~ ~ 4 4 4 4 I . %.&.*.=.  ",
"~ ~ . -.P Q ~ - - ; ;..                 >.. ~ ~ ~ ~ ~ ~ ~ ~ ~ ~ ~ ~ ~ ~ ~ ~ ~ . . ,.'.. x - ~ ~ - 4 ).- ~ ~ ~ ~ ~ - ; . . . !.  ",
"~ ~ ~ . ~.. {.].^./.. (.                . ~ ~ ~ ~ ~ ~ ~ ~ ~ ~ ~ ~ ~ ~ ~ ~ ~ ~ ~ ~ . . . _.x 4 ~ :.<.[.~ ~ ~ ~ ~ ~ ~ ~ ~ - 5 .   ",
"~ ~ ~ ~ ~ ~ . }.|.. 1.2.                3.b ~ ~ ~ ~ ~ ~ ~ b ~ ~ ~ ~ ~ ~ ~ ~ ~ ~ ~ ~ ~ ~ . 4.5.6.7.8.9.. . 5 ~ ~ ~ ~ ~ ~ ~ ; .   ",
"~ ~ ~ ~ ~ ~ ~ ~.0.; . . a.a.            b.b b ~ ~ ~ ~ b b ~ ~ ~ ~ ~ ~ ~ ~ ~ ~ ~ ~ ~ ~ ~ ~ . c.d.e.f.. ~ ~ . -.P Q ~ - - ; ;..   ",
"~ ~ ~ ~ ~ ~ ~ ~ . g.- ^.. h.            b.b b b b b b b b ~ ~ ~ ~ ~ ~ ~ ~ ~ ~ ~ ~ ~ ~ ~ ~ . i.j.. . ~ ~ ~ ~ . ~.. {.].^./.. k.  ",
"~ ~ ~ ~ ~ ~ ~ ~ ~ . l.m.. n.            b.b b b b b b b ~ ~ ~ ~ ~ ~ ~ ~ ~ ~ ~ ~ ~ ~ ~ ~ ~ . o.. ~ ~ ~ ~ ~ ~ ~ ~ ~ . }.|.. p.q.  ",
"~ ~ ~ ~ ~ b ~ ~ ~ ~ . . ~ .           a.b.b b b . . b b b b ~ ~ ~ ~ ~ ~ ~ ~ ~ ~ ~ ~ ~ ~ b . 7.. ~ ~ ~ ~ ~ ~ ~ ~ ~ ~ ~.0.; . . r.",
"~ ~ ~ ~ ~ . b ~ ~ ~ ~ ~ . s.          t.u.. b . b b b b b b b ~ ~ ~ ~ ~ ~ ~ ~ ~ b b b . . v./.. ~ ~ ~ ~ ~ ~ ~ ~ ~ ~ ~ . g.- ^.. ",
"~ ~ ~ ~ b . . b b ~ ~ . w.      x.y.  z.A.B.. b b b b b b b ~ ~ ~ ~ ~ ~ ~ ~ ~ b . . . . C.D.. b ~ ~ ~ ~ ~ ~ ~ ~ ~ ~ ~ ~ . l.E.. ",
"b ~ ~ ~ b . F.. . . . G.        H.I.8   J.K.. b b b b b b b ~ ~ ~ ~ ~ ~ ~ ~ ~ ~ ~ ~ ~ b . . b b b ~ ~ ~ ~ ~ ~ ~ b ~ ~ ~ ~ . . ~ ",
". b b . . . L.          x.y.y.  J.M.N.J.O.P.. b b b Q.b b b ~ ~ ~ ~ ~ ~ ~ ~ ~ ~ ~ ~ ~ ~ ~ b b b b b R.S.> . . . T.b 4 U.. . V.. ",
"W.. . X.. . Y.&         J.M.M.Z.`.s. +J.M.M..+. b b . b b b b ~ ~ ~ ~ ~ ~ ~ ~ ~ ~ ~ ~ ~ ~ b b ++. . . . . ~ ~ ~ . @+#+. b ~ . $+",
"; %+. . , ' . ) !       &+S M.*+=+-+y.;+>+>+,+'+. . )+. . . b b b ~ ~ ~ ~ b ~ ~ ~ ~ ~ !+. . . . ~ ~ ~ ~ ~ ~ ~ ~ ~ . ~+. ~ ~ ~ . ",
"~ ~ { ] ^ ' / . (     x.a.&+>+{+S M.M.M.M.M.M.]+t.M.O.^+/+(+. . b b b ~ b b b . b b _+. ~ ~ ~ ~ ~ ~ ~ ~ ~ ~ ~ ~ ~ b . b ~ ~ b . ",
"~ ~ 4 4 5 6 . 7 8     J.*+:+J.M.O.O.O.O.O.O.O.<+[+A.}+O.O.|+1+2+3+4+b b b b . 5+. . . ~ ~ ~ ~ ~ ~ ~ ~ ~ ~ ~ ~ ~ ~ ~ ~ ~ ~ b . 6+",
"l l l m m n . o p     &+A.,+*+O.M.O.O.O.O.O.O.O.M.M.O.O.O.O.*+7+8+9+. 0+a+b+c+*+d+e+. ~ ~ ~ . . ~ ~ ~ . b ~ ~ ~ ~ ~ ~ ~ b b . f+",
". . . . y z . A !   x.a.  a.g+O.Z.S O.O.O.O.O.O.O.O.O.O.O.O.O.O.h+M.M.M.O.O.O.O.O.i+j+. . . ~ ~ ~ ~ ~ ~ . b b b b b b ~ ~ b . . ",
"4 4 4 I . J K L M   J.*+:+J.M.M.=+S O.O.O.O.O.O.O.O.O.O.O.M.M.M.k+s.A.[+t.O.O.O.h+l+. ~ ~ ~ ~ ~ ~ ~ ~ ~ ~ . . . . . . b b . . m+",
"~ ~ ~ - ; . . . n+y.&+>+  o+A.>+S O.O.O.O.O.O.O.O.O.O.O.p+[+A.A.[+a.  q+O.O.O.O.r+. ~ ~ ~ ~ ~ ~ ~ ~ ~ ~ ~ ~ ~ ~ ~ ~ ~ . . s+t+. ",
"~ ~ ~ ~ ~ ~ - 5 . M.:+H.M.M.N.H.O.O.O.M.M.M.M.O.O.O.O.O.O.<+    u+v+M.O.O.O.O.O.. ~ ~ ~ ~ ~ ~ ~ ~ ~ ~ ~ ~ ~ ~ ~ ~ ~ ~ ~ ~ . . . ",
"~ ~ ~ ~ ~ ~ ~ ; . M.w+*+O.O.v+M.O.O.O.x+s.A.,+y+O.O.O.O.O.O.M.M.O.O.O.O.O.O.O.O.3.b ~ ~ ~ ~ ~ ~ ~ b ~ ~ ~ ~ ~ ~ ~ ~ ~ ~ ~ ~ ~ ~ ",
"-.P Q ~ - - ; ;.. A.,+&+J.M.M.8 *+O.O.]+    J.O.O.O.O.O.O.O.O.O.O.O.O.O.O.O.O.O.b.b b ~ ~ ~ ~ b b ~ ~ ~ ~ ~ ~ ~ ~ ~ ~ ~ ~ ~ ~ ~ ",
". ~.. {.].^./.. (.z+  z+&+>+{+  *+O.O.O.M.M.O.O.O.O.O.O.O.O.O.O.O.O.O.O.O.O.O.O.b.b b b b b b b b ~ ~ ~ ~ ~ ~ ~ ~ ~ ~ ~ ~ ~ ~ ~ ",
"~ ~ ~ . }.|.. 1.2.        S M.M.O.O.O.O.O.O.O.O.O.O.O.O.O.O.O.O.O.O.O.O.O.O.O.O.b.b b b b b b b ~ ~ ~ ~ ~ ~ ~ ~ ~ ~ ~ ~ ~ ~ ~ ~ ",
"~ ~ ~ ~ ~.0.; . . a.a.    &+S M.O.O.O.O.O.O.O.O.O.O.O.O.O.O.O.O.O.O.O.O.O.O.O.O.b.b b b . . b b b b ~ ~ ~ ~ ~ ~ ~ ~ ~ ~ ~ ~ ~ ~ ",
"~ ~ ~ ~ ~ . g.- ^.. h.      &+>+J.O.O.O.O.O.O.O.O.O.O.O.O.O.O.O.O.O.O.O.O.O.O.O.A+. b . b b b b b b b ~ ~ ~ ~ ~ ~ ~ ~ ~ b b b . ",
"~ ~ ~ ~ ~ ~ . l.m.. n.        H.O.O.O.O.O.O.O.O.O.O.O.O.O.O.O.O.O.O.O.O.O.O.O.O.h+B+. b b b b b b b ~ ~ ~ ~ ~ ~ ~ ~ ~ b . . . . ",
"~ ~ b ~ ~ ~ ~ . . ~ . y.y.y.*+O.O.O.O.O.O.O.O.O.O.O.O.O.O.O.O.O.O.O.O.O.O.O.O.O.O.C+. b b b b b b b ~ ~ ~ ~ ~ ~ ~ ~ ~ ~ ~ ~ ~ b ",
"~ ~ . b ~ ~ ~ ~ ~ . e D+*+M.O.O.O.O.O.O.O.O.O.O.O.O.O.O.O.O.O.O.O.O.O.O.O.O.O.O.O.S . b b b Q.b b b ~ ~ ~ ~ ~ ~ ~ ~ ~ ~ ~ ~ ~ ~ ",
"~ b . . b b ~ ~ . E+M.=+A.C+O.O.O.O.O.O.O.O.O.O.O.O.O.O.O.O.O.O.O.O.O.O.O.O.O.O.O.O.F+. b b . b b b b ~ ~ ~ ~ ~ ~ ~ ~ ~ ~ ~ ~ ~ ",
"~ b . F.. . . . G+M.=+ +. . M.O.O.O.O.O.O.O.O.O.O.O.O.O.O.O.O.O.O.O.O.O.O.O.O.O.O.O.O.7+. . S . . . b b b ~ ~ ~ ~ b ~ ~ ~ ~ ~ ~ ",
". . . H+      :+. . . . + @ . I+J+. . K+L+O.O.O.O.O.O.O.O.O.O.O.h+M.M.M.O.O.O.O.O.O.O.O.S >+M+F+N+O+. . b b b ~ b b b . b b b b ",
"I ... P+Q+. . . R+* * = - ; > . . , ' . S+T+O.O.O.O.O.O.t.p+M.M.k+s.A.[+t.O.O.O.O.O.O.O.O.M.M.O.O.U+V+W+3+4+b b b b . X+. . . . ",
"Y+b . Z+. D E F 4 ~ ~ ~ ~ ~ ~ { `+^ ' / .  @M.O.O.O.O.O.O.t.[+s.[+a.  q+O.O.O.M.M.M.O.O.O.O.O.O.O.C+`..@+@@@. 0+a+b+#@ +U U U $@",
"b . 6+. j ~ P F Q ~ 2 3 ~ ~ ~ 4 4 5 6 . %@&@# }+O.O.O.O.O.O.<+  u+v+M.O.O.O.y+,+A.M+M.O.O.O.O.O.O.*+N.M.M.*+                    ",
"b . f+*@. . . . ' ~ j . k l l l m m n . =@-@,+H.O.M.M.M.O.O.O.M.M.M.M.M.M.O.O.M.p+-+[+<+O.O.O.O.O.M.v+O.O.*+                    ",
"b . . ;@. E ..- ~ ~ ~ x . . . . . y >@. ,@&@M.O.O.k+s.s.'@O.O.O.e [+y.[+r.M.M.O.O.M.*+M.O.O.O.I.y+8 M.M.J.&+                    ",
". . m+. ~ ~ ~ ~ ~ ~ ~ ~ 4 4 4 4 I . )@!@~@{@M.M.M.]+,+,+u+M.h+O.O.<+    [+]@k+O.O.u+A.r.O.O.H.y.y.  {+>+&+z+                    ",
"s+t+. x - ~ ~ - 4 ).- ~ ~ ~ ~ ~ - ; . . . ^@A.A.A.[+    ;+]@/@M.M.<+       +]+M.M.t.8 M.O.S &+N.M.M.M.S                         ",
". . . _.x 4 ~ :.<.[.~ ~ ~ ~ ~ ~ ~ ~ ~ - 5 . 8 ,+z+          ;+A.A.;+        [+A.A.z.8 M.M.J.    8 M.S &+                        ",
"~ ~ ~ . 4.5.6.7.8.9.. . 5 ~ ~ ~ ~ ~ ~ ~ ; . ]+                z+z+            z+z+  L.A.A.z.     +A.&+                          ",
"~ ~ ~ ~ . c.d.e.f.. ~ ~ . -.P Q ~ - - ; ;.. L.                                        z+z+        z+                            ",
"~ ~ ~ ~ . i.j.. . ~ ~ ~ ~ . ~.. {.].^./.. (@                                                                                    ",
"~ ~ ~ ~ . o.. ~ ~ ~ ~ ~ ~ ~ ~ ~ . }.|.. 1.2.                                                                                    ",
"~ ~ ~ b . 7.. ~ ~ ~ ~ ~ ~ ~ ~ ~ ~ ~.0.; . . a.a.                                                                                ",
"b b . . _@/.. ~ ~ ~ ~ ~ ~ ~ ~ ~ ~ ~ . g.- ^.. h.                                                                                ",
". . . :@<@. b ~ ~ ~ ~ ~ ~ ~ ~ ~ ~ ~ ~ . l.m.. n.                                                                                ",
"~ ~ b . . b b b ~ ~ ~ ~ ~ ~ ~ b ~ ~ ~ ~ . . ~ .                                                                                 ",
"~ ~ ~ ~ b b b b b b ~ ~ ~ ~ ~ . b ~ ~ ~ ~ ~ . s.                                                                                ",
"~ ~ ~ ~ b b b b b ~ ~ ~ ~ ~ b . . b b ~ ~ . w.                                                                                  ",
"~ ~ ~ b . b b b b b b ~ ~ ~ b . F.. . . . G.                                                                                    ",
"b b b . [@. . b b . . b b . . . L.                                                                                              ",
". . . }@x+G.|@. . 1@2@. . 3@w.4@                                                                                                "};
