/* XPM */
static char * fog8_xpm[] = {
"64 64 288 2",
"  	c #422835",
". 	c #442C38",
"+ 	c #442F39",
"@ 	c #341E2A",
"# 	c #000000",
"$ 	c #352829",
"% 	c #4E3C45",
"& 	c #6A6C69",
"* 	c #7B7477",
"= 	c #483A40",
"- 	c #989898",
"; 	c #33222A",
"> 	c #473C41",
", 	c #474242",
"' 	c #6D6669",
") 	c #4C3942",
"! 	c #432A36",
"~ 	c #454545",
"{ 	c #464646",
"] 	c #412934",
"^ 	c #4E4347",
"/ 	c #574B51",
"( 	c #452D39",
"_ 	c #4D3F46",
": 	c #414340",
"< 	c #6A5F64",
"[ 	c #452E39",
"} 	c #696969",
"| 	c #6D6D6D",
"1 	c #6F6F6F",
"2 	c #999999",
"3 	c #9A9A9A",
"4 	c #7B7B7B",
"5 	c #616060",
"6 	c #949494",
"7 	c #4A3C43",
"8 	c #39222E",
"9 	c #6B6166",
"0 	c #878787",
"a 	c #8A8A8A",
"b 	c #898989",
"c 	c #979797",
"d 	c #494646",
"e 	c #2C2929",
"f 	c #838282",
"g 	c #514E4E",
"h 	c #48313C",
"i 	c #3D2431",
"j 	c #756F72",
"k 	c #838383",
"l 	c #939393",
"m 	c #969696",
"n 	c #909090",
"o 	c #8D8C8C",
"p 	c #919191",
"q 	c #534F4F",
"r 	c #584A51",
"s 	c #442B37",
"t 	c #3A232F",
"u 	c #685F63",
"v 	c #4E4147",
"w 	c #777676",
"x 	c #797777",
"y 	c #868585",
"z 	c #4D4949",
"A 	c #4D3F45",
"B 	c #462E3A",
"C 	c #412B36",
"D 	c #3E2933",
"E 	c #5C5659",
"F 	c #8F8F8F",
"G 	c #8B8B8B",
"H 	c #5F5C5C",
"I 	c #2A2828",
"J 	c #48363F",
"K 	c #412835",
"L 	c #39252E",
"M 	c #3C3237",
"N 	c #818181",
"O 	c #43373C",
"P 	c #403339",
"Q 	c #432A37",
"R 	c #3A272E",
"S 	c #53484D",
"T 	c #524A4E",
"U 	c #807F7F",
"V 	c #514249",
"W 	c #625F60",
"X 	c #767575",
"Y 	c #615F5F",
"Z 	c #908F8F",
"` 	c #010E01",
" .	c #666363",
"..	c #555151",
"+.	c #514D4D",
"@.	c #484343",
"#.	c #646161",
"$.	c #888788",
"%.	c #010F01",
"&.	c #515050",
"*.	c #6C6A6A",
"=.	c #676565",
"-.	c #767576",
";.	c #8D8D8D",
">.	c #8A8989",
",.	c #423F3F",
"'.	c #787777",
").	c #040404",
"!.	c #9E9E9E",
"~.	c #7A7878",
"{.	c #5D5A5A",
"].	c #585656",
"^.	c #4F4549",
"/.	c #432936",
"(.	c #422935",
"_.	c #454040",
":.	c #6D6C6C",
"<.	c #555555",
"[.	c #3D3539",
"}.	c #52464B",
"|.	c #4A313C",
"1.	c #472E3A",
"2.	c #A6A6A6",
"3.	c #49313B",
"4.	c #462D39",
"5.	c #3A232E",
"6.	c #585556",
"7.	c #9C9C9C",
"8.	c #40343A",
"9.	c #3F2632",
"0.	c #432935",
"a.	c #3B232F",
"b.	c #686164",
"c.	c #696064",
"d.	c #6F6E6E",
"e.	c #4A4848",
"f.	c #091006",
"g.	c #49303C",
"h.	c #482E3A",
"i.	c #3F2633",
"j.	c #442A37",
"k.	c #49303B",
"l.	c #3E2632",
"m.	c #031B02",
"n.	c #442C37",
"o.	c #472E39",
"p.	c #412734",
"q.	c #3D2631",
"r.	c #2F1A25",
"s.	c #3E2631",
"t.	c #3F2733",
"u.	c #48303B",
"v.	c #030303",
"w.	c #403137",
"x.	c #3D2831",
"y.	c #3E2731",
"z.	c #010100",
"A.	c #393B39",
"B.	c #010301",
"C.	c #595A59",
"D.	c #452D38",
"E.	c #402733",
"F.	c #452C38",
"G.	c #482F3A",
"H.	c #423D3D",
"I.	c #888888",
"J.	c #666766",
"K.	c #021602",
"L.	c #011302",
"M.	c #686969",
"N.	c #777877",
"O.	c #3D3B3B",
"P.	c #1B1A18",
"Q.	c #3D3A3A",
"R.	c #3E2932",
"S.	c #452E38",
"T.	c #3C2731",
"U.	c #49313C",
"V.	c #482F3B",
"W.	c #412834",
"X.	c #433E3E",
"Y.	c #4A4749",
"Z.	c #031002",
"`.	c #020F01",
" +	c #010D01",
".+	c #636463",
"++	c #797979",
"@+	c #727272",
"#+	c #706F6F",
"$+	c #787878",
"%+	c #737373",
"&+	c #444040",
"*+	c #010101",
"=+	c #5D4E55",
"-+	c #422C35",
";+	c #51444A",
">+	c #514349",
",+	c #4C3640",
"'+	c #5F575A",
")+	c #2B2828",
"!+	c #4E3B43",
"~+	c #3D2531",
"{+	c #472F3A",
"]+	c #3F2732",
"^+	c #3B3236",
"/+	c #42363B",
"(+	c #3D3237",
"_+	c #402D36",
":+	c #412935",
"<+	c #554A4F",
"[+	c #544C4F",
"}+	c #54444B",
"|+	c #4A303C",
"1+	c #462C38",
"2+	c #452B37",
"3+	c #3E2732",
"4+	c #462E39",
"5+	c #52484C",
"6+	c #40373B",
"7+	c #55484D",
"8+	c #4A323C",
"9+	c #585455",
"0+	c #493A40",
"a+	c #696165",
"b+	c #402833",
"c+	c #48313B",
"d+	c #53474B",
"e+	c #5C4E54",
"f+	c #4D353F",
"g+	c #595154",
"h+	c #595959",
"i+	c #402A34",
"j+	c #412A35",
"k+	c #6D6266",
"l+	c #2D2929",
"m+	c #4E3841",
"n+	c #2A1B21",
"o+	c #828282",
"p+	c #646564",
"q+	c #747474",
"r+	c #3B3837",
"s+	c #635E60",
"t+	c #4C343E",
"u+	c #3E2532",
"v+	c #39222D",
"w+	c #2E2227",
"x+	c #0E0E0E",
"y+	c #959595",
"z+	c #7E7E7E",
"A+	c #858585",
"B+	c #373232",
"C+	c #6C6266",
"D+	c #52454B",
"E+	c #4D3640",
"F+	c #4F3C44",
"G+	c #3A3135",
"H+	c #46393F",
"I+	c #45363C",
"J+	c #4B363F",
"K+	c #4B333D",
"L+	c #564B4F",
"M+	c #534B4E",
"N+	c #56464D",
"O+	c #50444A",
"P+	c #575455",
"Q+	c #43353C",
"R+	c #676063",
"S+	c #665D61",
"T+	c #3B242F",
"U+	c #3E2531",
"V+	c #3A222E",
"W+	c #3B2C33",
"X+	c #37212C",
"Y+	c #3B2430",
"Z+	c #35202A",
"`+	c #2F1F26",
" @	c #402734",
".@	c #2B1A22",
"+@	c #382A30",
"@@	c #291A20",
"#@	c #311C27",
"$@	c #37222C",
"%@	c #36202B",
"&@	c #2E1B24",
"*@	c #331E29",
"=@	c #331E28",
"-@	c #351F2A",
";@	c #321E28",
"                                                                                                                                ",
"                                                                                                                                ",
"                                                                                                                                ",
"                    . + @ # # # $   % & # # *                     # #                                                           ",
"              = # # # # # - - - # ; > # , - # ' )       ! # # # # ~ { # ] ^ # # / (                                             ",
"      _ # # # # - - - - - - - - - # : # - - - # < [ # # # } | | 1 2 3 4 # # 5 6 # 7 .                                           ",
"    8 # - - - - - - - - - - - - - , # , - - , # 9 # 0 a b c - - - - - - d e f 6 g # h                                           ",
"  i # - - - - - - - - - - - - - - - - - - , # j # k - l b m - n o - - - c c p q # r s                                           ",
"  t # - - - # # - - - # , - - - - - - - , , # u v # # # # 6 - k # w x x x y y z # A B                                           ",
"  C D # # # - - - - - - # , , , , , , - - , # # E # a F 2 - - - G # # # # # H I # J .                                           ",
"K L # - - - - - - - - - - # # # # # # , , # # M # - - - - - - - - c c c c N # O P + Q                                           ",
"R # - - - - - - - - - - - - - - - - - # # S T # G 2 - - 2 c U 2 - - - - - 2 3 # # # V                                           ",
"# - - - - - - - - - - - - - - - - - - - - # # # W G c - X Y Z - - - - - - - - - 2 p #                                           ",
"` , - - - - - - - , - - - - - - - - - - - - - - #  ...+.@.#.$.# # p - - - - - - - 3 #                                           ",
"%., , - - - - , , - - - - - - - - - - - - - - - - # &.*.=.-.# - - # ;.l m - 2 2 3 >.#                                           ",
"%., , , , , , , , - - - - - - - - - - - - - - - - # ,.'.# # - - - - # ).# !.~.{.].# ^./.(.                                      ",
"%., , , , , , , - - - - - - - - - - - - - - - - - # _.# - - - - - - - - - # :.<.# [.}.|.1.(.                                    ",
"%., , , # # , , , , - - - - - - - - - - - - - - , # @.# - - - - - - - - - - ).2.3 # # 3.3.4.                                    ",
"5.# , # , , , , , , , - - - - - - - - - , , , # # 6.].# - - - - - - - - - - - # 7.2 {.# 8.9.  /.0.                              ",
"K a.# , , , , , , , - - - - - - - - - , # # # # b.c.# , - - - - - - - - - - - - # d.e.# f.  s g.h.                              ",
"  i.# , , , , , , , - - - - - - - - - - - - - , # # , , , - - - - - - - , - - - - # # - # 1.j.k.1.  /./.0.                      ",
"  l.# , , , m., , , - - - - - - - - - - - - - - - , , , , , , - - - - - # , - - - - - # n.o.p.q.l.s k.k.o.                      ",
". + r.# , , # , , , , - - - - - - - - - - - - - - , , , , , - - - - - , # # , , - - # 5.s.t./.  j.u.k.o.l.                      ",
"# # # 0 # # v.# # # , , , - - - - , - - - - - - , # , , , , , , - - - , # w.# # # # x.k.k.k.k.g.o.y.s.l.(.0.                    ",
"- - - - - - - z.A.B.# # , , , - , , , # , , , , # C.# # , , # # , , # # # u.D.q.E.F.|.|.|.|.|.|.|.k.1.! G.o.                    ",
"- - - - - - - , # H.I.J.K.L., , , , # M.# # # # N.p O.P.# # Q.# # # R.S.T.U.|.k.k.|.|.|.|.|.|.|.|.|.V.W.q.l.                    ",
"- - - - - - - - - - m X.# Y.# Z.`. +.+6 ++@+#+$+n c c 6 %+&+*+=+-+L u.|.|.|.|.|.|.|.|.|.|.|.|.|.|.|.V.0.  (./.                  ",
"- # , - - - - - - - , , # u ;+# # # # 6 - k # w x x x y y z # >+,+k.k.k.|.|.|.|.|.|.|.|.|.|.|.|.|.|.k.o.! G.1.                  ",
"- - # , , , , , , - - , # # '+# a F 2 - - - G # # # # # H )+# !+[ ~+q.E.4.|.|.|.|.|.|.|.|.|.|.|.|.{+q.]+  s.l.0././.            ",
"- - - # # # # # # , , # # ^+# - - - - - - - - c c c c N # /+(+_+:+(.  F.|.|.|.|.|.|.|.|.|.|.|.|.|.G.j.k.k.G.! k.k.1.            ",
"- - - - - - - - - # # <+[+# G 2 - - 2 c U 2 - - - - - 2 3 # # # }+|+k.|.|.|.|.|.|.h.1+|.|.|.|.|.|.k.|+|.|.G.! k.{+l.            ",
"- - - - - - - - - - - # # # W G c - X Y Z - - - - - - - - - 2 p # |.|.|.|.|.|.|.|.|.|.|.|.|.|.|.V.2+k.k.o.l.W.q.s.W.            ",
"- - - - - - - - - - - - - - #  ...+.@.#.$.# # p - - - - - - - 3 # |.|.|.|.|.|.|.|.|.|.|.|.|.|.|.|.o.3+s.l.K   K                 ",
"- - - - - - - - - - - - - - - # &.*.=.-.# - - # ;.l m - 2 2 3 >.# |.|.|.|.|.|.|.|.|.|.|.|.|.|.|.|.|.k.4+                        ",
"- - - - - - - - - - - - - - - # ,.'.# # - - - - # ).# !.~.{.].# 5+|.|.|.|.|.|.|.|.|.|.|.|.|.|.|.|.|.o.l.        /./.            ",
"- - - - - - - - - - - - - - - # _.# - - - - - - - - - # :.<.# 6+7+|.|.|.|.|.|.|.|.|.|.|.|.|.|.|.|.V.(.        j.k.V.            ",
"- - - - - - - - - - - - - - , # @.# - - - - - - - - - - ).2.3 # # 8+8+|.|.|.|.|.|.|.|.|.|.|.|.|.|.V./.      /.G.k.G.            ",
", - - - - - - - - - , , , # # 9+].# - - - - - - - - - - - # 7.2 {.# 0+|.|.|.|.|.|.|.|.|.|.|.|.|.|.|.G./././.  3+s.s.            ",
"- - - - - - - - - , # # # # a+c.# , - - - - - - - - - - - - # d.e.# f.|.|.|.|.|.|.|.|.|.|.|.|.|.|.|.|.k.u.k.k.k.G.              ",
"- - - - - - - - - - - - - , # # , , , - - - - - - - , - - - - # # - # |.|.|.|.|.|.|.|.|.|.|.|.|.|.|.|.{+b+|.|.|.G.              ",
"- - - - - - - - - - - - - - - , , , , , , - - - - - # , - - - - - # D.|.# # |.|.|.|.|.|.|.|.|.|.|.|.k.G.! k.k.o.l.              ",
", - - - - - - - - - - - - - - , , , , , - - - - - , # # , , - - # # # # ~ { # c+d+# # e+f+k.k.|.|.{+t.0.W.q.q.s.W.              ",
", , , - - - - , - - - - - - , # , , , , , , - - - , # g+# # # # h+| | 1 2 3 4 # # 5 6 # A i+j+|.|.|.G./.  (.                    ",
"# # , , , - , , , # , , , , # 1 # # , , # # , , # # # k+# 0 a b c - - - - - - d l+f 6 g # m+k.|.|.|.k.o.! G.1.                  ",
"t n+K.L., , , , # } # # # # N.p o+p+# # q+0 # # r+# s+# k - l b m - n o - - - c c p q # =+t+|.|.|.{+q.]+  s.l.                  ",
"p.u+v+w+# Z.`. +1 # *+++++$+x+@.- y+++z+n - A+B+_.# C+D+# # # # 6 - k # w x x x y y z # >+E+|.|.|.G.j.k.k.G.                    ",
"        C D # # # - - - - - - # , , , , , , - - , # # '+# a F 2 - - - G # # # # # H I # F+t+|.|.|.k.|+|.|.G.                    ",
"      K L # - - - - - - - - - - # # # # # # , , # # G+# - - - - - - - - c c c c N # H+I+J+K+|.g.h.s k.k.o.l.                    ",
"      R # - - - - - - - - - - - - - - - - - # # L+M+# G 2 - - 2 c U 2 - - - - - 2 3 # # # N+1././.  y.s.l.K                     ",
"      # - - - - - - - - - - - - - - - - - - - - # # # W G c - X Y Z - - - - - - - - - 2 p # l.j.k.k.k.4+                        ",
"      ` , - - - - - - - , - - - - - - - - - - - - - - #  ...+.@.#.$.# # p - - - - - - - 3 #     s k.4+l.                        ",
"      %., , - - - - , , - - - - - - - - - - - - - - - - # &.*.=.-.# - - # ;.l m - 2 2 3 >.#     p.q.l.                          ",
"      %., , , , , , , , - - - - - - - - - - - - - - - - # ,.'.# # - - - - # ).# !.~.{.].# ^.      K                             ",
"      %., , , , , , , - - - - - - - - - - - - - - - - - # _.# - - - - - - - - - # :.<.# [.O+                                    ",
"      %., , , # # , , , , - - - - - - - - - - - - - - , # @.# - - - - - - - - - - ).2.3 # # (.(.                                ",
"      5.# , # , , , , , , , - - - - - - - - - , , , # # P+].# - - - - - - - - - - - # 7.2 {.# Q+                                ",
"      K a.# , , , , , , , - - - - - - - - - , # # # # R+S+# , - - - - - - - - - - - - # d.e.# f.                                ",
"        i.# , , , , , , , - - - - - - - - - - - - - , # # , , , - - - - - - - , - - - - # # - #                                 ",
"        l.# , , , m., , , - - - - - - - - - - - - - - - , , , , , , - - - - - # , - - - - - # ~+                                ",
"          T+# , , # , , , , - - - - - - - - - - - - - - , , , , , - - - - - , # # , , - - # U+                                  ",
"            V+# # t.# # # , , , - - - - , - - - - - - , # , , , , , , - - - , # W+# # # # X+                                    ",
"                    Y+t Z+# # , , , - , , , # , , , , # `+# # , , # # , , # # #  @                                              ",
"                        ~+t n+K.L., , , , # .@# # # # +@:+X+@@# # #@V+# # $@U+%@                                                ",
"                          p.u+v+w+# Z.`. +&@p.*@*@*@=@j+!    @=@-@l.  v+;@ @                                                    "};
