/* XPM */
static char * P_xpm[] = {
"64 64 57 1",
" 	c #422835",
".	c #1F1B18",
"+	c #E6616A",
"@	c #D53944",
"#	c #FFFFFF",
"$	c #FFCFAF",
"%	c #432936",
"&	c #422935",
"*	c #D35A09",
"=	c #F78233",
"-	c #4A313C",
";	c #472E3A",
">	c #432935",
",	c #482E3A",
"'	c #49303B",
")	c #3E2631",
"!	c #472E39",
"~	c #482F3A",
"{	c #3E2632",
"]	c #3D2631",
"^	c #432A36",
"/	c #FFC0C5",
"(	c #472F3A",
"_	c #442A36",
":	c #412834",
"<	c #442B37",
"[	c #F7F7F7",
"}	c #412835",
"|	c #3E2731",
"1	c #462E39",
"2	c #D6D6D6",
"3	c #442A37",
"4	c #482F3B",
"5	c #F1AF00",
"6	c #FFD668",
"7	c #E5616A",
"8	c #3E2732",
"9	c #FFF5D1",
"0	c #C6A97F",
"a	c #48303B",
"b	c #402833",
"c	c #412734",
"d	c #3F2733",
"e	c #3F2732",
"f	c #422A35",
"g	c #575433",
"h	c #BAD3BA",
"i	c #D53945",
"j	c #4A303C",
"k	c #49303C",
"l	c #F7F7EF",
"m	c #FFEBC7",
"n	c #402734",
"o	c #A79277",
"p	c #FADCA5",
"q	c #601117",
"r	c #968D70",
"                .....                                           ",
"               .+++++.                                          ",
"            ....@@@@@....                                       ",
"           .++++@@@@@++++.                                      ",
"           .+@@@@@@@@@@@+.                                      ",
"          .++@@@@@@@@@@@++.                                     ",
"         ..@@@@@@@@@@@@@@@..                                    ",
"        .+@@##@@@@@@@@@@@@++.                                   ",
"        .+@@##@@@@@@@@@@@@@+.                                   ",
"        .@@@##@@@@@@@@@@@@@@.                                   ",
"        .@@@##@@@@@@@@@@@@@@.                                   ",
"        .@##@@@@@@@@@@@@@@@@.                                   ",
"        .@##@@@@@@@@@@@@@@@@.                                   ",
"        .@##@@@@@@@@@@@@@@@@.                                   ",
"        .@##@@@@@@@@@@@@@@@@.  ......                           ",
"        .@@@@@@@@@@@@@@@@@@@....$$$$.......%&                   ",
"        .@@@@@@@@@@@@@@@@@@@.*$$====$$$$$$.-;&                  ",
"        .@@@@@@@@@@@@@@@@@@@.*============....                  ",
"        .@@@@@@@@@@@@@@@@@@@.*============$$$. %>               ",
"        ...@@@@@@@@@@@@@@@..*================...,               ",
"          .@@@@@@@@@@@@@@@.**==================.; %%>           ",
"          .@@@@@@@@@@@@@@@.****======*****=====...''..          ",
"           .+@@@@@@@@@@@#######**==**#####*======.'.$$.         ",
"           .+@@@@@@@@@@@#######******#####*======.).==.         ",
"           ...@@@@@@@@@##########**########**====...==.         ",
"           !~.@@@@@@@@@####################**====$$$==.         ",
"           {]..@@@@@@@.######################*========.         ",
"          >& .*.++@@...######################*========.         ",
"          !~^.*=..@@.**#####////####////#####*========.>%%      ",
"       %%%{) .====...**####/############/####*========.'';      ",
"       ;''^;'.====.*===######################*========.'({      ",
"       {!'_~--..==.*===*####################*=======...]):      ",
"       :)]:{!''<..*====*####@@###[[###@@####*=======.} }        ",
"         } }{)| .*=====*####@@###[[###@@####*=====...           ",
"             1''.*=====*###2@@2##[[##2@@2###*=====.{    %%      ",
"       %%    {1'...*===*###2@@2##[[##2@@2###*====..    3'4      ",
"       4'3    {).-.*===#####555[[##[[555#####====.%   %~'~      ",
"       ~'~%    ;.-.*===###6655577777755566###====.~%%% 8))      ",
"       ))8 %%%~-.-.*990###66555@@@@@@55566###099..-'a'''~       ",
"        ~''a~'-..--.990#####@@6######6@@#####099.--(b---~       ",
"        '-'b](-.---.9990####@@########@@####0999.-'~^''!{       ",
"        ~'bc ~'.---.9990##@@############@@##0999.(d>:]]):       ",
"        )]:% >d.---.9990##@@############@@##0999.-~% &          ",
"          ~'_>;.---.999900[[@@[[[[[[[[@@[[009999.-'!^~;         ",
"          ~'_!'.---..99900[[@@[[[[[[[[@@[[0099...(]e ){         ",
"          {) e].---''..99900000000000000009999.--~3''~          ",
"           (''3...-f)...0099gghhhiihhhgg9900...--'j--~          ",
"           ~--j'..-''''.0099gghhhiihhhgg9900.--k,<''!{          ",
"           %~''<.....'..hh00..99999999..00hh..;%% |){}          ",
"            {)|}.......###00..99999999..00hh0.{3'''1            ",
"             1''..##l..###....000ii000....000.  <'1{            ",
"             {1'..##lmm###. ..000ii000..}.000.  c]{             ",
"              {]n.llloo... ...99999999.. ..ll..  }              ",
"               } ..mooo.   .mmmmmmmmmmmm..#####.                ",
"                 ..mooo.   .pppppppppppp..#####.                ",
"                .  .....   ..ooo.  .oo....#####.                ",
"                .   ...     .mmm.  .mm.  .lllll.                ",
"               .      .......mmm.  .mm.........                 ",
"               .        .@@qmmmm.  .mmmmq@@..                   ",
"                        .@@qpppp.  .ppppq@@..                   ",
"                  .......mmmmmmm.  .mmmmmmm.......              ",
"                  .......rrrrrrr.  .rrrrrrr.......              ",
"                     ..........................                 ",
"                     ..........................                 "};
