/* XPM */
static char * P1_xpm[] = {
"64 64 56 1",
" 	c #422835",
".	c #1F1B18",
"+	c #E6616A",
"@	c #D53944",
"#	c #FFFFFF",
"$	c #FFCFAF",
"%	c #432936",
"&	c #422935",
"*	c #D35A09",
"=	c #F78233",
"-	c #4A313C",
";	c #472E3A",
">	c #432935",
",	c #482E3A",
"'	c #49303B",
")	c #3E2631",
"!	c #472E39",
"~	c #482F3A",
"{	c #3E2632",
"]	c #3D2631",
"^	c #432A36",
"/	c #FFC0C5",
"(	c #472F3A",
"_	c #442A36",
":	c #412834",
"<	c #442B37",
"[	c #F7F7F7",
"}	c #412835",
"|	c #3E2731",
"1	c #462E39",
"2	c #D6D6D6",
"3	c #442A37",
"4	c #482F3B",
"5	c #F1AF00",
"6	c #FFD668",
"7	c #3E2732",
"8	c #FFF5D1",
"9	c #C6A97F",
"0	c #48303B",
"a	c #402833",
"b	c #412734",
"c	c #3F2733",
"d	c #3F2732",
"e	c #422A35",
"f	c #575433",
"g	c #BAD3BA",
"h	c #D53945",
"i	c #4A303C",
"j	c #49303C",
"k	c #F7F7EF",
"l	c #FFEBC7",
"m	c #402734",
"n	c #A79277",
"o	c #FADCA5",
"p	c #601117",
"q	c #968D70",
"                                                                ",
"                                                                ",
"                                                                ",
"                .....                                           ",
"               .+++++.                                          ",
"            ....@@@@@....                                       ",
"           .++++@@@@@++++.                                      ",
"           .+@@@@@@@@@@@+.                                      ",
"          .++@@@@@@@@@@@++.                                     ",
"         ..@@@@@@@@@@@@@@@..                                    ",
"        .+@@##@@@@@@@@@@@@++.                                   ",
"        .+@@##@@@@@@@@@@@@@+.                                   ",
"        .@@@##@@@@@@@@@@@@@@.                                   ",
"        .@@@##@@@@@@@@@@@@@@.                                   ",
"        .@##@@@@@@@@@@@@@@@@.  ......                           ",
"        .@##@@@@@@@@@@@@@@@@....$$$$.......%&                   ",
"        .@@@@@@@@@@@@@@@@@@@.*$$====$$$$$$.-;&                  ",
"        .@@@@@@@@@@@@@@@@@@@.*============....                  ",
"        .@@@@@@@@@@@@@@@@@@@.*============$$$. %>               ",
"        ...@@@@@@@@@@@@@@@..*================...,               ",
"          .@@@@@@@@@@@@@@@.**==================.; %%>           ",
"          .@@@@@@@@@@@@@@@.****======*****=====...''..          ",
"           .+@@@@@@@@@@@#######**==**#####*======.'.$$.         ",
"           .+@@@@@@@@@@@#######******#####*======.).==.         ",
"           ...@@@@@@@@@##########**########**====...==.         ",
"           !~.@@@@@@@@@####################**====$$$==.         ",
"           {]..@@@@@@@.######################*========.         ",
"          >& .*.++@@...######################*========.         ",
"          !~^.*=..@@.**#####////####////#####*========.>%%      ",
"       %%%{) .====...**####/############/####*========.'';      ",
"       ;''^;'.====.*===######################*========.'({      ",
"       {!'_~--..==.*===*####################*=======...]):      ",
"       :)]:{!''<..*====*####@@###[[###@@####*=======.} }        ",
"         } }{)| .*=====*####@@###[[###@@####*=====...           ",
"             1''.*=====*###2@@2##[[##2@@2###*=====.{    %%      ",
"       %%    {1'...*===*###2@@2##[[##2@@2###*====..    3'4      ",
"       4'3    {).-.*===#####555[[##[[555#####====.%   %~'~      ",
"       ~'~%    ;.-.*===###66555@@@@@@55566###====.~%%% 7))      ",
"       ))7 %%%~-.-.*889###66555@@@@@@55566###988..-'0'''~       ",
"        ~''0~'-..--.889#####@@6######6@@#####988.--(a---~       ",
"        '-'a](-.---.8889####@@########@@####9888.-'~^''!{       ",
"        ~'ab ~'.---.8889##@@############@@##9888.(c>:]]):       ",
"        )]:% >c.---.8889##@@############@@##9888.-~% &          ",
"          ~'_>;.---.888899[[@@[[[[[[[[@@[[998888.-'!^~;         ",
"          ~'_!'.---..88899[[@@[[[[[[[[@@[[9988...(]d ){         ",
"          {) d].---''..88899999999999999998888.--~3''~          ",
"           (''3...-e)...9988ffggghhgggff8899...--'i--~          ",
"           ~--i'..-''''.9988ffggghhgggff8899.--j,<''!{          ",
"           %~''<.....'..gg99..88888888..99gg..;%% |){}          ",
"            {)|}.......###99..88888888..99gg9.{3'''1            ",
"             1''..##k..###....999hh999....999.  <'1{            ",
"             {1'..##kll###. ..999hh999..}.999.  b]{             ",
"              {]m.kkknn... ...88888888.. ..kk..  }              ",
"               } ..lnnn.   .llllllllllll..#####.                ",
"                 ..lnnn.   .oooooooooooo..#####.                ",
"                .  .....   ..nnn.  .nn....#####.                ",
"                .   ...     .lll.  .ll.  .kkkkk.                ",
"               .      .......lll.  .ll.........                 ",
"               .        .@@pllll.  .llllp@@..                   ",
"                        .@@poooo.  .oooop@@..                   ",
"                  .......lllllll.  .lllllll.......              ",
"                  .......qqqqqqq.  .qqqqqqq.......              ",
"                     ..........................                 ",
"                     ..........................                 "};
