/* XPM */
static char * PP_xpm[] = {
"64 64 23 1",
" 	c None",
".	c #1F1B18",
"+	c #E5616A",
"@	c #D53944",
"#	c #FFFFFF",
"$	c #FFCFAF",
"%	c #D35A09",
"&	c #F78233",
"*	c #FFC0C5",
"=	c #F7F7F7",
"-	c #D6D6D6",
";	c #F1AF00",
">	c #FFD668",
",	c #FFF5D1",
"'	c #C6A97F",
")	c #575433",
"!	c #BAD3BA",
"~	c #F7F7EF",
"{	c #FFEBC7",
"]	c #A79277",
"^	c #FADCA5",
"/	c #601117",
"(	c #968D70",
"                .....                                           ",
"               .+++++.                                          ",
"            ....@@@@@....                                       ",
"           .++++@@@@@++++.                                      ",
"           .+@@@@@@@@@@@+.                                      ",
"          .++@@@@@@@@@@@++.                                     ",
"         ..@@@@@@@@@@@@@@@..                                    ",
"        .+@@##@@@@@@@@@@@@++.                                   ",
"        .+@@##@@@@@@@@@@@@@+.                                   ",
"        .@@@##@@@@@@@@@@@@@@.                                   ",
"        .@@@##@@@@@@@@@@@@@@.                                   ",
"        .@##@@@@@@@@@@@@@@@@.                                   ",
"        .@##@@@@@@@@@@@@@@@@.                                   ",
"        .@##@@@@@@@@@@@@@@@@.                                   ",
"        .@##@@@@@@@@@@@@@@@@.  ......                           ",
"        .@@@@@@@@@@@@@@@@@@@....$$$$.......                     ",
"        .@@@@@@@@@@@@@@@@@@@.%$$&&&&$$$$$$.                     ",
"        .@@@@@@@@@@@@@@@@@@@.%&&&&&&&&&&&&....                  ",
"        .@@@@@@@@@@@@@@@@@@@.%&&&&&&&&&&&&$$$.                  ",
"        ...@@@@@@@@@@@@@@@..%&&&&&&&&&&&&&&&&...                ",
"          .@@@@@@@@@@@@@@@.%%&&&&&&&&&&&&&&&&&&.                ",
"          .@@@@@@@@@@@@@@@.%%%%&&&&&&%%%%%&&&&&...  ..          ",
"           .+@@@@@@@@@@@#######%%&&%%#####%&&&&&&. .$$.         ",
"           .+@@@@@@@@@@@#######%%%%%%#####%&&&&&&. .&&.         ",
"           ...@@@@@@@@@##########%%########%%&&&&...&&.         ",
"             .@@@@@@@@@####################%%&&&&$$$&&.         ",
"             ..@@@@@@@.######################%&&&&&&&&.         ",
"             .%.++@@...######################%&&&&&&&&.         ",
"             .%&..@@.%%#####****####****#####%&&&&&&&&.         ",
"             .&&&&...%%####*############*####%&&&&&&&&.         ",
"             .&&&&.%&&&######################%&&&&&&&&.         ",
"              ..&&.%&&&%####################%&&&&&&&...         ",
"                ..%&&&&%####@@###==###@@####%&&&&&&&.           ",
"                .%&&&&&%####@@###==###@@####%&&&&&...           ",
"                .%&&&&&%###-@@-##==##-@@-###%&&&&&.             ",
"                ...%&&&%###-@@-##==##-@@-###%&&&&..             ",
"                . .%&&&#####;;;==##==;;;#####&&&&.              ",
"                . .%&&&###>>;;;++++++;;;>>###&&&&.              ",
"                . .%,,'###>>;;;@@@@@@;;;>>###',,..              ",
"               ..  .,,'#####@@>######>@@#####',,.               ",
"               .   .,,,'####@@########@@####',,,.               ",
"               .   .,,,'##@@############@@##',,,.               ",
"               .   .,,,'##@@############@@##',,,.               ",
"               .   .,,,,''==@@========@@=='',,,,.               ",
"               .   ..,,,''==@@========@@=='',,...               ",
"               .     ..,,,'''''''''''''''',,,,.                 ",
"               ...   ...'',,))!!!@@!!!)),,''...                 ",
"                ..     .'',,))!!!@@!!!)),,''.                   ",
"                ..... ..!!''..,,,,,,,,..''!!..                  ",
"                .......###''..,,,,,,,,..''!!'.                  ",
"                ..##~..###....'''@@'''....'''.                  ",
"                ..##~{{###. ..'''@@'''.. .'''.                  ",
"                 .~~~]]... ...,,,,,,,,.. ..~~..                 ",
"                 ..{]]].   .{{{{{{{{{{{{..#####.                ",
"                 ..{]]].   .^^^^^^^^^^^^..#####.                ",
"                .  .....   ..]]].  .]]....#####.                ",
"                .   ...     .{{{.  .{{.  .~~~~~.                ",
"               .      .......{{{.  .{{.........                 ",
"               .        .@@/{{{{.  .{{{{/@@..                   ",
"                        .@@/^^^^.  .^^^^/@@..                   ",
"                  .......{{{{{{{.  .{{{{{{{.......              ",
"                  .......(((((((.  .(((((((.......              ",
"                     ..........................                 ",
"                     ..........................                 "};
