/* XPM */
static char * six_xpm[] = {
"64 64 358 2",
"  	c None",
". 	c #000000",
"+ 	c #5C5805",
"@ 	c #666006",
"# 	c #575301",
"$ 	c #565100",
"% 	c #524E00",
"& 	c #90890C",
"* 	c #BDB413",
"= 	c #A49C02",
"- 	c #A19900",
"; 	c #8F8800",
"> 	c #575204",
", 	c #9D950E",
"' 	c #AFA711",
") 	c #9B9300",
"! 	c #857F00",
"~ 	c #635E00",
"{ 	c #333001",
"] 	c #656006",
"^ 	c #716B00",
"/ 	c #2A2800",
"( 	c #B1A911",
"_ 	c #2E2B00",
": 	c #88810A",
"< 	c #B2AA11",
"[ 	c #BCB313",
"} 	c #989100",
"| 	c #989000",
"1 	c #867F00",
"2 	c #6A6406",
"3 	c #9C940E",
"4 	c #938B00",
"5 	c #595400",
"6 	c #4B4700",
"7 	c #555004",
"8 	c #696400",
"9 	c #3C3902",
"0 	c #3D3902",
"a 	c #645F05",
"b 	c #B9B012",
"c 	c #B5AC12",
"d 	c #B5AD12",
"e 	c #9D9602",
"f 	c #9A9300",
"g 	c #9C9400",
"h 	c #706A00",
"i 	c #322F00",
"j 	c #AEA611",
"k 	c #847E0A",
"l 	c #514D00",
"m 	c #252200",
"n 	c #726C07",
"o 	c #89830B",
"p 	c #B6AD12",
"q 	c #938C0C",
"r 	c #8B840B",
"s 	c #605B05",
"t 	c #3A3600",
"u 	c #767000",
"v 	c #756F00",
"w 	c #9E9600",
"x 	c #777100",
"y 	c #6B6600",
"z 	c #89820B",
"A 	c #4A4603",
"B 	c #9B9400",
"C 	c #8A8300",
"D 	c #8E870B",
"E 	c #403C02",
"F 	c #141200",
"G 	c #333000",
"H 	c #353200",
"I 	c #615C00",
"J 	c #6E6807",
"K 	c #9B940E",
"L 	c #B8B012",
"M 	c #A0990E",
"N 	c #736D07",
"O 	c #484400",
"P 	c #888100",
"Q 	c #928A00",
"R 	c #5D5800",
"S 	c #4C4800",
"T 	c #4D4903",
"U 	c #ADA510",
"V 	c #807900",
"W 	c #666000",
"X 	c #434002",
"Y 	c #444102",
"Z 	c #635E05",
"` 	c #B3AA11",
" .	c #A49C0F",
"..	c #797200",
"+.	c #6F6900",
"@.	c #393600",
"#.	c #ABA310",
"$.	c #524E04",
"%.	c #9D9500",
"&.	c #1A1800",
"*.	c #A59E0F",
"=.	c #393502",
"-.	c #030201",
";.	c #050402",
">.	c #040302",
",.	c #736D00",
"'.	c #827C00",
").	c #050302",
"!.	c #090604",
"~.	c #070503",
"{.	c #5A5500",
"].	c #6F6A00",
"^.	c #B7AE10",
"/.	c #080603",
"(.	c #9E784A",
"_.	c #CF9E62",
":.	c #B88C57",
"<.	c #090704",
"[.	c #010000",
"}.	c #777102",
"|.	c #767002",
"1.	c #645F01",
"2.	c #B1A80C",
"3.	c #B4AC0E",
"4.	c #B1A90E",
"5.	c #9E960E",
"6.	c #746E07",
"7.	c #010101",
"8.	c #7A5C37",
"9.	c #82633C",
"0.	c #B68B56",
"a.	c #D6A466",
"b.	c #C6985E",
"c.	c #251A0C",
"d.	c #4A4600",
"e.	c #908900",
"f.	c #968E01",
"g.	c #7B7502",
"h.	c #7A7402",
"i.	c #666101",
"j.	c #968E00",
"k.	c #020101",
"l.	c #0A0704",
"m.	c #020302",
"n.	c #C99A5F",
"o.	c #42311C",
"p.	c #625D01",
"q.	c #383500",
"r.	c #8C8500",
"s.	c #968F00",
"t.	c #543F24",
"u.	c #BB8F58",
"v.	c #BA8E58",
"w.	c #D3A164",
"x.	c #AA8250",
"y.	c #755935",
"z.	c #947044",
"A.	c #A17744",
"B.	c #9C7240",
"C.	c #664A28",
"D.	c #3A3703",
"E.	c #6A6401",
"F.	c #746E02",
"G.	c #756F02",
"H.	c #454101",
"I.	c #978F00",
"J.	c #7D7702",
"K.	c #403C03",
"L.	c #6A5628",
"M.	c #C8995F",
"N.	c #D4A365",
"O.	c #A17B4B",
"P.	c #564025",
"Q.	c #81623A",
"R.	c #D2A063",
"S.	c #AB7F48",
"T.	c #A77B46",
"U.	c #73572C",
"V.	c #302D04",
"W.	c #4E4A03",
"X.	c #726C02",
"Y.	c #474301",
"Z.	c #413D00",
"`.	c #938C00",
" +	c #CF9D61",
".+	c #B3844B",
"++	c #342411",
"@+	c #605B01",
"#+	c #4C4801",
"$+	c #3C3800",
"%+	c #706B00",
"&+	c #726C00",
"*+	c #7A7300",
"=+	c #797300",
"-+	c #937341",
";+	c #977346",
">+	c #BD9059",
",+	c #C6975D",
"'+	c #7D5B32",
")+	c #7E5B32",
"!+	c #5F5709",
"~+	c #5B5701",
"{+	c #545001",
"]+	c #3F3C01",
"^+	c #474300",
"/+	c #3E3B00",
"(+	c #A37C4C",
"_+	c #BE915A",
":+	c #4F4B01",
"<+	c #252300",
"[+	c #080700",
"}+	c #736B0C",
"|+	c #342614",
"1+	c #4B4111",
"2+	c #181700",
"3+	c #3E3A00",
"4+	c #847E00",
"5+	c #5B5600",
"6+	c #302D00",
"7+	c #423E01",
"8+	c #837C0A",
"9+	c #A69E0F",
"0+	c #A79F0F",
"a+	c #403D02",
"b+	c #4F4B03",
"c+	c #8A8308",
"d+	c #6B6602",
"e+	c #6B6502",
"f+	c #8E8600",
"g+	c #5F5A00",
"h+	c #888200",
"i+	c #7F7900",
"j+	c #8C850B",
"k+	c #5B5604",
"l+	c #A39B0C",
"m+	c #878105",
"n+	c #9A9201",
"o+	c #6D6700",
"p+	c #837D04",
"q+	c #847E02",
"r+	c #928B0C",
"s+	c #AAA210",
"t+	c #ACA40F",
"u+	c #9C940B",
"v+	c #9C950B",
"w+	c #938B02",
"x+	c #928A01",
"y+	c #958E01",
"z+	c #9D9503",
"A+	c #545004",
"B+	c #BEB513",
"C+	c #494603",
"D+	c #5A5604",
"E+	c #9D960B",
"F+	c #9D9600",
"G+	c #6C6700",
"H+	c #A9A106",
"I+	c #7C7609",
"J+	c #ACA410",
"K+	c #BAB113",
"L+	c #BBB213",
"M+	c #8A830B",
"N+	c #222001",
"O+	c #201E01",
"P+	c #A09800",
"Q+	c #9F9700",
"R+	c #363300",
"S+	c #1C1A00",
"T+	c #A29A01",
"U+	c #B1A90D",
"V+	c #BAB213",
"W+	c #2D2A01",
"X+	c #AAA20E",
"Y+	c #979009",
"Z+	c #948D02",
"`+	c #948D01",
" @	c #979001",
".@	c #B3AA0D",
"+@	c #817A09",
"@@	c #A8A010",
"#@	c #BAB112",
"$@	c #A59D0D",
"%@	c #8D8606",
"&@	c #989001",
"*@	c #999200",
"=@	c #A9A110",
"-@	c #958E0C",
";@	c #7D7709",
">@	c #B0A811",
",@	c #A9A00B",
"'@	c #795B37",
")@	c #A7804E",
"!@	c #A17E47",
"~@	c #807A09",
"{@	c #8A840B",
"]@	c #B8AF12",
"^@	c #B0A810",
"/@	c #8F8802",
"(@	c #8C8501",
"_@	c #918A01",
":@	c #807A00",
"<@	c #7D7700",
"[@	c #80662B",
"}@	c #8B6639",
"|@	c #775730",
"1@	c #9C7748",
"2@	c #C5965D",
"3@	c #8E683A",
"4@	c #9A713F",
"5@	c #1B1207",
"6@	c #181006",
"7@	c #9E960B",
"8@	c #0E0802",
"9@	c #150C04",
"0@	c #B7AE11",
"a@	c #B1A910",
"b@	c #898303",
"c@	c #847D02",
"d@	c #8B8401",
"e@	c #857F0A",
"f@	c #B0A711",
"g@	c #B3AB11",
"h@	c #898203",
"i@	c #827C02",
"j@	c #8A8301",
"k@	c #999100",
"l@	c #837C00",
"m@	c #846035",
"n@	c #8D6739",
"o@	c #8A6B33",
"p@	c #7E7809",
"q@	c #686304",
"r@	c #504C01",
"s@	c #686300",
"t@	c #6B6500",
"u@	c #271A0B",
"v@	c #A87B46",
"w@	c #A17743",
"x@	c #B68851",
"y@	c #C29257",
"z@	c #AF834E",
"A@	c #977142",
"B@	c #392915",
"C@	c #C1945B",
"D@	c #A77F4E",
"E@	c #402F1A",
"F@	c #5E4629",
"G@	c #664C2D",
"H@	c #654C2C",
"I@	c #CB9C61",
"J@	c #745734",
"K@	c #634A2B",
"L@	c #9F794A",
"M@	c #7B5D37",
"N@	c #8E6C41",
"O@	c #88673E",
"P@	c #7E5F39",
"Q@	c #86653D",
"                                                            . . . . .                                                           ",
"                                                          + @ @ # $ %                                                           ",
"                                                      . . & * * = - ; . .                                                       ",
"                                                . . > , , ' * * = - ) ! ! ~ . .                                                 ",
"                                                { { ] * * * * * = - - - - ^ / /                                                 ",
"                                          . . . ( * * * * * * * = - - - - - - - _ . .                                           ",
"                                          . . . ( * * * * * * * = - - - - - - - _ . .                                           ",
"                                          . . . ( * * * * * * * = - - - - - - - _ . .                                           ",
"                                      . . : < < [ * * * * * * * = - - - - - - - } | 1 . .                                       ",
"                                      2 2 3 * * * * * * * * * * = - - - - - - - - - 4 5 5 6                                     ",
"                                . . 7 * * * * * * * * * * * * * = - - - - - - - - - - - - 8 . .                                 ",
"                                . . 7 * * * * * * * * * * * * * = - - - - - - - - - - - - 8 . .                                 ",
"                                9 0 a * * * * * * * * * * b c d e f g - - - - - - - - - - h i i                                 ",
"                            . . j * * * * * * * * * * * * k . . . . l - - - - - - - - - - - - - m . .                           ",
"                      .   n o o p * * * * * * * q r r r r s . . . . t u u u u v w - - - - - - - x v y                           ",
"                      . . z * * * * * * * * * * A . . . . . . . . . . . . . . . B - - - - - - - - - C . .                       ",
"                      . . z * * * * * * * D E E F . . . . . . . . . . . . . . . G H I - - - - - - - C . .                       ",
"                      J J K * * * * L M M N . . . . . . . . . . . . . . . . . . . . O P P | - - - - Q R R S                     ",
"                . . T * * * * * * * U . . . . . . . . . . . . . . . . . . . . . . . . . . V - - - - - - - W . .                 ",
"                . . T * * * * * * * U . . . . . . . . . . . . . . . . . . . . . . . . . . V - - - - - - - W . .                 ",
"                X Y Z * * * * * c `  .. . . . . . . . . . . . . . . . . . . . . . . . . . ..} } - - - - - +.@.@.                ",
"            . . #.* * * * * * * $.. . . . . . . . . . . . . . . . . . . . . . . . . . . . . . . %.- - - - - - - &.. .           ",
"            . . #.* * * * *.: : =.. . . . . . . . . . . . -.;.;.;.;.>.. . . . . . . . . . . . . h ,.'.- - - - - &.. .           ",
"            . . #.* * * * r . . . . . . . . . . . . . . . ).!.!.!.!.~.. . . . . . . . . . . . . . . {.- - - - - &.. .           ",
"      . . ].B B ^.* * * * r . . . . . . . . . . /.!.!.!.!.(._._._._.:.!.!.!.!.<.[.. . . . . . . . . {.- - - - - }.|.1.. .       ",
"      . . ^ - - 2.3.4.5.5.6.. . . . [.-.-.-.-.7.8.9.9.9.9.0.a.a.a.a.b.9.9.9.9.9.c.-.-.-.-.7.. . . . d.1 1 e.f.f.g.h.i.. .       ",
"      . . ^ - - - - j.. . . . . . . k.l.l.l.l.m.n.a.a.a.a.a.a.a.a.a.a.a.a.a.a.a.o.l.l.l.l.>.. . . . . . . p.h.h.h.h.i.. .       ",
". . q.r.r.s.- - - - w r.r.i.~.~.~.~.t.u.u.u.u.v.w.a.a.a.a.x.y.y.y.y.z.a.a.a.a.a.A.B.B.B.B.C.~.~.~.~.D.E.E.F.h.h.h.h.G.E.E.H.. . ",
". . @.I.I.I.I.I.I.I.} - - J.K.K.K.K.L.M.M.M.M.M.N.a.a.a.a.O.P.P.P.P.Q.R.R.R.R.R.S.T.T.T.T.U.V.V.V.V.W.h.h.G.X.X.X.X.X.X.X.Y.. . ",
"      . . . . . . . Z.- - - - - - - `.. . . . . n.a.a.a.a.a.a.a.a.a. +.+.+.+.+.+++. . . . @+h.h.h.h.h.h.h.#+. . . . . . .       ",
"                    $+%+%+%+%+%+%+%+&+*+*+*+*+=+-+;+;+;+;+>+a.a.a.a.,+'+'+'+'+)+!+~+~+~+~+# {+{+{+{+{+{+{+]+                    ",
"                      . . . . . . . ^+- - - - - /+. . . . (+a.a.a.a._+. . . . . |.h.h.h.h.:+. . . . . . .                       ",
"                                      <+<+<+<+<+[+. 6 %.%.}+|+|+|+|+1+}.}.:+. . 2+&.&.&.&.                                      ",
"                                      . . . . . . . 3+4+4+5+. . . . 6+1.1.7+. . . . . . .                                       ",
"                                          . . . . . . . . . . . . . . . . . . . . . .                                           ",
"                                      . . 8+9+0+a+. b+9+9+c+d+e+C f+f+f+f+g+. . h+f+i+. .                                       ",
"                                      . . j+* * A . k+* * l+m+m+n+g %.- - o+. . B - r.. .                                       ",
"                                      . . j+* * A . k+* * * * * p+h.q+- - o+. . B - r.. .                                       ",
"                                  . b+r+r+s+* * A . k+* * t+u+v+w+x+y+- - o+. . B - z+r+r+J . .                                 ",
"                                . . A+* * * * B+C+. D+* * E+h.h.F+- - - - G+. . B - H+* * I+. .                                 ",
"                            . . J+K+L+* * M+N+O+' K+L+* * E+h.h.F+- - - - P+Q+Q+R+S+{.T+T+U+K+V+W+. .                           ",
"                            . . j * * * * : . . ( * * * * X+Y+Y+Z+`+ @- - - - - _ . $ - - .@* * W+. .                           ",
"                            . . j * * * * : . . ( * * * * * * * p+h.q+- - - - - _ . $ - - .@* * W+. .                           ",
"                      . . +@@@@@#@* * * * : . . ( * * * * $@%@%@&@*@) - - - - - _ . $ - - .@* * =@@@-@. .                       ",
"                      . . ;@U U U U >@* * : . . ( * * * * E+h.h.F+- - - - - - - _ . $ - - ,@U U U U -@. .                       ",
"                      . . . . . . . 7 * * : . . ( * * * * E+h.h.F+- - - - - - - _ . $ - - 8 . . . . . . .                       ",
"                      . . '@)@)@)@)@!@~@~@{@q q ]@* * * * ^@$@$@/@(@_@- - - - - :@<@=+G+G+[@}@}@}@}@|@. .                       ",
"                      . . 1@a.a.a.a.2@. . j+* * * * * * * * * * p+h.q+- - - - - - - r.. . 3@.+.+.+.+4@. .                       ",
"                          5@5@5@5@5@6@. . j+* * * * * * * 7@g.g.%.P+- - - - - - - - r.. . 8@9@9@9@9@9@                          ",
"                            . . . . . . . j+* * * * * * * E+h.h.F+- - - - - - - - - r.. . . . . . .                             ",
"                                      . . j+* * * * * * * E+h.h.F+- - - - - - - - - r.. .                                       ",
"                                      . . j+* * * * * * * 0@a@a@b@c@d@- - - - - - - r.. .                                       ",
"                                      . . e@J+J+J+J+f@* * ]@` g@h@i@j@- - k@4 4 4 4 l@. .                                       ",
"                                          . . . . . k+* * E+h.h.F+- - - - o+. . . . .                                           ",
"                                          . . . m@n@o@p@p@q@r@r@s@t@t@t@t@[@n@n@u@. .                                           ",
"                                          . . . v@.+w@. . . . . . . . . . }@.+.+++. .                                           ",
"                                          . . . v@.+w@. .             . . }@.+.+++. .                                           ",
"                                          . . . x@y@z@. .             . . A@y@y@B@. .                                           ",
"                                          . . . n.a.C@. .             . . D@a.a.E@. .                                           ",
"                                          . . . n.a.C@. .             . . D@a.a.E@. .                                           ",
"                                          F@G@H@I@a.C@. .             . . D@a.a.J@G@K@                                          ",
"                                      . . L@a.a.a.a.C@. .             . . D@a.a.a.a.u.. .                                       ",
"                                          M@N@N@N@N@O@                    P@N@N@N@N@Q@                                          ",
"                                          . . . . . .                     . . . . . .                                           "};
