/* XPM */
static char * square_exit_top_leftt_xpm[] = {
"64 64 12 1",
" 	c None",
".	c #422835",
"+	c #1C1117",
"@	c #756760",
"#	c #523A42",
"$	c #88776F",
"%	c #301D27",
"&	c #3B3328",
"*	c #94857E",
"=	c #344727",
"-	c #447733",
";	c #649154",
"................................................................",
"................................................................",
"................................................................",
"................................................................",
"................................................................",
"................................................................",
"++++++++++++++++++++++++++++++++++++++++++++++++++++++++++++++++",
"@@@@#+@@@@@@@@@@+#@@#+@@@@@@@@@@+#@@@@@@@@@@+#@@#+@@@@@@@@@@+#@@",
"@@@@@+@@@@@@@@@@+@@@@+@@@@@@@@@@+@@@@@@@@@@@+@@@@+@@@@@@@@@@+@@@",
"$$$$$+$$$$$$$$$$+$$$$+$$$$$$$$$$+$$$$$$$$$$$+$$$$+$$$$$$$$$$+$$$",
"#####+##########+####+##########+###########+####+##########+###",
".....+..........+....+..........+...........+....+..........+...",
".....+..........+..%.+..........+..%........+..%.+..........+..%",
"++++++++++++++++++++++++++++++++++++++++++++++++++++++++++++++++",
"##%#&#+##%##%##+#&##&#+##%##%##+#&###%##%##+#&##&#+##%##%##+#&##",
"......+........+..&...+........+..&........+..&...+........+..&.",
"......+........+..&...+........+..&........+..&...+........+..&.",
"++++++++++++++++++++++++++++++++++++++++++++++++++++++++++++++++",
"#&######&####&####+#####&####&####+#&####&####+#####&####&####+#",
".&......&....&....+.....&....&....+.&....&....+.....&....&....+.",
"%......%......%...+....%......%...+.......%...+....%......%...+.",
"++++++++++++++++++++++++++++++++++++++++++++++++++++++++++++++++",
"#+###&##+####+##&####&##+####+##&###+####+##&####&##+####+##&###",
".+&..&..+&..&+..&....&..+&..&+..&...+&..&+..&....&..+&..&+..&...",
".+......+....+.....%....+....+.....%+....+.....%....+....+.....%",
"                                                                ",
"                                                                ",
"                                                                ",
"                                                                ",
"                                                                ",
"                                                                ",
"                                                                ",
"                                                                ",
"                                                                ",
"                                                                ",
"                                                                ",
"                                                                ",
"                                                                ",
"                                                                ",
"#+@@@@@@@@@@@@@@+@@@                                            ",
"@+@@@@@@@@@@@@@@+@@@                                            ",
"$+$$$$$$$$$$$$$$+@@@                                            ",
"#+##&&##########+@@@                                            ",
".+....&.........++++                                            ",
".+.%............+***                                            ",
".+..%...+..%+.+++@@@                                            ",
"++++++++++++++#++@@@                                            ",
"##%++==+=++###.++@@@                                            ",
"...+=--=-=+....++@@@                                            ",
"..%+;-----+%..+++@@@                                            ",
"+++++;---=++++##+@@@                                            ",
"#%####;--#%##+..++++                                            ",
"..%...;-=.%..+%.+***                                            ",
"....%.;-=....++++@@@                                            ",
"++++++=-++++++##+@@@                                            ",
"#+#####;#+%###..+@@@                                            ",
".+.....;.+......+@@@                                            ",
".+.....;=+...%+++@@@                                            ",
"+++++;---==+++..++++                                            ",
"%%%%;--;;---%%..+***                                            ",
".%%...---.......+@@@                                            ",
"..%.......%..%..+@@@                                            ",
"%...............+@@@                                            ",
"....................                                            "};
