/* XPM */
static char * square_top_right_xpm[] = {
"64 64 39 1",
" 	c None",
".	c #422835",
"+	c #1C1117",
"@	c #756760",
"#	c #523A42",
"$	c #88776F",
"%	c #301D27",
"&	c #94857E",
"*	c #3B3328",
"=	c #432936",
"-	c #432935",
";	c #402934",
">	c #49303B",
",	c #472E39",
"'	c #482F3A",
")	c #462E39",
"!	c #3E2632",
"~	c #3E2731",
"{	c #3E2631",
"]	c #422935",
"^	c #432A36",
"/	c #4A313C",
"(	c #412834",
"_	c #3D2631",
":	c #482F3B",
"<	c #3F2732",
"[	c #472E3A",
"}	c #442A37",
"|	c #4A303C",
"1	c #442A36",
"2	c #442B37",
"3	c #412835",
"4	c #3E2732",
"5	c #48303B",
"6	c #472F3A",
"7	c #402833",
"8	c #412734",
"9	c #472F39",
"0	c #3F2733",
"................................................................",
"................................................................",
"................................................................",
"................................................................",
"................................................................",
"................................................................",
"++++++++++++++++++++++++++++++++++++++++++++++++................",
"@@#+@@@@@@@@@@+#@@#+@@@@@@@@@@+#@@@@@+#@@@@+@@@+................",
"@@@+@@@@@@@@@@+@@@@+@@@@@@@@@@+@@@@@@+@@@@@+@@@+................",
"$$$+$$$$$$$$$$+$$$$+$$$$$$$$$$+$$$$$$+$$$$$+@@@+................",
"###+##########+####+##########+######+#####%@@@+................",
"...+..........+....+..........+......+.....%@@@+................",
"%..+..........+.%..+..........+......+..%..%&&&+................",
"+++++++++++++++++++++++++++++++++++++++++++%++++................",
"##*#+##%##%##+#*##*#+##%##%##+#*#%##+#*####%@@@+................",
".*..+........+...*..+........+......+..*...%@@@+................",
".*..+........+...*..+........+......+..*...%@@@+................",
"+++++++++++++++++++++++++++++++++++++++++++%@@@+................",
"#+####*####*#####+####*####*######*####+##*%@@@+................",
".+....*....*.....+....*....*......*....+..*%&&&+................",
".+...%......%....+...%......%......%...+...%++++................",
"+++++++++++++++++++++++++++++++++++++++++++%@@@+.==-............",
"###*##+####+##*####*##+####+##*###+##*####+%@@@+;>>,............",
"...*..+*..*+..*....*..+*..*+..*..*+..*....+%@@@+'>)!............",
"%.....+....+....%.....+....+......+.....%.+%@@@+~{!]-...........",
"                                            @@@+>,^',...........",
"                                            @@@+/'(_!...........",
"                                            @@@+/:].]-..........",
"                                            ++++>>,^',..........",
"                                            &&&+{_<.{!===.......",
"                                            @@@+[}>>[^>>[.......",
"                                            @@@+>|//'1>,!.......",
"                                            @@@+2>>,!(_{(.......",
"                                            @@@+.~{!3.3.........",
"                                            @@@+>>).............",
"                                            ++++>)!....==.......",
"                                            &&&+{!....}>:.......",
"                                            @@@+[....='>'.......",
"                                            @@@+/'===.4{{.......",
"                                            @@@+//>'5>>'........",
"                                            @@@+//6_7>/>........",
"                                            @@@+/>'.87>'........",
"                                            @@@+90-.=(_{........",
"                                            ++++/[-1>'..........",
"                                            &&&+/>,1>'..........",
"                                            @@@+,_<.{!..........",
"                                            @@@+'}>>6...........",
"                                            @@@+>|//'...........",
"                                            @@@+2>>'=...........",
"                                            @@@+3~{!............",
"                                            @@@+>>).............",
"                                            ++++>)!.............",
"                                            &&&+_!..............",
"                                            @@@+3...............",
"                                            @@@+................",
"                                            @@@+................",
"                                            @@@+................",
"                                            @@@+................",
"                                            ++++................",
"                                            &&&+................",
"                                            @@@+................",
"                                            @@@+................",
"                                            @@@+................",
"                                            ...................."};
