/* XPM */
static char * squre_bot_left_xpm[] = {
"64 64 40 1",
" 	c None",
".	c #422835",
"+	c #1C1117",
"@	c #94857E",
"#	c #756760",
"$	c #432935",
"%	c #432936",
"&	c #472E39",
"*	c #49303B",
"=	c #402934",
"-	c #3E2632",
";	c #462E39",
">	c #482F3A",
",	c #422935",
"'	c #3E2631",
")	c #3E2731",
"!	c #432A36",
"~	c #3D2631",
"{	c #412834",
"]	c #4A313C",
"^	c #482F3B",
"/	c #3F2732",
"(	c #472E3A",
"_	c #442A37",
":	c #442A36",
"<	c #4A303C",
"[	c #442B37",
"}	c #412835",
"|	c #3E2732",
"1	c #48303B",
"2	c #523A42",
"3	c #402833",
"4	c #472F3A",
"5	c #412734",
"6	c #88776F",
"7	c #3F2733",
"8	c #472F39",
"9	c #3B3328",
"0	c #301D27",
"a	c #38262D",
"................++++                                            ",
"................+@@@                                            ",
"................+###                                            ",
"................+###                                            ",
"................+###                                            ",
"................+###                                            ",
"................+###                                            ",
"................++++                                            ",
"................+@@@                                            ",
"................+###                                            ",
"................+###                                            ",
"................+###                                            ",
"................+###                                            ",
"................+###                                            ",
"................+###                                            ",
"................+###                                            ",
"................++++                                            ",
"................+@@@                                            ",
"................+###                                            ",
"................+###                                            ",
"................+###                                            ",
"............$%%.+###                                            ",
"............&**=+###                                            ",
"............-;*>+###                                            ",
"...........$,-')+###                                            ",
"...........&>!&*+###                                            ",
"...........-~{>]++++                                            ",
"..........$,.,^]+@@@                                            ",
"..........&>!&**+###                                            ",
".......%%%-'./~'+###                                            ",
".......(**!(**_(+###                                            ",
".......-&*:>]]<*+###                                            ",
".......{'~{-&**[+###                                            ",
".........}.}-').++++                                            ",
".............;**+@@@                                            ",
".......%%....-;*+###                                            ",
".......^*_....-'+@@@                                            ",
".......>*>%....(+###                                            ",
".......''|.%%%>]+###                                            ",
"........>**1>*]]+###+####2+##########+2####+###+####2+##########",
"........*]*3~4]]+###+#####+##########+#####+###+#####+##########",
"........>*35.>*]+###+66666+6666666666+66666+###+66666+6666666666",
"........'~{%.$78+2222+2222+2299222222+2222+22992+2222+2299222222",
"..........>*:$(]+....+....+....9.....+....+.....+....+....9.....",
"..........>*:&*]+....+..0.+.0........+..0.+.0...+..0.+.0........",
"..........-'./~&++++++++++++++++++++++++++++++++++++++++++++++++",
"...........4**_>+022+292222+22222022+292222+222+292222+22222022+",
"...........>]]<*+...+..9...+........+..9...+...+..9...+........+",
"...........%>**[+...+..9...+.0......+..9...+.0.+..9...+.0......+",
"............-')}++++++++++++++++++++++++++++++++++++++++++++++++",
".............;**+292222+229222+a2292222+2292222222+229222+a22922",
".............-;*+.9....+..9...+...9....+..9.......+..9...+...9..",
"..............-~+..0...+......+....0...+..........+......+....0.",
"...............}++++++++++++++++++++++++++++++++++++++++++++++++",
"................+2+2292222+2292222+2292222+2292292222+2292222+22",
"................+9+..9....+......9+..9....+.....9....+......9+..",
"................+.+.....0.+.0.....+.....0.+.0......0.+.0.....+..",
"................++++++++++++++++++++++++++++++++++++++++++++++++",
"................................................................",
"................................................................",
"................................................................",
"................................................................",
"................................................................",
"................................................................"};
