/* XPM */
static char * squre_bot_right_xpm[] = {
"64 64 43 1",
" 	c None",
".	c #1C1117",
"+	c #422835",
"@	c #94857E",
"#	c #756760",
"$	c #432936",
"%	c #432935",
"&	c #402934",
"*	c #49303B",
"=	c #472E39",
"-	c #482F3A",
";	c #462E39",
">	c #3E2632",
",	c #3E2731",
"'	c #3E2631",
")	c #422935",
"!	c #432A36",
"~	c #4A313C",
"{	c #412834",
"]	c #3D2631",
"^	c #482F3B",
"/	c #3F2732",
"(	c #472E3A",
"_	c #442A37",
":	c #4A303C",
"<	c #442A36",
"[	c #442B37",
"}	c #412835",
"|	c #523A42",
"1	c #3E2732",
"2	c #48303B",
"3	c #88776F",
"4	c #472F3A",
"5	c #402833",
"6	c #412734",
"7	c #3B3328",
"8	c #301D27",
"9	c #472F39",
"0	c #3F2733",
"a	c #4A1818",
"b	c #38262D",
"c	c #6B2222",
"d	c #AA3333",
"                                            ....++++++++++++++++",
"                                            @@@.++++++++++++++++",
"                                            ###.++++++++++++++++",
"                                            ###.++++++++++++++++",
"                                            ###.++++++++++++++++",
"                                            ###.++++++++++++++++",
"                                            ###.++++++++++++++++",
"                                            ....++++++++++++++++",
"                                            @@@.++++++++++++++++",
"                                            ###.++++++++++++++++",
"                                            ###.++++++++++++++++",
"                                            ###.++++++++++++++++",
"                                            ###.++++++++++++++++",
"                                            ###.++++++++++++++++",
"                                            ###.++++++++++++++++",
"                                            ###.++++++++++++++++",
"                                            ....++++++++++++++++",
"                                            @@@.++++++++++++++++",
"                                            ###.++++++++++++++++",
"                                            ###.++++++++++++++++",
"                                            ###.++++++++++++++++",
"                                            ###.+$$%++++++++++++",
"                                            ###.&**=++++++++++++",
"                                            ###.-*;>++++++++++++",
"                                            ###.,'>)%+++++++++++",
"                                            ###.*=!-=+++++++++++",
"                                            ....~-{]>+++++++++++",
"                                            @@@.~^)+)%++++++++++",
"                                            ###.**=!-=++++++++++",
"                                            ###.']/+'>$$$+++++++",
"                                            ###.(_**(!**(+++++++",
"                                            ###.*:~~-<*=>+++++++",
"                                            ###.[**=>{]'{+++++++",
"                                            ....+,'>}+}+++++++++",
"                                            @@@.**;+++++++++++++",
"                                            ###.*;>++++$$+++++++",
"                         ..........         @@@.'>++++_*^+++++++",
"                        .++++++++++.        ###.(++++$-*-+++++++",
"                        .|########|.        ###.~-$$$+1''+++++++",
"##########.|####.###.#++.##########.++|####.###.~~*-2**-++++++++",
"##########.#####.###.###.333|333333.#######.###.~~4]5*~*++++++++",
"3333333333.33333.###.3##.||||||||||.##33333.###.~*-+65*-++++++++",
"||||||77||.||||.|77||.33.8|8|8|8|88.33||||.||||.90%+${]'++++++++",
"+++++7++++.++++.+++++.||.8++++++++8.||++++.++++.~(%<*-++++++++++",
"++++++++8+.+8++.+++8+.++.+||++++||+.+++8++.++++.~*=<*-++++++++++",
"......................++.+88|++|88+.++..........=]/+'>++++++++++",
".||8|||||.||||7|.|||.|...8.|.++.|.8...|||7|.||8.-_**4+++++++++++",
".++++++++.+++7++.+++.+8|.8+++88+++8.||++7++.+++.*:~~-+++++++++++",
".++++++8+.+++7++.+8+.+++.88.|..|.88.++++7++.+++.[**-$+++++++++++",
"......................++.+8..aa..8+.++..........},'>++++++++++++",
"||7||b.|||7||.|||||||7....++.cc.++....||.||||7|.**;+++++++++++++",
"++7+++.+++7++.+++++++7|||..+.cc.+..b||++.++++7+.*;>+++++++++++++",
"+8++++.++++++.+++++++++++.8..cc..8.+++++.+++8++.]>++++++++++++++",
"......................+++.8..cc..8.+++..........}+++++++++++++++",
"||.||||7||.||||7||7||....||8.cc.8||...||||7||.|.++++++++++++++++",
"++.7++++++.++++7+++++.|8|++|8cc8|++|8|++++7++.7.++++++++++++++++",
"++.+++++8+.+8++++++8+.|8++++8cc8++++8|+8+++++.+.++++++++++++++++",
"......................|8c.c.cccc.c.c8|..........++++++++++++++++",
"++++++++++++++++++++++|8ccccdccccccc8|++++++++++++++++++++++++++",
"++++++++++++++++++++++|8ccdccccaaccc8|++++++++++++++++++++++++++",
"++++++++++++++++++++++||8ccdccccccc8||++++++++++++++++++++++++++",
"+++++++++++++++++++++++||8888888888||+++++++++++++++++++++++++++",
"++++++++++++++++++++++++||||||||||||++++++++++++++++++++++++++++",
"++++++++++++++++++++++++++++++++++++++++++++++++++++++++++++++++"};
