/* XPM */
static char * void1_xpm_xpm[] = {
"64 64 203 2",
"  	c #989898",
". 	c #000000",
"+ 	c #2E2E2D",
"@ 	c #080406",
"# 	c #363134",
"$ 	c #1C1117",
"% 	c #1A0F15",
"& 	c #474242",
"* 	c #383436",
"= 	c #1E1419",
"- 	c #1F161B",
"; 	c #1A1015",
"> 	c #1B1516",
", 	c #251D21",
"' 	c #4A4A49",
") 	c #434042",
"! 	c #413E40",
"~ 	c #2A2327",
"{ 	c #251E22",
"] 	c #1B1217",
"^ 	c #272124",
"/ 	c #010101",
"( 	c #3D383B",
"_ 	c #231A1F",
": 	c #373335",
"< 	c #272024",
"[ 	c #20171B",
"} 	c #1E1519",
"| 	c #1B1016",
"1 	c #1A1315",
"2 	c #22191E",
"3 	c #282225",
"4 	c #1A1415",
"5 	c #363334",
"6 	c #2C2729",
"7 	c #302B2E",
"8 	c #1D1319",
"9 	c #21181D",
"0 	c #383336",
"a 	c #1D1318",
"b 	c #010E01",
"c 	c #403D3F",
"d 	c #292326",
"e 	c #2F292C",
"f 	c #010F01",
"g 	c #010400",
"h 	c #949494",
"i 	c #272727",
"j 	c #1D1419",
"k 	c #2B2528",
"l 	c #424141",
"m 	c #585555",
"n 	c #1D231D",
"o 	c #4B4646",
"p 	c #494545",
"q 	c #282728",
"r 	c #4C4848",
"s 	c #494444",
"t 	c #929292",
"u 	c #444444",
"v 	c #5A5757",
"w 	c #343335",
"x 	c #4F4B4C",
"y 	c #4E4B4B",
"z 	c #4D4949",
"A 	c #484343",
"B 	c #656363",
"C 	c #0D0C0C",
"D 	c #9B9B9B",
"E 	c #999999",
"F 	c #3B373A",
"G 	c #969696",
"H 	c #9A9A9A",
"I 	c #474343",
"J 	c #282828",
"K 	c #9F9F9F",
"L 	c #9C9C9C",
"M 	c #454040",
"N 	c #353535",
"O 	c #313131",
"P 	c #939393",
"Q 	c #191919",
"R 	c #959595",
"S 	c #1D211C",
"T 	c #464141",
"U 	c #1A1016",
"V 	c #1A1115",
"W 	c #031B02",
"X 	c #020101",
"Y 	c #160D12",
"Z 	c #1B1117",
"` 	c #191014",
" .	c #021602",
"..	c #011302",
"+.	c #170E12",
"@.	c #1E171A",
"#.	c #474746",
"$.	c #000200",
"%.	c #010D01",
"&.	c #1F191C",
"*.	c #180F13",
"=.	c #1C1519",
"-.	c #031002",
";.	c #020F01",
">.	c #010C01",
",.	c #000100",
"'.	c #909090",
").	c #1C1419",
"!.	c #272225",
"~.	c #8C8C8C",
"{.	c #020F02",
"].	c #8F8F8F",
"^.	c #2E282B",
"/.	c #021002",
"(.	c #433F3F",
"_.	c #8C8D8C",
":.	c #080808",
"<.	c #252525",
"[.	c #979797",
"}.	c #030102",
"|.	c #524F51",
"1.	c #343032",
"2.	c #363234",
"3.	c #403C3B",
"4.	c #031603",
"5.	c #031404",
"6.	c #8B8B8B",
"7.	c #443F3F",
"8.	c #3F3B3B",
"9.	c #3B3739",
"0.	c #919191",
"a.	c #342F32",
"b.	c #444040",
"c.	c #403C3C",
"d.	c #222622",
"e.	c #8D8D8D",
"f.	c #3A3639",
"g.	c #383335",
"h.	c #433E3E",
"i.	c #20181C",
"j.	c #020102",
"k.	c #2A2427",
"l.	c #261F22",
"m.	c #231B1F",
"n.	c #312C2F",
"o.	c #2C2629",
"p.	c #21191D",
"q.	c #190F14",
"r.	c #231C20",
"s.	c #191116",
"t.	c #4A4749",
"u.	c #433F41",
"v.	c #353033",
"w.	c #030D02",
"x.	c #241E22",
"y.	c #040404",
"z.	c #020202",
"A.	c #575556",
"B.	c #1C1217",
"C.	c #1B1116",
"D.	c #3D393B",
"E.	c #393537",
"F.	c #221B1F",
"G.	c #241E21",
"H.	c #0B1107",
"I.	c #0E0E0E",
"J.	c #010302",
"K.	c #2F2A2D",
"L.	c #8A8A8A",
"M.	c #061806",
"N.	c #0D1A0E",
"O.	c #0A0C0A",
"P.	c #898989",
"Q.	c #8E8E8E",
"R.	c #878787",
"S.	c #413D3D",
"T.	c #535152",
"U.	c #474446",
"V.	c #010301",
"W.	c #030203",
"X.	c #363235",
"Y.	c #3E3B3D",
"Z.	c #393638",
"`.	c #060F05",
" +	c #0D170D",
".+	c #0A1007",
"++	c #180F15",
"@+	c #181114",
"#+	c #180F14",
"$+	c #1A1116",
"%+	c #1A1117",
"&+	c #160F11",
"*+	c #201B1D",
"=+	c #150E11",
"-+	c #180D13",
";+	c #181014",
">+	c #1B1519",
",+	c #1D1218",
"'+	c #1C171A",
")+	c #160E12",
"!+	c #1E151A",
"~+	c #1E1319",
"{+	c #180E13",
"                . + @       . # $ $ $ $ $ $ $ $ $ $ $ $ $ $ $ $ $ $ $ $ $ $ $ $ $ $ $ $ % .                           & . &     ",
"                & . &     & . * $ $ $ $ $ $ $ $ $ $ = - ; . . . > $ , ' . . ) $ $ $ $ ; .                                     & ",
"                        & . ! ~ $ $ $ $ $ $ $ { . . . . .       . ] ^ / &   . ( _ $ $ % .       . .       . &               & & ",
"    . &               & & . : ~ $ $ $ < . . . .                   . + @       . # $ $ [ } . . .             . & & & & & &     & ",
"      . & & & & & &     & . . : $ $ | .                           & . &     & . * $ $ 1 .                     . . . . . . & & . ",
"        . . . . . . & & . . 2 3 $ | .                                     & . ! ~ $ 4 .                                   . . 5 ",
"                    . . 6 7 8 9 $ | .       . .       . &               & & . : ~ $ .                                         . ",
"                        . . . 0 $ = a . . .             . & & & & & &     & . . : $ b &               &                         ",
"&                             . c d .                     . . . . . . & & . . 2 e ' f & &         & &                           ",
"                                g .                                   . . h i j k / f & & & & & & & &                           ",
"                                .                                         . . . l @ f & & & & & & &                             ",
"                                b &               &                             . m n o & p q . . r s &                         ",
"&                             & f & &         & &                                 . t u v w .     . x y z                   & & ",
"& &                   & & & . . f & & & & & & & &                                 . A B . .         . C . D E             & . . ",
"&                   & . . . . F f & & & & & & &                                   . G .                   . D H                 ",
"&                           & . f & & & . . & & & &                             & . I .                     J K L               ",
"&                               M . & . & & & & & & &                   & & & . . N O .                       . H     P t       ",
"& &                             & M . & & & & & & &                   & . . . . h E Q &                         . R h . S       ",
". & & &         &             & . T . & & & & & & &                           & . . & & &               &         . .   . . & & ",
"U . . & & &   & & & . & & & & . V . . & & & W & & &                               & & & & & &           . &           X . Y . . ",
"Z | `  ...& & & & . +.. . . . @.{ #.$.. & & . & & & &                             & & & & &           & . . & &     . %.&.$ *.*.",
"$ $ Z | =.. -.;.>.,.. '.'.'.. ).!./ & ~.. . {.. . . & & &         &             & . & & & & & &       & . ].. . . . t . ) ^.$ $ ",
"$ < . . . .                   . + @       . /.M M (.. . & & &   & & & . & & & & . _.. . & & . . & & :.<.. [.            }.|.1.$ ",
"| .                           & . &     & . 2.. & . M 3.4.5.& & & & . 6.. . . . ].G 7.8.. . . 9.. . t G 0.                . a.$ ",
".                                     & . ! ~ | . & & T b.c.. -.;.d.e.[.'.'.'.].G & . . . . f.g./ h.[.                      . 7 ",
".       . .       . &               & & . : ~ $ . & & & & & & &                           & . . & & &               &         . ",
"a . . .             . & & & & & &     & . . : $ }.& & & W & & &                               & & & & & &           . &         ",
".                     . . . . . . & & . . 2 3 $ | . & & . & & & &                             & & & & &           & . . & &     ",
"                                  . . 6 7 8 9 $ $ | . . $ . . . & & &         &             & . & & & & & &       & . i.. . . . ",
"                                      . . . 0 $ $ $ $ $ $ | | U . . & & &   & & & . & & & & . V . . & & . . & & . j.. , ' . . ) ",
"              &                             . c k.l.$ m.n.. . o.p.`  ...& & & & . q.. . . . @.a r.$.. . . . . . t . s.^ / &   . ",
"&         & &                                 . * t.u.F .     . v.7 k =.. -.;.w.q.$ ; ; x.. y.z.. [.'.0.G   P ].[.  . + @       ",
"& & & & & & &                                 . l.A.. .         . }.. ! l.$ $ $ $ $ $ | .                           & . &     & ",
"& & & & & &                                   . $ .                   . ) ^.$ $ $ $ | .                                     & . ",
"& & . . & & & &                             & . i..                     }.|.1.$ $ B.C..       . .       . &               & & . ",
"& . & & & & & & &                   & & & . . D.E..                       . a.$ - F.G.a . . .             . & & & & & &     & . ",
". & & & & & & &                   & . . . . F g./ &                         . 7 : . H..                     . . . . . . & & . . ",
". & & & & & & &                           & . . & & &               &         . . P .                                   . . 6 7 ",
"}.& & & W & & &                               & & & & & &           . &           .                                         . . ",
"| . & & . & & & &                             & & & & &           & . . & &     . b &               &                           ",
"$ | . . $ . . . & & &         &             & . & & & & & &       & . I.. . . . t f & &         & &                             ",
"$ $ $ $ o.. . ,.. . & & &   & & & . & & & & . J.. . & & . . & & :.<.. [.. + @     f & & & & & & & &                             ",
"K.. . . .     R h L.M.N.& & & & . 6.. . . . O.G t P.. . Q.h . . t G 0.  & . &     f & & & & & & &                               ",
".               [.G P R.. -.;.>.S.[.'.h.. . G     [.'.0.G   P ].[.              & f & & & . . & & & &                           ",
"                                    & . T..       . .       . &               & & ,.. & . & & & & & & &                   & & & ",
"      . .       . &               & & . U.a.. . .             . & & & & & &     & . . . & & & & & & &                   & . . . ",
". . .             . & & & & & &     & . V..                     . . . . . . & & . . 2 . & & & & & & &                           ",
"                    . . . . . . & & . g .                                   . . 6 7 8 W.& & & W & & &                           ",
"                                . . 5 .                                         . . . X.. & & . & & & &                         ",
"                                    . b &               &                             . Y.. . $ . . . & & &         &           ",
"            &                         f & &         & &                                 . * t.u.Z.. 0.. . & & &   & & & . & & & ",
"        & &                           f & & & & & & & &                                 . l.A.. .   R h L. ...& & & & . q.. . . ",
"& & & & & &                           f & & & & & & &                                   . $ .         [.G P R.. -.;.`.q.$ ; ; ; ",
"& & & & &                              +& & & . . & & & &                             & . i..                     }.|.1.$ $ B.B.",
"& . . & & & &                         h . & . & & & & & & &                   & & & . . D.E..                       . a.$ - F.r.",
". & & & & & & &                   & & & . . & & & & & & &                   & . . . . F g./ &                         . 7 : . .+",
"& & & & & & &                   & . . . . . & & & & & & &                           & . . & & &               &         . .   . ",
"& & & & & & &                           T . & & & W & & &                               & & & & & &           . &           . C.",
"& & & W & & &                             h . & & . & & & &                             & & & & &           & . . & &     . Z $ ",
". & & . & & & &                             M . . T . . . & & &         &             & . & & & & & &       & . i.. . . . | $ $ ",
"% . . $ . . . & & &         &             & . & & & M M (.. . & & &   & & & . & & & & . V . . & & . . & & . j.. $ $ $ $ $ $ $ $ ",
"$ $ $ $ % % ++. . & & &   & & & . & & & & . @+. . & & . . M 3. ...& & & & . q.. . . . @.a | #+. . % | . . $+Z U $ $ $ $ $ $ $ $ ",
"$ $ $ $ $ $ %+% &+ ...& & & & . Y . . . . *+= % =+. . -+% . . ;+>+. -.;.w.q.$ ; ; ; % 8 ,+$ $ % ; $ $ | % $ $ $ $ $ $ $ $ $ $ $ ",
"$ $ $ $ $ $ $ $ %+% '+. -.;.%.)+$ *.*.*.-+!+~+$ $ {+#+$ $ % -+$ $ $ $ $ $ $ $ $ $ $ $ $ $ $ $ $ $ $ $ $ $ $ $ $ $ $ $ $ $ $ $ $ "};
