/* XPM */
static char * wall_center_top_xpm[] = {
"64 64 44 1",
" 	c None",
".	c #422835",
"+	c #1C1117",
"@	c #D6CBB6",
"#	c #DED6C5",
"$	c #756760",
"%	c #523A42",
"&	c #88776F",
"*	c #301D27",
"=	c #2C1B24",
"-	c #94857E",
";	c #3B3328",
">	c #432935",
",	c #482E3A",
"'	c #472E3A",
")	c #432936",
"!	c #3E2632",
"~	c #442B37",
"{	c #49303B",
"]	c #472E39",
"^	c #402934",
"/	c #442A37",
"(	c #48303B",
"_	c #462E39",
":	c #482F3A",
"<	c #3E2731",
"[	c #3E2631",
"}	c #422935",
"|	c #4A313C",
"1	c #432A36",
"2	c #482F3B",
"3	c #412834",
"4	c #3D2631",
"5	c #472F3A",
"6	c #3F2732",
"7	c #4A303C",
"8	c #442A36",
"9	c #452B37",
"0	c #3E2732",
"a	c #412835",
"b	c #402833",
"c	c #412734",
"d	c #3F2733",
"e	c #472F39",
"................................................................",
"................................................................",
"................................................................",
"................................................................",
"................................................................",
"................................................................",
"................++++++++++++++++++++++++++++++++.@###...........",
"................+$$$+$$$$%+$$$$$$$$$$+%$$$$+$$$+@@@@##..........",
"................+$$$+$$$$$+$$$$$$$$$$+$$$$$+$$$++@++@#..........",
"................+$$$+&&&&&+&&&&&&&&&&+&&&&&+$$$++@++@@..........",
"................+$$$*%%%%%+%%%%%%%%%%+%%%%%*$$$+@+@@@=..........",
"................+$$$*.....+..........+.....*$$$+@.@===..........",
"................+---*..*..+..........+..*..*---+................",
"................++++*++++++++++++++++++++++*++++................",
"................+$$$*%%%%;%+%%*%%*%%+%;%%%%*$$$+.....@###.......",
"................+$$$*...;..+........+..;...*$$$+....@@@@##......",
"................+$$$*...;..+........+..;...*$$$+....+@++@#......",
"................+$$$*++++++++++++++++++++++*$$$+....+@++@@......",
"................+$$$*;%%+%%%%;%%%%;%%%%+%%;*$$$+>...@+@@@=......",
"................+---*;..+....;....;....+..;*---+,...@.@===......",
"................++++*...+...*......*...+...*++++'.))>...........",
"............>)).+$$$*++++++++++++++++++++++*$$$+!~{{]...........",
"............]{{^+$$$*+%%%%;%%+%%%%+%%;%%%%+*$$$+/({]!...........",
"............!_{:+$$$*+....;..+;..;+..;....+*$$$+]<[!}>..........",
"...........>}![<+$$$*+.*.....+....+.....*.+*$$$+|{'1:]..........",
"...........]:1]{+$$$                        $$$+||234!..........",
"...........!43:|+$$$                        $$$+||2>.}).........",
"..........>}.}2|+$$$                        $$$+||{]1:'.........",
"..........]:1]{{++++                        ++++|546.[!>))......",
".......)))![.64[+---                        ---+|:/{{:1{{'......",
".......'{{1'{{/'+$$$                        $$$+|{7||:1{5!......",
".......!]{8:||7{+$$$                        $$$+29{{]!34[3......",
".......3[43!]{{~+$$$                        $$$+|]0[!a.a........",
".........a.a![<.+$$$                        $$$+||{_............",
"............._{{+$$$                        $$$+||]!....))......",
".......))....!_{++++                        ++++|2}..../{2......",
".......2{/....![+---                        ---+|2)...):{:......",
".......:{:)....'+$$$                        $$$+||:))).0[[......",
".......[[0.))):|+$$$                        $$$+|||{({{{:.......",
"........:{{(:{||+$$$                        $$$+|||5b|||:.......",
"........{|{b45||+$$$                        $$$+||{:1{{]!.......",
"........:{bc.:{|+$$$                        $$$+|5d>344[3.......",
"........[43).>de+$$$                        $$$+||:).}..........",
"..........:{8>'|+$$$                        ++++||{]1:'.........",
"..........:{8]{|++++                        ---+|546.[!.........",
"..........![.64]+---                        $$$+|:/{{:..........",
"...........5{{/:+$$$                        $$$+|{7||:..........",
"...........:||7{+$$$                        $$$+,~{{]!..........",
"...........):{{~+$$$                        $$$+).<[!a..........",
"............![<a+$$$                        $$$+{{{_............",
"............._{{+$$$                        $$$+~{_!............",
".............!_{+$$$                        ++++c4!.............",
"..............!4+$$$                        ---+.a..............",
"...............a+$$$                        $$$+................",
"................++++                        $$$+................",
"................+---                        $$$+................",
"................+$$$                        $$$+................",
"................+$$$                        $$$+................",
"................+$$$                        ++++................",
"................+$$$                        ---+................",
"................+$$$                        $$$+................",
"................++++                        $$$+................",
"................+---                        $$$+................",
"................+$$$                        $$$+................"};
