/* XPM */
static char * wall_top1_xpm[] = {
"64 64 13 1",
" 	c None",
".	c #756760",
"+	c #1C1117",
"@	c #301D27",
"#	c #88776F",
"$	c #523A42",
"%	c #422835",
"&	c #7A3333",
"*	c #BF7B3F",
"=	c #38262D",
"-	c #DBC244",
";	c #917F6B",
">	c #3A232F",
"                                                                ",
"                                                                ",
"                                                                ",
"                                                                ",
"                                                                ",
"                                                                ",
"                                                                ",
"                                                                ",
"                                                                ",
"                                                                ",
"                                                                ",
"                                                                ",
"                                                                ",
"                                                                ",
"                                                                ",
"                                                                ",
"                                                                ",
"                                                                ",
"                                                                ",
"                                                                ",
"                                                                ",
"                                                                ",
"                                                                ",
"                                                                ",
"                                                                ",
"                                                                ",
"                                                                ",
"                                                                ",
"                                                                ",
"                                                                ",
"                                                                ",
"........+...+............+...+....+......+...+....+......+.....@",
"######$#+###+##########$#+###+####+####$#+###+####+####$#+#####@",
"$$$$$$$$+$$$+$$$$$$$$$$$$+$$$+$$$$+$$$$$$+$$$+$$$$+$$$$$$+$$$$$@",
"%%%%%%%%+%%%+%%%%%%%%%%%%+%%%+%%%%+%%%%%%+%%%+%%%%+%%%%%%+%%%%%@",
"%%%%@%%%+%%@+%%%%%%%%@%%%+%%@+%%%%+%%@%%%+%%@+%%%%+%%@%%%+%%%%@@",
"++++++++++++++++++++++++++++++++&++++++++++++++++++++++++++++++@",
"$$$+$$$$$+$$$$$$$$$$+$$$$$+$$+$$&$$$$$$$$$+$$$$$$$+$$$$$$$+$$$$@",
"%%%+%%%%%+%%%%%%%%%%+%%%%%+%%+%&*&%%%%%%%%+%%%%%%%+%%%%%%%+%%%%@",
"%%%+%%%@%+%@%%%%%%%%+%%%@%+%%+%**&%@%%%%@%+%@%%%%%+%%%%@%%+%@%%@",
"++++++++++++++++++++++++++++++&**&+++++++++++++++++++++++++++++@",
"$$$$$$+$$$$$$+=$$$$$$$$+$$$$$&*-**$$$$$+$$$$$$+=$$$$$$$+$$$$$$+@",
"%%%%%%+%%%%%%+%%%%%%%%%+%%%%@*---*&@%%%+%%%%%%+%%%%%%%%+%%%%%%+@",
"%%@%%%+%%%%%%+%%%%%@%%%+%%%%@*---*&@%%%+%%%%%%+%%%%@%%%+%%%%%%+@",
"++++++++++++++++++++++++++++@**-**.@+++++++++++++++++++++++++++@",
"$$$+$$$$$+$$$$$$$$$$+$$$$$+$@.***..@$$$$$$+$$$$$$$+$$$$$$$+$$$$@",
"%%%+%%%%%+%%%%%%%%%%+%%%%%+%@......@%%%%%%+%%%%%%%+%%%%%%%+%%%%@",
"%%%+%%%@%+%@%%%%%%%%+%%%@%+%$;;;;;;$%%%%@%+%@%%%%%+%%%%@%%+%@%%@",
"++++++++++++++++++++++++++++@>>>>>>@+++++++++++++++++++++++++++@",
"$$$$$$+$$$$$$+=$$$$$$$$+$$$$@>>>>>>@$$$+$$$$$$+=$$$$$$$+$$$$$$+@",
"%%%%%%+%%%%%%+%%%%%%%%%+%%%%@>>>>>>@%%%+%%%%%%+%%%%%%%%+%%%%%%+@",
"%%@%%%+%%%%%%+%%%%%@%%%+%%%%@>>>>>>@%%%+%%%%%%+%%%%@%%%+%%%%%%+@",
"++++++++++++++++++++++++++++@>>>>>>@+++++++++++++++++++++++++++@",
"$$$+$$$$$+$$$$$$$$$$+$$$$$+$@>>>>>>@$$$$$$+$$$$$$$+$$$$$$$+$$$$@",
"%%%+%%%%%+%%%%%%%%%%+%%%%%+%@>>>>>>@%%%%%%+%%%%%%%+%%%%%%%+%%%%@",
"%%%+%%%@%+%@%%%%%%%%+%%%@%+%@@@@@@@@%%%%@%+%@%%%%%+%%%%@%%+%@%%@",
"+++++++++++++++++++++++++++++++++++++++++++++++++++++++++++++++@",
"$$$$$$+$$$$$$+=$$$$$$$$+$$$$$$+=$$$$$$$+$$$$$$+=$$$$$$$+$$$$$$+@",
"%%%%%%+%%%%%%+%%%%%%%%%+%%%%%%+%%%%%%%%+%%%%%%+%%%%%%%%+%%%%%%+@",
"%%@%%%+%%%%%%+%%%%%@%%%+%%%%%%+%%%%@%%%+%%%%%%+%%%%@%%%+%%%%%%+@",
"+++++++++++++++++++++++++++++++++++++++++++++++++++++++++++++++@",
"$$$+$$$$$+$$$$$$$$$$+$$$$$+$$$$$$$+$$$$$$$+$$$$$$$+$$$$$$$+$$$$@",
"%%%+%%%%%+%%%%%%%%%%+%%%%%+%%%%%%%+%%%%%%%+%%%%%%%+%%%%%%%+%%%%@",
"%%%+%%%@%+%@%%%%%%%%+%%%@%+%@%%%%%+%%%%%@%+%@%%%%%+%%%%@%%+%@%%@"};
