/* XPM */
static char * wall_center_xpm[] = {
"64 64 95 2",
"  	c None",
". 	c #422835",
"+ 	c #1C1117",
"@ 	c #756760",
"# 	c #523A42",
"$ 	c #88776F",
"% 	c #301D27",
"& 	c #94857E",
"* 	c #3B3328",
"= 	c #432935",
"- 	c #482E3A",
"; 	c #472E3A",
"> 	c #432936",
", 	c #3E2632",
"' 	c #442B37",
") 	c #49303B",
"! 	c #472E39",
"~ 	c #402934",
"{ 	c #442A37",
"] 	c #48303B",
"^ 	c #462E39",
"/ 	c #482F3A",
"( 	c #3E2731",
"_ 	c #3E2631",
": 	c #422935",
"< 	c #4A313C",
"[ 	c #432A36",
"} 	c #482F3B",
"| 	c #412834",
"1 	c #3D2631",
"2 	c #472F3A",
"3 	c #3F2732",
"4 	c #4A303C",
"5 	c #442A36",
"6 	c #452B37",
"7 	c #3E2732",
"8 	c #412835",
"9 	c #402833",
"0 	c #76615B",
"a 	c #412734",
"b 	c #87756D",
"c 	c #7D4E4B",
"d 	c #3F2733",
"e 	c #472F39",
"f 	c #753932",
"g 	c #AA673B",
"h 	c #60393E",
"i 	c #7A3734",
"j 	c #C07B3F",
"k 	c #844E38",
"l 	c #A6673B",
"m 	c #C68F40",
"n 	c #BA853E",
"o 	c #6C3334",
"p 	c #20141B",
"q 	c #5E262D",
"r 	c #BA7B3E",
"s 	c #DAC144",
"t 	c #B5783D",
"u 	c #1C1120",
"v 	c #4C353D",
"w 	c #5D3D3E",
"x 	c #BA7A40",
"y 	c #D4B243",
"z 	c #B7783C",
"A 	c #3B2934",
"B 	c #3E2532",
"C 	c #5D504D",
"D 	c #8A6C5A",
"E 	c #C18140",
"F 	c #866755",
"G 	c #361F2C",
"H 	c #402633",
"I 	c #655650",
"J 	c #7C6D63",
"K 	c #7D6D62",
"L 	c #76675E",
"M 	c #3B2330",
"N 	c #27181F",
"O 	c #5C4A46",
"P 	c #6C5B50",
"Q 	c #68574E",
"R 	c #34212A",
"S 	c #36202C",
"T 	c #3A232F",
"U 	c #39222E",
"V 	c #352827",
"W 	c #3F2632",
"X 	c #21141B",
"Y 	c #281821",
"Z 	c #331F2A",
"` 	c #35202B",
" .	c #291921",
"..	c #392F28",
"+.	c #1F1319",
". . . . . . . . . . . . . . . . . . . . . . . . . . . . . . . . . . . . . . . . . . . . . . . . . . . . . . . . . . . . . . . . ",
". . . . . . . . . . . . . . . . . . . . . . . . . . . . . . . . . . . . . . . . . . . . . . . . . . . . . . . . . . . . . . . . ",
". . . . . . . . . . . . . . . . . . . . . . . . . . . . . . . . . . . . . . . . . . . . . . . . . . . . . . . . . . . . . . . . ",
". . . . . . . . . . . . . . . . . . . . . . . . . . . . . . . . . . . . . . . . . . . . . . . . . . . . . . . . . . . . . . . . ",
". . . . . . . . . . . . . . . . . . . . . . . . . . . . . . . . . . . . . . . . . . . . . . . . . . . . . . . . . . . . . . . . ",
". . . . . . . . . . . . . . . . . . . . . . . . . . . . . . . . . . . . . . . . . . . . . . . . . . . . . . . . . . . . . . . . ",
". . . . . . . . . . . . . . . . + + + + + + + + + + + + + + + + + + + + + + + + + + + + + + + + . . . . . . . . . . . . . . . . ",
". . . . . . . . . . . . . . . . + @ @ @ + @ @ @ @ # + @ @ @ @ @ @ @ @ @ @ + # @ @ @ @ + @ @ @ + . . . . . . . . . . . . . . . . ",
". . . . . . . . . . . . . . . . + @ @ @ + @ @ @ @ @ + @ @ @ @ @ @ @ @ @ @ + @ @ @ @ @ + @ @ @ + . . . . . . . . . . . . . . . . ",
". . . . . . . . . . . . . . . . + @ @ @ + $ $ $ $ $ + $ $ $ $ $ $ $ $ $ $ + $ $ $ $ $ + @ @ @ + . . . . . . . . . . . . . . . . ",
". . . . . . . . . . . . . . . . + @ @ @ % # # # # # + # # # # # # # # # # + # # # # # % @ @ @ + . . . . . . . . . . . . . . . . ",
". . . . . . . . . . . . . . . . + @ @ @ % . . . . . + . . . . . . . . . . + . . . . . % @ @ @ + . . . . . . . . . . . . . . . . ",
". . . . . . . . . . . . . . . . + & & & % . . % . . + . . . . . . . . . . + . . % . . % & & & + . . . . . . . . . . . . . . . . ",
". . . . . . . . . . . . . . . . + + + + % + + + + + + + + + + + + + + + + + + + + + + % + + + + . . . . . . . . . . . . . . . . ",
". . . . . . . . . . . . . . . . + @ @ @ % # # # # * # + # # % # # % # # + # * # # # # % @ @ @ + . . . . . . . . . . . . . . . . ",
". . . . . . . . . . . . . . . . + @ @ @ % . . . * . . + . . . . . . . . + . . * . . . % @ @ @ + . . . . . . . . . . . . . . . . ",
". . . . . . . . . . . . . . . . + @ @ @ % . . . * . . + . . . . . . . . + . . * . . . % @ @ @ + . . . . . . . . . . . . . . . . ",
". . . . . . . . . . . . . . . . + @ @ @ % + + + + + + + + + + + + + + + + + + + + + + % @ @ @ + . . . . . . . . . . . . . . . . ",
". . . . . . . . . . . . . . . . + @ @ @ % * # # + # # # # * # # # # * # # # # + # # * % @ @ @ + = . . . . . . . . . . . . . . . ",
". . . . . . . . . . . . . . . . + & & & % * . . + . . . . * . . . . * . . . . + . . * % & & & + - . . . . . . . . . . . . . . . ",
". . . . . . . . . . . . . . . . + + + + % . . . + . . . % . . . . . . % . . . + . . . % + + + + ; . > > = . . . . . . . . . . . ",
". . . . . . . . . . . . = > > . + @ @ @ % + + + + + + + + + + + + + + + + + + + + + + % @ @ @ + , ' ) ) ! . . . . . . . . . . . ",
". . . . . . . . . . . . ! ) ) ~ + @ @ @ % + # # # # * # # + # # # # + # # * # # # # + % @ @ @ + { ] ) ! , . . . . . . . . . . . ",
". . . . . . . . . . . . , ^ ) / + @ @ @ % + . . . . * . . + * . . * + . . * . . . . + % @ @ @ + ! ( _ , : = . . . . . . . . . . ",
". . . . . . . . . . . = : , _ ( + @ @ @ % + . % . . . . . + . . . . + . . . . . % . + % @ @ @ + < ) ; [ / ! . . . . . . . . . . ",
". . . . . . . . . . . ! / [ ! ) + @ @ @                                                 @ @ @ + < < } | 1 , . . . . . . . . . . ",
". . . . . . . . . . . , 1 | / < + @ @ @                                                 @ @ @ + < < } = . : > . . . . . . . . . ",
". . . . . . . . . . = : . : } < + @ @ @                                                 @ @ @ + < < ) ! [ / ; . . . . . . . . . ",
". . . . . . . . . . ! / [ ! ) ) + + + +                                                 + + + + < 2 1 3 . _ , = > > . . . . . . ",
". . . . . . . > > > , _ . 3 1 _ + & & &                                                 & & & + < / { ) ) / [ ) ) ; . . . . . . ",
". . . . . . . ; ) ) [ ; ) ) { ; + @ @ @                                                 @ @ @ + < ) 4 < < / [ ) 2 , . . . . . . ",
". . . . . . . , ! ) 5 / < < 4 ) + @ @ @                                                 @ @ @ + } 6 ) ) ! , | 1 _ | . . . . . . ",
". . . . . . . | _ 1 | , ! ) ) ' + @ @ @                                                 @ @ @ + < ! 7 _ , 8 . 8 . . . . . . . . ",
". . . . . . . . . 8 . 8 , _ ( . + @ @ @                                                 @ @ @ + < < ) ^ . . . . . . . . . . . . ",
". . . . . . . . . . . . . ^ ) ) + @ @ @                                                 @ @ @ + < < ! , . . . . > > . . . . . . ",
". . . . . . . > > . . . . , ^ ) + + + +                                                 + + + + < } : . . . . { ) } . . . . . . ",
". . . . . . . } ) { . . . . , _ + & & &                                                 & & & + < } > . . . > / ) / . . . . . . ",
". . . . . . . / ) / > . . . . ; + @ @ @                                                 @ @ @ + < < / > > > . 7 _ _ . . . . . . ",
". . . . . . . _ _ 7 . > > > / < + @ @ @                                                 @ @ @ + < < < ) ] ) ) ) / . . . . . . . ",
". . . . . . . . / ) ) ] / ) < < + @ @ @ + @ @ @ @ # + @ @ @ @ @ @ @ @ @ @ + # @ @ @ @ + @ @ @ + < < < 2 9 < < < / . . . . . . . ",
". . . . . . . . ) < ) 9 1 2 < < + @ @ @ + @ @ @ @ @ + @ @ @ @ 0 @ @ @ @ @ + @ @ @ @ @ + @ @ @ + < < ) / [ ) ) ! , . . . . . . . ",
". . . . . . . . / ) 9 a . / ) < + @ @ @ + $ $ $ $ $ + $ $ $ b c $ $ $ $ $ + $ $ $ $ $ + @ @ @ + < 2 d = | 1 1 _ | . . . . . . . ",
". . . . . . . . _ 1 | > . = d e + # # # # + # # # # + # # * f g h # # # # + # # # # + # # * * + < < / > . : . . . . . . . . . . ",
". . . . . . . . . . / ) 5 = ; < + . . . . + . . . . + . . . i j k . . . . + . . . . + . . . . + < < ) ! [ / ; . . . . . . . . . ",
". . . . . . . . . . / ) 5 ! ) < + . . . . + . . % . + . % . l m n o . . . + . . % . + . % . . + < 2 1 3 . _ , . . . . . . . . . ",
". . . . . . . . . . , _ . 3 1 ! + + + + + + + + + + + + p q r s s t u + + + + + + + + + + + + + < / { ) ) / . . . . . . . . . . ",
". . . . . . . . . . . 2 ) ) { / + % # # + # * # # # # + v w x y y z A # + # * # # # # + # # # + < ) 4 < < / . . . . . . . . . . ",
". . . . . . . . . . . / < < 4 ) + . . . + . . * . . . + B C D E E F G . + . . * . . . + . . . + - ' ) ) ! , . . . . . . . . . . ",
". . . . . . . . . . . > / ) ) ' + . . . + . . * . . . + H I J K K L M . + . . * . . . + . % . + > . ( _ , 8 . . . . . . . . . . ",
". . . . . . . . . . . . , _ ( 8 + + + + + + + + + + + + N O P P P Q R + + + + + + + + + + + + + ) ) ) ^ . . . . . . . . . . . . ",
". . . . . . . . . . . . . ^ ) ) + # * # # # # + # # * # v S T T T U V # # # # + # # * # # # # + ' ) ^ , . . . . . . . . . . . . ",
". . . . . . . . . . . . . , ^ ) + . * . . . . + . . * . W S T T T U V . . . . + . . * . . . . + a 1 , . . . . . . . . . . . . . ",
". . . . . . . . . . . . . . , 1 + . . % . . . + . . . . W S T T T U U % . . . + . . . . . . . + . 8 . . . . . . . . . . . . . . ",
". . . . . . . . . . . . . . . 8 + + + + + + + + + + + + X S T T T U Y + + + + + + + + + + + + + . . . . . . . . . . . . . . . . ",
". . . . . . . . . . . . . . . . + # + # # * # # # # + # v Z S S S `  .# # * # # # # + # # * # + . . . . . . . . . . . . . . . . ",
". . . . . . . . . . . . . . . . + * + . . * . . . . + . | W W W W ..+.. . * . . . . + . . . . + . . . . . . . . . . . . . . . . ",
". . . . . . . . . . . . . . . . + . + . . . . . % . + . % . . . . . + . . . . . % . + . % . . + . . . . . . . . . . . . . . . . ",
". . . . . . . . . . . . . . . . + + + + + + + + + + + + + + + + + + + + + + + + + + + + + + + + . . . . . . . . . . . . . . . . ",
". . . . . . . . . . . . . . . . . . . . . . . . . . . . . . . . . . . . . . . . . . . . . . . . . . . . . . . . . . . . . . . . ",
". . . . . . . . . . . . . . . . . . . . . . . . . . . . . . . . . . . . . . . . . . . . . . . . . . . . . . . . . . . . . . . . ",
". . . . . . . . . . . . . . . . . . . . . . . . . . . . . . . . . . . . . . . . . . . . . . . . . . . . . . . . . . . . . . . . ",
". . . . . . . . . . . . . . . . . . . . . . . . . . . . . . . . . . . . . . . . . . . . . . . . . . . . . . . . . . . . . . . . ",
". . . . . . . . . . . . . . . . . . . . . . . . . . . . . . . . . . . . . . . . . . . . . . . . . . . . . . . . . . . . . . . . ",
". . . . . . . . . . . . . . . . . . . . . . . . . . . . . . . . . . . . . . . . . . . . . . . . . . . . . . . . . . . . . . . . "};
