/* XPM */
static char * wall_center_between2_xpm[] = {
"64 64 11 1",
" 	c None",
".	c #422835",
"+	c #1C1117",
"@	c #756760",
"#	c #523A42",
"$	c #88776F",
"%	c #301D27",
"&	c #3B3328",
"*	c #223F4D",
"=	c #2B6380",
"-	c #38262D",
"................................................................",
"................................................................",
"................................................................",
"................................................................",
"................................................................",
"................................................................",
"++++++++++++++++++++++++++++++++++++++++++++++++++++++++++++++++",
"@@#+@@@@@@@@@@+#@@@@+@@@@#+@@@@@@@@@@@#+@@@@@@@@@@+#@@@@+@@@@#+@",
"@@@+@@@@@@@@@@+@@@@@+@@@@@+@@@@@@@@@@@@+@@@@@@@@@@+@@@@@+@@@@@+@",
"$$$+$$$$$$$$$$+$$$$$+$$$$$+$$$$$$$$$$$$+$$$$$$$$$$+$$$$$+$$$$$+$",
"###+##########+#####%#####+############+##########+#####%#####+#",
"...+..........+.....%.....+............+..........+.....%.....+.",
"%..+..........+..%..%..%..+.........%..+..........+..%..%..%..+.",
"++++++++++++++++++++%+++++++++++++++++++++++++++++++++++%+++++++",
"##&#+##%##%##+#&####%####&#+##%##%####&#+##%##%##+#&####%####&#+",
".&..+........+..&...%...&..+.........&..+........+..&...%...&..+",
".&..+........+..&...%...&..+.........&..+........+..&...%...&..+",
"++++++++++++++++++++%+++++++++++++++++++++++++++++++++++%+++++++",
"#+####&####&####+##&%&##+####&####&##+####&####&####+##&%&##+###",
".+....&....&....+..&%&..+....&....&..+....&....&....+..&%&..+...",
".+...%......%...+...%...+...%......%.+...%......%...+...%...+...",
"++++++++++++++++++++%+++++++++++++++++++++++++++++++++++%+++++++",
"###&##+####+##&####+%+####&##+####+####&##+####+##&####+%+####&#",
"...&..+&..&+..&....+%+....&..+&..&+....&..+&..&+..&....+%+....&.",
"%.....+....+.....%.+%+.%.....+....+.%.....+....+.....%.+%+.%....",
"                                                                ",
"                                                                ",
"                                                                ",
"                                                                ",
"                                                                ",
"                                                                ",
"                                                                ",
"                                                                ",
"                                                                ",
"                                                                ",
"                                                                ",
"                                                                ",
"                                                                ",
"                                                                ",
"@@@@@@@@@@+#@@@@+@@@+@@@@#+@@@@@@@@@@@@@@@@@@@+#@@@@+@@@+@@@@#+@",
"@@@@@@@@@@+@@@@@+@@@+@@@@@+@@@@@@@@@@@@@@@@@@@+@@@@@+@@@+@@@@@+@",
"$$$$$$$$$$+$$$$$+@@@+$$$$$+$$$$$$$$$$$$$$$$$$$+$$$$$+@@@+$$$$$+$",
"######&&##+####+#&&##+####+######&&#######&&##+####+#&&##+####+#",
".....&....+....+.....+....+.....&........&....+....+.....+....+.",
"........%.+.%..+...%.+.%..+........%........%.+..+%%%%%%.+.%..+.",
"+++++++++++++++++++++++++++++++++++++++++++++++++++***++++++++++",
"+##%#####+####&#+###+##+#%####+########%#####+##%+*===*++####&#+",
"+........+...&..+...+..+......+..............+..+*=+++=*+...&..+",
"+......%.+...&..+.%.+..+...%%%+%%..........%.+..+=+++++=+...&..+",
"++++++++++++++++++++++++++++***++++++++++++++++++=+++++=++++++++",
"##&##-+###&##+#######&###%+*===*++-###&##-+###&#+=%+++%=+&##+###",
"..&...+...&..+.......&...+*=+++=*+....&...+...&.%+=%%%=+%&..+...",
".%....+......+...........+=+++++=+...%....+......%+===+%....+...",
"++++++++++++++++++++++++++=+++++=+++++++++++++++++++++++++++++++",
"##+####&##+####&##&##+###+=%+++%=+#+##+####&##+####&##&##+####&#",
"..+&......+....&.....+...%+=%%%=+%.+..+&......+....&.....+....&.",
"..+.....%.+.%......%.+....%+===+%..+..+.....%.+.%......%.+.%....",
"++++++++++++++++++++++++++++++++++++++++++++++++++++++++++++++++",
"................................................................",
"................................................................",
"................................................................",
"................................................................",
"................................................................",
"................................................................"};
