/* XPM */
static char * wall_center_tri3_xpm[] = {
"64 64 41 1",
" 	c None",
".	c #422835",
"+	c #1C1117",
"@	c #94857E",
"#	c #756760",
"$	c #523A42",
"%	c #88776F",
"&	c #301D27",
"*	c #3B3328",
"=	c #432935",
"-	c #482E3A",
";	c #472E3A",
">	c #432936",
",	c #3E2632",
"'	c #442B37",
")	c #49303B",
"!	c #472E39",
"~	c #442A37",
"{	c #48303B",
"]	c #3E2731",
"^	c #3E2631",
"/	c #422935",
"(	c #4A313C",
"_	c #432A36",
":	c #482F3A",
"<	c #482F3B",
"[	c #412834",
"}	c #3D2631",
"|	c #472F3A",
"1	c #3F2732",
"2	c #4A303C",
"3	c #452B37",
"4	c #3E2732",
"5	c #412835",
"6	c #462E39",
"7	c #402833",
"8	c #3F2733",
"9	c #344727",
"0	c #447733",
"a	c #649154",
"b	c #412734",
".................+@@@                       ###+................",
".................+###                       ###+................",
".................+###                       ++++................",
".................+###                       @@@+................",
".................+###                       ###+................",
".................+###                       ###+................",
"+++++++++++++++++++++                       ###+................",
"####$+##########++@@@                       ###+................",
"#####+##########++###                       ++++................",
"%%%%%+%%%%%%%%%%++###                       @@@+................",
"$$$$$+$$$$$$$$$$++###                       ###+................",
".....+..........+....                       ###+................",
".....+..........+..&.                       ###+................",
"+++++++++++++++++++++                       ###+................",
"$$&$*$+$$&$$&$$+$*$$*                       ++++................",
"......+........+..*..                       @@@+................",
"......+........+..*..                       ###+................",
"+++++++++++++++++++++                       ###+................",
"$*$$$$$$*$$$$*$$$$+$$                       ###+=...............",
".*......*....*....+..                       ###+-...............",
"&......&......&...+..                       ++++;.>>=...........",
"+++++++++++++++++++++                       @@@+,'))!...........",
"$+$$$*$$+$$$$+$$*$$$$                       ###+~{)!,...........",
".+*..*..+*..*+..*....                       ###+!]^,/=..........",
".+......+....+.....&.                       ###+();_:!..........",
"                                            ###+((<[},..........",
"                                            ++++((<=./>.........",
"                                            @@@+(()!_:;.........",
"                                            ###+(|}1.^,=>>......",
"                                            ###+(:~)):_));......",
"                                            ###+()2((:_)|,......",
"                                            ###+<3))!,[}^[......",
"                                            ++++(!4^,5.5........",
"                                            @@@+(()6............",
"                                            ###+((!,....>>......",
"                                            ###+(</....~)<......",
"                                            ###+(<>...>:):......",
"                                            ###+((:>>>.4^^......",
"                                            ++++(((){))):.......",
"$+##############+####                       @@@+(((|7(((:.......",
"#+##############+####                       ###+(():_))!,.......",
"%+%%%%%%%%%%%%%%+####                       ###+(|8=[}}^[.......",
"$+$$**$$$$$$$$$$+####                       ###+((:>./..........",
".+....*.........+####                       ###+(()!_:;.........",
".+.&............+++++                       ++++(|}1.^,.........",
".+..&...+..&+.+++@@@@                       @@@+(:~)):..........",
"++++++++++++++$++####                       ###+()2((:..........",
"$$&++99+9++$$$.++####                       ###+-'))!,..........",
"...+900909+....++####                       ###+>.]^,5..........",
"..&+a00000+&..+++####                       ###+)))6............",
"+++++a0009++++$$+####                       ++++')6,............",
"$&$$$$a00$&$$+..+####                       @@@+b},.............",
"..&...a09.&..+&.+++++                       ###+.5..............",
"....&.a09....++++@@@@                       ###+................",
"++++++90++++++$$+####                       ###+................",
"$+$$$$$a$+&$$$..+####                       ###+................",
".+.....a.+......+####                       ++++................",
".+.....a9+...&+++####                       @@@+................",
"+++++a00099+++..+####                       ###+................",
"&&&&a00aa000&&..+++++                       ###+................",
".&&...000.......+@@@@                       ###+................",
"..&.......&..&..+####                       ###+................",
"&...............+####                       ++++................",
"................+####                       @@@+................"};
