/* XPM */
static char * wall_bot_xpm[] = {
"64 64 11 1",
" 	c None",
".	c #756760",
"+	c #1C1117",
"@	c #422835",
"#	c #140C1C",
"$	c #523A42",
"%	c #94857E",
"&	c #88776F",
"*	c #3B3328",
"=	c #301D27",
"-	c #38262D",
"...+++++++++++++++++@@@@@@@@@@@@@@@@@@@@@...+++++++++++++++++@@@",
"...#.....+$...+.....+....$+..........+$.....#.....+$...+.....+..",
"$..#.....+....+.....+.....+..........+...$..#.....+....+.....+..",
"%%%#&&&&&+&&&&+&&&&&+&&&&&+&&&&&&&&&&+&&&%%%#&&&&&+&&&&+&&&&&+&&",
"$$$+$$$$$+$$$$+$$**$$+$$$$+$$**$$$$$$+$$$$$$+$$$$$+$$$$+$$**$$+$",
"@@@+@@@@@+@@@@+@@@@*@+@@@@+@@@@*@@@@@+@@@@@@+@@@@@+@@@@+@@@@*@+@",
"@@@+@@@@@+@@=@+@=@@@@+@@=@+@=@@@@@@@@+@@=@@@+@@@@@+@@=@+@=@@@@+@",
"++++++++++++++++++++++++++++++++++++++++++++++++++++++++++++++++",
"$$$$$=$$+$*$$$$+$$$$+$*$$$$+$$$$$=$$+$*$$$$$$$=$$+$*$$$$+$$$$+$*",
"@@@@@@@@+@@*@@@+@@@@+@@*@@@+@@@@@@@@+@@*@@@@@@@@@+@@*@@@+@@@@+@@",
"@@@@@@@@+@@*@@@+@=@@+@@*@@@+@=@@@@@@+@@*@@@@@@@@@+@@*@@@+@=@@+@@",
"++++++++++++++++++++++++++++++++++++++++++++++++++++++++++++++++",
"$$+$$$*$$$$+$$*$$$+-$$$+$$*$$$+-$$*$$$$+$$$+$$$*$$$$+$$*$$$+-$$$",
"@@+@@@*@@@@+@@*@@@+@@@@+@@*@@@+@@@*@@@@+@@@+@@@*@@@@+@@*@@@+@@@@",
"@@+@@@@=@@@+@@@@@@+@@@@+@@@@@@+@@@@=@@@+@@@+@@@@=@@@+@@@@@@+@@@@",
"++++++++++++++++++++++++++++++++++++++++++++++++++++++++++++++++",
"$$$$$=$$+$*$$$$+$$$$+$*$$$$+$$$$$=$$+$*$$$$$$$=$$+$*$$$$+$$$$+$*",
"@@@@@@@@+@@*@@@+@@@@+@@*@@@+@@@@@@@@+@@*@@@@@@@@@+@@*@@@+@@@@+@@",
"@@@@@@@@+@@*@@@+@=@@+@@*@@@+@=@@@@@@+@@*@@@@@@@@@+@@*@@@+@=@@+@@",
"++++++++++++++++++++++++++++++++++++++++++++++++++++++++++++++++",
"$$$$$=$$+$*$$$$+$$$$+$*$$$$+$$$$$=$$+$*$$$$$$$=$$+$*$$$$+$$$$+$*",
"@@@@@@@@+@@*@@@+@@@@+@@*@@@+@@@@@@@@+@@*@@@@@@@@@+@@*@@@+@@@@+@@",
"@@@@@@@@+@@*@@@+@=@@+@@*@@@+@=@@@@@@+@@*@@@@@@@@@+@@*@@@+@=@@+@@",
"++++++++++++++++++++++++++++++++++++++++++++++++++++++++++++++++",
"$$+$$$*$$$$+$$*$$$+-$$$+$$*$$$+-$$*$$$$+$$$+$$$*$$$$+$$*$$$+-$$$",
"@@+@@@*@@@@+@@*@@@+@@@@+@@*@@@+@@@*@@@@+@@@+@@@*@@@@+@@*@@@+@@@@",
"@@+@@@@=@@@+@@@@@@+@@@@+@@@@@@+@@@@=@@@+@@@+@@@@=@@@+@@@@@@+@@@@",
"++++++++++++++++++++++++++++++++++++++++++++++++++++++++++++++++",
"$$$$$$+$$*$$$$+$$*$$$*$$$$+$$*$$$$+$$*$$$$$$$$$+$$*$$$$+$$*$$$*$",
"@@@@@*+@@*@@@@+@@@@@@*@@@@+@@@@@@*+@@*@@@@@@@@*+@@*@@@@+@@@@@@*@",
"@@=@@@+@@@@@=@+@=@@@@@@@=@+@=@@@@@+@@@@@=@@=@@@+@@@@@=@+@=@@@@@@",
"@@@@@@@@@@@@@@@@@@@@+++++++++++++++++++++@@@@@@@@@@@@@@@@@@@@+++",
"                                                                ",
"                                                                ",
"                                                                ",
"                                                                ",
"                                                                ",
"                                                                ",
"                                                                ",
"                                                                ",
"                                                                ",
"                                                                ",
"                                                                ",
"                                                                ",
"                                                                ",
"                                                                ",
"                                                                ",
"                                                                ",
"                                                                ",
"                                                                ",
"                                                                ",
"                                                                ",
"                                                                ",
"                                                                ",
"                                                                ",
"                                                                ",
"                                                                ",
"                                                                ",
"                                                                ",
"                                                                ",
"                                                                ",
"                                                                ",
"                                                                ",
"                                                                "};
