/* XPM */
static char * wall_center_allway_xpm[] = {
"64 64 16 1",
" 	c None",
".	c #422835",
"+	c #1C1117",
"@	c #94857E",
"#	c #756760",
"$	c #523A42",
"%	c #88776F",
"&	c #301D27",
"*	c #3B3328",
"=	c #140C11",
"-	c #1D1218",
";	c #21141B",
">	c #23151D",
",	c #4B323D",
"'	c #38262D",
")	c #472E3A",
"................++++                        ++++................",
"................+@@@                        @@@+................",
"................+###                        ###+................",
"................+###                        ###+................",
"................+###                        ###+................",
"................+###                        ###+................",
"++++++++++++++++++++                        ++++++++++++++++++++",
"#############+$##$##                        @@@+#########+$##$##",
"#############+######                        ###+#########+######",
"%%%%%%%%%%%%%+%%%%%%                        ###+%%%%%%%%%+%%%%%%",
"$$$$$$$$$$$$$+$$$$$$                        ###+$$$$$$$$$+$$$$$$",
".............+......                        ###+.........+......",
".............+..&..&                        +.+..........+..&..&",
"++++++++++++++++++++                        ++++++++++++++++++++",
"&$$&$$&$$&$$+$*$$*$$                        +*$+$$&$$&$$+$*$$*$$",
"............+..*..*.                        +..+........+..*..*.",
"............+..*..*.                        +..+........+..*..*.",
"++++++++++++++++++++                        ++++++++++++++++++++",
"$$$$$*$$$$*$$$$+$$+$                        +$$$$*$$$$*$$$$+$$+$",
".....*....*....+..+.                        +....*....*....+..+.",
"....&......&...+..+.                        +...&......&...+..+.",
"++++++++++++++++++++                        ++++++++++++++++++++",
"$$$$$+$$$$+$$*$$$$$$                        +$*$$+$$$$+$$*$$$$$$",
"*..*.+*..*+..*......                        +.*..+*..*+..*......",
".....+....+.....&..&                        +....+....+.....&..&",
"                                                                ",
"                                                                ",
"                                                                ",
"                                                                ",
"                                                                ",
"                                                                ",
"                                                                ",
"       ++++++++++                              ++++++++++       ",
"      ++++++++++++                            ++++++++++++      ",
"     +++&+&+&+&+&++                          +++&+&+&+&+&++     ",
"     ++&+&+&+&+&+&+                          ++&+&+&+&+&+&+     ",
"     +$&&+&&&+&&&$+                          +$&&+&&&+&&&$+     ",
"     +.$+&+&+&&&$.+                          +.$+&+&+&&&$.+     ",
"    ++..$$$$$$$$.++++                      ++++.$$$$$$$$..++    ",
"##$+.&=..........+@@@                      @@@+..........-..####",
"###+#$;;........;+###                      ###+;........;=$#####",
"%%%+#$;&>;;;;;;>&+###                      ###+&>;;;;;;>&;$#%%%%",
"$$$+%$;.&&&&&&&&.+###                      ###+.&&&&&&&&.;$%$$$$",
"...+$&;..&....&..+###                      ###+..&....&..;&$....",
".&.+.&;..&....&..++++                      ++++..&....&..;&.....",
"++++.&;;,&....&,>+@@@                      @@@+;,&....&,>;&.++++",
"$$$$++;.;.,,,,.;.+###                      ###+.;.,,,,.;.;++&$$+",
"*...$&;..>;;;;>..+###                      ###+..>;;;;>..;&$...+",
"*....&;..&....&..+###                      ###+..&....&..;&....+",
"++++.&;..&....&..+###                      ###+..&....&..;&.++++",
"+$$*++;..&....&..++++                      ++++..&....&..;++$*$$",
"+..*$&>..&....&..+@@@                      @@@+..&....&..;&'.*..",
"+....&;>,&....&,;+###                      ###+>,&....&,;;&...&.",
"++++.&;.;.,,,,.;.+###                      ###+.;.,,,,.;.;&.++++",
"$$$+++;..>;;;;>..+###                      ###+..>;;;;>..;++$+$$",
"...+$&;..&....&..+###                      ###+..&....&..;&$*+..",
".&.+.&;..&....&..++++                      ++++..&....&..;&..+..",
"++++.;>..&....&..+@@@                      @@@+..&....&..>;.++++",
"....+;&;,&....&,;+###                      ###+;,&....&,;&;+....",
"....&;.&;.,,,,.;&+###                      ###+&;.,,,,.;&.>&....",
"....&&>.,>;;;;>).++++                     +++++.,>;;;;>).;&&....",
"......&>>,,,,,,>>+@@@                     +@@@+>>,,,,,,>>&......",
".....&&.&>;;;;>&.+###                     +###+.&>;;;;>&..&.....",
".......&....&...&+###                     +###+&....&...&......."};
