/* XPM */
static char * wall_left_xpm[] = {
"64 64 4 1",
" 	c None",
".	c #1C1117",
"+	c #756760",
"@	c #94857E",
"                                                            .+++",
"                                                            .+++",
"                                                            .@@@",
"                                                            ....",
"                                                            .+++",
"                                                            .+++",
"                                                            .+++",
"                                                            .+++",
"                                                            .+++",
"                                                            .+++",
"                                                            .+++",
"                                                            .+++",
"                                                            .@@@",
"                                                            ....",
"                                                            .+++",
"                                                            .+++",
"                                                            .+++",
"                                                            .+++",
"                                                            .@@@",
"                                                            ....",
"                                                            .+++",
"                                                            .+++",
"                                                            .+++",
"                                                            .+++",
"                                                            .+++",
"                                                            .+++",
"                                                            .@@@",
"                                                            ....",
"                                                            .+++",
"                                                            .+++",
"                                                            .+++",
"                                                            .+++",
"                                                            .+++",
"                                                            .+++",
"                                                            .+++",
"                                                            .+++",
"                                                            .@@@",
"                                                            ....",
"                                                            .+++",
"                                                            .+++",
"                                                            .+++",
"                                                            .+++",
"                                                            .@@@",
"                                                            ....",
"                                                            .+++",
"                                                            .+++",
"                                                            .+++",
"                                                            .+++",
"                                                            .+++",
"                                                            .+++",
"                                                            .@@@",
"                                                            ....",
"                                                            .+++",
"                                                            .+++",
"                                                            .+++",
"                                                            .+++",
"                                                            .+++",
"                                                            .@@@",
"                                                            ....",
"                                                            .+++",
"                                                            .+++",
"                                                            .+++",
"                                                            .+++",
"                                                            .+++"};
