/* XPM */
static char * wall_center_tri4_xpm[] = {
"64 64 41 1",
" 	c None",
".	c #422835",
"+	c #1C1117",
"@	c #756760",
"#	c #94857E",
"$	c #523A42",
"%	c #88776F",
"&	c #301D27",
"*	c #3B3328",
"=	c #432935",
"-	c #482E3A",
";	c #432936",
">	c #472E3A",
",	c #472E39",
"'	c #49303B",
")	c #442B37",
"!	c #3E2632",
"~	c #48303B",
"{	c #442A37",
"]	c #422935",
"^	c #3E2631",
"/	c #3E2731",
"(	c #482F3A",
"_	c #432A36",
":	c #4A313C",
"<	c #3D2631",
"[	c #412834",
"}	c #482F3B",
"|	c #3F2732",
"1	c #472F3A",
"2	c #4A303C",
"3	c #452B37",
"4	c #412835",
"5	c #3E2732",
"6	c #462E39",
"7	c #402833",
"8	c #3F2733",
"9	c #344727",
"0	c #447733",
"a	c #649154",
"b	c #412734",
"................+@@@                       ###+.................",
"................+@@@                       @@@+.................",
"................++++                       @@@+.................",
"................+###                       @@@+.................",
"................+@@@                       @@@+.................",
"................+@@@                       @@@+.................",
"................+@@@                       +++++++++++++++++++++",
"................+@@@                       ###++@@@@@@@@@@+$@@@@",
"................++++                       @@@++@@@@@@@@@@+@@@@@",
"................+###                       @@@++%%%%%%%%%%+%%%%%",
"................+@@@                       @@@++$$$$$$$$$$+$$$$$",
"................+@@@                       ....+..........+.....",
"................+@@@                       .&..+..........+.....",
"................+@@@                       +++++++++++++++++++++",
"................++++                       *$$*$+$$&$$&$$+$*$&$$",
"................+###                       ..*..+........+......",
"................+@@@                       ..*..+........+......",
"................+@@@                       +++++++++++++++++++++",
"...............=+@@@                       $$+$$$$*$$$$*$$$$$$*$",
"...............-+@@@                       ..+....*....*......*.",
"...........=;;.>++++                       ..+...&......&......&",
"...........,'')!+###                       +++++++++++++++++++++",
"...........!,'~{+@@@                       $$$$*$$+$$$$+$$*$$$+$",
"..........=]!^/,+@@@                       ....*..+*..*+..*..*+.",
"..........,(_>':+@@@                       .&.....+....+......+.",
"..........!<[}::+@@@                                            ",
".........;].=}::++++                                            ",
".........>(_,'::+###                                            ",
"......;;=!^.|<1:+@@@                                            ",
"......>''_(''{(:+@@@                                            ",
"......!1'_(::2':+@@@                                            ",
"......[^<[!,''3}+@@@                                            ",
"........4.4!^5,:++++                                            ",
"............6'::+###                                            ",
"......;;....!,::+@@@                                            ",
"......}'{....]}:+@@@                                            ",
"......('(;...;}:+@@@                                            ",
"......^^5.;;;(::+@@@                                            ",
".......('''~':::++++                                            ",
".......(:::71:::+###                       @@@@+@@@@@@@@@@@@@@+$",
".......!,''_('::+@@@                       @@@@+@@@@@@@@@@@@@@+@",
".......[^<<[=81:+@@@                       @@@@+%%%%%%%%%%%%%%+%",
"..........].;(::+@@@                       @@@@+$$$$$$$$$$**$$+$",
".........>(_,'::+@@@                       @@@@+.........*....+.",
".........!^.|<1:++++                       +++++............&.+.",
"..........(''{(:+###                       ####+++.+&..+...&..+.",
"..........(::2':+@@@                       @@@@++$++++++++++++++",
"..........!,'')-+@@@                       @@@@++.$$$++9+99++&$$",
"..........4!^/.;+@@@                       @@@@++....+909009+...",
"............6'''+@@@                       @@@@+++..&+00000a+&..",
"............!6')++++                       @@@@+$$++++9000a+++++",
".............!<b+###                       @@@@+..+$$&$00a$$$$&$",
"..............4.+@@@                       +++++.&+..&.90a...&..",
"................+@@@                       ####++++....90a.&....",
"................+@@@                       @@@@+$$++++++09++++++",
"................+@@@                       @@@@+..$$$&+$a$$$$$+$",
"................++++                       @@@@+......+.a.....+.",
"................+###                       @@@@+++&...+9a.....+.",
"................+@@@                       @@@@+..+++99000a+++++",
"................+@@@                       +++++..&&000aa00a&&&&",
"................+@@@                       ####+.......000...&&.",
"................+@@@                       @@@@+..&..&.......&..",
"................++++                       @@@@+...............&",
"................+###                       @@@@+................"};
