/* XPM */
static char * wall_center_bot_left_xpm[] = {
"64 64 40 1",
" 	c None",
".	c #422835",
"+	c #1C1117",
"@	c #94857E",
"#	c #756760",
"$	c #523A42",
"%	c #88776F",
"&	c #301D27",
"*	c #3B3328",
"=	c #432935",
"-	c #432936",
";	c #472E39",
">	c #49303B",
",	c #402934",
"'	c #3E2632",
")	c #462E39",
"!	c #482F3A",
"~	c #422935",
"{	c #3E2631",
"]	c #3E2731",
"^	c #432A36",
"/	c #3D2631",
"(	c #412834",
"_	c #4A313C",
":	c #482F3B",
"<	c #3F2732",
"[	c #472E3A",
"}	c #442A37",
"|	c #442A36",
"1	c #4A303C",
"2	c #442B37",
"3	c #412835",
"4	c #3E2732",
"5	c #48303B",
"6	c #402833",
"7	c #472F3A",
"8	c #412734",
"9	c #3F2733",
"0	c #472F39",
"a	c #38262D",
"................++++                        ++++................",
"................+@@@                        @@@+................",
"................+###                        ###+................",
"................+###                        ###+................",
"................+###                        ###+................",
"................+###                        ###+................",
"................+###                        ++++++++++++++++++++",
"................++++                        @@@+#########+$##$##",
"................+@@@                        ###+#########+######",
"................+###                        ###+%%%%%%%%%+%%%%%%",
"................+###                        ###+$$$$$$$$$+$$$$$$",
"................+###                        ###+.........+......",
"................+###                        +.+..........+..&..&",
"................+###                        ++++++++++++++++++++",
"................+###                        +*$+$$&$$&$$+$*$$*$$",
"................+###                        +..+........+..*..*.",
"................++++                        +..+........+..*..*.",
"................+@@@                        ++++++++++++++++++++",
"................+###                        +$$$$*$$$$*$$$$+$$+$",
"................+###                        +....*....*....+..+.",
"................+###                        +...&......&...+..+.",
"............=--.+###                        ++++++++++++++++++++",
"............;>>,+###                        +$*$$+$$$$+$$*$$$$$$",
"............')>!+###                        +.*..+*..*+..*......",
"...........=~'{]+###                        +....+....+.....&..&",
"...........;!^;>+###                                            ",
"...........'/(!_++++                                            ",
"..........=~.~:_+@@@                                            ",
"..........;!^;>>+###                                            ",
".......---'{.</{+###                                            ",
".......[>>^[>>}[+###                                            ",
".......';>|!__1>+###                                            ",
".......({/(';>>2+###                                            ",
".........3.3'{].++++                                            ",
".............)>>+@@@                                            ",
".......--....')>+###                                            ",
".......:>}....'{+@@@                                            ",
".......!>!-....[+###                                            ",
".......{{4.---!_+###                                            ",
"........!>>5!>__+###+####$+##########+$####+###+####$+##########",
"........>_>6/7__+###+#####+##########+#####+###+#####+##########",
"........!>68.!>_+###+%%%%%+%%%%%%%%%%+%%%%%+###+%%%%%+%%%%%%%%%%",
"........{/(-.=90+$$$$+$$$$+$$**$$$$$$+$$$$+$$**$+$$$$+$$**$$$$$$",
"..........!>|=[_+....+....+....*.....+....+.....+....+....*.....",
"..........!>|;>_+....+..&.+.&........+..&.+.&...+..&.+.&........",
"..........'{.</;++++++++++++++++++++++++++++++++++++++++++++++++",
"...........7>>}!+&$$+$*$$$$+$$$$$&$$+$*$$$$+$$$+$*$$$$+$$$$$&$$+",
"...........!__1>+...+..*...+........+..*...+...+..*...+........+",
"...........-!>>2+...+..*...+.&......+..*...+.&.+..*...+.&......+",
"............'{]3++++++++++++++++++++++++++++++++++++++++++++++++",
".............)>>+$*$$$$+$$*$$$+a$$*$$$$+$$*$$$$$$$+$$*$$$+a$$*$$",
".............')>+.*....+..*...+...*....+..*.......+..*...+...*..",
"..............'/+..&...+......+....&...+..........+......+....&.",
"...............3++++++++++++++++++++++++++++++++++++++++++++++++",
"................+$+$$*$$$$+$$*$$$$+$$*$$$$+$$*$$*$$$$+$$*$$$$+$$",
"................+*+..*....+......*+..*....+.....*....+......*+..",
"................+.+.....&.+.&.....+.....&.+.&......&.+.&.....+..",
"................++++++++++++++++++++++++++++++++++++++++++++++++",
"................................................................",
"................................................................",
"................................................................",
"................................................................",
"................................................................",
"................................................................"};
