/* XPM */
static char * wall_center_between_xpm[] = {
"64 64 40 1",
" 	c None",
".	c #422835",
"+	c #1C1117",
"@	c #756760",
"#	c #94857E",
"$	c #D6CBB6",
"%	c #DED6C5",
"&	c #2C1B24",
"*	c #432935",
"=	c #482E3A",
"-	c #472E3A",
";	c #432936",
">	c #3E2632",
",	c #442B37",
"'	c #49303B",
")	c #472E39",
"!	c #402934",
"~	c #442A37",
"{	c #48303B",
"]	c #462E39",
"^	c #482F3A",
"/	c #3E2731",
"(	c #3E2631",
"_	c #422935",
":	c #4A313C",
"<	c #432A36",
"[	c #482F3B",
"}	c #412834",
"|	c #3D2631",
"1	c #472F3A",
"2	c #3F2732",
"3	c #4A303C",
"4	c #442A36",
"5	c #452B37",
"6	c #3E2732",
"7	c #412835",
"8	c #402833",
"9	c #412734",
"0	c #3F2733",
"a	c #472F39",
"................+@@@                        @@@+................",
"................+@@@                        @@@+................",
"................+@@@                        @@@+................",
"................+@@@                        @@@+................",
"................+###                        @@@+................",
"................++++                        ###+................",
"................+@@@                        ++++.$%%%...........",
"................+@@@                        @@@+$$$$%%..........",
"................+@@@                        @@@++$++$%..........",
"................+@@@                        @@@++$++$$..........",
"................+@@@                        @@@+$+$$$&..........",
"................+###                        @@@+$.$&&&..........",
"................++++                        @@@+................",
"................+@@@                        @@@+................",
"................+@@@                        ++++.....$%%%.......",
"................+@@@                        ###+....$$$$%%......",
"................+@@@                        @@@+....+$++$%......",
"................+@@@                        @@@+....+$++$$......",
"................+@@@                        @@@+*...$+$$$&......",
"................+@@@                        @@@+=...$.$&&&......",
"................++++                        @@@+-.;;*...........",
"............*;;.+###                        ++++>,'')...........",
"............)''!+@@@                        ###+~{')>...........",
"............>]'^+@@@                        @@@+)/(>_*..........",
"...........*_>(/+@@@                        @@@+:'-<^)..........",
"...........)^<)'+@@@                        @@@+::[}|>..........",
"...........>|}^:+@@@                        @@@+::[*._;.........",
"..........*_._[:++++                        @@@+::')<^-.........",
"..........)^<)''+###                        ++++:1|2.(>*;;......",
".......;;;>(.2|(+@@@                        ###+:^~''^<''-......",
".......-''<-''~-+@@@                        @@@+:'3::^<'1>......",
".......>)'4^::3'+@@@                        @@@+[5'')>}|(}......",
".......}(|}>)'',+@@@                        @@@+:)6(>7.7........",
".........7.7>(/.+@@@                        @@@+::']............",
".............]''+@@@                        @@@+::)>....;;......",
".......;;....>]'++++                        ++++:[_....~'[......",
".......['~....>(+@@@                        ###+:[;...;^'^......",
".......^'^;....-+@@@                        @@@+::^;;;.6((......",
".......((6.;;;^:+@@@                        @@@+:::'{'''^.......",
"........^''{^'::+@@@                        @@@+:::18:::^.......",
"........':'8|1::+@@@                        @@@+::'^<'')>.......",
"........^'89.^':+@@@                        @@@+:10*}||(}.......",
"........(|};.*0a++++                        ++++>,'')...........",
"..........^'4*-:+###                        ###+~{')>...........",
"..........^'4)':+@@@                        @@@+)/(>_*..........",
"................+@@@                        @@@+:'-<^)..........",
"................+@@@                        @@@+::[}|>..........",
"................+@@@                        @@@+::[*._;.........",
"................+@@@                        @@@+::')<^-.........",
"................+###                        ++++:1|2.(>*;;......",
"................++++                        ###+:^~''^<''-......",
"................+@@@                        @@@+:'3::^<'1>......",
"................+@@@                        @@@+[5'')>}|(}......",
"................+@@@                        @@@+:)6(>7.7........",
"................+@@@                        @@@+::']............",
"................+@@@                        @@@+::)>....;;......",
"................+###                        ++++:[_....~'[......",
"................++++                        ###+:[;...;^'^......",
"................+@@@                        @@@+::^;;;.6((......",
"................+@@@                        @@@+:::'{'''^.......",
"................+@@@                        @@@+:::18:::^.......",
"................+@@@                        @@@+::'^<'')>.......",
"................+@@@                        @@@+:10*}||(}.......",
"................+@@@                        ++++::^;._.........."};
