/* XPM */
static char * wall_top_right_xpm[] = {
"64 64 4 1",
" 	c None",
".	c #756760",
"+	c #1C1117",
"@	c #94857E",
"                                                                ",
"                                                                ",
"                                                                ",
"                                                                ",
"                                                                ",
"                                                                ",
"                                                                ",
"                                                                ",
"                                                                ",
"                                                                ",
"                                                                ",
"                                                                ",
"                                                                ",
"                                                                ",
"                                                                ",
"                                                                ",
"                                                                ",
"                                                                ",
"                                                                ",
"                                                                ",
"                                                                ",
"                                                                ",
"                                                                ",
"                                                                ",
"                                                                ",
"                                                                ",
"                                                                ",
"                                                                ",
"                                                                ",
"                                                                ",
"                                                                ",
"...+                                                            ",
"...+                                                            ",
"@@@+                                                            ",
"++++                                                            ",
"...+                                                            ",
"...+                                                            ",
"...+                                                            ",
"...+                                                            ",
"...+                                                            ",
"...+                                                            ",
"...+                                                            ",
"...+                                                            ",
"@@@+                                                            ",
"++++                                                            ",
"...+                                                            ",
"...+                                                            ",
"...+                                                            ",
"...+                                                            ",
"...+                                                            ",
"...+                                                            ",
"@@@+                                                            ",
"++++                                                            ",
"...+                                                            ",
"...+                                                            ",
"...+                                                            ",
"...+                                                            ",
"...+                                                            ",
"...+                                                            ",
"...+                                                            ",
"...+                                                            ",
"@@@+                                                            ",
"++++                                                            ",
"...+                                                            "};
